<?xml version="1.0" encoding="UTF-8" standalone="no"?>
<!-- Created with Inkscape (http://www.inkscape.org/) -->

<svg
   xmlns:dc="http://purl.org/dc/elements/1.1/"
   xmlns:cc="http://creativecommons.org/ns#"
   xmlns:rdf="http://www.w3.org/1999/02/22-rdf-syntax-ns#"
   xmlns:svg="http://www.w3.org/2000/svg"
   xmlns="http://www.w3.org/2000/svg"
   xmlns:sodipodi="http://sodipodi.sourceforge.net/DTD/sodipodi-0.dtd"
   xmlns:inkscape="http://www.inkscape.org/namespaces/inkscape"
   width="66"
   height="76"
   viewBox="0 0 66.000001 76.000001"
   id="svg7136"
   version="1.1"
   inkscape:version="0.91 r13725"
   sodipodi:docname="about.svg">
  <defs
     id="defs7138">
    <clipPath
       clipPathUnits="userSpaceOnUse"
       id="clipPath866">
      <path
         d="m 0,595.28 841.89,0 L 841.89,0 0,0 0,595.28 Z"
         id="path868"
         inkscape:connector-curvature="0" />
    </clipPath>
  </defs>
  <sodipodi:namedview
     id="base"
     pagecolor="#ffffff"
     bordercolor="#666666"
     borderopacity="1.0"
     inkscape:pageopacity="0.0"
     inkscape:pageshadow="2"
     inkscape:zoom="11.2"
     inkscape:cx="-6.734221"
     inkscape:cy="39.59226"
     inkscape:document-units="px"
     inkscape:current-layer="layer1"
     showgrid="false"
     units="px"
     inkscape:window-width="1920"
     inkscape:window-height="1006"
     inkscape:window-x="0"
     inkscape:window-y="0"
     inkscape:window-maximized="1" />
  <metadata
     id="metadata7141">
    <rdf:RDF>
      <cc:Work
         rdf:about="">
        <dc:format>image/svg+xml</dc:format>
        <dc:type
           rdf:resource="http://purl.org/dc/dcmitype/StillImage" />
        <dc:title />
      </cc:Work>
    </rdf:RDF>
  </metadata>
  <g
     inkscape:label="Ebene 1"
     inkscape:groupmode="layer"
     id="layer1"
     transform="translate(0,-976.36216)">
    <g
       transform="matrix(1.25,0,0,-1.25,-901.03875,1107.7922)"
       id="g862">
      <g
         id="g864"
         clip-path="url(#clipPath866)">
        <path
           d="m 732.651,56.163 33.061,0 0,-3.672 -33.061,0 0,3.672 z m 36.732,40.406 0,-47.753 -38.569,0 c -3.042,0 -5.509,2.467 -5.509,5.511 0,3.042 2.467,5.509 5.509,5.509 l 34.897,0 0,44.079 -36.733,0 c -4.04,0 -7.347,-3.306 -7.347,-7.346 l 0,-44.078 c 0,-4.042 3.307,-7.347 7.347,-7.347 l 44.08,0 0,51.425 -3.675,0 z"
           style="fill:#ffffff;fill-opacity:1;fill-rule:nonzero;stroke:none"
           id="path870"
           inkscape:connector-curvature="0" />
      </g>
    </g>
    <g
       transform="translate(38.781879,956.77754)"
       style="font-style:normal;font-variant:normal;font-weight:normal;font-stretch:normal;font-size:15px;line-height:125%;font-family:Calibri;-inkscape-font-specification:Calibri;letter-spacing:0px;word-spacing:0px;fill:#000000;fill-opacity:1;stroke:none;stroke-width:1px;stroke-linecap:butt;stroke-linejoin:miter;stroke-opacity:1"
       id="flowRoot4145">
      <path
         d="m -23.91748,45.576152 q 0,0.666504 -0.249024,1.186524 -0.241699,0.520019 -0.681152,0.88623 -0.432129,0.358887 -1.025391,0.541992 -0.585937,0.183106 -1.26709,0.183106 -0.476074,0 -0.88623,-0.08057 -0.402832,-0.08057 -0.725098,-0.197753 -0.314941,-0.117188 -0.534668,-0.2417 -0.212402,-0.124511 -0.300293,-0.212402 -0.08057,-0.08789 -0.124511,-0.219727 -0.03662,-0.13916 -0.03662,-0.36621 0,-0.161133 0.01465,-0.263672 0.01465,-0.109864 0.04395,-0.175782 0.0293,-0.06592 0.07324,-0.08789 0.04395,-0.0293 0.102539,-0.0293 0.102539,0 0.285645,0.124512 0.19043,0.124511 0.483398,0.270996 0.292969,0.146484 0.703125,0.27832 0.417481,0.124512 0.959473,0.124512 0.410156,0 0.74707,-0.109864 0.344239,-0.109863 0.585938,-0.307617 0.249023,-0.205078 0.380859,-0.498047 0.131836,-0.292968 0.131836,-0.666504 0,-0.402832 -0.183105,-0.688476 -0.183106,-0.285645 -0.483399,-0.498047 -0.300293,-0.219727 -0.688476,-0.395508 -0.38086,-0.183105 -0.783692,-0.366211 -0.402832,-0.190429 -0.783691,-0.41748 -0.380859,-0.227051 -0.681152,-0.534668 -0.300293,-0.307617 -0.490723,-0.717774 -0.183106,-0.41748 -0.183106,-0.996093 0,-0.593262 0.212403,-1.054688 0.219726,-0.46875 0.600586,-0.783691 0.388183,-0.314942 0.915527,-0.476074 0.534668,-0.168457 1.149902,-0.168457 0.314942,0 0.629883,0.05859 0.322266,0.05127 0.600586,0.146485 0.285645,0.08789 0.505371,0.205078 0.219727,0.109863 0.285645,0.183105 0.07324,0.06592 0.09521,0.109864 0.02197,0.03662 0.03662,0.102539 0.01465,0.05859 0.02197,0.146484 0.0073,0.08789 0.0073,0.227051 0,0.131836 -0.01465,0.234375 -0.0073,0.102539 -0.0293,0.175781 -0.02197,0.06592 -0.06592,0.102539 -0.03662,0.0293 -0.08789,0.0293 -0.08057,0 -0.256348,-0.102539 -0.168457,-0.102539 -0.41748,-0.227051 -0.249024,-0.131836 -0.593262,-0.234375 -0.336914,-0.109863 -0.761719,-0.109863 -0.395508,0 -0.688476,0.109863 -0.292969,0.102539 -0.483399,0.27832 -0.19043,0.175782 -0.285644,0.417481 -0.09521,0.241699 -0.09521,0.512695 0,0.395508 0.183105,0.681153 0.183106,0.285644 0.483399,0.505371 0.307617,0.219726 0.6958,0.402832 0.388184,0.183105 0.791016,0.373535 0.402832,0.183105 0.791016,0.410156 0.388183,0.219727 0.688476,0.527344 0.307617,0.300293 0.490723,0.717773 0.19043,0.410156 0.19043,0.974121 z"
         style=""
         id="path4143" />
      <path
         d="m -16.270996,39.299297 q 0,0.13916 -0.01465,0.241699 -0.01465,0.102539 -0.05127,0.168457 -0.0293,0.05859 -0.08057,0.08789 -0.04395,0.0293 -0.10254,0.0293 l -2.666015,0 0,8.217773 q 0,0.05859 -0.0293,0.102539 -0.0293,0.04394 -0.102539,0.07324 -0.07324,0.02197 -0.197754,0.03662 -0.117187,0.02197 -0.300293,0.02197 -0.175781,0 -0.300293,-0.02197 -0.124512,-0.01465 -0.197754,-0.03662 -0.07324,-0.0293 -0.102539,-0.07324 -0.0293,-0.04395 -0.0293,-0.102539 l 0,-8.217773 -2.666015,0 q -0.05859,0 -0.109864,-0.0293 -0.04395,-0.0293 -0.07324,-0.08789 -0.0293,-0.06592 -0.05127,-0.168457 -0.01465,-0.102539 -0.01465,-0.241699 0,-0.13916 0.01465,-0.241699 0.02197,-0.109864 0.05127,-0.175782 0.0293,-0.06592 0.07324,-0.09521 0.05127,-0.0293 0.109864,-0.0293 l 6.591796,0 q 0.05859,0 0.10254,0.0293 0.05127,0.0293 0.08057,0.09521 0.03662,0.06592 0.05127,0.175782 0.01465,0.102539 0.01465,0.241699 z"
         style=""
         id="path4145" />
      <path
         d="m -8.9614258,47.788066 q 0.058594,0.161133 0.058594,0.263672 0.00732,0.09522 -0.05127,0.146485 -0.058594,0.05127 -0.1977539,0.06592 -0.1318359,0.01465 -0.3588867,0.01465 -0.2270508,0 -0.3662109,-0.01465 -0.1318359,-0.0073 -0.2050779,-0.0293 -0.06592,-0.0293 -0.102539,-0.07324 -0.0293,-0.04395 -0.05859,-0.109864 l -0.812988,-2.307129 -3.94043,0 -0.776367,2.277832 q -0.02197,0.06592 -0.05859,0.117188 -0.03662,0.04395 -0.109863,0.08057 -0.06592,0.0293 -0.197754,0.04395 -0.124512,0.01465 -0.32959,0.01465 -0.212402,0 -0.351562,-0.02197 -0.131836,-0.01465 -0.19043,-0.06592 -0.05127,-0.05127 -0.05127,-0.146484 0.0073,-0.102539 0.06592,-0.263672 l 3.178711,-8.803711 q 0.0293,-0.08057 0.07324,-0.131836 0.05127,-0.05127 0.139161,-0.08057 0.09521,-0.0293 0.234375,-0.03662 0.146484,-0.01465 0.36621,-0.01465 0.234375,0 0.388184,0.01465 0.153809,0.0073 0.249023,0.03662 0.09522,0.0293 0.146485,0.08789 0.05127,0.05127 0.08057,0.131835 l 3.1787112,8.803711 z m -4.0795902,-7.770996 -0.0073,0 -1.633301,4.724121 3.295899,0 -1.655274,-4.724121 z"
         style=""
         id="path4147" />
      <path
         d="m 2.918457,48.044414 q 0,0.05859 -0.029297,0.102539 -0.029297,0.04394 -0.1025391,0.07324 -0.073242,0.02197 -0.1904297,0.03662 -0.1098633,0.02197 -0.2929687,0.02197 -0.1684571,0 -0.2929688,-0.02197 -0.1171875,-0.01465 -0.1904297,-0.03662 -0.065918,-0.0293 -0.095215,-0.07324 -0.029297,-0.04395 -0.029297,-0.102539 l 0,-8.254394 -0.014648,0 -3.3764649,8.291015 q -0.021973,0.05127 -0.065918,0.08789 -0.036621,0.03662 -0.1171875,0.06592 -0.073242,0.02197 -0.1831055,0.0293 -0.1025391,0.01465 -0.2490235,0.01465 -0.1538086,0 -0.2636718,-0.01465 -0.1098633,-0.01465 -0.1831055,-0.03662 -0.073242,-0.0293 -0.1171875,-0.06592 -0.036621,-0.03662 -0.05127,-0.08057 L -6.15625,39.79002 l -0.00732,0 0,8.254394 q 0,0.05859 -0.029297,0.102539 -0.029297,0.04394 -0.1025391,0.07324 -0.073242,0.02197 -0.1904296,0.03662 -0.1171875,0.02197 -0.300293,0.02197 -0.1757813,0 -0.2929688,-0.02197 -0.1171875,-0.01465 -0.1904296,-0.03662 -0.065918,-0.0293 -0.095215,-0.07324 -0.021973,-0.04395 -0.021973,-0.102539 l 0,-8.71582 q 0,-0.307617 0.1611328,-0.439453 0.1611328,-0.131836 0.3588867,-0.131836 l 0.7617187,0 q 0.234375,0 0.4101563,0.04395 0.1757812,0.04394 0.3076172,0.13916 0.1318359,0.09522 0.2197265,0.241699 0.087891,0.146485 0.1538086,0.344239 l 2.7465821,6.862793 0.036621,0 2.85644536,-6.840821 q 0.0805664,-0.219726 0.17578125,-0.373535 0.0952148,-0.153808 0.20507809,-0.241699 0.1171875,-0.09522 0.2563477,-0.131836 0.1391601,-0.04395 0.3222656,-0.04395 l 0.7983399,0 q 0.1098632,0 0.2050781,0.03662 0.1025391,0.0293 0.168457,0.102539 0.073242,0.06592 0.1171875,0.175781 0.043945,0.102539 0.043945,0.256348 l 0,8.71582 z"
         style=""
         id="path4149" />
      <path
         d="m 11.268066,41.533184 q 0,0.710449 -0.234375,1.281738 -0.234375,0.571289 -0.673828,0.974121 -0.4321286,0.402832 -1.0693357,0.622559 -0.6298828,0.219726 -1.508789,0.219726 l -1.0766602,0 0,3.413086 q 0,0.05859 -0.036621,0.102539 -0.029297,0.04394 -0.102539,0.07324 -0.065918,0.02197 -0.1904297,0.03662 -0.1171875,0.02197 -0.300293,0.02197 -0.1831055,0 -0.3076172,-0.02197 -0.1171875,-0.01465 -0.1904297,-0.03662 -0.073242,-0.0293 -0.102539,-0.07324 -0.029297,-0.04395 -0.029297,-0.102539 l 0,-8.745117 q 0,-0.292969 0.1538086,-0.417481 0.1538086,-0.124511 0.3442383,-0.124511 l 2.0288086,0 q 0.3076172,0 0.5859375,0.0293 0.2856445,0.02197 0.6665039,0.109863 0.3881836,0.08057 0.7836916,0.314941 0.402832,0.227051 0.681152,0.563965 0.27832,0.336914 0.424805,0.783691 0.153808,0.439454 0.153808,0.974122 z m -1.3256832,0.102539 q 0,-0.578614 -0.2197265,-0.966797 Q 9.5102539,40.280742 9.1879883,40.090312 8.8730469,39.899883 8.5288086,39.848613 8.1918945,39.797344 7.8696289,39.797344 l -1.1645508,0 0,3.801269 1.1352539,0 q 0.5712891,0 0.9448243,-0.146484 0.3808593,-0.146484 0.637207,-0.402832 0.2563476,-0.263672 0.3881836,-0.622559 0.1318359,-0.366211 0.1318359,-0.791015 z"
         style=""
         id="path4151" />
    </g>
  </g>
</svg>
