<?xml version="1.0" encoding="UTF-8" standalone="no"?>
<!-- Created with Inkscape (http://www.inkscape.org/) -->

<svg
   xmlns:dc="http://purl.org/dc/elements/1.1/"
   xmlns:cc="http://creativecommons.org/ns#"
   xmlns:rdf="http://www.w3.org/1999/02/22-rdf-syntax-ns#"
   xmlns:svg="http://www.w3.org/2000/svg"
   xmlns="http://www.w3.org/2000/svg"
   xmlns:sodipodi="http://sodipodi.sourceforge.net/DTD/sodipodi-0.dtd"
   xmlns:inkscape="http://www.inkscape.org/namespaces/inkscape"
   width="66"
   height="76"
   viewBox="0 0 66.000001 76.000001"
   id="svg7136"
   version="1.1"
   inkscape:version="0.91 r13725"
   sodipodi:docname="about.svg">
  <defs
     id="defs7138">
    <clipPath
       clipPathUnits="userSpaceOnUse"
       id="clipPath866">
      <path
         d="m 0,595.28 841.89,0 L 841.89,0 0,0 0,595.28 Z"
         id="path868"
         inkscape:connector-curvature="0" />
    </clipPath>
  </defs>
  <sodipodi:namedview
     id="base"
     pagecolor="#ffffff"
     bordercolor="#666666"
     borderopacity="1.0"
     inkscape:pageopacity="0.0"
     inkscape:pageshadow="2"
     inkscape:zoom="7.9195959"
     inkscape:cx="20.099434"
     inkscape:cy="36.132197"
     inkscape:document-units="px"
     inkscape:current-layer="layer1"
     showgrid="false"
     units="px"
     inkscape:window-width="1920"
     inkscape:window-height="998"
     inkscape:window-x="0"
     inkscape:window-y="0"
     inkscape:window-maximized="1" />
  <metadata
     id="metadata7141">
    <rdf:RDF>
      <cc:Work
         rdf:about="">
        <dc:format>image/svg+xml</dc:format>
        <dc:type
           rdf:resource="http://purl.org/dc/dcmitype/StillImage" />
        <dc:title></dc:title>
      </cc:Work>
    </rdf:RDF>
  </metadata>
  <g
     inkscape:label="Ebene 1"
     inkscape:groupmode="layer"
     id="layer1"
     transform="translate(0,-976.36216)">
    <g
       transform="matrix(1.25,0,0,-1.25,-901.03875,1107.7922)"
       id="g862">
      <g
         id="g864"
         clip-path="url(#clipPath866)">
        <path
           d="m 732.651,56.163 33.061,0 0,-3.672 -33.061,0 0,3.672 z m 36.732,40.406 0,-47.753 -38.569,0 c -3.042,0 -5.509,2.467 -5.509,5.511 0,3.042 2.467,5.509 5.509,5.509 l 34.897,0 0,44.079 -36.733,0 c -4.04,0 -7.347,-3.306 -7.347,-7.346 l 0,-44.078 c 0,-4.042 3.307,-7.347 7.347,-7.347 l 44.08,0 0,51.425 -3.675,0 z"
           style="fill:#ffffff;fill-opacity:1;fill-rule:nonzero;stroke:none"
           id="path870"
           inkscape:connector-curvature="0" />
      </g>
    </g>
    <g
       transform="translate(54.821429,1002.6121)"
       style="font-style:normal;font-variant:normal;font-weight:normal;font-stretch:normal;font-size:16.25px;line-height:125%;font-family:Calibri;-inkscape-font-specification:Calibri;letter-spacing:0px;word-spacing:0px;fill:#000000;fill-opacity:1;stroke:none;stroke-width:1px;stroke-linecap:butt;stroke-linejoin:miter;stroke-opacity:1"
       id="flowRoot7746">
      <path
         d="m -32.713989,3.0173535 q 0,0.1824951 -0.0238,0.3015137 -0.01587,0.1269531 -0.05554,0.1904297 -0.03967,0.071411 -0.08728,0.095215 -0.04761,0.023804 -0.09522,0.023804 -0.158691,0 -0.515747,-0.1348877 -0.349121,-0.1269531 -0.809326,-0.3808593 -0.460205,-0.2459717 -0.983887,-0.6030274 -0.523682,-0.3570556 -1.015625,-0.8331299 -0.388794,0.2380371 -0.983887,0.4125977 -0.595093,0.1745605 -1.380615,0.1745605 -1.158447,0 -2.007446,-0.3411865 -0.841065,-0.3411865 -1.396485,-0.99975585 -0.547485,-0.65856933 -0.81726,-1.63452148 -0.269776,-0.98388667 -0.269776,-2.25341797 0,-1.2219238 0.293579,-2.2058105 0.293579,-0.9918213 0.880738,-1.682129 0.587158,-0.6982421 1.467895,-1.0711669 0.880737,-0.3808594 2.055054,-0.3808594 1.102905,0 1.936035,0.3411865 0.841064,0.3411865 1.404419,0.9997559 0.571289,0.6506347 0.856934,1.6107177 0.285644,0.960083 0.285644,2.2058106 0,0.6427002 -0.07935,1.2298584 -0.07141,0.5871582 -0.238037,1.11083983 -0.158691,0.52368164 -0.404663,0.96801757 -0.245972,0.44433594 -0.579223,0.8013916 0.579223,0.4760742 1.015625,0.7458496 0.436401,0.2618408 0.722045,0.3967285 0.285645,0.1348877 0.444336,0.1904297 0.158692,0.063477 0.238037,0.1348877 0.07935,0.079346 0.111084,0.2142334 0.03174,0.1428223 0.03174,0.3729248 z m -2.697754,-6.0699463 q 0,-0.8728027 -0.158692,-1.6186523 -0.150756,-0.7458496 -0.515747,-1.293335 -0.357055,-0.5554199 -0.960083,-0.8648681 -0.603027,-0.3094483 -1.491699,-0.3094483 -0.888672,0 -1.491699,0.333252 -0.603027,0.3253174 -0.983887,0.8886718 -0.372925,0.55542 -0.539551,1.293335 -0.158691,0.737915 -0.158691,1.5631104 0,0.904541 0.150757,1.6662597 0.150757,0.7537842 0.507812,1.30920412 0.357056,0.55541993 0.952149,0.86486817 0.603027,0.30151371 1.507568,0.30151371 0.896607,0 1.507569,-0.33325199 0.610961,-0.33325196 0.983886,-0.89660645 0.372925,-0.57128906 0.531616,-1.31713866 0.158692,-0.7537842 0.158692,-1.5869141 z"
         style=""
         id="path7755" />
      <path
         d="m -26.112427,-0.76743652 q 0,0.7220459 -0.269775,1.28540039 -0.261841,0.56335453 -0.737915,0.96008303 -0.46814,0.3887939 -1.11084,0.5871582 -0.634766,0.1983642 -1.372681,0.1983642 -0.515747,0 -0.960083,-0.08728 -0.436401,-0.08728 -0.785522,-0.2142334 -0.341187,-0.1269532 -0.579224,-0.2618409 -0.230102,-0.1348877 -0.325317,-0.2301025 -0.08728,-0.095215 -0.134888,-0.2380371 -0.03967,-0.1507568 -0.03967,-0.39672852 0,-0.17456055 0.01587,-0.28564453 0.01587,-0.11901856 0.04761,-0.19042969 0.03174,-0.0714111 0.07935,-0.0952148 0.04761,-0.0317383 0.111084,-0.0317383 0.111084,0 0.309448,0.13488769 0.206299,0.1348877 0.523681,0.2935791 0.317383,0.15869141 0.761719,0.30151367 0.452271,0.1348877 1.039429,0.1348877 0.444336,0 0.809326,-0.11901855 0.372925,-0.11901856 0.634766,-0.33325196 0.269775,-0.22216797 0.412597,-0.53955078 0.142823,-0.31738281 0.142823,-0.7220459 0,-0.43640141 -0.198365,-0.74584961 -0.198364,-0.3094482 -0.523681,-0.5395508 -0.325318,-0.2380371 -0.74585,-0.4284668 -0.412598,-0.1983642 -0.848999,-0.3967285 -0.436401,-0.2062988 -0.848999,-0.4522705 -0.412598,-0.2459717 -0.737915,-0.5792236 -0.325317,-0.333252 -0.531616,-0.7775879 -0.198364,-0.4522705 -0.198364,-1.0791016 0,-0.6427002 0.230102,-1.1425781 0.238037,-0.5078125 0.650635,-0.848999 0.420532,-0.3411866 0.991821,-0.5157471 0.579224,-0.1824951 1.245728,-0.1824951 0.341186,0 0.682373,0.063477 0.349121,0.055542 0.650634,0.1586914 0.309449,0.095215 0.547486,0.222168 0.238037,0.1190186 0.309448,0.1983643 0.07935,0.071411 0.103149,0.1190185 0.0238,0.039673 0.03967,0.111084 0.01587,0.063477 0.0238,0.1586914 0.0079,0.095215 0.0079,0.2459717 0,0.1428223 -0.01587,0.2539063 -0.0079,0.1110839 -0.03174,0.1904296 -0.0238,0.071411 -0.07141,0.111084 -0.03967,0.031738 -0.09521,0.031738 -0.08728,0 -0.27771,-0.111084 -0.182495,-0.111084 -0.45227,-0.2459717 -0.269776,-0.1428222 -0.6427,-0.2539062 -0.364991,-0.1190186 -0.825196,-0.1190186 -0.428467,0 -0.745849,0.1190186 -0.317383,0.111084 -0.523682,0.3015137 -0.206299,0.1904296 -0.309448,0.4522705 -0.10315,0.2618408 -0.10315,0.5554199 0,0.4284668 0.198365,0.737915 0.198364,0.3094483 0.523681,0.5474854 0.333252,0.2380371 0.753784,0.4364013 0.420533,0.1983643 0.856934,0.4046631 0.436401,0.1983643 0.856934,0.444336 0.420532,0.2380371 0.745849,0.571289 0.333252,0.3253174 0.531616,0.7775879 0.206299,0.444336 0.206299,1.05529788 z"
         style=""
         id="path7757" />
      <path
         d="m -16.27356,-3.1716113 q 0,1.3330078 -0.341186,2.33276364 -0.341187,0.99182129 -0.999756,1.65039063 -0.650635,0.65063473 -1.602783,0.97595213 -0.952149,0.3253174 -2.269287,0.3253174 l -2.174073,0 q -0.182495,0 -0.349121,-0.1190186 -0.158691,-0.1269531 -0.158691,-0.4364013 l 0,-9.1564942 q 0,-0.3094482 0.158691,-0.4284668 0.166626,-0.1269531 0.349121,-0.1269531 l 2.32483,0 q 1.333007,0 2.253418,0.3491211 0.92041,0.3411865 1.539306,0.9918213 0.626831,0.6427002 0.944214,1.5631104 0.325317,0.9204101 0.325317,2.0788574 z m -1.436157,0.055542 q 0,-0.8331299 -0.206299,-1.5472412 -0.206298,-0.7220459 -0.650634,-1.2457276 -0.436402,-0.5236816 -1.11084,-0.8172607 -0.674439,-0.2935791 -1.737671,-0.2935791 l -1.38855,0 0,7.99011228 1.404419,0 q 0.983887,0 1.658325,-0.24597168 0.674439,-0.24597168 1.126709,-0.75378418 0.452271,-0.5078125 0.674439,-1.26953122 0.230102,-0.7696534 0.230102,-1.8170166 z"
         style=""
         id="path7759" />
      <path
         d="m -7.40271,-0.83091309 q 0,0.48400879 -0.1269531,0.89660645 -0.1190185,0.40466309 -0.3411865,0.72998047 -0.222168,0.32531737 -0.5395508,0.57128907 -0.3094482,0.2459717 -0.7061767,0.4125976 -0.388794,0.166626 -0.8410645,0.2539063 -0.4443364,0.079346 -1.0235594,0.079346 l -2.681885,0 q -0.182495,0 -0.349121,-0.1190186 -0.158691,-0.1269531 -0.158691,-0.4364013 l 0,-9.1564942 q 0,-0.3094482 0.158691,-0.4284668 0.166626,-0.1269531 0.349121,-0.1269531 l 2.332764,0 q 0.92041,0 1.5075681,0.1745606 0.5871582,0.1745605 0.9759521,0.5078125 0.3967286,0.3332519 0.5950928,0.8172607 0.1983643,0.4840088 0.1983643,1.0949707 0,0.3649902 -0.08728,0.6982422 -0.08728,0.3332519 -0.2618408,0.6188965 -0.166626,0.2777099 -0.4284668,0.4998779 -0.2539063,0.222168 -0.5871582,0.3649902 0.4205322,0.079346 0.7855224,0.2935791 0.3649903,0.2062989 0.6347657,0.5316163 0.2777099,0.3253173 0.4364013,0.7617187 0.1586914,0.4364014 0.1586914,0.96008301 z M -9.4577637,-5.4250293 q 0,-0.3729248 -0.1031494,-0.6744385 -0.1031494,-0.3015136 -0.3253174,-0.5078125 -0.2221675,-0.2142334 -0.5792235,-0.3253174 -0.357056,-0.1110839 -0.944214,-0.1110839 l -1.412353,0 0,3.3245849 1.555175,0 q 0.531617,0 0.856934,-0.1348877 0.325317,-0.1428222 0.5395507,-0.3729248 0.2142334,-0.2380371 0.3094482,-0.5474853 0.1031494,-0.3173828 0.1031494,-0.6506348 z m 0.6188965,4.67346192 q 0,-0.46020512 -0.1507568,-0.80932622 -0.1428223,-0.349121 -0.4284668,-0.5871582 -0.27771,-0.2380371 -0.7061772,-0.3570556 -0.420532,-0.1269531 -1.063232,-0.1269531 l -1.634521,0 0,3.61816402 1.983642,0 q 0.46814,0 0.817261,-0.11108399 0.3491209,-0.11108398 0.6109617,-0.32531738 0.2697754,-0.22216797 0.4205323,-0.54748535 0.1507568,-0.32531739 0.1507568,-0.75378418 z"
         style=""
         id="path7761" />
    </g>
  </g>
</svg>
