<?xml version="1.0" encoding="UTF-8" standalone="no"?>
<!-- Created with Inkscape (http://www.inkscape.org/) -->

<svg
   xmlns:dc="http://purl.org/dc/elements/1.1/"
   xmlns:cc="http://creativecommons.org/ns#"
   xmlns:rdf="http://www.w3.org/1999/02/22-rdf-syntax-ns#"
   xmlns:svg="http://www.w3.org/2000/svg"
   xmlns="http://www.w3.org/2000/svg"
   xmlns:sodipodi="http://sodipodi.sourceforge.net/DTD/sodipodi-0.dtd"
   xmlns:inkscape="http://www.inkscape.org/namespaces/inkscape"
   width="78"
   height="66"
   viewBox="0 0 78.000001 66.000001"
   id="svg8563"
   version="1.1"
   inkscape:version="0.91 r13725"
   sodipodi:docname="accession-search.svg">
  <defs
     id="defs8565">
    <clipPath
       clipPathUnits="userSpaceOnUse"
       id="clipPath880">
      <path
         d="m 0,595.28 841.89,0 L 841.89,0 0,0 0,595.28 Z"
         id="path882"
         inkscape:connector-curvature="0" />
    </clipPath>
  </defs>
  <sodipodi:namedview
     id="base"
     pagecolor="#ffffff"
     bordercolor="#666666"
     borderopacity="1.0"
     inkscape:pageopacity="0.0"
     inkscape:pageshadow="2"
     inkscape:zoom="2.8"
     inkscape:cx="84.234191"
     inkscape:cy="87.782403"
     inkscape:document-units="px"
     inkscape:current-layer="layer1"
     showgrid="false"
     units="px"
     inkscape:window-width="1920"
     inkscape:window-height="998"
     inkscape:window-x="0"
     inkscape:window-y="0"
     inkscape:window-maximized="1" />
  <metadata
     id="metadata8568">
    <rdf:RDF>
      <cc:Work
         rdf:about="">
        <dc:format>image/svg+xml</dc:format>
        <dc:type
           rdf:resource="http://purl.org/dc/dcmitype/StillImage" />
        <dc:title></dc:title>
      </cc:Work>
    </rdf:RDF>
  </metadata>
  <g
     inkscape:label="Ebene 1"
     inkscape:groupmode="layer"
     id="layer1"
     transform="translate(0,-986.36216)">
    <g
       transform="matrix(1.25,0,0,-1.25,-485.53625,1117.1986)"
       id="g876">
      <g
         id="g878"
         clip-path="url(#clipPath880)">
        <g
           id="g884"
           transform="translate(436.075,55.7721)">
          <path
             d="M 0,0 -3.245,0 C -0.65,6.2 0.101,17 0.27,20.167 l 6.423,0 c 0.382,-0.161 0.814,-0.163 1.201,0 l 0.305,0 C 7.501,15.685 5.287,4.602 0,0 m -40.924,20.167 8.091,0 C -32.646,16.789 -31.866,6.077 -29.257,0 l -3.469,0 c -5.287,4.602 -7.5,15.685 -8.198,20.167 m 30.534,0 7.861,0 C -2.724,16.73 -3.574,5.146 -6.325,0 l -4.065,0 0,20.167 z M -21.714,0 -26.157,0 c -2.778,4.986 -3.662,16.502 -3.877,20.167 l 8.32,0 0,-20.167 z m 2.791,20.167 5.741,0 0,-20.167 -5.741,0 0,20.167 z m 32.578,6.515 -8.663,0 -13.976,16.402 c 0.199,0.439 0.313,0.926 0.313,1.44 0,1.928 -1.563,3.491 -3.491,3.491 -1.928,0 -3.49,-1.563 -3.49,-3.491 0,-1.928 1.562,-3.491 3.49,-3.491 0.266,0 0.524,0.033 0.773,0.089 l 12.306,-14.44 -36.063,0 12.503,14.673 c 0.249,-0.056 0.507,-0.089 0.773,-0.089 1.928,0 3.491,1.563 3.491,3.491 0,1.928 -1.563,3.49 -3.491,3.49 -1.928,0 -3.49,-1.562 -3.49,-3.49 0,-0.514 0.114,-1 0.313,-1.44 l -14.175,-16.635 -7.624,0 0,-6.515 3.09,0 c 0.67,-4.579 3.086,-17.404 9.631,-22.632 l 0,-0.638 35.991,0 0,1.021 c 6.196,5.451 8.51,17.78 9.164,22.249 l 2.625,0 0,6.515 z"
             style="fill:#ffffff;fill-opacity:1;fill-rule:nonzero;stroke:none"
             id="path886"
             inkscape:connector-curvature="0" />
        </g>
      </g>
    </g>
  </g>
</svg>
