<?xml version="1.0" encoding="UTF-8" standalone="no"?>
<!-- Created with Inkscape (http://www.inkscape.org/) -->

<svg
   xmlns:dc="http://purl.org/dc/elements/1.1/"
   xmlns:cc="http://creativecommons.org/ns#"
   xmlns:rdf="http://www.w3.org/1999/02/22-rdf-syntax-ns#"
   xmlns:svg="http://www.w3.org/2000/svg"
   xmlns="http://www.w3.org/2000/svg"
   xmlns:sodipodi="http://sodipodi.sourceforge.net/DTD/sodipodi-0.dtd"
   xmlns:inkscape="http://www.inkscape.org/namespaces/inkscape"
   id="svg2"
   version="1.1"
   inkscape:version="0.91 r13725"
   xml:space="preserve"
   width="669"
   height="630"
   viewBox="0 0 668.99997 630"
   sodipodi:docname="cell2.svg"><metadata
     id="metadata8"><rdf:RDF><cc:Work
         rdf:about=""><dc:format>image/svg+xml</dc:format><dc:type
           rdf:resource="http://purl.org/dc/dcmitype/StillImage" /><dc:title></dc:title></cc:Work></rdf:RDF></metadata><defs
     id="defs6"><clipPath
       clipPathUnits="userSpaceOnUse"
       id="clipPath16"><path
         d="m 0,595.28 841.89,0 L 841.89,0 0,0 0,595.28 Z"
         id="path18"
         inkscape:connector-curvature="0" /></clipPath></defs><sodipodi:namedview
     pagecolor="#ffffff"
     bordercolor="#666666"
     borderopacity="1"
     objecttolerance="10"
     gridtolerance="10"
     guidetolerance="10"
     inkscape:pageopacity="0"
     inkscape:pageshadow="2"
     inkscape:window-width="1920"
     inkscape:window-height="998"
     id="namedview4"
     showgrid="false"
     inkscape:zoom="0.8970687"
     inkscape:cx="135.3295"
     inkscape:cy="348.28995"
     inkscape:window-x="0"
     inkscape:window-y="0"
     inkscape:window-maximized="1"
     inkscape:current-layer="g10" /><g
     id="g10"
     inkscape:groupmode="layer"
     inkscape:label="Zellbuttonless complex-1"
     transform="matrix(1.25,0,0,-1.25,0,630.00002)"><g
       id="g32"
       transform="translate(513.3327,138.04912)"
       style="stroke:#ffffff;stroke-opacity:1;stroke-width:16;stroke-miterlimit:4;stroke-dasharray:none"><path
         d="m 0,0 c 0,-65.851 -71.66,-119.234 -160.057,-119.234 l -173.395,0 c -88.397,0 -160.057,53.383 -160.057,119.234 l 0,226.629 c 0,65.851 71.66,119.233 160.057,119.233 l 173.395,0 C -71.66,345.862 0,292.48 0,226.629 L 0,0 Z"
         style="fill:none;stroke:#ffffff;stroke-width:16;stroke-linecap:butt;stroke-linejoin:miter;stroke-miterlimit:4;stroke-dasharray:none;stroke-opacity:1"
         id="path34"
         inkscape:connector-curvature="0" /></g><g
       id="g44"
       transform="translate(272.7274,251.88882)"
       style="stroke:#ffffff;stroke-opacity:1"><path
         d="m 0,0 c 0,-23.221 -18.825,-42.046 -42.046,-42.046 -23.222,0 -42.046,18.825 -42.046,42.046 0,23.221 18.824,42.046 42.046,42.046 C -18.825,42.046 0,23.221 0,0 Z"
         style="fill:none;stroke:#ffffff;stroke-width:6;stroke-linecap:butt;stroke-linejoin:miter;stroke-miterlimit:10;stroke-dasharray:none;stroke-opacity:1"
         id="path46"
         inkscape:connector-curvature="0" /></g><g
       id="g52"
       transform="translate(59.9639,305.69422)"
       style="stroke:#ffffff;stroke-opacity:1"><path
         d="m 0,0 c -1.756,4.06 -2.367,8.053 -2.146,11.956 0.111,1.952 0.43,3.881 0.919,5.785 8.778,30.55 28.004,55.45 52.777,74.724 2.063,1.743 4.158,3.451 6.282,5.126 2.124,1.674 4.276,3.315 6.453,4.923 2.352,1.571 4.816,2.972 7.435,4.129 2.618,1.156 5.392,2.068 8.35,2.682 12.791,2.268 20.811,-11.653 21.538,-22.151 0.164,-2.886 -0.204,-5.546 -0.972,-8.034 -0.77,-2.486 -1.94,-4.8 -3.39,-6.988 -1.898,-1.663 -3.794,-3.347 -5.68,-5.05 -2.122,-1.507 -4.19,-3.077 -6.203,-4.708 -2.013,-1.63 -3.972,-3.32 -5.875,-5.068 C 64.285,43.127 52.851,25.458 44.437,6.236 43.374,3.855 42.349,1.445 41.361,-0.993 39.865,-3.156 38.263,-5.231 36.488,-7.173 28.853,-15.63 16.123,-13.529 8.462,-6.034 4.01,-3.045 0,0 0,0 Z"
         style="fill:none;stroke:#ffffff;stroke-width:5.49900007;stroke-linecap:butt;stroke-linejoin:miter;stroke-miterlimit:10;stroke-dasharray:none;stroke-opacity:1"
         id="path54"
         inkscape:connector-curvature="0" /></g><g
       id="g60"
       transform="translate(68.2565,313.11722)"
       style="stroke:#ffffff;stroke-opacity:1"><path
         d="m 0,0 c 2.919,2.713 0.905,8.684 -3.84,6.828 0.91,2.609 4.053,2.39 4.272,5.534 -0.157,1.225 -1.541,2.293 -2.766,2.136 1.917,-0.377 5.06,-0.596 5.437,1.322 0.376,1.917 -0.097,5.594 -2.172,7.197 1.918,-0.377 4.527,-1.287 5.595,0.096 3.204,4.15 2.95,10.97 4.395,14.271 3.58,6.067 9.079,11.758 10.05,18.736 0.158,-1.225 0.316,-2.451 1.541,-2.294 5.437,1.323 5.341,6.917 5.936,11.978 7.293,-3.424 13.168,4.185 16.907,9.027 l 0.157,-1.226 c 2.136,2.766 3.047,5.376 2.04,8.361 1.541,-2.294 4.684,-2.513 6.444,-1.663 2.294,1.541 3.581,6.067 0.28,7.512 0.315,-2.452 1.164,-4.212 3.082,-4.588 2.985,1.007 4.964,4.999 3.957,7.985 -0.219,-3.143 1.856,-4.746 2.171,-7.197 3.678,0.473 3.205,4.15 5.499,5.691 -1.602,-2.075 -1.287,-4.527 -2.095,-7.568 0.746,-0.614 3.193,0.392 7.045,3.478 -2.665,-4.002 -3.776,-5.916 -2.924,-6.475 0.852,-0.56 3.619,0.3 7.827,2.689 -3.612,-2.849 -5.21,-4.388 -4.529,-5.389 2.696,-0.656 5.305,-1.566 8.448,-1.785 -2.294,-1.541 -4.903,-0.631 -6.663,-1.48 -3.896,-3.616 2.548,-5.279 4.465,-5.656 -2.985,-1.007 -6.601,2.889 -8.895,1.349 -2.828,-2.233 0.788,-6.129 2.329,-8.423 -1.996,0.989 -3.874,1.059 -5.713,0.823 -1.838,-0.236 -3.638,-0.779 -5.478,-1.017 0.002,10e-4 0.694,-0.533 0.694,-0.533 -4.746,-1.856 -10.717,-3.87 -11.846,-9.622 0.157,-1.226 -1.13,-5.752 4.999,-4.964 -4.211,-1.165 -8.204,0.814 -12.572,0.875 -2.452,-0.315 -3.362,-2.924 -3.739,-4.841 -0.219,-3.143 3.459,-2.671 4.842,-3.739 -5.061,0.596 -9.43,0.657 -11.942,-4.027 -3.205,-4.15 1.103,-8.58 5.253,-11.785 C 31.137,20.671 28.563,11.618 26.899,5.174 27.057,3.948 28.44,2.88 29.824,1.812 c -2.609,0.91 -5.061,0.595 -5.55,-1.803 -1.01,-1.688 -1.174,-4.046 -0.325,-5.806 -0.158,1.226 -1.541,2.294 -2.767,2.137 -1.602,-2.075 -2.67,-3.459 -3.581,-6.068 -1.164,4.212 -4.465,5.656 -7.793,2.155 1.863,5.166 0.208,6.904 -4.904,3.787 C 6.445,2.087 4.429,3.293 0,0 Z"
         style="fill:none;stroke:#ffffff;stroke-width:2.20000005;stroke-linecap:butt;stroke-linejoin:miter;stroke-miterlimit:10;stroke-dasharray:none;stroke-opacity:1"
         id="path62"
         inkscape:connector-curvature="0" /></g><g
       id="g64"
       transform="translate(407.6424,393.71482)"
       style="fill:none;stroke:#ffffff;stroke-opacity:1"><path
         d="M 0,0 C -16.086,-7.5 -32.754,-1.873 -49.106,8.488 -65.838,18.945 -70.776,25 -81.954,37.917 c -3.811,4.562 0.18,14.371 8.687,8.856 5.223,-3.229 6.646,-6.939 19.947,-20.868 13.07,-13.871 30.089,-13.814 43.599,-8.087 13.705,5.704 20.801,8.23 24.124,-0.772 C 14.565,11.713 12.573,5.484 0,0"
         style="fill:none;fill-opacity:1;fill-rule:evenodd;stroke:#ffffff;stroke-width:6;stroke-linecap:butt;stroke-linejoin:miter;stroke-miterlimit:10;stroke-dasharray:none;stroke-opacity:1"
         id="path66"
         inkscape:connector-curvature="0" /></g><g
       id="g72"
       transform="translate(258.1363,430.36392)"
       style="fill:none;stroke:#ffffff;stroke-opacity:1"><path
         d="M 0,0 C 0.206,12.77 15.269,16.237 30.51,7.57 46,-0.909 68.786,-30.844 96.326,-44.543 c 27.195,-14.091 39.592,-18.643 66.566,-8.018 26.368,10.802 54.119,29.696 62.679,18.35 7.986,-10.95 -7.692,-10.888 -20.673,-12.94 -13.121,-2.52 -37.936,-13.209 -52.486,-16.328 -14.662,-3.568 -38.28,-1.737 -58.682,10.394 C 73.698,-41.273 57.906,-27.126 38.576,-22.771 19.042,-18.339 -0.168,-13.51 0,0"
         style="fill:none;fill-opacity:1;fill-rule:evenodd;stroke:#ffffff;stroke-width:6;stroke-linecap:butt;stroke-linejoin:miter;stroke-miterlimit:10;stroke-dasharray:none;stroke-opacity:1"
         id="path74"
         inkscape:connector-curvature="0" /></g><g
       id="g80"
       transform="translate(276.2028,447.68622)"
       style="fill:none;stroke:#ffffff;stroke-opacity:1"><path
         d="m 0,0 c 16.492,-0.274 33.797,-21.116 47.004,-34.366 13.267,-13.013 21.4,-6.335 12.866,1.618 -8.284,7.16 -22.823,21.977 -33.091,33.281 -8.648,9.188 -17.925,14.185 -27.676,18.094 -9.85,4.412 -25.307,7.82 -25.482,-5.711 C -26.172,2.683 -14.279,-1.262 0,0"
         style="fill:none;fill-opacity:1;fill-rule:evenodd;stroke:#ffffff;stroke-width:6;stroke-linecap:butt;stroke-linejoin:miter;stroke-miterlimit:10;stroke-dasharray:none;stroke-opacity:1"
         id="path82"
         inkscape:connector-curvature="0" /></g><g
       id="g88"
       transform="translate(346.2612,400.36242)"
       style="fill:none;stroke:#ffffff;stroke-opacity:1"><path
         d="m 0,0 c 0.431,5.192 30.397,-14.424 41.801,-14.377 11.21,0.071 31.342,1.29 51.312,25.058 10.992,11.254 15.556,10.584 21.37,2.842 C 119.679,5.912 107.154,-1.088 97.898,-7.93 89.02,-14.164 63.528,-25.641 48.452,-24.765 33.404,-23.871 -1.969,-4.353 0,0"
         style="fill:none;fill-opacity:1;fill-rule:evenodd;stroke:#ffffff;stroke-width:6;stroke-linecap:butt;stroke-linejoin:miter;stroke-miterlimit:10;stroke-dasharray:none;stroke-opacity:1"
         id="path90"
         inkscape:connector-curvature="0" /></g><g
       id="g100"
       transform="translate(364.77439,442.52629)"
       style="fill:none;stroke:#ffffff;stroke-opacity:1"><path
         d="m 0,0 c -6.461,-12.828 0.788,-20.909 10.053,-22.761 9.383,-1.378 15.985,-2.56 20.558,4.459 4.291,7.593 -3.085,22.944 -10.61,24.836 C 13.111,8.266 4.672,6.517 0,0"
         style="fill:none;fill-opacity:1;fill-rule:nonzero;stroke:#ffffff;stroke-width:6;stroke-linecap:butt;stroke-linejoin:round;stroke-miterlimit:10;stroke-dasharray:none;stroke-opacity:1"
         id="path102"
         inkscape:connector-curvature="0" /></g><g
       id="g104"
       transform="translate(240.5736,385.01892)"
       style="fill:none;stroke:#ffffff;stroke-opacity:1"><path
         d="m 0,0 c -4.14,-12.992 30.632,-19.315 42.812,-18.749 12.451,0.75 34.106,-4.694 50.244,-14.067 16.213,-9.165 25.667,-16.858 45.24,-23.718 19.578,-6.836 30.5,-9.582 35.095,3.523 4.633,13.348 -14.995,13.923 -20.302,11.629 -5.63,-2.691 -15.94,-1.788 -33.244,4.729 -17.224,6.749 -30.635,15.915 -34.564,17.407 -4.071,1.728 -2.909,10.632 8.152,3.266 11.244,-7.437 34.527,-18.354 36.796,-13.608 5.59,6.808 -16.16,16.155 -27.748,20.53 C 91.459,-4.121 77.937,9.684 56.625,13.101 35.221,16.063 23.706,23.317 9.038,34.26 0.916,41.366 -11.372,25.836 4.918,16.173 21.895,5.859 42.844,4.472 56.342,0.827 61.061,-0.107 61.962,-2.5 59.422,-7.43 57.153,-12.176 49.724,-6.68 43.819,-4.49 37.979,-2.039 2.746,10.924 0,0"
         style="fill:none;fill-opacity:1;fill-rule:evenodd;stroke:#ffffff;stroke-width:6;stroke-linecap:butt;stroke-linejoin:miter;stroke-miterlimit:10;stroke-dasharray:none;stroke-opacity:1"
         id="path106"
         inkscape:connector-curvature="0" /></g><g
       id="g124"
       transform="translate(311.67809,459.12308)"
       style="stroke:#ffffff;stroke-opacity:1"><path
         d="M 0,0 C 1.086,4.318 6.29,6.732 11.624,5.391 16.958,4.05 20.402,-0.538 19.317,-4.856 18.231,-9.174 13.027,-11.587 7.693,-10.246 2.359,-8.906 -1.085,-4.318 0,0 Z"
         style="fill:none;stroke:#ffffff;stroke-width:6;stroke-linecap:butt;stroke-linejoin:round;stroke-miterlimit:10;stroke-dasharray:none;stroke-opacity:1"
         id="path126"
         inkscape:connector-curvature="0" /></g><g
       id="g140"
       transform="translate(381.48158,356.19242)"
       style="stroke:#ffffff;stroke-opacity:1"><path
         d="M 0,0 C 1.022,4.064 5.762,6.375 10.588,5.162 15.414,3.949 18.499,-0.329 17.477,-4.393 16.455,-8.458 11.715,-10.769 6.889,-9.555 2.062,-8.342 -1.022,-4.064 0,0 Z"
         style="fill:none;stroke:#ffffff;stroke-width:6;stroke-linecap:butt;stroke-linejoin:round;stroke-miterlimit:10;stroke-dasharray:none;stroke-opacity:1"
         id="path142"
         inkscape:connector-curvature="0" /></g><g
       id="g156"
       transform="translate(408.27194,446.20688)"
       style="stroke:#ffffff;stroke-opacity:1"><path
         d="M 0,0 C 1.692,6.731 11.197,10.143 21.231,7.621 31.264,5.099 38.026,-2.403 36.333,-9.134 34.641,-15.865 25.136,-19.277 15.103,-16.755 5.07,-14.232 -1.692,-6.731 0,0 Z"
         style="fill:none;stroke:#ffffff;stroke-width:6;stroke-linecap:butt;stroke-linejoin:round;stroke-miterlimit:10;stroke-dasharray:none;stroke-opacity:1"
         id="path158"
         inkscape:connector-curvature="0" /></g><g
       id="g172"
       transform="translate(348.8813,460.93783)"
       style="stroke:#ffffff;stroke-opacity:1"><path
         d="m 0,0 c 1.006,4.001 5.733,6.26 10.559,5.047 4.827,-1.213 7.924,-5.44 6.918,-9.44 C 16.471,-8.394 11.744,-10.654 6.917,-9.44 2.091,-8.227 -1.006,-4 0,0 Z"
         style="fill:none;stroke:#ffffff;stroke-width:6;stroke-linecap:butt;stroke-linejoin:round;stroke-miterlimit:10;stroke-dasharray:none;stroke-opacity:1"
         id="path174"
         inkscape:connector-curvature="0" /></g><g
       id="g176"
       transform="translate(415.0125,353.00452)"
       style="fill:none;stroke:#ffffff;stroke-opacity:1"><path
         d="m 0,0 c -3.647,-11.132 9.896,-13.334 23.568,-10.759 13.79,3.046 23.51,5.187 27.029,11.541 C 53.429,7.786 36.522,14.466 25.145,12.491 14.686,10.787 3.46,6.119 0,0"
         style="fill:none;fill-opacity:1;fill-rule:evenodd;stroke:#ffffff;stroke-width:6;stroke-linecap:butt;stroke-linejoin:miter;stroke-miterlimit:10;stroke-dasharray:none;stroke-opacity:1"
         id="path178"
         inkscape:connector-curvature="0" /></g><g
       id="g196"
       transform="translate(412.1369,236.52942)"
       style="stroke:#ffffff;stroke-opacity:1"><path
         d="m 0,0 c -0.392,2.431 -2.551,3.979 -4.513,3.537 l -0.197,0 c -2.158,-0.664 -3.336,-2.874 -2.943,-5.305 0.589,-3.537 0.981,-7.295 0.981,-11.274 0,-16.136 -5.887,-31.388 -16.483,-45.092 -1.374,-1.769 -1.178,-4.642 0.392,-6.19 l 0.196,0 c 0.589,-0.663 1.57,-1.105 2.551,-1.105 0.981,0 2.159,0.442 2.944,1.548 11.381,14.809 18.249,32.272 18.249,50.839 C 1.177,-8.621 0.785,-4.2 0,0 Z"
         style="fill:none;stroke:#ffffff;stroke-width:6;stroke-linecap:butt;stroke-linejoin:round;stroke-miterlimit:10;stroke-dasharray:none;stroke-opacity:1"
         id="path198"
         inkscape:connector-curvature="0" /></g><g
       id="g212"
       transform="translate(203.1978,133.74142)"
       style="stroke:#ffffff;stroke-opacity:1"><path
         d="m 0,0 c -15.83,4.867 -30.096,11.503 -42.213,19.687 -1.954,1.106 -4.299,0.442 -5.276,-1.549 l 0,-0.221 c -1.173,-1.991 -0.587,-4.645 1.368,-5.972 12.703,-8.627 27.751,-15.484 44.167,-20.572 l 0.977,0 c 1.759,0 3.322,1.327 3.908,3.097 l 0,0.221 C 3.322,-3.097 2.15,-0.664 0,0 Z"
         style="fill:none;stroke:#ffffff;stroke-width:6;stroke-linecap:butt;stroke-linejoin:round;stroke-miterlimit:10;stroke-dasharray:none;stroke-opacity:1"
         id="path214"
         inkscape:connector-curvature="0" /></g><g
       id="g228"
       transform="translate(264.0332,125.14632)"
       style="stroke:#ffffff;stroke-opacity:1"><path
         d="m 0,0 -2.728,0 c -15.002,0 -29.42,1.555 -43.059,4.443 -2.143,0.667 -4.092,-0.888 -4.481,-3.332 -0.39,-2.444 0.974,-4.888 2.922,-5.332 14.223,-3.11 29.226,-4.665 44.618,-4.665 l 2.728,0 c 2.143,0 3.897,1.999 3.897,4.443 l 0,0.222 C 3.897,-1.999 2.143,0 0,0 Z"
         style="fill:none;stroke:#ffffff;stroke-width:6;stroke-linecap:butt;stroke-linejoin:round;stroke-miterlimit:10;stroke-dasharray:none;stroke-opacity:1"
         id="path230"
         inkscape:connector-curvature="0" /></g><g
       id="g244"
       transform="translate(378.4995,166.40632)"
       style="stroke:#ffffff;stroke-opacity:1"><path
         d="m 0,0 0,0 c -10.722,-9.979 -23.979,-18.85 -39.38,-25.502 -1.95,-0.888 -2.925,-3.549 -2.145,-5.766 0.585,-1.774 1.95,-2.883 3.509,-2.883 0.585,0 0.975,0 1.56,0.222 15.986,7.096 30.023,16.41 41.33,27.276 1.754,1.552 1.949,4.214 0.585,6.209 C 3.899,1.331 1.56,1.552 0,0 Z"
         style="fill:none;stroke:#ffffff;stroke-width:6;stroke-linecap:butt;stroke-linejoin:round;stroke-miterlimit:10;stroke-dasharray:none;stroke-opacity:1"
         id="path246"
         inkscape:connector-curvature="0" /></g><g
       id="g260"
       transform="translate(324.4648,135.29512)"
       style="stroke:#ffffff;stroke-opacity:1"><path
         d="m 0,0 0,0 c -13.81,-4.713 -28.982,-7.855 -45.127,-9.426 -2.14,0 -3.696,-2.244 -3.501,-4.713 0.194,-2.244 1.75,-4.039 3.89,-4.039 l 0.194,0 c 16.534,1.346 32.29,4.713 46.684,9.65 2.139,0.673 3.306,3.142 2.723,5.611 C 4.085,-0.673 1.945,0.673 0,0 Z"
         style="fill:none;stroke:#ffffff;stroke-width:6;stroke-linecap:butt;stroke-linejoin:round;stroke-miterlimit:10;stroke-dasharray:none;stroke-opacity:1"
         id="path262"
         inkscape:connector-curvature="0" /></g><g
       id="g276"
       transform="translate(148.3934,162.80242)"
       style="stroke:#ffffff;stroke-opacity:1"><path
         d="m 0,0 0,0 c -13.057,11.309 -22.606,24.834 -27.283,39.026 -0.78,2.217 -2.924,3.547 -4.872,2.661 l -0.195,0 c -1.949,-0.887 -2.923,-3.548 -2.339,-5.766 5.457,-16.186 15.98,-30.821 30.012,-43.017 0.779,-0.665 1.559,-0.887 2.338,-0.887 1.17,0 2.339,0.444 3.119,1.774 C 2.144,-4.213 1.754,-1.552 0,0 Z"
         style="fill:none;stroke:#ffffff;stroke-width:6;stroke-linecap:butt;stroke-linejoin:round;stroke-miterlimit:10;stroke-dasharray:none;stroke-opacity:1"
         id="path278"
         inkscape:connector-curvature="0" /></g><g
       id="g292"
       transform="translate(117.6723,217.95422)"
       style="stroke:#ffffff;stroke-opacity:1"><path
         d="m 0,0 c -0.195,1.77 -0.195,3.76 -0.195,5.53 0,14.378 4.477,28.092 12.846,40.701 1.362,1.991 0.973,4.645 -0.584,6.193 l -0.195,0 C 10.315,53.973 7.785,53.53 6.423,51.54 -2.725,37.825 -7.98,22.12 -7.98,5.53 c 0,-2.212 0,-4.203 0.195,-6.415 0.194,-2.433 1.946,-3.982 3.892,-3.982 l 0.39,0 0.194,0 C -1.362,-4.645 0.195,-2.433 0,0 Z"
         style="fill:none;stroke:#ffffff;stroke-width:6;stroke-linecap:butt;stroke-linejoin:round;stroke-miterlimit:10;stroke-dasharray:none;stroke-opacity:1"
         id="path294"
         inkscape:connector-curvature="0" /></g><g
       id="g308"
       transform="translate(253.1983,321.48862)"
       style="stroke:#ffffff;stroke-opacity:1"><path
         d="m 0,0 c 2.746,0 5.297,0.219 8.043,0.219 13.144,0 26.092,-1.316 38.255,-3.509 l 0.589,0 c 1.765,0 3.531,1.316 3.727,3.509 l 0.196,0 C 51.006,2.632 49.633,5.044 47.475,5.264 34.92,7.676 21.776,8.992 8.043,8.992 5.297,8.992 2.55,8.773 -0.196,8.773 -2.354,8.554 -4.12,6.58 -3.924,4.167 -3.924,1.755 -2.158,0 0,0 Z"
         style="fill:none;stroke:#ffffff;stroke-width:6;stroke-linecap:butt;stroke-linejoin:round;stroke-miterlimit:10;stroke-dasharray:none;stroke-opacity:1"
         id="path310"
         inkscape:connector-curvature="0" /></g><g
       id="g324"
       transform="translate(370.0558,287.60912)"
       style="stroke:#ffffff;stroke-opacity:1"><path
         d="m 0,0 c 13.721,-10.8 24.11,-23.585 29.795,-37.25 0.784,-1.543 2.156,-2.425 3.528,-2.425 0.588,0 1.176,0 1.568,0.221 0,0.22 0.196,0.22 0.196,0.22 1.961,0.882 2.745,3.527 1.765,5.731 C 30.383,-18.074 19.21,-4.188 4.508,7.274 2.744,8.596 0.196,8.155 -0.98,6.172 l 0,-0.221 C -2.156,3.968 -1.764,1.322 0,0 Z"
         style="fill:none;stroke:#ffffff;stroke-width:6;stroke-linecap:butt;stroke-linejoin:round;stroke-miterlimit:10;stroke-dasharray:none;stroke-opacity:1"
         id="path326"
         inkscape:connector-curvature="0" /></g><g
       id="g340"
       transform="translate(314.5573,314.67592)"
       style="stroke:#ffffff;stroke-opacity:1"><path
         d="m 0,0 c 15.739,-4.178 30.118,-10.335 42.554,-18.031 0.583,-0.22 1.166,-0.44 1.749,-0.44 1.36,0 2.72,0.88 3.498,2.199 0.971,2.199 0.388,4.838 -1.555,5.937 C 33.227,-2.199 18.071,4.178 1.749,8.576 -0.389,9.235 -2.526,7.696 -2.915,5.277 -3.498,3.078 -2.137,0.66 0,0 Z"
         style="fill:none;stroke:#ffffff;stroke-width:6;stroke-linecap:butt;stroke-linejoin:round;stroke-miterlimit:10;stroke-dasharray:none;stroke-opacity:1"
         id="path342"
         inkscape:connector-curvature="0" /></g><g
       id="g356"
       transform="translate(191.9634,309.62992)"
       style="stroke:#ffffff;stroke-opacity:1"><path
         d="m 0,0 c 0.39,0 0.781,0.219 1.171,0.219 13.86,5.037 29.087,8.759 45.095,10.511 2.147,0.219 3.709,2.19 3.513,4.599 l 0,0.219 c -0.195,2.408 -2.147,4.16 -4.294,3.941 C 28.892,17.519 13.274,13.796 -1.171,8.54 -3.123,7.883 -4.295,5.475 -3.709,3.066 -3.123,1.095 -1.562,0 0,0 Z"
         style="fill:none;stroke:#ffffff;stroke-width:6;stroke-linecap:butt;stroke-linejoin:round;stroke-miterlimit:10;stroke-dasharray:none;stroke-opacity:1"
         id="path358"
         inkscape:connector-curvature="0" /></g><g
       id="g372"
       transform="translate(140.6789,276.67522)"
       style="stroke:#ffffff;stroke-opacity:1"><path
         d="m 0,0 0,0 c 9.908,10.565 22.924,19.809 38.078,27.072 1.942,0.881 2.914,3.522 2.137,5.723 -0.972,2.201 -3.109,3.302 -5.246,2.421 C 19.233,27.513 5.44,17.828 -5.44,6.383 -6.994,4.622 -6.994,1.981 -5.634,0.22 L -5.44,0 c 0.777,-0.88 1.749,-1.321 2.72,-1.321 0.972,0 1.943,0.441 2.72,1.321 z"
         style="fill:none;stroke:#ffffff;stroke-width:6;stroke-linecap:butt;stroke-linejoin:round;stroke-miterlimit:10;stroke-dasharray:none;stroke-opacity:1"
         id="path374"
         inkscape:connector-curvature="0" /></g><g
       id="g380"
       transform="translate(413.7131,160.37072)"
       style="stroke:#ffffff;stroke-opacity:1"><path
         d="m 0,0 c -2.391,2.548 -6.997,2.088 -10.382,-0.863 -85.708,-70.173 -201.723,-70.173 -287.431,0 -3.385,2.951 -7.991,3.411 -10.382,0.863 -2.392,-2.548 -1.509,-7.286 2.072,-10.408 90.355,-74.285 213.696,-74.286 304.051,0 C 1.508,-7.286 2.391,-2.548 0,0 Z"
         style="fill:none;stroke:#ffffff;stroke-width:6;stroke-linecap:round;stroke-linejoin:round;stroke-miterlimit:10;stroke-dasharray:8.023;stroke-dashoffset:0;stroke-opacity:1"
         id="path382"
         inkscape:connector-curvature="0" /></g><g
       id="g388"
       transform="translate(453.2785,160.84082)"
       style="stroke:#ffffff;stroke-opacity:1"><path
         d="m 0,0 c 2.511,-2.431 2.932,-6.075 0.905,-8.097 -51.397,-48.977 -112.977,-77.632 -183.546,-85.409 -2.852,-0.248 -5.369,2.421 -5.612,5.907 -0.242,3.486 1.782,6.463 4.512,6.701 67.556,7.444 126.507,34.875 175.709,81.761 C -6.091,2.799 -2.511,2.431 0,0 Z"
         style="fill:none;stroke:#ffffff;stroke-width:6;stroke-linecap:round;stroke-linejoin:round;stroke-miterlimit:10;stroke-dasharray:8.023;stroke-dashoffset:0;stroke-opacity:1"
         id="path390"
         inkscape:connector-curvature="0" /></g><g
       id="g396"
       transform="translate(224.9108,80.28492)"
       style="stroke:#ffffff;stroke-opacity:1"><path
         d="M 0,0 C -0.568,-3.448 -3.323,-5.87 -6.14,-5.356 -75.671,8.99 -134.3,43.28 -180.889,96.852 c -1.829,2.202 -1.069,5.791 1.658,7.977 2.727,2.185 6.327,2.216 8.078,0.108 C -126.554,53.653 -70.428,20.826 -3.865,7.093 -1.169,6.601 0.568,3.448 0,0 Z"
         style="fill:none;stroke:#ffffff;stroke-width:6;stroke-linecap:round;stroke-linejoin:round;stroke-miterlimit:10;stroke-dasharray:8.023;stroke-dashoffset:0;stroke-opacity:1"
         id="path398"
         inkscape:connector-curvature="0" /></g><g
       id="g404"
       transform="translate(332.5672,55.78882)"
       style="stroke:#ffffff;stroke-opacity:1"><path
         d="m 0,0 c 0.729,-3.418 -0.954,-6.678 -3.764,-7.226 -69.975,-11.998 -137.071,-1.448 -199.987,31.445 -2.507,1.384 -3.107,5.003 -1.365,8.032 1.743,3.03 5.082,4.371 7.482,3.046 C -137.404,3.809 -73.173,-6.291 -6.186,5.195 -3.496,5.72 -0.729,3.418 0,0 Z"
         style="fill:none;stroke:#ffffff;stroke-width:6;stroke-linecap:round;stroke-linejoin:round;stroke-miterlimit:10;stroke-dasharray:8.023;stroke-dashoffset:0;stroke-opacity:1"
         id="path406"
         inkscape:connector-curvature="0" /></g><g
       id="g412"
       transform="translate(437.7834,262.67382)"
       style="stroke:#ffffff;stroke-opacity:1"><path
         d="m 0,0 c 0,-6.866 5.566,-12.432 12.432,-12.432 6.866,0 12.432,5.566 12.432,12.432 0,6.866 -5.566,12.432 -12.432,12.432 C 5.566,12.432 0,6.866 0,0 Z"
         style="fill:none;stroke:#ffffff;stroke-width:4.84200001;stroke-linecap:butt;stroke-linejoin:miter;stroke-miterlimit:10;stroke-dasharray:none;stroke-opacity:1"
         id="path414"
         inkscape:connector-curvature="0" /></g><g
       id="g420"
       transform="translate(442.8455,262.80882)"
       style="stroke:#ffffff;stroke-opacity:1"><path
         d="m 0,0 c 0,-3.996 3.239,-7.235 7.235,-7.235 3.996,0 7.235,3.239 7.235,7.235 0,3.996 -3.239,7.235 -7.235,7.235 C 3.239,7.235 0,3.996 0,0 Z"
         style="fill:none;stroke:#ffffff;stroke-width:1.93700004;stroke-linecap:butt;stroke-linejoin:miter;stroke-miterlimit:10;stroke-dasharray:none;stroke-opacity:1"
         id="path422"
         inkscape:connector-curvature="0" /></g><g
       id="g428"
       transform="translate(181.1617,354.44162)"
       style="stroke:#ffffff;stroke-opacity:1"><path
         d="m 0,0 c 0,-6.866 5.566,-12.432 12.432,-12.432 6.866,0 12.432,5.566 12.432,12.432 0,6.866 -5.566,12.432 -12.432,12.432 C 5.566,12.432 0,6.866 0,0 Z"
         style="fill:none;stroke:#ffffff;stroke-width:4.84200001;stroke-linecap:butt;stroke-linejoin:miter;stroke-miterlimit:10;stroke-dasharray:none;stroke-opacity:1"
         id="path430"
         inkscape:connector-curvature="0" /></g><g
       id="g436"
       transform="translate(186.2237,354.57662)"
       style="stroke:#ffffff;stroke-opacity:1"><path
         d="m 0,0 c 0,-3.996 3.239,-7.235 7.235,-7.235 3.996,0 7.235,3.239 7.235,7.235 0,3.996 -3.239,7.235 -7.235,7.235 C 3.239,7.235 0,3.996 0,0 Z"
         style="fill:none;stroke:#ffffff;stroke-width:1.93700004;stroke-linecap:butt;stroke-linejoin:miter;stroke-miterlimit:10;stroke-dasharray:none;stroke-opacity:1"
         id="path438"
         inkscape:connector-curvature="0" /></g></g></svg>