<?xml version="1.0" encoding="UTF-8" standalone="no"?>
<!-- Created with Inkscape (http://www.inkscape.org/) -->

<svg
   xmlns:dc="http://purl.org/dc/elements/1.1/"
   xmlns:cc="http://creativecommons.org/ns#"
   xmlns:rdf="http://www.w3.org/1999/02/22-rdf-syntax-ns#"
   xmlns:svg="http://www.w3.org/2000/svg"
   xmlns="http://www.w3.org/2000/svg"
   xmlns:sodipodi="http://sodipodi.sourceforge.net/DTD/sodipodi-0.dtd"
   xmlns:inkscape="http://www.inkscape.org/namespaces/inkscape"
   width="422"
   height="422"
   viewBox="0 0 422 422.00001"
   id="svg2"
   version="1.1"
   inkscape:version="0.91 r13725"
   sodipodi:docname="chromosome.svg">
  <defs
     id="defs4" />
  <sodipodi:namedview
     id="base"
     pagecolor="#ffffff"
     bordercolor="#666666"
     borderopacity="1.0"
     inkscape:pageopacity="0.0"
     inkscape:pageshadow="2"
     inkscape:zoom="1.4"
     inkscape:cx="162.30913"
     inkscape:cy="225.03808"
     inkscape:document-units="px"
     inkscape:current-layer="layer1"
     showgrid="false"
     units="px"
     inkscape:window-width="1920"
     inkscape:window-height="998"
     inkscape:window-x="0"
     inkscape:window-y="0"
     inkscape:window-maximized="1" />
  <metadata
     id="metadata7">
    <rdf:RDF>
      <cc:Work
         rdf:about="">
        <dc:format>image/svg+xml</dc:format>
        <dc:type
           rdf:resource="http://purl.org/dc/dcmitype/StillImage" />
        <dc:title></dc:title>
      </cc:Work>
    </rdf:RDF>
  </metadata>
  <g
     inkscape:label="Ebene 1"
     inkscape:groupmode="layer"
     id="layer1"
     transform="translate(0,-630.36216)">
    <path
       style="fill:#ffffff;fill-opacity:1"
       d="m 119.99642,1050.8141 c -6.43416,-0.4101 -12.28417,-1.2259 -13.00001,-1.813 -0.71584,-0.5871 -3.18601,-1.5712 -5.48928,-2.187 -2.303274,-0.6157 -6.473334,-2.9262 -9.266804,-5.1343 -13.68921,-10.8207 -17.904,-25.4608 -13.09927,-45.50032 2.31868,-9.67076 4.10893,-14.34428 13.0016,-33.94136 3.74364,-8.25 7.29102,-16.575 7.883054,-18.5 7.91345,-25.7306 10.72934,-37.76586 14.04551,-60.03127 1.10843,-7.44219 2.71193,-14.86719 3.56334,-16.5 0.85141,-1.6328 1.55079,-4.13871 1.55418,-5.56869 0.0109,-4.59149 9.31545,-15.59081 20.95977,-24.77743 8.50386,-6.70898 28.61654,-16.12261 34.44677,-16.12261 3.46375,0 4.28293,-1.65781 5.06492,-10.25 l 0.70534,-7.75 -4.33532,-0.0211 c -9.91301,-0.0482 -28.24716,-9.21202 -37.83904,-18.91274 -6.23012,-6.3008 -16.34061,-23.57673 -30.7636,-52.56616 -11.601404,-23.31821 -18.232694,-38.67426 -18.232694,-42.22138 0,-1.55849 -0.7194,-3.8607 -1.59867,-5.11603 -2.19356,-3.13175 -2.99297,-16.45069 -1.46235,-24.36439 2.82177,-14.58933 11.55852,-22.15759 30.363454,-26.3025 5.95078,-1.31165 11.05306,-1.62534 21.5,-1.32183 12.14185,0.35275 14.32226,0.69032 19.19758,2.97211 10.25036,4.79747 14.11974,9.30776 22.44579,26.16368 6.14089,12.43209 8.13712,17.73245 10.9937,29.19034 1.9197,7.7 3.91845,16.7 4.44167,20 0.52323,3.3 1.42197,7.22197 1.99721,8.7155 1.26101,3.274 5.45154,32.59241 7.60505,53.20753 0.85739,8.20767 2.04459,15.50826 2.63822,16.22354 1.45253,1.75019 7.76996,2.86183 9.04092,1.59087 0.55724,-0.55724 1.65633,-8.60113 2.44241,-17.8753 1.89195,-22.32118 3.74174,-34.93319 8.54151,-58.23665 4.41861,-21.45296 8.15309,-35.28739 10.38607,-38.47542 0.8071,-1.1523 1.46745,-3.13279 1.46745,-4.40109 0,-5.33471 13.08193,-26.68956 19.70797,-32.17115 10.39827,-8.6023 38.043,-10.00686 57.04262,-2.89819 7.10738,2.65921 18.76748,13.42497 20.2255,18.67419 1.18707,4.27375 1.23053,21.45715 0.0725,28.64617 -1.83314,11.37954 -26.01788,62.8653 -39.79336,84.7142 -10.88181,17.25934 -14.4982,20.84366 -27.55143,27.30707 -6.16206,3.05119 -13.90375,6.09801 -17.20375,6.7707 -3.3,0.67269 -6.5625,1.58375 -7.25,2.02457 -1.64771,1.0565 -1.64771,11.77717 0,13.94823 0.6875,0.90587 4.625,2.84888 8.75,4.3178 17.21494,6.13026 34.20049,16.29406 41.9575,25.10649 5.74675,6.52866 10.77706,17.38947 11.98006,25.86585 0.54211,3.8198 2.77474,15.04509 4.96138,24.94509 2.18664,9.9 4.72181,22.05 5.63372,27 1.99442,10.82609 5.62997,20.46731 16.21461,43 4.39212,9.35 8.60826,18.8 9.3692,21 2.1453,6.20241 1.86036,30.53628 -0.43526,37.17048 -2.69822,7.7977 -8.42004,13.616 -18.00632,18.3099 -10.17223,4.9808 -18.38179,6.3824 -37.8424,6.4607 -13.62628,0.055 -14.83308,-0.093 -17,-2.0761 -1.28287,-1.1743 -3.33248,-2.4382 -4.5547,-2.8086 -4.70211,-1.4251 -13.18388,-14.0403 -21.59565,-32.1197 -2.57523,-5.5349 -4.68219,-11.2947 -4.68219,-12.7997 0,-1.50496 -0.67735,-4.04614 -1.50521,-5.64706 -4.84791,-9.37482 -9.39269,-48.56612 -11.47928,-98.98992 -1.12073,-27.08335 -2.62555,-49.1283 -3.59143,-52.61296 -0.51064,-1.84228 -1.58686,-2.19646 -8.40101,-2.76474 -10.51343,-0.87679 -12.50068,-0.011 -13.90711,6.05874 -0.61413,2.65043 -1.79314,19.44396 -2.62002,37.31896 -1.80509,39.02142 -4.19439,74.2836 -5.59004,82.5 -3.10392,18.27315 -6.38808,31.42871 -10.04677,40.24488 -9.46669,22.8115 -17.76168,35.1835 -27.36112,40.8092 -5.03307,2.9495 -15.75561,3.7289 -34.69649,2.5219 z"
       id="path4147"
       inkscape:connector-curvature="0" />
  </g>
</svg>
