<?xml version="1.0" encoding="UTF-8" standalone="no"?>
<!-- Created with Inkscape (http://www.inkscape.org/) -->

<svg
   xmlns:dc="http://purl.org/dc/elements/1.1/"
   xmlns:cc="http://creativecommons.org/ns#"
   xmlns:rdf="http://www.w3.org/1999/02/22-rdf-syntax-ns#"
   xmlns:svg="http://www.w3.org/2000/svg"
   xmlns="http://www.w3.org/2000/svg"
   xmlns:sodipodi="http://sodipodi.sourceforge.net/DTD/sodipodi-0.dtd"
   xmlns:inkscape="http://www.inkscape.org/namespaces/inkscape"
   id="svg2"
   version="1.1"
   inkscape:version="0.91 r13725"
   xml:space="preserve"
   width="280"
   height="325"
   viewBox="0 0 279.99999 325"
   sodipodi:docname="how-to-2.svg"><metadata
     id="metadata8"><rdf:RDF><cc:Work
         rdf:about=""><dc:format>image/svg+xml</dc:format><dc:type
           rdf:resource="http://purl.org/dc/dcmitype/StillImage" /><dc:title></dc:title></cc:Work></rdf:RDF></metadata><defs
     id="defs6"><clipPath
       clipPathUnits="userSpaceOnUse"
       id="clipPath16"><path
         d="m 0,595.28 841.89,0 L 841.89,0 0,0 0,595.28 Z"
         id="path18"
         inkscape:connector-curvature="0" /></clipPath></defs><sodipodi:namedview
     pagecolor="#ffffff"
     bordercolor="#666666"
     borderopacity="1"
     objecttolerance="10"
     gridtolerance="10"
     guidetolerance="10"
     inkscape:pageopacity="0"
     inkscape:pageshadow="2"
     inkscape:window-width="1920"
     inkscape:window-height="998"
     id="namedview4"
     showgrid="false"
     inkscape:zoom="0.8970687"
     inkscape:cx="326.82076"
     inkscape:cy="408.73842"
     inkscape:window-x="0"
     inkscape:window-y="0"
     inkscape:window-maximized="1"
     inkscape:current-layer="g10" /><g
     id="g10"
     inkscape:groupmode="layer"
     inkscape:label="Glühbirne"
     transform="matrix(1.25,0,0,-1.25,0,325.00002)"><g
       id="g12"
       transform="translate(-294.97356,-191.36997)"><g
         id="g14"
         clip-path="url(#clipPath16)"><g
           id="g20"
           transform="translate(475.6553,341.3232)"><path
             d="m 0,0 c -0.043,37.463 -30.448,67.797 -67.91,67.754 -37.463,-0.043 -67.797,-30.448 -67.754,-67.91 0.055,-47.677 43.466,-56.009 43.518,-101.353 l 50.747,0.058 C -41.451,-56.106 0.057,-49.065 0,0"
             style="fill:#f7e87a;fill-opacity:1;fill-rule:nonzero;stroke:none"
             id="path22"
             inkscape:connector-curvature="0" /></g><g
           id="g24"
           transform="translate(470.23,339.98)"><path
             d="m 0,0 c 0.06,-45.15 -36.84,-51.33 -39.25,-93.35 l -24.11,-0.03 -19.82,-0.02 c -2.75,41.55 -41.58,49.39 -41.64,93.25 -0.03,34.17 27.4,61.96 61.46,62.47 0.3,0.01 0.59,0.01 0.88,0.01 C -28.01,62.37 -0.03,34.46 0,0"
             style="fill:#ffffff;fill-opacity:1;fill-rule:nonzero;stroke:none"
             id="path26"
             inkscape:connector-curvature="0" /></g><g
           id="g28"
           transform="translate(470.23,339.98)"><path
             d="m 0,0 c 0.06,-45.15 -36.84,-51.33 -39.25,-93.35 l -24.11,-0.03 -19.82,-0.02 c -2.75,41.55 -41.58,49.39 -41.64,93.25 -0.03,34.17 27.4,61.96 61.46,62.47 0.3,0.01 0.59,0.01 0.88,0.01 C -28.01,62.37 -0.03,34.46 0,0 Z"
             style="fill:none;stroke:#000000;stroke-width:1;stroke-linecap:butt;stroke-linejoin:miter;stroke-miterlimit:10;stroke-dasharray:none;stroke-opacity:1"
             id="path30"
             inkscape:connector-curvature="0" /></g><g
           id="g32"
           transform="translate(394.8355,253.7485)"><path
             d="m 0,0 c -0.985,0 -1.89,0.649 -2.172,1.643 l -18.652,65.816 c -0.34,1.2 0.357,2.449 1.557,2.789 1.2,0.34 2.449,-0.358 2.789,-1.558 L 2.174,2.875 C 2.514,1.675 1.817,0.426 0.617,0.086 0.411,0.028 0.204,0 0,0"
             style="fill:#ffffff;fill-opacity:1;fill-rule:nonzero;stroke:none"
             id="path34"
             inkscape:connector-curvature="0" /></g><g
           id="g36"
           transform="translate(394.8355,253.7485)"><path
             d="m 0,0 c -0.985,0 -1.89,0.649 -2.172,1.643 l -18.652,65.816 c -0.34,1.2 0.357,2.449 1.557,2.789 1.2,0.34 2.449,-0.358 2.789,-1.558 L 2.174,2.875 C 2.514,1.675 1.817,0.426 0.617,0.086 0.411,0.028 0.204,0 0,0 Z"
             style="fill:none;stroke:#000000;stroke-width:1;stroke-linecap:butt;stroke-linejoin:miter;stroke-miterlimit:10;stroke-dasharray:none;stroke-opacity:1"
             id="path38"
             inkscape:connector-curvature="0" /></g><g
           id="g40"
           transform="translate(423.0459,253.7485)"><path
             d="M 0,0 C -0.181,0 -0.365,0.022 -0.548,0.068 -1.759,0.37 -2.495,1.596 -2.193,2.806 l 16.421,65.815 c 0.302,1.211 1.531,1.946 2.738,1.645 1.211,-0.302 1.947,-1.528 1.645,-2.738 L 2.19,1.712 C 1.933,0.685 1.012,0 0,0"
             style="fill:#ffffff;fill-opacity:1;fill-rule:nonzero;stroke:none"
             id="path42"
             inkscape:connector-curvature="0" /></g><g
           id="g44"
           transform="translate(423.0459,253.7485)"><path
             d="M 0,0 C -0.181,0 -0.365,0.022 -0.548,0.068 -1.759,0.37 -2.495,1.596 -2.193,2.806 l 16.421,65.815 c 0.302,1.211 1.531,1.946 2.738,1.645 1.211,-0.302 1.947,-1.528 1.645,-2.738 L 2.19,1.712 C 1.933,0.685 1.012,0 0,0 Z"
             style="fill:none;stroke:#000000;stroke-width:1;stroke-linecap:butt;stroke-linejoin:miter;stroke-miterlimit:10;stroke-dasharray:none;stroke-opacity:1"
             id="path46"
             inkscape:connector-curvature="0" /></g><g
           id="g48"
           transform="translate(397.4541,328.715)"><path
             d="m 0,0 c 0.07,-0.11 0.14,-0.23 0.22,-0.34 -0.66,-0.42 -1.35,-0.81 -2.03,-1.16 -1.02,-0.55 -2.01,-1.01 -2.8,-1.41 -2.74,-1.36 -5.61,-2.63 -8.55,-3.62 0.01,-0.16 0.02,-0.33 0.02,-0.49 0,-3.83 -3.7,-6.93 -8.28,-6.93 -4.57,0 -8.28,3.1 -8.28,6.93 0,3.83 3.71,6.94 8.28,6.94 3.44,0 6.39,-1.76 7.64,-4.26 1.86,0.64 3.7,1.38 5.48,2.18 1.75,0.78 3.61,1.62 5.36,2.62 0.65,0.37 1.29,0.77 1.9,1.2"
             style="fill:#ffffff;fill-opacity:1;fill-rule:nonzero;stroke:#000000;stroke-width:1;stroke-linecap:butt;stroke-linejoin:miter;stroke-miterlimit:10;stroke-dasharray:none;stroke-opacity:1"
             id="path50"
             inkscape:connector-curvature="0" /></g><g
           id="g52"
           transform="translate(417.49,329.17)"><path
             d="M 0,0 C -0.01,0.01 -0.03,0.02 -0.04,0.03 -0.75,0.6 -2.32,1.75 -1.99,2.82 -1.76,3.54 1.53,4.88 1.93,4.31 2.32,3.76 1.03,1.72 0.78,1.28 0.54,0.85 0.28,0.42 0,0 m 21.98,-0.41 c -4.06,0 -7.43,-2.45 -8.14,-5.67 -4.23,0.55 -8.33,2.2 -11.92,4.65 1.52,2.11 2.84,4.61 2.12,6.56 -1.17,3.22 -7.12,0.83 -8.1,-1.44 -0.92,-2.12 0.62,-4.08 2.7,-5.66 -0.23,-0.29 -0.45,-0.58 -0.68,-0.86 -2.72,-3.39 -6.12,-5.93 -10.71,-4.45 -3.31,1.07 -5.14,3.84 -6.92,6.61 -0.66,-0.42 -1.35,-0.81 -2.03,-1.16 1.87,-3.08 4.23,-6.04 7.56,-7.34 5.45,-2.14 10.1,0.33 13.55,4.55 0.32,0.39 0.71,0.85 1.12,1.37 1.47,-0.9 2.94,-1.6 3.84,-2.06 3.08,-1.55 6.22,-2.62 9.42,-3.07 0.59,-3.34 4.03,-5.9 8.19,-5.9 4.57,0 8.28,3.1 8.28,6.93 0,3.83 -3.71,6.94 -8.28,6.94"
             style="fill:#ffffff;fill-opacity:1;fill-rule:nonzero;stroke:none"
             id="path54"
             inkscape:connector-curvature="0" /></g><g
           id="g56"
           transform="translate(417.49,329.17)"><path
             d="M 0,0 C -0.01,0.01 -0.03,0.02 -0.04,0.03 -0.75,0.6 -2.32,1.75 -1.99,2.82 -1.76,3.54 1.53,4.88 1.93,4.31 2.32,3.76 1.03,1.72 0.78,1.28 0.54,0.85 0.28,0.42 0,0 Z m 21.98,-0.41 c -4.06,0 -7.43,-2.45 -8.14,-5.67 -4.23,0.55 -8.33,2.2 -11.92,4.65 1.52,2.11 2.84,4.61 2.12,6.56 -1.17,3.22 -7.12,0.83 -8.1,-1.44 -0.92,-2.12 0.62,-4.08 2.7,-5.66 -0.23,-0.29 -0.45,-0.58 -0.68,-0.86 -2.72,-3.39 -6.12,-5.93 -10.71,-4.45 -3.31,1.07 -5.14,3.84 -6.92,6.61 -0.66,-0.42 -1.35,-0.81 -2.03,-1.16 1.87,-3.08 4.23,-6.04 7.56,-7.34 5.45,-2.14 10.1,0.33 13.55,4.55 0.32,0.39 0.71,0.85 1.12,1.37 1.47,-0.9 2.94,-1.6 3.84,-2.06 3.08,-1.55 6.22,-2.62 9.42,-3.07 0.59,-3.34 4.03,-5.9 8.19,-5.9 4.57,0 8.28,3.1 8.28,6.93 0,3.83 -3.71,6.94 -8.28,6.94 z"
             style="fill:none;stroke:#000000;stroke-width:1;stroke-linecap:butt;stroke-linejoin:miter;stroke-miterlimit:10;stroke-dasharray:none;stroke-opacity:1"
             id="path58"
             inkscape:connector-curvature="0" /></g><g
           id="g60"
           transform="translate(396.56,330.5)"><path
             d="M 0,0 C 0.67,0.46 1.3,0.96 1.88,1.51 2.28,1.89 3.2,2.64 3.04,3.26 2.82,4.08 -0.08,4.45 -0.62,4.37 -2.02,4.15 -1.44,3.05 -1,1.97 -0.72,1.3 -0.37,0.64 0,0 -0.61,-0.43 -1.25,-0.83 -1.9,-1.2 -2.02,-0.99 -2.13,-0.77 -2.25,-0.56 -3.53,1.8 -5.13,6.23 -1.01,6.61 1.38,6.83 6.2,5.59 5.19,2.27 4.67,0.56 3.07,-0.85 1.26,-2 1.18,-1.89 1.11,-1.77 1.04,-1.66"
             style="fill:#ffffff;fill-opacity:1;fill-rule:nonzero;stroke:#000000;stroke-width:1;stroke-linecap:butt;stroke-linejoin:miter;stroke-miterlimit:10;stroke-dasharray:none;stroke-opacity:1"
             id="path62"
             inkscape:connector-curvature="0" /></g><g
           id="g64"
           transform="translate(436.54,228.02)"><path
             d="m 0,0 c 0,-1.7 -1.38,-3.09 -3.08,-3.09 l -1.92,0 -1.67,-4.53 0.28,0 c 1.7,0 3.08,-1.37 3.08,-3.08 0,-1.7 -1.38,-3.08 -3.08,-3.08 l -2.56,0 -1.34,-3.62 0.88,0 c 0.85,0 1.62,-0.34 2.18,-0.9 0.56,-0.56 0.91,-1.33 0.91,-2.18 0,-1.7 -1.38,-3.09 -3.08,-3.09 l -5.76,-0.01 c -0.36,-6.56 -5.79,-11.76 -12.43,-11.77 -6.65,-0.01 -12.08,5.19 -12.45,11.75 l -5.76,-0.01 c -1.7,0 -3.08,1.38 -3.08,3.08 -0.01,1.7 1.37,3.09 3.08,3.09 l 0.52,0 -1.29,3.61 -2.26,0 c -1.71,0 -3.09,1.38 -3.09,3.08 0,1.7 1.38,3.08 3.08,3.09 l 0.06,0 -1.62,4.52 -1.77,0 c -1.7,0 -3.08,1.37 -3.09,3.08 0,1.55 1.15,2.84 2.66,3.05 l -2.2,6.15 c -0.46,1.29 0.49,2.65 1.87,2.65 l 50.58,0 c 1.38,0 2.34,-1.37 1.86,-2.67 L -2.73,3.05 C -1.19,2.88 0,1.58 0,0 Z"
             style="fill:none;stroke:#000000;stroke-width:1;stroke-linecap:butt;stroke-linejoin:miter;stroke-miterlimit:10;stroke-dasharray:none;stroke-opacity:1"
             id="path66"
             inkscape:connector-curvature="0" /></g><g
           id="g68"
           transform="translate(408.6902,418.7851)"><path
             d="m 0,0 c -1.361,0 -2.466,1.103 -2.467,2.465 l -0.03,26.276 c -0.002,1.363 1.102,2.469 2.464,2.471 l 0.003,0 c 1.361,0 2.466,-1.103 2.467,-2.465 L 2.467,2.47 C 2.469,1.108 1.366,0.002 0.003,0 L 0,0 Z"
             style="fill:#ffffff;fill-opacity:1;fill-rule:nonzero;stroke:none"
             id="path70"
             inkscape:connector-curvature="0" /></g><g
           id="g72"
           transform="translate(408.6902,418.7851)"><path
             d="m 0,0 c -1.361,0 -2.466,1.103 -2.467,2.465 l -0.03,26.276 c -0.002,1.363 1.102,2.469 2.464,2.471 l 0.003,0 c 1.361,0 2.466,-1.103 2.467,-2.465 L 2.467,2.47 C 2.469,1.108 1.366,0.002 0.003,0 L 0,0 Z"
             style="fill:none;stroke:#000000;stroke-width:1;stroke-linecap:butt;stroke-linejoin:miter;stroke-miterlimit:10;stroke-dasharray:none;stroke-opacity:1"
             id="path74"
             inkscape:connector-curvature="0" /></g><g
           id="g76"
           transform="translate(482.2966,368.9342)"><path
             d="m 0,0 c -0.837,0 -1.654,0.426 -2.117,1.196 -0.702,1.168 -0.325,2.684 0.843,3.387 l 22.52,13.539 c 1.168,0.702 2.683,0.324 3.386,-0.843 0.702,-1.168 0.325,-2.684 -0.843,-3.386 L 1.269,0.353 C 0.871,0.114 0.433,0 0,0"
             style="fill:#ffffff;fill-opacity:1;fill-rule:nonzero;stroke:none"
             id="path78"
             inkscape:connector-curvature="0" /></g><g
           id="g80"
           transform="translate(482.2966,368.9342)"><path
             d="m 0,0 c -0.837,0 -1.654,0.426 -2.117,1.196 -0.702,1.168 -0.325,2.684 0.843,3.387 l 22.52,13.539 c 1.168,0.702 2.683,0.324 3.386,-0.843 0.702,-1.168 0.325,-2.684 -0.843,-3.386 L 1.269,0.353 C 0.871,0.114 0.433,0 0,0 Z"
             style="fill:none;stroke:#000000;stroke-width:1;stroke-linecap:butt;stroke-linejoin:miter;stroke-miterlimit:10;stroke-dasharray:none;stroke-opacity:1"
             id="path82"
             inkscape:connector-curvature="0" /></g><g
           id="g84"
           transform="translate(514.9258,326.9256)"><path
             d="m 0,0 -0.028,0 -26.276,0.301 c -1.362,0.015 -2.454,1.133 -2.439,2.495 0.016,1.353 1.118,2.439 2.467,2.439 l 0.029,0 26.275,-0.3 C 1.39,4.919 2.482,3.802 2.467,2.439 2.451,1.086 1.35,0 0,0"
             style="fill:#ffffff;fill-opacity:1;fill-rule:nonzero;stroke:none"
             id="path86"
             inkscape:connector-curvature="0" /></g><g
           id="g88"
           transform="translate(514.9258,326.9256)"><path
             d="m 0,0 -0.028,0 -26.276,0.301 c -1.362,0.015 -2.454,1.133 -2.439,2.495 0.016,1.353 1.118,2.439 2.467,2.439 l 0.029,0 26.275,-0.3 C 1.39,4.919 2.482,3.802 2.467,2.439 2.451,1.086 1.35,0 0,0 Z"
             style="fill:none;stroke:#000000;stroke-width:1;stroke-linecap:butt;stroke-linejoin:miter;stroke-miterlimit:10;stroke-dasharray:none;stroke-opacity:1"
             id="path90"
             inkscape:connector-curvature="0" /></g><g
           id="g92"
           transform="translate(489.652,264.7492)"><path
             d="m 0,0 c -0.58,0 -1.163,0.204 -1.631,0.617 l -19.703,17.387 c -1.021,0.901 -1.119,2.461 -0.217,3.482 0.902,1.023 2.461,1.119 3.482,0.218 L 1.633,4.317 C 2.655,3.416 2.752,1.857 1.851,0.835 1.363,0.282 0.683,0 0,0"
             style="fill:#ffffff;fill-opacity:1;fill-rule:nonzero;stroke:none"
             id="path94"
             inkscape:connector-curvature="0" /></g><g
           id="g96"
           transform="translate(489.652,264.7492)"><path
             d="m 0,0 c -0.58,0 -1.163,0.204 -1.631,0.617 l -19.703,17.387 c -1.021,0.901 -1.119,2.461 -0.217,3.482 0.902,1.023 2.461,1.119 3.482,0.218 L 1.633,4.317 C 2.655,3.416 2.752,1.857 1.851,0.835 1.363,0.282 0.683,0 0,0 Z"
             style="fill:none;stroke:#000000;stroke-width:1;stroke-linecap:butt;stroke-linejoin:miter;stroke-miterlimit:10;stroke-dasharray:none;stroke-opacity:1"
             id="path98"
             inkscape:connector-curvature="0" /></g><g
           id="g100"
           transform="translate(298.7398,326.6763)"><path
             d="m 0,0 c -1.347,0 -2.448,1.082 -2.466,2.434 -0.019,1.362 1.07,2.482 2.433,2.5 L 26.241,5.296 C 27.598,5.331 28.724,4.225 28.742,2.862 28.761,1.5 27.672,0.38 26.309,0.362 L 0.035,0 C 0.023,0 0.012,0 0,0"
             style="fill:#ffffff;fill-opacity:1;fill-rule:nonzero;stroke:none"
             id="path102"
             inkscape:connector-curvature="0" /></g><g
           id="g104"
           transform="translate(298.7398,326.6763)"><path
             d="m 0,0 c -1.347,0 -2.448,1.082 -2.466,2.434 -0.019,1.362 1.07,2.482 2.433,2.5 L 26.241,5.296 C 27.598,5.331 28.724,4.225 28.742,2.862 28.761,1.5 27.672,0.38 26.309,0.362 L 0.035,0 C 0.023,0 0.012,0 0,0 Z"
             style="fill:none;stroke:#000000;stroke-width:1;stroke-linecap:butt;stroke-linejoin:miter;stroke-miterlimit:10;stroke-dasharray:none;stroke-opacity:1"
             id="path106"
             inkscape:connector-curvature="0" /></g><g
           id="g108"
           transform="translate(324.1571,264.5582)"><path
             d="m 0,0 c -0.681,0 -1.36,0.281 -1.847,0.831 -0.904,1.019 -0.81,2.578 0.209,3.482 l 19.662,17.432 c 1.02,0.905 2.579,0.811 3.483,-0.209 0.904,-1.02 0.811,-2.579 -0.209,-3.483 L 1.636,0.621 C 1.166,0.205 0.582,0 0,0"
             style="fill:#ffffff;fill-opacity:1;fill-rule:nonzero;stroke:none"
             id="path110"
             inkscape:connector-curvature="0" /></g><g
           id="g112"
           transform="translate(324.1571,264.5582)"><path
             d="m 0,0 c -0.681,0 -1.36,0.281 -1.847,0.831 -0.904,1.019 -0.81,2.578 0.209,3.482 l 19.662,17.432 c 1.02,0.905 2.579,0.811 3.483,-0.209 0.904,-1.02 0.811,-2.579 -0.209,-3.483 L 1.636,0.621 C 1.166,0.205 0.582,0 0,0 Z"
             style="fill:none;stroke:#000000;stroke-width:1;stroke-linecap:butt;stroke-linejoin:miter;stroke-miterlimit:10;stroke-dasharray:none;stroke-opacity:1"
             id="path114"
             inkscape:connector-curvature="0" /></g><g
           id="g116"
           transform="translate(455.0962,405.4444)"><path
             d="m 0,0 c -0.488,0 -0.98,0.144 -1.41,0.444 -1.117,0.78 -1.391,2.318 -0.612,3.435 L 13.012,25.43 c 0.779,1.119 2.318,1.392 3.435,0.612 1.117,-0.779 1.391,-2.317 0.612,-3.435 L 2.025,1.056 C 1.546,0.368 0.779,0 0,0"
             style="fill:#ffffff;fill-opacity:1;fill-rule:nonzero;stroke:none"
             id="path118"
             inkscape:connector-curvature="0" /></g><g
           id="g120"
           transform="translate(455.0962,405.4444)"><path
             d="m 0,0 c -0.488,0 -0.98,0.144 -1.41,0.444 -1.117,0.78 -1.391,2.318 -0.612,3.435 L 13.012,25.43 c 0.779,1.119 2.318,1.392 3.435,0.612 1.117,-0.779 1.391,-2.317 0.612,-3.435 L 2.025,1.056 C 1.546,0.368 0.779,0 0,0 Z"
             style="fill:none;stroke:#000000;stroke-width:1;stroke-linecap:butt;stroke-linejoin:miter;stroke-miterlimit:10;stroke-dasharray:none;stroke-opacity:1"
             id="path122"
             inkscape:connector-curvature="0" /></g><g
           id="g124"
           transform="translate(331.938,368.761)"><path
             d="m 0,0 c -0.431,0 -0.867,0.113 -1.264,0.35 l -22.551,13.488 c -1.17,0.699 -1.551,2.214 -0.851,3.384 0.699,1.169 2.214,1.55 3.384,0.851 L 1.269,4.586 C 2.438,3.886 2.819,2.371 2.12,1.202 1.658,0.429 0.839,0 0,0"
             style="fill:#ffffff;fill-opacity:1;fill-rule:nonzero;stroke:none"
             id="path126"
             inkscape:connector-curvature="0" /></g><g
           id="g128"
           transform="translate(331.938,368.761)"><path
             d="m 0,0 c -0.431,0 -0.867,0.113 -1.264,0.35 l -22.551,13.488 c -1.17,0.699 -1.551,2.214 -0.851,3.384 0.699,1.169 2.214,1.55 3.384,0.851 L 1.269,4.586 C 2.438,3.886 2.819,2.371 2.12,1.202 1.658,0.429 0.839,0 0,0 Z"
             style="fill:none;stroke:#000000;stroke-width:1;stroke-linecap:butt;stroke-linejoin:miter;stroke-miterlimit:10;stroke-dasharray:none;stroke-opacity:1"
             id="path130"
             inkscape:connector-curvature="0" /></g><g
           id="g132"
           transform="translate(359.0544,405.3336)"><path
             d="m 0,0 c -0.777,0 -1.542,0.366 -2.023,1.051 l -15.083,21.517 c -0.782,1.115 -0.511,2.654 0.604,3.436 1.116,0.782 2.655,0.512 3.437,-0.604 L 2.018,3.884 C 2.801,2.768 2.53,1.23 1.414,0.447 0.983,0.145 0.489,0 0,0"
             style="fill:#ffffff;fill-opacity:1;fill-rule:nonzero;stroke:none"
             id="path134"
             inkscape:connector-curvature="0" /></g><g
           id="g136"
           transform="translate(359.0544,405.3336)"><path
             d="m 0,0 c -0.777,0 -1.542,0.366 -2.023,1.051 l -15.083,21.517 c -0.782,1.115 -0.511,2.654 0.604,3.436 1.116,0.782 2.655,0.512 3.437,-0.604 L 2.018,3.884 C 2.801,2.768 2.53,1.23 1.414,0.447 0.983,0.145 0.489,0 0,0 Z"
             style="fill:none;stroke:#000000;stroke-width:1;stroke-linecap:butt;stroke-linejoin:miter;stroke-miterlimit:10;stroke-dasharray:none;stroke-opacity:1"
             id="path138"
             inkscape:connector-curvature="0" /></g><g
           id="g140"
           transform="translate(416.4167,327.5399)"><path
             d="M 0,0 1.073,1.63"
             style="fill:#ffffff;fill-opacity:1;fill-rule:nonzero;stroke:#000000;stroke-width:1;stroke-linecap:butt;stroke-linejoin:miter;stroke-miterlimit:10;stroke-dasharray:none;stroke-opacity:1"
             id="path142"
             inkscape:connector-curvature="0" /></g><g
           id="g144"
           transform="translate(418.02,325.92)"><path
             d="M 0,0 1.39,1.82"
             style="fill:#ffffff;fill-opacity:1;fill-rule:nonzero;stroke:#000000;stroke-width:1;stroke-linecap:butt;stroke-linejoin:miter;stroke-miterlimit:10;stroke-dasharray:none;stroke-opacity:1"
             id="path146"
             inkscape:connector-curvature="0" /></g></g></g></g></svg>