<?xml version="1.0" encoding="UTF-8" standalone="no"?>
<svg
   xmlns:dc="http://purl.org/dc/elements/1.1/"
   xmlns:cc="http://creativecommons.org/ns#"
   xmlns:rdf="http://www.w3.org/1999/02/22-rdf-syntax-ns#"
   xmlns:svg="http://www.w3.org/2000/svg"
   xmlns="http://www.w3.org/2000/svg"
   version="1.1"
   id="svg5438"
   viewBox="0 0 100 116"
   height="116"
   width="100">
  <defs
     id="defs5440" />
  <metadata
     id="metadata5443">
    <rdf:RDF>
      <cc:Work
         rdf:about="">
        <dc:format>image/svg+xml</dc:format>
        <dc:type
           rdf:resource="http://purl.org/dc/dcmitype/StillImage" />
        <dc:title></dc:title>
      </cc:Work>
    </rdf:RDF>
  </metadata>
  <g
     transform="translate(0,-936.36216)"
     id="layer1">
    <g
       id="g5245"
       transform="matrix(1.9606923,0,0,-1.9606923,-123.41236,1146.6576)">
      <g
         id="g284"
         transform="translate(104.56,82.7098)">
        <path
           d="m 0,0 c -0.01,8.641 -7.023,15.638 -15.664,15.628 -8.641,-0.01 -15.637,-7.023 -15.627,-15.664 0.012,-10.997 10.025,-12.919 10.037,-23.378 L -9.549,-23.4 C -9.561,-12.941 0.013,-11.317 0,0"
           style="fill:#f7e87a;fill-opacity:1;fill-rule:nonzero;stroke:none"
           id="path286" />
      </g>
      <g
         id="g288"
         transform="translate(74.5194,82.3657)">
        <path
           d="m 0,0 c 0.012,-10.118 8.969,-11.924 9.604,-21.508 l 4.571,0.005 0,35.912 C 6.319,14.291 -0.009,7.882 0,0"
           style="fill:#ffffff;fill-opacity:1;fill-rule:nonzero;stroke:none"
           id="path290" />
      </g>
      <g
         id="g292"
         transform="translate(103.3097,82.3989)">
        <path
           d="m 0,0 c -0.009,7.95 -6.462,14.388 -14.412,14.379 -0.068,-10e-4 -0.135,-0.002 -0.203,-0.003 l 0,-35.912 5.561,0.006 C -8.499,-11.838 0.012,-10.412 0,0"
           style="fill:#ffffff;fill-opacity:1;fill-rule:nonzero;stroke:none"
           id="path294" />
      </g>
      <g
         id="g296"
         transform="translate(85.9185,62.5104)">
        <path
           d="M 0,0 C -0.227,0 -0.436,0.15 -0.501,0.379 L -4.803,15.56 c -0.079,0.276 0.082,0.564 0.359,0.643 0.277,0.078 0.565,-0.083 0.643,-0.359 L 0.501,0.663 C 0.58,0.386 0.419,0.098 0.142,0.02 0.095,0.006 0.047,0 0,0"
           style="fill:#f28e4c;fill-opacity:1;fill-rule:nonzero;stroke:none"
           id="path298" />
      </g>
      <g
         id="g300"
         transform="translate(92.4254,62.5104)">
        <path
           d="m 0,0 c -0.042,0 -0.084,0.005 -0.127,0.016 -0.279,0.069 -0.449,0.352 -0.379,0.631 l 3.788,15.181 c 0.069,0.279 0.353,0.449 0.631,0.379 0.28,-0.07 0.449,-0.352 0.38,-0.631 L 0.505,0.395 C 0.446,0.158 0.233,0 0,0"
           style="fill:#f28e4c;fill-opacity:1;fill-rule:nonzero;stroke:none"
           id="path302" />
      </g>
      <g
         id="g304"
         transform="translate(83.5263,78.212)">
        <path
           d="m 0,0 c 0,-0.884 -0.855,-1.6 -1.91,-1.6 -1.054,0 -1.91,0.716 -1.91,1.6 0,0.884 0.856,1.6 1.91,1.6 C -0.855,1.6 0,0.884 0,0"
           style="fill:#f28e4c;fill-opacity:1;fill-rule:nonzero;stroke:none"
           id="path306" />
      </g>
      <g
         id="g308"
         transform="translate(98.1224,78.212)">
        <path
           d="m 0,0 c 0,-0.884 -0.855,-1.6 -1.91,-1.6 -1.054,0 -1.91,0.716 -1.91,1.6 0,0.884 0.856,1.6 1.91,1.6 C -0.855,1.6 0,0.884 0,0"
           style="fill:#f28e4c;fill-opacity:1;fill-rule:nonzero;stroke:none"
           id="path310" />
      </g>
      <g
         id="g312"
         transform="translate(82.4104,78.0142)">
        <path
           d="M 0,0 C 1.066,0.23 2.108,0.66 3.082,1.145 3.717,1.461 4.87,1.963 5.102,2.723 5.336,3.489 4.225,3.775 3.673,3.724 2.722,3.637 3.091,2.614 3.386,2.069 3.872,1.174 4.488,0.163 5.473,-0.223 6.729,-0.715 7.801,-0.148 8.597,0.828 9,1.322 9.928,2.359 9.666,3.076 9.395,3.817 8.024,3.268 7.796,2.744 7.382,1.791 9.133,0.976 9.742,0.668 c 1.54,-0.777 3.153,-1.026 4.81,-0.427 0.313,0.114 0.178,0.618 -0.138,0.503 C 12.463,0.039 10.311,0.612 8.723,1.898 8.56,2.03 8.198,2.295 8.275,2.543 8.327,2.71 9.086,3.019 9.178,2.887 9.268,2.759 8.971,2.288 8.914,2.187 8.727,1.854 8.503,1.538 8.264,1.24 7.636,0.458 6.851,-0.127 5.793,0.213 4.996,0.47 4.574,1.151 4.146,1.817 3.974,2.084 3.798,2.36 3.676,2.654 3.573,2.902 3.441,3.157 3.764,3.207 3.887,3.226 4.557,3.139 4.607,2.952 4.645,2.808 4.432,2.634 4.339,2.547 3.754,2.001 2.954,1.641 2.232,1.319 1.472,0.979 0.677,0.678 -0.139,0.503 -0.466,0.432 -0.328,-0.071 0,0"
           style="fill:#f28e4c;fill-opacity:1;fill-rule:nonzero;stroke:none"
           id="path314" />
      </g>
      <g
         id="g316"
         transform="translate(86.303,51.1413)">
        <path
           d="m 0,0 c 0.08,-1.516 1.336,-2.721 2.872,-2.719 1.536,0.002 2.789,1.209 2.866,2.726 L 0,0 Z"
           style="fill:#000000;fill-opacity:1;fill-rule:nonzero;stroke:none"
           id="path318" />
      </g>
      <g
         id="g320"
         transform="translate(82.8976,58.6844)">
        <path
           d="m 0,0 2.698,-7.536 7.048,0 2.782,7.532 c 0.11,0.298 -0.111,0.616 -0.43,0.616 l -11.667,0 C 0.114,0.612 -0.107,0.298 0,0"
           style="fill:#040506;fill-opacity:1;fill-rule:nonzero;stroke:none"
           id="path322" />
      </g>
      <g
         id="g324"
         transform="translate(89.1142,100.5768)">
        <path
           d="m 0,0 c -0.314,0 -0.569,0.254 -0.569,0.568 l -0.007,6.061 c 0,0.315 0.254,0.57 0.568,0.57 l 0.001,0 c 0.314,0 0.569,-0.254 0.569,-0.568 L 0.569,0.57 C 0.569,0.255 0.315,0 0.001,0 L 0,0 Z"
           style="fill:#ffe355;fill-opacity:1;fill-rule:nonzero;stroke:none"
           id="path326" />
      </g>
      <g
         id="g328"
         transform="translate(106.0918,89.0784)">
        <path
           d="M 0,0 C -0.193,0 -0.382,0.098 -0.488,0.276 -0.65,0.545 -0.563,0.895 -0.294,1.057 L 4.9,4.18 C 5.17,4.342 5.519,4.255 5.682,3.985 5.843,3.716 5.756,3.366 5.487,3.204 L 0.293,0.081 C 0.201,0.026 0.1,0 0,0"
           style="fill:#ffe355;fill-opacity:1;fill-rule:nonzero;stroke:none"
           id="path330" />
      </g>
      <g
         id="g332"
         transform="translate(113.6179,79.389)">
        <path
           d="m 0,0 -0.007,0 -6.06,0.069 c -0.314,0.004 -0.566,0.262 -0.563,0.576 0.004,0.312 0.258,0.563 0.569,0.563 l 0.007,0 6.06,-0.07 C 0.321,1.135 0.573,0.877 0.569,0.563 0.565,0.251 0.311,0 0,0"
           style="fill:#ffe355;fill-opacity:1;fill-rule:nonzero;stroke:none"
           id="path334" />
      </g>
      <g
         id="g336"
         transform="translate(107.7884,65.0477)">
        <path
           d="m 0,0 c -0.134,0 -0.268,0.047 -0.376,0.142 l -4.545,4.011 c -0.235,0.208 -0.258,0.567 -0.05,0.803 0.208,0.236 0.568,0.258 0.803,0.05 L 0.377,0.996 C 0.612,0.788 0.635,0.428 0.427,0.193 0.314,0.065 0.158,0 0,0"
           style="fill:#ffe355;fill-opacity:1;fill-rule:nonzero;stroke:none"
           id="path338" />
      </g>
      <g
         id="g340"
         transform="translate(63.7536,79.3315)">
        <path
           d="m 0,0 c -0.311,0 -0.565,0.25 -0.569,0.561 -0.004,0.315 0.247,0.573 0.561,0.577 L 6.053,1.221 C 6.366,1.23 6.625,0.975 6.63,0.66 6.634,0.346 6.383,0.088 6.068,0.083 L 0.008,0 C 0.005,0 0.003,0 0,0"
           style="fill:#ffe355;fill-opacity:1;fill-rule:nonzero;stroke:none"
           id="path342" />
      </g>
      <g
         id="g344"
         transform="translate(69.6163,65.0036)">
        <path
           d="m 0,0 c -0.157,0 -0.314,0.065 -0.426,0.192 -0.209,0.235 -0.187,0.594 0.048,0.803 L 4.157,5.016 C 4.393,5.224 4.752,5.203 4.961,4.967 5.169,4.732 5.148,4.373 4.912,4.164 L 0.377,0.143 C 0.269,0.047 0.134,0 0,0"
           style="fill:#ffe355;fill-opacity:1;fill-rule:nonzero;stroke:none"
           id="path346" />
      </g>
      <g
         id="g348"
         transform="translate(99.8179,97.4996)">
        <path
           d="m 0,0 c -0.113,0 -0.226,0.033 -0.325,0.102 -0.258,0.18 -0.321,0.535 -0.141,0.793 L 3.001,5.866 C 3.181,6.124 3.536,6.187 3.794,6.007 4.051,5.827 4.115,5.472 3.935,5.214 L 0.467,0.244 C 0.357,0.085 0.18,0 0,0"
           style="fill:#ffe355;fill-opacity:1;fill-rule:nonzero;stroke:none"
           id="path350" />
      </g>
      <g
         id="g352"
         transform="translate(71.4109,89.0385)">
        <path
           d="m 0,0 c -0.099,0 -0.2,0.026 -0.292,0.081 l -5.201,3.111 c -0.27,0.161 -0.358,0.51 -0.196,0.78 0.161,0.27 0.51,0.358 0.78,0.197 L 0.293,1.058 C 0.562,0.896 0.65,0.547 0.489,0.277 0.382,0.099 0.194,0 0,0"
           style="fill:#ffe355;fill-opacity:1;fill-rule:nonzero;stroke:none"
           id="path354" />
      </g>
      <g
         id="g356"
         transform="translate(77.6655,97.4741)">
        <path
           d="m 0,0 c -0.179,0 -0.356,0.085 -0.467,0.242 l -3.479,4.963 c -0.18,0.258 -0.118,0.613 0.14,0.793 0.257,0.18 0.612,0.118 0.792,-0.139 L 0.466,0.896 C 0.646,0.638 0.584,0.284 0.326,0.103 0.227,0.033 0.113,0 0,0"
           style="fill:#ffe355;fill-opacity:1;fill-rule:nonzero;stroke:none"
           id="path358" />
      </g>
      <g
         id="g360"
         transform="translate(83.5043,55.8506)">
        <path
           d="m 0,0 c -0.393,0 -0.711,0.318 -0.711,0.711 -0.001,0.393 0.317,0.711 0.71,0.712 l 11.323,0.013 0,0 c 0.393,0 0.711,-0.318 0.712,-0.711 0,-0.393 -0.318,-0.712 -0.711,-0.712 L 0.001,0 0,0 Z"
           style="fill:#000000;fill-opacity:1;fill-rule:nonzero;stroke:none"
           id="path362" />
      </g>
      <g
         id="g364"
         transform="translate(84.2739,53.3852)">
        <path
           d="m 0,0 c -0.393,0 -0.711,0.318 -0.711,0.711 -0.001,0.393 0.317,0.711 0.71,0.712 l 9.789,0.011 10e-4,0 c 0.393,0 0.711,-0.318 0.712,-0.711 0,-0.392 -0.318,-0.711 -0.711,-0.712 L 0.001,0 0,0 Z"
           style="fill:#000000;fill-opacity:1;fill-rule:nonzero;stroke:none"
           id="path366" />
      </g>
      <g
         id="g368"
         transform="translate(84.9741,51.1302)">
        <path
           d="m 0,0 c -0.393,0 -0.711,0.318 -0.711,0.711 -0.001,0.393 0.317,0.711 0.71,0.712 l 8.394,0.01 10e-4,0 C 8.787,1.433 9.105,1.115 9.105,0.722 9.106,0.329 8.788,0.01 8.395,0.01 L 0.001,0 0,0 Z"
           style="fill:#000000;fill-opacity:1;fill-rule:nonzero;stroke:none"
           id="path370" />
      </g>
    </g>
  </g>
</svg>
