<?xml version="1.0" encoding="UTF-8" standalone="no"?>
<!-- Created with Inkscape (http://www.inkscape.org/) -->

<svg
   xmlns:dc="http://purl.org/dc/elements/1.1/"
   xmlns:cc="http://creativecommons.org/ns#"
   xmlns:rdf="http://www.w3.org/1999/02/22-rdf-syntax-ns#"
   xmlns:svg="http://www.w3.org/2000/svg"
   xmlns="http://www.w3.org/2000/svg"
   xmlns:sodipodi="http://sodipodi.sourceforge.net/DTD/sodipodi-0.dtd"
   xmlns:inkscape="http://www.inkscape.org/namespaces/inkscape"
   id="svg2"
   version="1.1"
   inkscape:version="0.91 r13725"
   xml:space="preserve"
   width="1052.3625"
   height="744.09998"
   viewBox="0 0 1052.3625 744.09998"
   sodipodi:docname="Pathway-browser.svg"><metadata
     id="metadata8"><rdf:RDF><cc:Work
         rdf:about=""><dc:format>image/svg+xml</dc:format><dc:type
           rdf:resource="http://purl.org/dc/dcmitype/StillImage" /><dc:title></dc:title></cc:Work></rdf:RDF></metadata><defs
     id="defs6"><clipPath
       clipPathUnits="userSpaceOnUse"
       id="clipPath16"><path
         d="m 0,595.28 841.89,0 L 841.89,0 0,0 0,595.28 Z"
         id="path18"
         inkscape:connector-curvature="0" /></clipPath></defs><sodipodi:namedview
     pagecolor="#ffffff"
     bordercolor="#666666"
     borderopacity="1"
     objecttolerance="10"
     gridtolerance="10"
     guidetolerance="10"
     inkscape:pageopacity="0"
     inkscape:pageshadow="2"
     inkscape:window-width="1920"
     inkscape:window-height="998"
     id="namedview4"
     showgrid="false"
     inkscape:zoom="0.44853435"
     inkscape:cx="125.09648"
     inkscape:cy="400.49721"
     inkscape:window-x="0"
     inkscape:window-y="0"
     inkscape:window-maximized="1"
     inkscape:current-layer="g10" /><g
     id="g10"
     inkscape:groupmode="layer"
     inkscape:label="Network"
     transform="matrix(1.25,0,0,-1.25,0,744.1)"><rect
       style="color:#000000;display:inline;overflow:visible;visibility:visible;opacity:1;fill:#000000;fill-opacity:1;fill-rule:evenodd;stroke:#ffffff;stroke-width:1.51999998;stroke-linecap:round;stroke-linejoin:miter;stroke-miterlimit:4;stroke-dasharray:none;stroke-dashoffset:0;stroke-opacity:1;marker:none;enable-background:accumulate"
       id="rect4450"
       width="1377.2156"
       height="910.57654"
       x="-1671.0544"
       y="-752.35339"
       transform="scale(1,-1)" /><g
       id="g20"
       transform="translate(434.6163,318.8747)"
       style="fill:#640000;fill-opacity:1"><path
         d="m 0,0 c 0,-27.545 -22.33,-49.875 -49.875,-49.875 -27.545,0 -49.875,22.33 -49.875,49.875 0,27.545 22.33,49.875 49.875,49.875 C -22.33,49.875 0,27.545 0,0"
         style="fill:#640000;fill-opacity:1;fill-rule:nonzero;stroke:none"
         id="path22"
         inkscape:connector-curvature="0" /></g><g
       id="g24"
       transform="translate(434.6163,318.8747)"><path
         d="m 0,0 c 0,-27.545 -22.33,-49.875 -49.875,-49.875 -27.545,0 -49.875,22.33 -49.875,49.875 0,27.545 22.33,49.875 49.875,49.875 C -22.33,49.875 0,27.545 0,0 Z"
         style="fill:none;stroke:#ffffff;stroke-width:12;stroke-linecap:butt;stroke-linejoin:miter;stroke-miterlimit:10;stroke-dasharray:none;stroke-opacity:1"
         id="path26"
         inkscape:connector-curvature="0" /></g><g
       id="g28"
       transform="translate(449.4396,454.4057)"
       style="fill:#640000;fill-opacity:1"><path
         d="m 0,0 c 0,-11.568 -9.378,-20.946 -20.946,-20.946 -11.568,0 -20.946,9.378 -20.946,20.946 0,11.568 9.378,20.946 20.946,20.946 C -9.378,20.946 0,11.568 0,0"
         style="fill:#640000;fill-opacity:1;fill-rule:nonzero;stroke:none"
         id="path30"
         inkscape:connector-curvature="0" /></g><g
       id="g32"
       transform="translate(449.4396,454.4057)"><path
         d="m 0,0 c 0,-11.568 -9.378,-20.946 -20.946,-20.946 -11.568,0 -20.946,9.378 -20.946,20.946 0,11.568 9.378,20.946 20.946,20.946 C -9.378,20.946 0,11.568 0,0 Z"
         style="fill:none;stroke:#ffffff;stroke-width:12;stroke-linecap:butt;stroke-linejoin:miter;stroke-miterlimit:10;stroke-dasharray:none;stroke-opacity:1"
         id="path34"
         inkscape:connector-curvature="0" /></g><g
       id="g36"
       transform="translate(622.1381,301.1986)"
       style="fill:#640000;fill-opacity:1"><path
         d="m 0,0 c 0,-20.524 -16.638,-37.162 -37.162,-37.162 -20.524,0 -37.162,16.638 -37.162,37.162 0,20.524 16.638,37.162 37.162,37.162 C -16.638,37.162 0,20.524 0,0"
         style="fill:#640000;fill-opacity:1;fill-rule:nonzero;stroke:none"
         id="path38"
         inkscape:connector-curvature="0" /></g><g
       id="g40"
       transform="translate(622.1381,301.1986)"><path
         d="m 0,0 c 0,-20.524 -16.638,-37.162 -37.162,-37.162 -20.524,0 -37.162,16.638 -37.162,37.162 0,20.524 16.638,37.162 37.162,37.162 C -16.638,37.162 0,20.524 0,0 Z"
         style="fill:none;stroke:#ffffff;stroke-width:12;stroke-linecap:butt;stroke-linejoin:miter;stroke-miterlimit:10;stroke-dasharray:none;stroke-opacity:1"
         id="path42"
         inkscape:connector-curvature="0" /></g><g
       id="g44"
       transform="translate(334.8664,179.577)"
       style="fill:#640000;fill-opacity:1"><path
         d="m 0,0 c 0,-11.568 -9.378,-20.946 -20.946,-20.946 -11.568,0 -20.946,9.378 -20.946,20.946 0,11.568 9.378,20.946 20.946,20.946 C -9.378,20.946 0,11.568 0,0"
         style="fill:#640000;fill-opacity:1;fill-rule:nonzero;stroke:none"
         id="path46"
         inkscape:connector-curvature="0" /></g><g
       id="g48"
       transform="translate(334.8664,179.577)"><path
         d="m 0,0 c 0,-11.568 -9.378,-20.946 -20.946,-20.946 -11.568,0 -20.946,9.378 -20.946,20.946 0,11.568 9.378,20.946 20.946,20.946 C -9.378,20.946 0,11.568 0,0 Z"
         style="fill:none;stroke:#ffffff;stroke-width:12;stroke-linecap:butt;stroke-linejoin:miter;stroke-miterlimit:10;stroke-dasharray:none;stroke-opacity:1"
         id="path50"
         inkscape:connector-curvature="0" /></g><g
       id="g52"
       transform="translate(582.1637,187.6851)"
       style="fill:#640000;fill-opacity:1"><path
         d="m 0,0 c 0,-20.524 -16.638,-37.162 -37.162,-37.162 -20.524,0 -37.162,16.638 -37.162,37.162 0,20.524 16.638,37.162 37.162,37.162 C -16.638,37.162 0,20.524 0,0"
         style="fill:#640000;fill-opacity:1;fill-rule:nonzero;stroke:none"
         id="path54"
         inkscape:connector-curvature="0" /></g><g
       id="g56"
       transform="translate(582.1637,187.6851)"><path
         d="m 0,0 c 0,-20.524 -16.638,-37.162 -37.162,-37.162 -20.524,0 -37.162,16.638 -37.162,37.162 0,20.524 16.638,37.162 37.162,37.162 C -16.638,37.162 0,20.524 0,0 Z"
         style="fill:none;stroke:#ffffff;stroke-width:12;stroke-linecap:butt;stroke-linejoin:miter;stroke-miterlimit:10;stroke-dasharray:none;stroke-opacity:1"
         id="path58"
         inkscape:connector-curvature="0" /></g><g
       id="g60"
       transform="translate(560.3244,537.2881)"
       style="fill:#640000;fill-opacity:1"><path
         d="m 0,0 c 0,-27.545 -22.33,-49.875 -49.875,-49.875 -27.545,0 -49.875,22.33 -49.875,49.875 0,27.545 22.33,49.875 49.875,49.875 C -22.33,49.875 0,27.545 0,0"
         style="fill:#640000;fill-opacity:1;fill-rule:nonzero;stroke:none"
         id="path62"
         inkscape:connector-curvature="0" /></g><g
       id="g64"
       transform="translate(560.3244,537.2881)"><path
         d="m 0,0 c 0,-27.545 -22.33,-49.875 -49.875,-49.875 -27.545,0 -49.875,22.33 -49.875,49.875 0,27.545 22.33,49.875 49.875,49.875 C -22.33,49.875 0,27.545 0,0 Z"
         style="fill:none;stroke:#ffffff;stroke-width:12;stroke-linecap:butt;stroke-linejoin:miter;stroke-miterlimit:10;stroke-dasharray:none;stroke-opacity:1"
         id="path66"
         inkscape:connector-curvature="0" /></g><g
       id="g68"
       transform="translate(395.825,366.362)"><path
         d="M 0,0 27.432,72.376"
         style="fill:#ffffff;fill-opacity:1;fill-rule:nonzero;stroke:#ffffff;stroke-width:12;stroke-linecap:butt;stroke-linejoin:miter;stroke-miterlimit:10;stroke-dasharray:none;stroke-opacity:1"
         id="path70"
         inkscape:connector-curvature="0" /></g><g
       id="g72"
       transform="translate(363.0932,280.6511)"><path
         d="M 0,0 -42.94,-85.932"
         style="fill:#ffffff;fill-opacity:1;fill-rule:nonzero;stroke:#ffffff;stroke-width:12;stroke-linecap:butt;stroke-linejoin:miter;stroke-miterlimit:10;stroke-dasharray:none;stroke-opacity:1"
         id="path74"
         inkscape:connector-curvature="0" /></g><g
       id="g76"
       transform="translate(427.2981,303.8589)"><path
         d="M 0,0 126.487,-2.66"
         style="fill:#ffffff;fill-opacity:1;fill-rule:nonzero;stroke:#ffffff;stroke-width:12;stroke-linecap:butt;stroke-linejoin:miter;stroke-miterlimit:10;stroke-dasharray:none;stroke-opacity:1"
         id="path78"
         inkscape:connector-curvature="0" /></g><g
       id="g80"
       transform="translate(583.9753,338.3608)"><path
         d="M 0,0 0,74.324"
         style="fill:#ffffff;fill-opacity:1;fill-rule:nonzero;stroke:#ffffff;stroke-width:12;stroke-linecap:butt;stroke-linejoin:miter;stroke-miterlimit:10;stroke-dasharray:none;stroke-opacity:1"
         id="path82"
         inkscape:connector-curvature="0" /></g><g
       id="g84"
       transform="translate(615.9465,282.2577)"><path
         d="M 0,0 76.813,-54.032"
         style="fill:#ffffff;fill-opacity:1;fill-rule:nonzero;stroke:#ffffff;stroke-width:12;stroke-linecap:butt;stroke-linejoin:miter;stroke-miterlimit:10;stroke-dasharray:none;stroke-opacity:1"
         id="path86"
         inkscape:connector-curvature="0" /></g><g
       id="g88"
       transform="translate(577.0259,266.7425)"><path
         d="M 0,0 -17.835,-45.274"
         style="fill:#ffffff;fill-opacity:1;fill-rule:nonzero;stroke:#ffffff;stroke-width:12;stroke-linecap:butt;stroke-linejoin:miter;stroke-miterlimit:10;stroke-dasharray:none;stroke-opacity:1"
         id="path90"
         inkscape:connector-curvature="0" /></g><g
       id="g92"
       transform="translate(730.8672,221.4689)"
       style="fill:#640000;fill-opacity:1"><path
         d="m 0,0 c 0,-11.568 -9.378,-20.946 -20.946,-20.946 -11.568,0 -20.946,9.378 -20.946,20.946 0,11.568 9.378,20.946 20.946,20.946 C -9.378,20.946 0,11.568 0,0"
         style="fill:#640000;fill-opacity:1;fill-rule:nonzero;stroke:none"
         id="path94"
         inkscape:connector-curvature="0" /></g><g
       id="g96"
       transform="translate(730.8672,221.4689)"><path
         d="m 0,0 c 0,-11.568 -9.378,-20.946 -20.946,-20.946 -11.568,0 -20.946,9.378 -20.946,20.946 0,11.568 9.378,20.946 20.946,20.946 C -9.378,20.946 0,11.568 0,0 Z"
         style="fill:none;stroke:#ffffff;stroke-width:12;stroke-linecap:butt;stroke-linejoin:miter;stroke-miterlimit:10;stroke-dasharray:none;stroke-opacity:1"
         id="path98"
         inkscape:connector-curvature="0" /></g><g
       id="g100"
       transform="translate(247.1637,231.2662)"
       style="fill:#640000;fill-opacity:1"><path
         d="m 0,0 c 0,-20.524 -16.638,-37.162 -37.162,-37.162 -20.524,0 -37.162,16.638 -37.162,37.162 0,20.524 16.638,37.162 37.162,37.162 C -16.638,37.162 0,20.524 0,0"
         style="fill:#640000;fill-opacity:1;fill-rule:nonzero;stroke:none"
         id="path102"
         inkscape:connector-curvature="0" /></g><g
       id="g104"
       transform="translate(247.1637,231.2662)"><path
         d="m 0,0 c 0,-20.524 -16.638,-37.162 -37.162,-37.162 -20.524,0 -37.162,16.638 -37.162,37.162 0,20.524 16.638,37.162 37.162,37.162 C -16.638,37.162 0,20.524 0,0 Z"
         style="fill:none;stroke:#ffffff;stroke-width:12;stroke-linecap:butt;stroke-linejoin:miter;stroke-miterlimit:10;stroke-dasharray:none;stroke-opacity:1"
         id="path106"
         inkscape:connector-curvature="0" /></g><g
       id="g108"
       transform="translate(604.9213,431.6041)"
       style="fill:#640000;fill-opacity:1"><path
         d="m 0,0 c 0,-11.568 -9.378,-20.946 -20.946,-20.946 -11.568,0 -20.946,9.378 -20.946,20.946 0,11.568 9.378,20.946 20.946,20.946 C -9.378,20.946 0,11.568 0,0"
         style="fill:#640000;fill-opacity:1;fill-rule:nonzero;stroke:none"
         id="path110"
         inkscape:connector-curvature="0" /></g><g
       id="g112"
       transform="translate(604.9213,431.6041)"><path
         d="m 0,0 c 0,-11.568 -9.378,-20.946 -20.946,-20.946 -11.568,0 -20.946,9.378 -20.946,20.946 0,11.568 9.378,20.946 20.946,20.946 C -9.378,20.946 0,11.568 0,0 Z"
         style="fill:none;stroke:#ffffff;stroke-width:12;stroke-linecap:butt;stroke-linejoin:miter;stroke-miterlimit:10;stroke-dasharray:none;stroke-opacity:1"
         id="path114"
         inkscape:connector-curvature="0" /></g><g
       id="g116"
       transform="translate(411.6826,466.9008)"><path
         d="M 0,0 -54.135,32.099"
         style="fill:#ffffff;fill-opacity:1;fill-rule:nonzero;stroke:#ffffff;stroke-width:12;stroke-linecap:butt;stroke-linejoin:miter;stroke-miterlimit:10;stroke-dasharray:none;stroke-opacity:1"
         id="path118"
         inkscape:connector-curvature="0" /></g><g
       id="g120"
       transform="translate(442.9686,439.2742)"><path
         d="M 0,0 55.12,-38.923"
         style="fill:#ffffff;fill-opacity:1;fill-rule:nonzero;stroke:#ffffff;stroke-width:12;stroke-linecap:butt;stroke-linejoin:miter;stroke-miterlimit:10;stroke-dasharray:none;stroke-opacity:1"
         id="path122"
         inkscape:connector-curvature="0" /></g><g
       id="g124"
       transform="translate(442.9686,469.5372)"><path
         d="M 0,0 35.525,36.896"
         style="fill:#ffffff;fill-opacity:1;fill-rule:nonzero;stroke:#ffffff;stroke-width:12;stroke-linecap:butt;stroke-linejoin:miter;stroke-miterlimit:10;stroke-dasharray:none;stroke-opacity:1"
         id="path126"
         inkscape:connector-curvature="0" /></g><g
       id="g128"
       transform="translate(297.7591,181.2662)"><path
         d="M 0,0 -56.136,30.405"
         style="fill:#ffffff;fill-opacity:1;fill-rule:nonzero;stroke:#ffffff;stroke-width:12;stroke-linecap:butt;stroke-linejoin:miter;stroke-miterlimit:10;stroke-dasharray:none;stroke-opacity:1"
         id="path130"
         inkscape:connector-curvature="0" /></g><g
       id="g132"
       transform="translate(311.9123,163.9569)"><path
         d="M 0,0 0.036,-63.434"
         style="fill:#ffffff;fill-opacity:1;fill-rule:nonzero;stroke:#ffffff;stroke-width:12;stroke-linecap:butt;stroke-linejoin:miter;stroke-miterlimit:10;stroke-dasharray:none;stroke-opacity:1"
         id="path134"
         inkscape:connector-curvature="0" /></g><g
       id="g136"
       transform="translate(333.9181,173.6137)"><path
         d="M 0,0 39.397,-3.437"
         style="fill:#ffffff;fill-opacity:1;fill-rule:nonzero;stroke:#ffffff;stroke-width:12;stroke-linecap:butt;stroke-linejoin:miter;stroke-miterlimit:10;stroke-dasharray:none;stroke-opacity:1"
         id="path138"
         inkscape:connector-curvature="0" /></g><g
       id="g140"
       transform="translate(514.4451,200.523)"><path
         d="M 0,0 -52.401,33.345"
         style="fill:#ffffff;fill-opacity:1;fill-rule:nonzero;stroke:#ffffff;stroke-width:12;stroke-linecap:butt;stroke-linejoin:miter;stroke-miterlimit:10;stroke-dasharray:none;stroke-opacity:1"
         id="path142"
         inkscape:connector-curvature="0" /></g><g
       id="g144"
       transform="translate(575.4871,171.4689)"><path
         d="M 0,0 64.597,-16.216"
         style="fill:#ffffff;fill-opacity:1;fill-rule:nonzero;stroke:#ffffff;stroke-width:12;stroke-linecap:butt;stroke-linejoin:miter;stroke-miterlimit:10;stroke-dasharray:none;stroke-opacity:1"
         id="path146"
         inkscape:connector-curvature="0" /></g><g
       id="g148"
       transform="translate(529.3558,154.6734)"><path
         d="M 0,0 -33.315,-54.614"
         style="fill:#ffffff;fill-opacity:1;fill-rule:nonzero;stroke:#ffffff;stroke-width:12;stroke-linecap:butt;stroke-linejoin:miter;stroke-miterlimit:10;stroke-dasharray:none;stroke-opacity:1"
         id="path150"
         inkscape:connector-curvature="0" /></g><g
       id="g152"
       transform="translate(680.7321,150.523)"
       style="fill:#640000;fill-opacity:1"><path
         d="m 0,0 c 0,-11.568 -9.378,-20.946 -20.946,-20.946 -11.568,0 -20.946,9.378 -20.946,20.946 0,11.568 9.378,20.946 20.946,20.946 C -9.378,20.946 0,11.568 0,0"
         style="fill:#640000;fill-opacity:1;fill-rule:nonzero;stroke:none"
         id="path154"
         inkscape:connector-curvature="0" /></g><g
       id="g156"
       transform="translate(680.7321,150.523)"><path
         d="m 0,0 c 0,-11.568 -9.378,-20.946 -20.946,-20.946 -11.568,0 -20.946,9.378 -20.946,20.946 0,11.568 9.378,20.946 20.946,20.946 C -9.378,20.946 0,11.568 0,0 Z"
         style="fill:none;stroke:#ffffff;stroke-width:12;stroke-linecap:butt;stroke-linejoin:miter;stroke-miterlimit:10;stroke-dasharray:none;stroke-opacity:1"
         id="path158"
         inkscape:connector-curvature="0" /></g><g
       id="g160"
       transform="translate(443.9227,170.1765)"
       style="fill:#640000;fill-opacity:1"><path
         d="m 0,0 c 0,-20.524 -16.638,-37.162 -37.162,-37.162 -20.524,0 -37.162,16.638 -37.162,37.162 0,20.524 16.638,37.162 37.162,37.162 C -16.638,37.162 0,20.524 0,0"
         style="fill:#640000;fill-opacity:1;fill-rule:nonzero;stroke:none"
         id="path162"
         inkscape:connector-curvature="0" /></g><g
       id="g164"
       transform="translate(443.9227,170.1765)"><path
         d="m 0,0 c 0,-20.524 -16.638,-37.162 -37.162,-37.162 -20.524,0 -37.162,16.638 -37.162,37.162 0,20.524 16.638,37.162 37.162,37.162 C -16.638,37.162 0,20.524 0,0 Z"
         style="fill:none;stroke:#ffffff;stroke-width:12;stroke-linecap:butt;stroke-linejoin:miter;stroke-miterlimit:10;stroke-dasharray:none;stroke-opacity:1"
         id="path166"
         inkscape:connector-curvature="0" /></g><g
       id="g168"
       transform="translate(469.3258,244.6913)"
       style="fill:#640000;fill-opacity:1"><path
         d="m 0,0 c 0,-11.568 -9.378,-20.946 -20.946,-20.946 -11.568,0 -20.946,9.378 -20.946,20.946 0,11.568 9.378,20.946 20.946,20.946 C -9.378,20.946 0,11.568 0,0"
         style="fill:#640000;fill-opacity:1;fill-rule:nonzero;stroke:none"
         id="path170"
         inkscape:connector-curvature="0" /></g><g
       id="g172"
       transform="translate(469.3258,244.6913)"><path
         d="m 0,0 c 0,-11.568 -9.378,-20.946 -20.946,-20.946 -11.568,0 -20.946,9.378 -20.946,20.946 0,11.568 9.378,20.946 20.946,20.946 C -9.378,20.946 0,11.568 0,0 Z"
         style="fill:none;stroke:#ffffff;stroke-width:12;stroke-linecap:butt;stroke-linejoin:miter;stroke-miterlimit:10;stroke-dasharray:none;stroke-opacity:1"
         id="path174"
         inkscape:connector-curvature="0" /></g><g
       id="g176"
       transform="translate(532.015,391.5678)"
       style="fill:#640000;fill-opacity:1"><path
         d="m 0,0 c 0,-11.568 -9.378,-20.946 -20.946,-20.946 -11.568,0 -20.946,9.378 -20.946,20.946 0,11.568 9.378,20.946 20.946,20.946 C -9.378,20.946 0,11.568 0,0"
         style="fill:#640000;fill-opacity:1;fill-rule:nonzero;stroke:none"
         id="path178"
         inkscape:connector-curvature="0" /></g><g
       id="g180"
       transform="translate(532.015,391.5678)"><path
         d="m 0,0 c 0,-11.568 -9.378,-20.946 -20.946,-20.946 -11.568,0 -20.946,9.378 -20.946,20.946 0,11.568 9.378,20.946 20.946,20.946 C -9.378,20.946 0,11.568 0,0 Z"
         style="fill:none;stroke:#ffffff;stroke-width:12;stroke-linecap:butt;stroke-linejoin:miter;stroke-miterlimit:10;stroke-dasharray:none;stroke-opacity:1"
         id="path182"
         inkscape:connector-curvature="0" /></g><g
       id="g184"
       transform="translate(367.7853,514.8381)"
       style="fill:#640000;fill-opacity:1"><path
         d="m 0,0 c 0,-20.524 -16.638,-37.162 -37.162,-37.162 -20.524,0 -37.162,16.638 -37.162,37.162 0,20.524 16.638,37.162 37.162,37.162 C -16.638,37.162 0,20.524 0,0"
         style="fill:#640000;fill-opacity:1;fill-rule:nonzero;stroke:none"
         id="path186"
         inkscape:connector-curvature="0" /></g><g
       id="g188"
       transform="translate(367.7853,514.8381)"><path
         d="m 0,0 c 0,-20.524 -16.638,-37.162 -37.162,-37.162 -20.524,0 -37.162,16.638 -37.162,37.162 0,20.524 16.638,37.162 37.162,37.162 C -16.638,37.162 0,20.524 0,0 Z"
         style="fill:none;stroke:#ffffff;stroke-width:12;stroke-linecap:butt;stroke-linejoin:miter;stroke-miterlimit:10;stroke-dasharray:none;stroke-opacity:1"
         id="path190"
         inkscape:connector-curvature="0" /></g><g
       id="g192"
       transform="translate(332.8942,83.4419)"
       style="fill:#640000;fill-opacity:1"><path
         d="m 0,0 c 0,-11.568 -9.378,-20.946 -20.946,-20.946 -11.568,0 -20.946,9.378 -20.946,20.946 0,11.568 9.378,20.946 20.946,20.946 C -9.378,20.946 0,11.568 0,0"
         style="fill:#640000;fill-opacity:1;fill-rule:nonzero;stroke:none"
         id="path194"
         inkscape:connector-curvature="0" /></g><g
       id="g196"
       transform="translate(332.8942,83.4419)"><path
         d="m 0,0 c 0,-11.568 -9.378,-20.946 -20.946,-20.946 -11.568,0 -20.946,9.378 -20.946,20.946 0,11.568 9.378,20.946 20.946,20.946 C -9.378,20.946 0,11.568 0,0 Z"
         style="fill:none;stroke:#ffffff;stroke-width:12;stroke-linecap:butt;stroke-linejoin:miter;stroke-miterlimit:10;stroke-dasharray:none;stroke-opacity:1"
         id="path198"
         inkscape:connector-curvature="0" /></g><g
       id="g200"
       transform="translate(320.153,479.1818)"><path
         d="M 0,0 -17.043,-56.362"
         style="fill:#ffffff;fill-opacity:1;fill-rule:nonzero;stroke:#ffffff;stroke-width:12;stroke-linecap:butt;stroke-linejoin:miter;stroke-miterlimit:10;stroke-dasharray:none;stroke-opacity:1"
         id="path202"
         inkscape:connector-curvature="0" /></g><g
       id="g204"
       transform="translate(294.5459,523.757)"><path
         d="M 0,0 -18.463,5.144"
         style="fill:#ffffff;fill-opacity:1;fill-rule:nonzero;stroke:#ffffff;stroke-width:12;stroke-linecap:butt;stroke-linejoin:miter;stroke-miterlimit:10;stroke-dasharray:none;stroke-opacity:1"
         id="path206"
         inkscape:connector-curvature="0" /></g><g
       id="g208"
       transform="translate(556.6356,539.5676)"><path
         d="M 0,0 71.864,-31.621"
         style="fill:#ffffff;fill-opacity:1;fill-rule:nonzero;stroke:#ffffff;stroke-width:12;stroke-linecap:butt;stroke-linejoin:miter;stroke-miterlimit:10;stroke-dasharray:none;stroke-opacity:1"
         id="path210"
         inkscape:connector-curvature="0" /></g><g
       id="g212"
       transform="translate(278.7852,535.7841)"
       style="fill:#640000;fill-opacity:1"><path
         d="m 0,0 c 0,-11.568 -9.378,-20.946 -20.946,-20.946 -11.568,0 -20.946,9.378 -20.946,20.946 0,11.568 9.378,20.946 20.946,20.946 C -9.378,20.946 0,11.568 0,0"
         style="fill:#640000;fill-opacity:1;fill-rule:nonzero;stroke:none"
         id="path214"
         inkscape:connector-curvature="0" /></g><g
       id="g216"
       transform="translate(278.7852,535.7841)"><path
         d="m 0,0 c 0,-11.568 -9.378,-20.946 -20.946,-20.946 -11.568,0 -20.946,9.378 -20.946,20.946 0,11.568 9.378,20.946 20.946,20.946 C -9.378,20.946 0,11.568 0,0 Z"
         style="fill:none;stroke:#ffffff;stroke-width:12;stroke-linecap:butt;stroke-linejoin:miter;stroke-miterlimit:10;stroke-dasharray:none;stroke-opacity:1"
         id="path218"
         inkscape:connector-curvature="0" /></g><g
       id="g220"
       transform="translate(330.1366,391.5678)"
       style="fill:#640000;fill-opacity:1"><path
         d="m 0,0 c 0,-20.524 -16.638,-37.162 -37.162,-37.162 -20.524,0 -37.162,16.638 -37.162,37.162 0,20.524 16.638,37.162 37.162,37.162 C -16.638,37.162 0,20.524 0,0"
         style="fill:#640000;fill-opacity:1;fill-rule:nonzero;stroke:none"
         id="path222"
         inkscape:connector-curvature="0" /></g><g
       id="g224"
       transform="translate(330.1366,391.5678)"><path
         d="m 0,0 c 0,-20.524 -16.638,-37.162 -37.162,-37.162 -20.524,0 -37.162,16.638 -37.162,37.162 0,20.524 16.638,37.162 37.162,37.162 C -16.638,37.162 0,20.524 0,0 Z"
         style="fill:none;stroke:#ffffff;stroke-width:12;stroke-linecap:butt;stroke-linejoin:miter;stroke-miterlimit:10;stroke-dasharray:none;stroke-opacity:1"
         id="path226"
         inkscape:connector-curvature="0" /></g><g
       id="g228"
       transform="translate(527.048,55.5884)"
       style="fill:#640000;fill-opacity:1"><path
         d="m 0,0 c 0,-27.545 -22.33,-49.875 -49.875,-49.875 -27.545,0 -49.875,22.33 -49.875,49.875 0,27.545 22.33,49.875 49.875,49.875 C -22.33,49.875 0,27.545 0,0"
         style="fill:#640000;fill-opacity:1;fill-rule:nonzero;stroke:none"
         id="path230"
         inkscape:connector-curvature="0" /></g><g
       id="g232"
       transform="translate(527.048,55.5884)"><path
         d="m 0,0 c 0,-27.545 -22.33,-49.875 -49.875,-49.875 -27.545,0 -49.875,22.33 -49.875,49.875 0,27.545 22.33,49.875 49.875,49.875 C -22.33,49.875 0,27.545 0,0 Z"
         style="fill:none;stroke:#ffffff;stroke-width:12;stroke-linecap:butt;stroke-linejoin:miter;stroke-miterlimit:10;stroke-dasharray:none;stroke-opacity:1"
         id="path234"
         inkscape:connector-curvature="0" /></g><g
       id="g236"
       transform="translate(695.9476,497.9996)"
       style="fill:#640000;fill-opacity:1"><path
         d="m 0,0 c 0,-20.524 -16.638,-37.162 -37.162,-37.162 -20.524,0 -37.162,16.638 -37.162,37.162 0,20.524 16.638,37.162 37.162,37.162 C -16.638,37.162 0,20.524 0,0"
         style="fill:#640000;fill-opacity:1;fill-rule:nonzero;stroke:none"
         id="path238"
         inkscape:connector-curvature="0" /></g><g
       id="g240"
       transform="translate(695.9476,497.9996)"><path
         d="m 0,0 c 0,-20.524 -16.638,-37.162 -37.162,-37.162 -20.524,0 -37.162,16.638 -37.162,37.162 0,20.524 16.638,37.162 37.162,37.162 C -16.638,37.162 0,20.524 0,0 Z"
         style="fill:none;stroke:#ffffff;stroke-width:12;stroke-linecap:butt;stroke-linejoin:miter;stroke-miterlimit:10;stroke-dasharray:none;stroke-opacity:1"
         id="path242"
         inkscape:connector-curvature="0" /></g><g
       id="g244"
       transform="translate(709.9213,242.4149)"><path
         d="M 0,0 0,50.946"
         style="fill:#ffffff;fill-opacity:1;fill-rule:nonzero;stroke:#ffffff;stroke-width:12;stroke-linecap:butt;stroke-linejoin:miter;stroke-miterlimit:10;stroke-dasharray:none;stroke-opacity:1"
         id="path246"
         inkscape:connector-curvature="0" /></g><g
       id="g248"
       transform="translate(747.0834,325.577)"
       style="fill:#640000;fill-opacity:1"><path
         d="m 0,0 c 0,-20.524 -16.638,-37.162 -37.162,-37.162 -20.524,0 -37.162,16.638 -37.162,37.162 0,20.524 16.638,37.162 37.162,37.162 C -16.638,37.162 0,20.524 0,0"
         style="fill:#640000;fill-opacity:1;fill-rule:nonzero;stroke:none"
         id="path250"
         inkscape:connector-curvature="0" /></g><g
       id="g252"
       transform="translate(747.0834,325.577)"><path
         d="m 0,0 c 0,-20.524 -16.638,-37.162 -37.162,-37.162 -20.524,0 -37.162,16.638 -37.162,37.162 0,20.524 16.638,37.162 37.162,37.162 C -16.638,37.162 0,20.524 0,0 Z"
         style="fill:none;stroke:#ffffff;stroke-width:12;stroke-linecap:butt;stroke-linejoin:miter;stroke-miterlimit:10;stroke-dasharray:none;stroke-opacity:1"
         id="path254"
         inkscape:connector-curvature="0" /></g><g
       id="g256"
       transform="translate(176.1725,460.897)"
       style="fill:#640000;fill-opacity:1"><path
         d="m 0,0 c 0,-20.524 -16.638,-37.162 -37.162,-37.162 -20.524,0 -37.162,16.638 -37.162,37.162 0,20.524 16.638,37.162 37.162,37.162 C -16.638,37.162 0,20.524 0,0"
         style="fill:#640000;fill-opacity:1;fill-rule:nonzero;stroke:none"
         id="path258"
         inkscape:connector-curvature="0" /></g><g
       id="g260"
       transform="translate(176.1725,460.897)"><path
         d="m 0,0 c 0,-20.524 -16.638,-37.162 -37.162,-37.162 -20.524,0 -37.162,16.638 -37.162,37.162 0,20.524 16.638,37.162 37.162,37.162 C -16.638,37.162 0,20.524 0,0 Z"
         style="fill:none;stroke:#ffffff;stroke-width:12;stroke-linecap:butt;stroke-linejoin:miter;stroke-miterlimit:10;stroke-dasharray:none;stroke-opacity:1"
         id="path262"
         inkscape:connector-curvature="0" /></g><g
       id="g264"
       transform="translate(139.0104,423.7349)"><path
         d="M 0,0 0,-63.377"
         style="fill:#ffffff;fill-opacity:1;fill-rule:nonzero;stroke:#ffffff;stroke-width:12;stroke-linecap:butt;stroke-linejoin:miter;stroke-miterlimit:10;stroke-dasharray:none;stroke-opacity:1"
         id="path266"
         inkscape:connector-curvature="0" /></g><g
       id="g268"
       transform="translate(113.6129,488.0137)"><path
         d="M 0,0 -24.28,20.821"
         style="fill:#ffffff;fill-opacity:1;fill-rule:nonzero;stroke:#ffffff;stroke-width:12;stroke-linecap:butt;stroke-linejoin:miter;stroke-miterlimit:10;stroke-dasharray:none;stroke-opacity:1"
         id="path270"
         inkscape:connector-curvature="0" /></g><g
       id="g272"
       transform="translate(176.1725,454.8337)"><path
         d="M 0,0 32.08,0"
         style="fill:#ffffff;fill-opacity:1;fill-rule:nonzero;stroke:#ffffff;stroke-width:12;stroke-linecap:butt;stroke-linejoin:miter;stroke-miterlimit:10;stroke-dasharray:none;stroke-opacity:1"
         id="path274"
         inkscape:connector-curvature="0" /></g><g
       id="g276"
       transform="translate(159.9563,343.6721)"
       style="fill:#640000;fill-opacity:1"><path
         d="m 0,0 c 0,-11.568 -9.378,-20.946 -20.946,-20.946 -11.568,0 -20.946,9.378 -20.946,20.946 0,11.568 9.378,20.946 20.946,20.946 C -9.378,20.946 0,11.568 0,0"
         style="fill:#640000;fill-opacity:1;fill-rule:nonzero;stroke:none"
         id="path278"
         inkscape:connector-curvature="0" /></g><g
       id="g280"
       transform="translate(159.9563,343.6721)"><path
         d="m 0,0 c 0,-11.568 -9.378,-20.946 -20.946,-20.946 -11.568,0 -20.946,9.378 -20.946,20.946 0,11.568 9.378,20.946 20.946,20.946 C -9.378,20.946 0,11.568 0,0 Z"
         style="fill:none;stroke:#ffffff;stroke-width:12;stroke-linecap:butt;stroke-linejoin:miter;stroke-miterlimit:10;stroke-dasharray:none;stroke-opacity:1"
         id="path282"
         inkscape:connector-curvature="0" /></g><g
       id="g284"
       transform="translate(244.9563,454.8337)"
       style="fill:#640000;fill-opacity:1"><path
         d="m 0,0 c 0,-11.568 -9.378,-20.946 -20.946,-20.946 -11.568,0 -20.946,9.378 -20.946,20.946 0,11.568 9.378,20.946 20.946,20.946 C -9.378,20.946 0,11.568 0,0"
         style="fill:#640000;fill-opacity:1;fill-rule:nonzero;stroke:none"
         id="path286"
         inkscape:connector-curvature="0" /></g><g
       id="g288"
       transform="translate(244.9563,454.8337)"><path
         d="m 0,0 c 0,-11.568 -9.378,-20.946 -20.946,-20.946 -11.568,0 -20.946,9.378 -20.946,20.946 0,11.568 9.378,20.946 20.946,20.946 C -9.378,20.946 0,11.568 0,0 Z"
         style="fill:none;stroke:#ffffff;stroke-width:12;stroke-linecap:butt;stroke-linejoin:miter;stroke-miterlimit:10;stroke-dasharray:none;stroke-opacity:1"
         id="path290"
         inkscape:connector-curvature="0" /></g><g
       id="g292"
       transform="translate(159.9563,340.06)"><path
         d="M 0,0 61.134,-23.649"
         style="fill:#ffffff;fill-opacity:1;fill-rule:nonzero;stroke:#ffffff;stroke-width:12;stroke-linecap:butt;stroke-linejoin:miter;stroke-miterlimit:10;stroke-dasharray:none;stroke-opacity:1"
         id="path294"
         inkscape:connector-curvature="0" /></g><g
       id="g296"
       transform="translate(258.4968,312.8709)"
       style="fill:#640000;fill-opacity:1"><path
         d="m 0,0 c 0,-11.568 -9.378,-20.946 -20.946,-20.946 -11.568,0 -20.946,9.378 -20.946,20.946 0,11.568 9.378,20.946 20.946,20.946 C -9.378,20.946 0,11.568 0,0"
         style="fill:#640000;fill-opacity:1;fill-rule:nonzero;stroke:none"
         id="path298"
         inkscape:connector-curvature="0" /></g><g
       id="g300"
       transform="translate(258.4968,312.8709)"><path
         d="m 0,0 c 0,-11.568 -9.378,-20.946 -20.946,-20.946 -11.568,0 -20.946,9.378 -20.946,20.946 0,11.568 9.378,20.946 20.946,20.946 C -9.378,20.946 0,11.568 0,0 Z"
         style="fill:none;stroke:#ffffff;stroke-width:12;stroke-linecap:butt;stroke-linejoin:miter;stroke-miterlimit:10;stroke-dasharray:none;stroke-opacity:1"
         id="path302"
         inkscape:connector-curvature="0" /></g><g
       id="g304"
       transform="translate(124.8554,328.2357)"><path
         d="M 0,0 -11.243,-11.824"
         style="fill:#ffffff;fill-opacity:1;fill-rule:nonzero;stroke:#ffffff;stroke-width:12;stroke-linecap:butt;stroke-linejoin:miter;stroke-miterlimit:10;stroke-dasharray:none;stroke-opacity:1"
         id="path306"
         inkscape:connector-curvature="0" /></g><g
       id="g308"
       transform="translate(130.2806,287.3573)"
       style="fill:#640000;fill-opacity:1"><path
         d="m 0,0 c 0,-20.524 -16.638,-37.162 -37.162,-37.162 -20.524,0 -37.162,16.638 -37.162,37.162 0,20.524 16.638,37.162 37.162,37.162 C -16.638,37.162 0,20.524 0,0"
         style="fill:#640000;fill-opacity:1;fill-rule:nonzero;stroke:none"
         id="path310"
         inkscape:connector-curvature="0" /></g><g
       id="g312"
       transform="translate(130.2806,287.3573)"><path
         d="m 0,0 c 0,-20.524 -16.638,-37.162 -37.162,-37.162 -20.524,0 -37.162,16.638 -37.162,37.162 0,20.524 16.638,37.162 37.162,37.162 C -16.638,37.162 0,20.524 0,0 Z"
         style="fill:none;stroke:#ffffff;stroke-width:12;stroke-linecap:butt;stroke-linejoin:miter;stroke-miterlimit:10;stroke-dasharray:none;stroke-opacity:1"
         id="path314"
         inkscape:connector-curvature="0" /></g><g
       id="g316"
       transform="translate(101.473,533.5638)"
       style="fill:#640000;fill-opacity:1"><path
         d="m 0,0 c 0,-20.524 -16.638,-37.162 -37.162,-37.162 -20.524,0 -37.162,16.638 -37.162,37.162 0,20.524 16.638,37.162 37.162,37.162 C -16.638,37.162 0,20.524 0,0"
         style="fill:#640000;fill-opacity:1;fill-rule:nonzero;stroke:none"
         id="path318"
         inkscape:connector-curvature="0" /></g><g
       id="g320"
       transform="translate(101.473,533.5638)"><path
         d="m 0,0 c 0,-20.524 -16.638,-37.162 -37.162,-37.162 -20.524,0 -37.162,16.638 -37.162,37.162 0,20.524 16.638,37.162 37.162,37.162 C -16.638,37.162 0,20.524 0,0 Z"
         style="fill:none;stroke:#ffffff;stroke-width:12;stroke-linecap:butt;stroke-linejoin:miter;stroke-miterlimit:10;stroke-dasharray:none;stroke-opacity:1"
         id="path322"
         inkscape:connector-curvature="0" /></g></g></svg>