<?xml version="1.0" encoding="UTF-8" standalone="no"?>
<!-- Created with Inkscape (http://www.inkscape.org/) -->

<svg
   xmlns:dc="http://purl.org/dc/elements/1.1/"
   xmlns:cc="http://creativecommons.org/ns#"
   xmlns:rdf="http://www.w3.org/1999/02/22-rdf-syntax-ns#"
   xmlns:svg="http://www.w3.org/2000/svg"
   xmlns="http://www.w3.org/2000/svg"
   xmlns:sodipodi="http://sodipodi.sourceforge.net/DTD/sodipodi-0.dtd"
   xmlns:inkscape="http://www.inkscape.org/namespaces/inkscape"
   width="88"
   height="78"
   viewBox="0 0 88 78.000001"
   id="svg7840"
   version="1.1"
   inkscape:version="0.91 r13725"
   sodipodi:docname="statistics.svg">
  <defs
     id="defs7842" />
  <sodipodi:namedview
     id="base"
     pagecolor="#ffffff"
     bordercolor="#666666"
     borderopacity="1.0"
     inkscape:pageopacity="0.0"
     inkscape:pageshadow="2"
     inkscape:zoom="3.959798"
     inkscape:cx="44.064061"
     inkscape:cy="38.860726"
     inkscape:document-units="px"
     inkscape:current-layer="layer1"
     showgrid="false"
     units="px"
     inkscape:window-width="1920"
     inkscape:window-height="998"
     inkscape:window-x="0"
     inkscape:window-y="0"
     inkscape:window-maximized="1" />
  <metadata
     id="metadata7845">
    <rdf:RDF>
      <cc:Work
         rdf:about="">
        <dc:format>image/svg+xml</dc:format>
        <dc:type
           rdf:resource="http://purl.org/dc/dcmitype/StillImage" />
        <dc:title></dc:title>
      </cc:Work>
    </rdf:RDF>
  </metadata>
  <g
     inkscape:label="Ebene 1"
     inkscape:groupmode="layer"
     id="layer1"
     transform="translate(0,-974.3619)">
    <g
       id="g372"
       transform="matrix(1.25,0,0,-1.25,2.1678178,1050.2602)">
      <path
         d="M 0,0 67.032,0"
         style="fill:none;stroke:#ffffff;stroke-width:1.96000004;stroke-linecap:butt;stroke-linejoin:miter;stroke-miterlimit:10;stroke-dasharray:none;stroke-opacity:1"
         id="path374"
         inkscape:connector-curvature="0" />
    </g>
    <g
       id="g376"
       transform="matrix(1.25,0,0,-1.25,2.1678178,1050.2602)">
      <path
         d="M 0,0 0,1.431"
         style="fill:none;stroke:#ffffff;stroke-width:0.78399998;stroke-linecap:butt;stroke-linejoin:miter;stroke-miterlimit:10;stroke-dasharray:none;stroke-opacity:1"
         id="path378"
         inkscape:connector-curvature="0" />
    </g>
    <g
       id="g380"
       transform="matrix(1.25,0,0,-1.25,18.925938,1050.2602)">
      <path
         d="M 0,0 0,1.431"
         style="fill:none;stroke:#ffffff;stroke-width:0.78399998;stroke-linecap:butt;stroke-linejoin:miter;stroke-miterlimit:10;stroke-dasharray:none;stroke-opacity:1"
         id="path382"
         inkscape:connector-curvature="0" />
    </g>
    <g
       id="g384"
       transform="matrix(1.25,0,0,-1.25,35.683938,1050.2602)">
      <path
         d="M 0,0 0,1.431"
         style="fill:none;stroke:#ffffff;stroke-width:0.78399998;stroke-linecap:butt;stroke-linejoin:miter;stroke-miterlimit:10;stroke-dasharray:none;stroke-opacity:1"
         id="path386"
         inkscape:connector-curvature="0" />
    </g>
    <g
       id="g388"
       transform="matrix(1.25,0,0,-1.25,52.441938,1050.2602)">
      <path
         d="M 0,0 0,1.431"
         style="fill:none;stroke:#ffffff;stroke-width:0.78399998;stroke-linecap:butt;stroke-linejoin:miter;stroke-miterlimit:10;stroke-dasharray:none;stroke-opacity:1"
         id="path390"
         inkscape:connector-curvature="0" />
    </g>
    <g
       id="g392"
       transform="matrix(1.25,0,0,-1.25,69.199938,1050.2602)">
      <path
         d="M 0,0 0,1.431"
         style="fill:none;stroke:#ffffff;stroke-width:0.78399998;stroke-linecap:butt;stroke-linejoin:miter;stroke-miterlimit:10;stroke-dasharray:none;stroke-opacity:1"
         id="path394"
         inkscape:connector-curvature="0" />
    </g>
    <g
       id="g396"
       transform="matrix(1.25,0,0,-1.25,85.957818,1050.2602)">
      <path
         d="M 0,0 0,1.431"
         style="fill:none;stroke:#ffffff;stroke-width:0.78399998;stroke-linecap:butt;stroke-linejoin:miter;stroke-miterlimit:10;stroke-dasharray:none;stroke-opacity:1"
         id="path398"
         inkscape:connector-curvature="0" />
    </g>
    <g
       id="g400"
       transform="matrix(1.25,0,0,-1.25,2.1678178,1050.2602)">
      <path
         d="M 0,0 0,57.232"
         style="fill:none;stroke:#ffffff;stroke-width:1.96000004;stroke-linecap:butt;stroke-linejoin:miter;stroke-miterlimit:10;stroke-dasharray:none;stroke-opacity:1"
         id="path402"
         inkscape:connector-curvature="0" />
    </g>
    <g
       id="g404"
       transform="matrix(1.25,0,0,-1.25,2.1678178,1050.2602)">
      <path
         d="M 0,0 1.676,0"
         style="fill:none;stroke:#ffffff;stroke-width:0.78399998;stroke-linecap:butt;stroke-linejoin:miter;stroke-miterlimit:10;stroke-dasharray:none;stroke-opacity:1"
         id="path406"
         inkscape:connector-curvature="0" />
    </g>
    <g
       id="g408"
       transform="matrix(1.25,0,0,-1.25,2.1678178,1038.337)">
      <path
         d="M 0,0 1.676,0"
         style="fill:none;stroke:#ffffff;stroke-width:0.78399998;stroke-linecap:butt;stroke-linejoin:miter;stroke-miterlimit:10;stroke-dasharray:none;stroke-opacity:1"
         id="path410"
         inkscape:connector-curvature="0" />
    </g>
    <g
       id="g412"
       transform="matrix(1.25,0,0,-1.25,2.1678178,1026.4136)">
      <path
         d="M 0,0 1.676,0"
         style="fill:none;stroke:#ffffff;stroke-width:0.78399998;stroke-linecap:butt;stroke-linejoin:miter;stroke-miterlimit:10;stroke-dasharray:none;stroke-opacity:1"
         id="path414"
         inkscape:connector-curvature="0" />
    </g>
    <g
       id="g416"
       transform="matrix(1.25,0,0,-1.25,2.1678178,1014.4902)">
      <path
         d="M 0,0 1.676,0"
         style="fill:none;stroke:#ffffff;stroke-width:0.78399998;stroke-linecap:butt;stroke-linejoin:miter;stroke-miterlimit:10;stroke-dasharray:none;stroke-opacity:1"
         id="path418"
         inkscape:connector-curvature="0" />
    </g>
    <g
       id="g420"
       transform="matrix(1.25,0,0,-1.25,2.1678178,1002.567)">
      <path
         d="M 0,0 1.676,0"
         style="fill:none;stroke:#ffffff;stroke-width:0.78399998;stroke-linecap:butt;stroke-linejoin:miter;stroke-miterlimit:10;stroke-dasharray:none;stroke-opacity:1"
         id="path422"
         inkscape:connector-curvature="0" />
    </g>
    <g
       id="g424"
       transform="matrix(1.25,0,0,-1.25,2.1678178,990.64362)">
      <path
         d="M 0,0 1.676,0"
         style="fill:none;stroke:#ffffff;stroke-width:0.78399998;stroke-linecap:butt;stroke-linejoin:miter;stroke-miterlimit:10;stroke-dasharray:none;stroke-opacity:1"
         id="path426"
         inkscape:connector-curvature="0" />
    </g>
    <g
       id="g428"
       transform="matrix(1.25,0,0,-1.25,2.1678178,978.72024)">
      <path
         d="M 0,0 1.676,0"
         style="fill:none;stroke:#ffffff;stroke-width:0.78399998;stroke-linecap:butt;stroke-linejoin:miter;stroke-miterlimit:10;stroke-dasharray:none;stroke-opacity:1"
         id="path430"
         inkscape:connector-curvature="0" />
    </g>
    <g
       id="g432"
       transform="matrix(1.25,0,0,-1.25,27.304938,1002.567)">
      <path
         d="M 0,0 -13.406,-9.539"
         style="fill:none;stroke:#9d9c9c;stroke-width:1.56799996;stroke-linecap:round;stroke-linejoin:miter;stroke-miterlimit:10;stroke-dasharray:none;stroke-opacity:1"
         id="path434"
         inkscape:connector-curvature="0" />
    </g>
    <g
       id="g436"
       transform="matrix(1.25,0,0,-1.25,44.062818,1020.452)">
      <path
         d="M 0,0 -13.406,14.308"
         style="fill:none;stroke:#9d9c9c;stroke-width:1.56799996;stroke-linecap:round;stroke-linejoin:miter;stroke-miterlimit:10;stroke-dasharray:none;stroke-opacity:1"
         id="path438"
         inkscape:connector-curvature="0" />
    </g>
    <g
       id="g440"
       transform="matrix(1.25,0,0,-1.25,60.820948,978.72024)">
      <path
         d="M 0,0 -13.406,-33.385"
         style="fill:none;stroke:#9d9c9c;stroke-width:1.56799996;stroke-linecap:round;stroke-linejoin:miter;stroke-miterlimit:10;stroke-dasharray:none;stroke-opacity:1"
         id="path442"
         inkscape:connector-curvature="0" />
    </g>
    <g
       id="g444"
       transform="matrix(1.25,0,0,-1.25,77.578818,990.64362)">
      <path
         d="M 0,0 -13.406,9.539"
         style="fill:none;stroke:#9d9c9c;stroke-width:1.56799996;stroke-linecap:round;stroke-linejoin:miter;stroke-miterlimit:10;stroke-dasharray:none;stroke-opacity:1"
         id="path446"
         inkscape:connector-curvature="0" />
    </g>
    <g
       id="g448"
       transform="matrix(1.25,0,0,-1.25,27.304938,1014.4902)">
      <path
         d="M 0,0 -13.406,-9.539"
         style="fill:none;stroke:#e8e8e8;stroke-width:1.56799996;stroke-linecap:round;stroke-linejoin:miter;stroke-miterlimit:10;stroke-dasharray:none;stroke-opacity:1"
         id="path450"
         inkscape:connector-curvature="0" />
    </g>
    <g
       id="g452"
       transform="matrix(1.25,0,0,-1.25,44.062818,1032.3752)">
      <path
         d="M 0,0 -13.406,14.308"
         style="fill:none;stroke:#e8e8e8;stroke-width:1.56799996;stroke-linecap:round;stroke-linejoin:miter;stroke-miterlimit:10;stroke-dasharray:none;stroke-opacity:1"
         id="path454"
         inkscape:connector-curvature="0" />
    </g>
    <g
       id="g456"
       transform="matrix(1.25,0,0,-1.25,60.820948,1002.567)">
      <path
         d="M 0,0 -13.406,-23.847"
         style="fill:none;stroke:#e8e8e8;stroke-width:1.56799996;stroke-linecap:round;stroke-linejoin:miter;stroke-miterlimit:10;stroke-dasharray:none;stroke-opacity:1"
         id="path458"
         inkscape:connector-curvature="0" />
    </g>
    <g
       id="g460"
       transform="matrix(1.25,0,0,-1.25,77.578818,1014.4902)">
      <path
         d="M 0,0 -13.406,9.539"
         style="fill:none;stroke:#e8e8e8;stroke-width:1.56799996;stroke-linecap:round;stroke-linejoin:miter;stroke-miterlimit:10;stroke-dasharray:none;stroke-opacity:1"
         id="path462"
         inkscape:connector-curvature="0" />
    </g>
    <g
       id="g464"
       transform="matrix(1.25,0,0,-1.25,27.304938,1026.4136)">
      <path
         d="M 0,0 -13.406,-9.539"
         style="fill:none;stroke:#1d1d1b;stroke-width:1.56799996;stroke-linecap:round;stroke-linejoin:miter;stroke-miterlimit:10;stroke-dasharray:none;stroke-opacity:1"
         id="path466"
         inkscape:connector-curvature="0" />
    </g>
    <g
       id="g468"
       transform="matrix(1.25,0,0,-1.25,44.062818,1044.2986)">
      <path
         d="M 0,0 -13.406,14.308"
         style="fill:none;stroke:#1d1d1b;stroke-width:1.56799996;stroke-linecap:round;stroke-linejoin:miter;stroke-miterlimit:10;stroke-dasharray:none;stroke-opacity:1"
         id="path470"
         inkscape:connector-curvature="0" />
    </g>
    <g
       id="g472"
       transform="matrix(1.25,0,0,-1.25,60.820948,1014.4902)">
      <path
         d="M 0,0 -13.406,-23.847"
         style="fill:none;stroke:#1d1d1b;stroke-width:1.56799996;stroke-linecap:round;stroke-linejoin:miter;stroke-miterlimit:10;stroke-dasharray:none;stroke-opacity:1"
         id="path474"
         inkscape:connector-curvature="0" />
    </g>
    <g
       id="g476"
       transform="matrix(1.25,0,0,-1.25,77.578818,1026.4136)">
      <path
         d="M 0,0 -13.406,9.539"
         style="fill:none;stroke:#1d1d1b;stroke-width:1.56799996;stroke-linecap:round;stroke-linejoin:miter;stroke-miterlimit:10;stroke-dasharray:none;stroke-opacity:1"
         id="path478"
         inkscape:connector-curvature="0" />
    </g>
    <path
       d="m 7.6068178,1011.5505 5.8800002,0 0,5.88 -5.8800002,0 0,-5.88 z"
       style="fill:#9d9c9c;fill-opacity:1;fill-rule:nonzero;stroke:#1d1d1b;stroke-width:0.48999998;stroke-linecap:butt;stroke-linejoin:miter;stroke-miterlimit:10;stroke-dasharray:none;stroke-opacity:1"
       id="path480"
       inkscape:connector-curvature="0" />
    <path
       d="m 24.364318,999.62674 5.88,0 0,5.87996 -5.88,0 0,-5.87996 z"
       style="fill:#9d9c9c;fill-opacity:1;fill-rule:nonzero;stroke:#1d1d1b;stroke-width:0.48999998;stroke-linecap:butt;stroke-linejoin:miter;stroke-miterlimit:10;stroke-dasharray:none;stroke-opacity:1"
       id="path482"
       inkscape:connector-curvature="0" />
    <path
       d="m 41.123068,1017.5117 5.88,0 0,5.88 -5.88,0 0,-5.88 z"
       style="fill:#9d9c9c;fill-opacity:1;fill-rule:nonzero;stroke:#1d1d1b;stroke-width:0.48999998;stroke-linecap:butt;stroke-linejoin:miter;stroke-miterlimit:10;stroke-dasharray:none;stroke-opacity:1"
       id="path484"
       inkscape:connector-curvature="0" />
    <path
       d="m 57.880568,975.78049 5.88,0 0,5.88 -5.88,0 0,-5.88 z"
       style="fill:#9d9c9c;fill-opacity:1;fill-rule:nonzero;stroke:#1d1d1b;stroke-width:0.48999998;stroke-linecap:butt;stroke-linejoin:miter;stroke-miterlimit:10;stroke-dasharray:none;stroke-opacity:1"
       id="path486"
       inkscape:connector-curvature="0" />
    <path
       d="m 74.639318,987.70299 5.88,0 0,5.88 -5.88,0 0,-5.88 z"
       style="fill:#9d9c9c;fill-opacity:1;fill-rule:nonzero;stroke:#1d1d1b;stroke-width:0.48999998;stroke-linecap:butt;stroke-linejoin:miter;stroke-miterlimit:10;stroke-dasharray:none;stroke-opacity:1"
       id="path488"
       inkscape:connector-curvature="0" />
    <path
       d="m 7.6068178,1023.473 5.8800002,0 0,5.88 -5.8800002,0 0,-5.88 z"
       style="fill:#e8e8e8;fill-opacity:1;fill-rule:nonzero;stroke:#1d1d1b;stroke-width:0.48999998;stroke-linecap:butt;stroke-linejoin:miter;stroke-miterlimit:10;stroke-dasharray:none;stroke-opacity:1"
       id="path490"
       inkscape:connector-curvature="0" />
    <path
       d="m 24.364318,1011.5505 5.88,0 0,5.88 -5.88,0 0,-5.88 z"
       style="fill:#e8e8e8;fill-opacity:1;fill-rule:nonzero;stroke:#1d1d1b;stroke-width:0.48999998;stroke-linecap:butt;stroke-linejoin:miter;stroke-miterlimit:10;stroke-dasharray:none;stroke-opacity:1"
       id="path492"
       inkscape:connector-curvature="0" />
    <path
       d="m 41.123068,1029.4355 5.88,0 0,5.88 -5.88,0 0,-5.88 z"
       style="fill:#e8e8e8;fill-opacity:1;fill-rule:nonzero;stroke:#1d1d1b;stroke-width:0.48999998;stroke-linecap:butt;stroke-linejoin:miter;stroke-miterlimit:10;stroke-dasharray:none;stroke-opacity:1"
       id="path494"
       inkscape:connector-curvature="0" />
    <path
       d="m 57.880568,999.62674 5.88,0 0,5.87996 -5.88,0 0,-5.87996 z"
       style="fill:#e8e8e8;fill-opacity:1;fill-rule:nonzero;stroke:#1d1d1b;stroke-width:0.48999998;stroke-linecap:butt;stroke-linejoin:miter;stroke-miterlimit:10;stroke-dasharray:none;stroke-opacity:1"
       id="path496"
       inkscape:connector-curvature="0" />
    <path
       d="m 74.639318,1011.5505 5.88,0 0,5.88 -5.88,0 0,-5.88 z"
       style="fill:#e8e8e8;fill-opacity:1;fill-rule:nonzero;stroke:#1d1d1b;stroke-width:0.48999998;stroke-linecap:butt;stroke-linejoin:miter;stroke-miterlimit:10;stroke-dasharray:none;stroke-opacity:1"
       id="path498"
       inkscape:connector-curvature="0" />
    <path
       d="m 7.6068178,1035.3967 5.8800002,0 0,5.88 -5.8800002,0 0,-5.88 z"
       style="fill:#1d1d1b;fill-opacity:1;fill-rule:nonzero;stroke:#1d1d1b;stroke-width:0.48999998;stroke-linecap:butt;stroke-linejoin:miter;stroke-miterlimit:10;stroke-dasharray:none;stroke-opacity:1"
       id="path500"
       inkscape:connector-curvature="0" />
    <path
       d="m 24.364318,1023.473 5.88,0 0,5.88 -5.88,0 0,-5.88 z"
       style="fill:#1d1d1b;fill-opacity:1;fill-rule:nonzero;stroke:#1d1d1b;stroke-width:0.48999998;stroke-linecap:butt;stroke-linejoin:miter;stroke-miterlimit:10;stroke-dasharray:none;stroke-opacity:1"
       id="path502"
       inkscape:connector-curvature="0" />
    <path
       d="m 41.123068,1041.358 5.88,0 0,5.88 -5.88,0 0,-5.88 z"
       style="fill:#1d1d1b;fill-opacity:1;fill-rule:nonzero;stroke:#1d1d1b;stroke-width:0.48999998;stroke-linecap:butt;stroke-linejoin:miter;stroke-miterlimit:10;stroke-dasharray:none;stroke-opacity:1"
       id="path504"
       inkscape:connector-curvature="0" />
    <path
       d="m 57.880568,1011.5505 5.88,0 0,5.88 -5.88,0 0,-5.88 z"
       style="fill:#1d1d1b;fill-opacity:1;fill-rule:nonzero;stroke:#1d1d1b;stroke-width:0.48999998;stroke-linecap:butt;stroke-linejoin:miter;stroke-miterlimit:10;stroke-dasharray:none;stroke-opacity:1"
       id="path506"
       inkscape:connector-curvature="0" />
    <path
       d="m 74.639318,1023.473 5.88,0 0,5.88 -5.88,0 0,-5.88 z"
       style="fill:#1d1d1b;fill-opacity:1;fill-rule:nonzero;stroke:#1d1d1b;stroke-width:0.48999998;stroke-linecap:butt;stroke-linejoin:miter;stroke-miterlimit:10;stroke-dasharray:none;stroke-opacity:1"
       id="path508"
       inkscape:connector-curvature="0" />
  </g>
</svg>
