<?xml version="1.0" encoding="UTF-8" standalone="no"?>
<!-- Created with Inkscape (http://www.inkscape.org/) -->

<svg
   xmlns:dc="http://purl.org/dc/elements/1.1/"
   xmlns:cc="http://creativecommons.org/ns#"
   xmlns:rdf="http://www.w3.org/1999/02/22-rdf-syntax-ns#"
   xmlns:svg="http://www.w3.org/2000/svg"
   xmlns="http://www.w3.org/2000/svg"
   xmlns:sodipodi="http://sodipodi.sourceforge.net/DTD/sodipodi-0.dtd"
   xmlns:inkscape="http://www.inkscape.org/namespaces/inkscape"
   width="70"
   height="65"
   viewBox="0 0 70.000001 65.000001"
   id="svg4394"
   version="1.1"
   inkscape:version="0.91 r13725"
   sodipodi:docname="brain.svg">
  <defs
     id="defs4396" />
  <sodipodi:namedview
     id="base"
     pagecolor="#ffffff"
     bordercolor="#666666"
     borderopacity="1.0"
     inkscape:pageopacity="0.0"
     inkscape:pageshadow="2"
     inkscape:zoom="1.979899"
     inkscape:cx="-130.61225"
     inkscape:cy="-7.4331843"
     inkscape:document-units="px"
     inkscape:current-layer="layer1"
     showgrid="false"
     units="px"
     inkscape:window-width="1920"
     inkscape:window-height="998"
     inkscape:window-x="0"
     inkscape:window-y="0"
     inkscape:window-maximized="1" />
  <metadata
     id="metadata4399">
    <rdf:RDF>
      <cc:Work
         rdf:about="">
        <dc:format>image/svg+xml</dc:format>
        <dc:type
           rdf:resource="http://purl.org/dc/dcmitype/StillImage" />
        <dc:title></dc:title>
      </cc:Work>
    </rdf:RDF>
  </metadata>
  <g
     inkscape:label="Ebene 1"
     inkscape:groupmode="layer"
     id="layer1"
     transform="translate(0,-987.36216)">
    <g
       transform="translate(114.68076,134.79912)"
       id="g4372">
      <path
         inkscape:connector-curvature="0"
         id="path3564"
         d="m -95.459944,916.39008 -4.21875,-1.0964 0,-5.11044 c 0,-5.0031 -0.0635,-5.1236 -3.023386,-5.7362 -6.95841,-1.4402 -11.13276,-6.3537 -10.2243,-12.0349 0.37555,-2.3486 0.0739,-4.847 -0.85325,-7.0659 -1.41897,-3.3961 -1.10599,-9.36823 0.5444,-10.38823 0.41918,-0.259 0.42654,-1.6412 0.0164,-3.0714 -1.16509,-4.0624 0.84507,-8.656 5.10268,-11.6606 2.0625,-1.4555 4.78213,-3.369 6.04362,-4.2523 2.500296,-1.7507 11.045949,-3.1301 20.764939,-3.3517 5.48812,-0.1251 6.99983,0.2736 13.4414,3.5448 7.68302,3.9016 11.37604,7.6474 12.35231,12.5287 0.32261,1.6131 1.54341,3.5598 2.71287,4.3261 3.081,2.0187 7.22545,9.84943 7.25712,13.71203 0.081,9.8834 -12.3021,17.2547 -21.19505,12.6167 -3.3799,-1.7627 -5.28346,-1.7852 -5.28346,-0.062 0,1.8837 -4.52355,5.2243 -7.07434,5.2243 -2.33834,0 -5.65232,3.4617 -8.97689,9.37694 -1.15859,2.0615 -2.34526,3.7142 -2.63703,3.6727 -0.29177,-0.042 -2.42893,-0.5689 -4.749243,-1.1719 z"
         style="fill:#000000" />
      <path
         inkscape:connector-curvature="0"
         id="path3562"
         d="m -55.194681,894.43284 c 1.89384,-0.9599 3.7148,-2.8393 4.39421,-4.5351 1.01722,-2.539 0.88819,-3.483 -1.04697,-7.6599 -3.11916,-6.73243 -8.23413,-8.96103 -11.11771,-4.84423 -0.91847,1.3114 -1.57713,1.595 -2.02409,0.8719 -0.36441,-0.5897 -1.56861,-1.4377 -2.67601,-1.8845 -1.74879,-0.7056 -1.60486,-0.8202 1.09507,-0.8718 3.83825,-0.073 6.73524,-1.5405 6.73524,-3.411 0,-3.3207 -3.74816,-8.6198 -7.21886,-10.2059 -1.95932,-0.8954 -5.27762,-2.43 -7.37401,-3.4103 -7.0486,-3.2958 -14.05601,-1.7593 -13.38679,2.9353 0.26761,1.8773 1.04251,2.3909 4.49108,2.9768 2.29222,0.3894 4.61555,1.2433 5.16295,1.8975 0.5474,0.6542 0.59148,0.873 0.098,0.4863 -0.49353,-0.3867 -2.48057,-0.7031 -4.41564,-0.7031 -2.97745,0 -3.98161,-0.5765 -6.53191,-3.75 -3.61246,-4.4952 -7.541013,-5.0295 -11.768469,-1.6004 -1.45753,1.1822 -3.835,2.8957 -5.28327,3.8077 -2.12918,1.3407 -2.57781,2.227 -2.34375,4.6304 0.22258,2.2854 0.89573,3.1841 2.91322,3.8893 1.76923,0.6184 3.14321,0.5927 4.21875,-0.079 1.319506,-0.8239 1.617676,-0.6258 1.726316,1.1468 0.11843,1.9326 -0.10791,2.0518 -2.307156,1.2157 -3.50204,-1.3315 -6.32673,-0.311 -7.59157,2.7425 -2.14759,5.18483 1.86795,10.17483 7.5202,9.34533 1.957926,-0.2874 2.834196,0.047 3.208046,1.2251 0.61699,1.944 5.908503,4.614 9.144183,4.614 3.69627,0 4.83707,-2.1208 3.12265,-5.8051 -0.79369,-1.7056 -1.83835,-4.9095 -2.32147,-7.1195 -0.84176,-3.85083 -0.79425,-3.99263 1.13895,-3.39923 2.7496,0.8439 2.77871,0.9003 1.60187,3.0992 -1.55518,2.90593 -0.28003,6.23903 3.79546,9.92103 2.8582,2.5822 4.44986,3.3036 7.28918,3.3036 3.95067,0 5.32419,-1.0752 5.98834,-4.6875 0.37144,-2.0203 0.44853,-1.9327 0.55858,0.6351 0.15124,3.5288 3.80712,6.8656 7.51973,6.8634 1.34843,-8e-4 3.907,-0.739 5.6857,-1.6406 z"
         style="fill:#ffffff;fill-opacity:1" />
      <path
         inkscape:connector-curvature="0"
         id="path3560"
         d="m -61.650291,884.59304 -1.02154,-2.9305 2.35595,2.2134 c 2.76499,2.5976 2.72699,2.481 1.02153,3.1354 -0.88108,0.3381 -1.68144,-0.4834 -2.35594,-2.4183 z"
         style="fill:#000000" />
      <path
         inkscape:connector-curvature="0"
         id="path3558"
         d="m -75.351561,874.56521 c 1.36349,-1.5066 1.9603,-1.6284 3.44725,-0.7031 1.73222,1.0778 1.72004,1.1413 -0.3318,1.7286 -4.14723,1.187 -4.89502,0.9409 -3.11545,-1.0255 z"
         style="fill:#000000" />
    </g>
  </g>
</svg>
