<?xml version="1.0" encoding="UTF-8" standalone="no"?>
<!-- Created with Inkscape (http://www.inkscape.org/) -->

<svg
   xmlns:dc="http://purl.org/dc/elements/1.1/"
   xmlns:cc="http://creativecommons.org/ns#"
   xmlns:rdf="http://www.w3.org/1999/02/22-rdf-syntax-ns#"
   xmlns:svg="http://www.w3.org/2000/svg"
   xmlns="http://www.w3.org/2000/svg"
   xmlns:sodipodi="http://sodipodi.sourceforge.net/DTD/sodipodi-0.dtd"
   xmlns:inkscape="http://www.inkscape.org/namespaces/inkscape"
   id="svg2"
   version="1.1"
   inkscape:version="0.91 r13725"
   xml:space="preserve"
   width="679"
   height="641"
   viewBox="0 0 678.99997 641"
   sodipodi:docname="cell.svg"><metadata
     id="metadata8"><rdf:RDF><cc:Work
         rdf:about=""><dc:format>image/svg+xml</dc:format><dc:type
           rdf:resource="http://purl.org/dc/dcmitype/StillImage" /><dc:title></dc:title></cc:Work></rdf:RDF></metadata><defs
     id="defs6"><clipPath
       clipPathUnits="userSpaceOnUse"
       id="clipPath18"><path
         d="m 0,595.28 841.89,0 L 841.89,0 0,0 0,595.28 Z"
         id="path20"
         inkscape:connector-curvature="0" /></clipPath></defs><sodipodi:namedview
     pagecolor="#ffffff"
     bordercolor="#666666"
     borderopacity="1"
     objecttolerance="10"
     gridtolerance="10"
     guidetolerance="10"
     inkscape:pageopacity="0"
     inkscape:pageshadow="2"
     inkscape:window-width="1920"
     inkscape:window-height="1006"
     id="namedview4"
     showgrid="false"
     inkscape:zoom="0.31716168"
     inkscape:cx="526.18127"
     inkscape:cy="372.04999"
     inkscape:window-x="0"
     inkscape:window-y="0"
     inkscape:window-maximized="1"
     inkscape:current-layer="g10" /><g
     id="g10"
     inkscape:groupmode="layer"
     inkscape:label="Zellbutton"
     transform="matrix(1.25,0,0,-1.25,0,641.00002)"><g
       id="g14"
       transform="translate(-133.0971,-58.68318)"><g
         id="g16"
         clip-path="url(#clipPath18)"><g
           id="g22"
           transform="translate(669.7781,193.5042)"><path
             d="m 0,0 c 0,-70.704 -76.941,-128.021 -171.853,-128.021 l -186.175,0 c -94.912,0 -171.853,57.317 -171.853,128.021 l 0,243.331 c 0,70.704 76.941,128.022 171.853,128.022 l 186.175,0 C -76.941,371.353 0,314.035 0,243.331 L 0,0 Z"
             style="fill:none;stroke:#ffffff;stroke-width:12;stroke-linecap:butt;stroke-linejoin:miter;stroke-miterlimit:10;stroke-dasharray:none;stroke-opacity:1"
             id="path24"
             inkscape:connector-curvature="0" /></g><g
           id="g26"
           transform="translate(651.4313,201.7336)"><path
             d="m 0,0 c 0,-65.851 -71.66,-119.234 -160.057,-119.234 l -173.395,0 c -88.397,0 -160.057,53.383 -160.057,119.234 l 0,226.629 c 0,65.851 71.66,119.233 160.057,119.233 l 173.395,0 C -71.66,345.862 0,292.48 0,226.629 L 0,0 Z"
             style="fill:none;stroke:#ffffff;stroke-width:12;stroke-linecap:butt;stroke-linejoin:miter;stroke-miterlimit:10;stroke-dasharray:none;stroke-opacity:1"
             id="path28"
             inkscape:connector-curvature="0" /></g><g
           id="g30"
           transform="translate(391.1283,367.4876)"><path
             d="m 0,0 c 0,-16.522 -13.394,-29.916 -29.916,-29.916 -16.522,0 -29.916,13.394 -29.916,29.916 0,16.522 13.394,29.916 29.916,29.916 C -13.394,29.916 0,16.522 0,0"
             style="fill:#fdfdfd;fill-opacity:1;fill-rule:nonzero;stroke:none"
             id="path32"
             inkscape:connector-curvature="0" /></g><g
           id="g34"
           transform="translate(391.1283,367.4876)"><path
             d="m 0,0 c 0,-16.522 -13.394,-29.916 -29.916,-29.916 -16.522,0 -29.916,13.394 -29.916,29.916 0,16.522 13.394,29.916 29.916,29.916 C -13.394,29.916 0,16.522 0,0 Z"
             style="fill:none;stroke:#ffffff;stroke-width:4.09000015;stroke-linecap:butt;stroke-linejoin:miter;stroke-miterlimit:10;stroke-dasharray:none;stroke-opacity:1"
             id="path36"
             inkscape:connector-curvature="0" /></g><g
           id="g38"
           transform="translate(535.8056,466.2327)"><path
             d="m 0,0 c -14.694,-6.851 -29.919,-1.711 -44.857,7.754 -15.284,9.552 -19.795,15.083 -30.006,26.882 -3.482,4.168 0.164,13.128 7.935,8.09 4.771,-2.95 6.071,-6.338 18.222,-19.063 11.938,-12.67 27.485,-12.619 39.826,-7.387 12.519,5.211 19.001,7.518 22.037,-0.705 C 13.305,10.699 11.485,5.01 0,0"
             style="fill:#ffffff;fill-opacity:1;fill-rule:evenodd;stroke:none"
             id="path40"
             inkscape:connector-curvature="0" /></g><g
           id="g42"
           transform="translate(535.8056,466.2327)"><path
             d="m 0,0 c -14.694,-6.851 -29.919,-1.711 -44.857,7.754 -15.284,9.552 -19.795,15.083 -30.006,26.882 -3.482,4.168 0.164,13.128 7.935,8.09 4.771,-2.95 6.071,-6.338 18.222,-19.063 11.938,-12.67 27.485,-12.619 39.826,-7.387 12.519,5.211 19.001,7.518 22.037,-0.705 C 13.305,10.699 11.485,5.01 0,0"
             style="fill:#ffffff;fill-opacity:1;fill-rule:nonzero;stroke:none"
             id="path44"
             inkscape:connector-curvature="0" /></g><g
           id="g46"
           transform="translate(399.2356,499.7108)"><path
             d="m 0,0 c 0.188,11.665 13.948,14.833 27.87,6.915 14.15,-7.745 34.964,-35.09 60.121,-47.604 24.842,-12.872 36.166,-17.03 60.806,-7.324 24.087,9.868 49.437,27.126 57.256,16.762 7.295,-10.002 -7.026,-9.946 -18.884,-11.82 -11.986,-2.302 -34.654,-12.066 -47.944,-14.915 -13.394,-3.26 -34.969,-1.587 -53.605,9.495 -18.299,10.79 -32.725,23.712 -50.381,27.69 C 17.395,-16.752 -0.153,-12.341 0,0"
             style="fill:#ffffff;fill-opacity:1;fill-rule:evenodd;stroke:none"
             id="path48"
             inkscape:connector-curvature="0" /></g><g
           id="g50"
           transform="translate(399.2356,499.7108)"><path
             d="m 0,0 c 0.188,11.665 13.948,14.833 27.87,6.915 14.15,-7.745 34.964,-35.09 60.121,-47.604 24.842,-12.872 36.166,-17.03 60.806,-7.324 24.087,9.868 49.437,27.126 57.256,16.762 7.295,-10.002 -7.026,-9.946 -18.884,-11.82 -11.986,-2.302 -34.654,-12.066 -47.944,-14.915 -13.394,-3.26 -34.969,-1.587 -53.605,9.495 -18.299,10.79 -32.725,23.712 -50.381,27.69 C 17.395,-16.752 -0.153,-12.341 0,0"
             style="fill:#ffffff;fill-opacity:1;fill-rule:nonzero;stroke:none"
             id="path52"
             inkscape:connector-curvature="0" /></g><g
           id="g54"
           transform="translate(415.7389,515.5342)"><path
             d="M 0,0 C 15.065,-0.251 30.872,-19.289 42.937,-31.392 55.056,-43.28 62.485,-37.179 54.69,-29.915 47.123,-23.374 33.841,-9.839 24.462,0.487 16.562,8.88 8.088,13.444 -0.82,17.016 -9.817,21.046 -23.937,24.159 -24.096,11.798 -23.908,2.451 -13.043,-1.153 0,0"
             style="fill:#ffffff;fill-opacity:1;fill-rule:evenodd;stroke:none"
             id="path56"
             inkscape:connector-curvature="0" /></g><g
           id="g58"
           transform="translate(415.7389,515.5342)"><path
             d="M 0,0 C 15.065,-0.251 30.872,-19.289 42.937,-31.392 55.056,-43.28 62.485,-37.179 54.69,-29.915 47.123,-23.374 33.841,-9.839 24.462,0.487 16.562,8.88 8.088,13.444 -0.82,17.016 -9.817,21.046 -23.937,24.159 -24.096,11.798 -23.908,2.451 -13.043,-1.153 0,0"
             style="fill:#ffffff;fill-opacity:1;fill-rule:nonzero;stroke:none"
             id="path60"
             inkscape:connector-curvature="0" /></g><g
           id="g62"
           transform="translate(479.7355,472.3051)"><path
             d="m 0,0 c 0.393,4.743 27.766,-13.176 38.185,-13.133 10.239,0.065 28.629,1.179 46.871,22.89 10.041,10.28 14.21,9.668 19.521,2.596 C 109.323,5.4 97.882,-0.994 89.427,-7.244 81.317,-12.938 58.031,-23.423 44.26,-22.623 30.514,-21.806 -1.799,-3.977 0,0"
             style="fill:#ffffff;fill-opacity:1;fill-rule:evenodd;stroke:none"
             id="path64"
             inkscape:connector-curvature="0" /></g><g
           id="g66"
           transform="translate(479.7355,472.3051)"><path
             d="m 0,0 c 0.393,4.743 27.766,-13.176 38.185,-13.133 10.239,0.065 28.629,1.179 46.871,22.89 10.041,10.28 14.21,9.668 19.521,2.596 C 109.323,5.4 97.882,-0.994 89.427,-7.244 81.317,-12.938 58.031,-23.423 44.26,-22.623 30.514,-21.806 -1.799,-3.977 0,0"
             style="fill:#ffffff;fill-opacity:1;fill-rule:nonzero;stroke:none"
             id="path68"
             inkscape:connector-curvature="0" /></g><g
           id="g70"
           transform="translate(495.0175,506.7476)"><path
             d="m 0,0 c -5.902,-11.718 0.72,-19.1 9.183,-20.791 8.572,-1.26 14.602,-2.339 18.78,4.073 C 31.882,-9.783 25.144,4.241 18.271,5.968 11.977,7.551 4.268,5.953 0,0"
             style="fill:#ffffff;fill-opacity:1;fill-rule:evenodd;stroke:none"
             id="path72"
             inkscape:connector-curvature="0" /></g><g
           id="g74"
           transform="translate(495.0175,506.7476)"><path
             d="m 0,0 c -5.902,-11.718 0.72,-19.1 9.183,-20.791 8.572,-1.26 14.602,-2.339 18.78,4.073 C 31.882,-9.783 25.144,4.241 18.271,5.968 11.977,7.551 4.268,5.953 0,0"
             style="fill:#ffffff;fill-opacity:1;fill-rule:nonzero;stroke:none"
             id="path76"
             inkscape:connector-curvature="0" /></g><g
           id="g78"
           transform="translate(383.1926,458.2892)"><path
             d="m 0,0 c -3.782,-11.868 27.981,-17.644 39.108,-17.127 11.374,0.685 31.154,-4.287 45.896,-12.849 14.811,-8.372 23.447,-15.399 41.326,-21.666 17.884,-6.245 27.861,-8.753 32.058,3.218 4.232,12.193 -13.697,12.718 -18.545,10.623 -5.143,-2.459 -14.561,-1.633 -30.368,4.32 -15.734,6.164 -27.984,14.537 -31.573,15.9 -3.719,1.579 -2.658,9.713 7.446,2.984 10.272,-6.794 31.54,-16.766 33.613,-12.431 5.106,6.219 -14.762,14.758 -25.348,18.754 C 83.546,-3.764 71.194,8.846 51.726,11.968 32.174,14.673 21.655,21.299 8.256,31.296 0.837,37.787 -10.388,23.601 4.492,14.774 20.001,5.352 39.137,4.085 51.467,0.756 55.778,-0.098 56.6,-2.284 54.281,-6.787 52.208,-11.122 45.422,-6.102 40.027,-4.102 34.692,-1.863 2.509,9.979 0,0"
             style="fill:#ffffff;fill-opacity:1;fill-rule:evenodd;stroke:none"
             id="path80"
             inkscape:connector-curvature="0" /></g><g
           id="g82"
           transform="translate(383.1926,458.2892)"><path
             d="m 0,0 c -3.782,-11.868 27.981,-17.644 39.108,-17.127 11.374,0.685 31.154,-4.287 45.896,-12.849 14.811,-8.372 23.447,-15.399 41.326,-21.666 17.884,-6.245 27.861,-8.753 32.058,3.218 4.232,12.193 -13.697,12.718 -18.545,10.623 -5.143,-2.459 -14.561,-1.633 -30.368,4.32 -15.734,6.164 -27.984,14.537 -31.573,15.9 -3.719,1.579 -2.658,9.713 7.446,2.984 10.272,-6.794 31.54,-16.766 33.613,-12.431 5.106,6.219 -14.762,14.758 -25.348,18.754 C 83.546,-3.764 71.194,8.846 51.726,11.968 32.174,14.673 21.655,21.299 8.256,31.296 0.837,37.787 -10.388,23.601 4.492,14.774 20.001,5.352 39.137,4.085 51.467,0.756 55.778,-0.098 56.6,-2.284 54.281,-6.787 52.208,-11.122 45.422,-6.102 40.027,-4.102 34.692,-1.863 2.509,9.979 0,0"
             style="fill:#ffffff;fill-opacity:1;fill-rule:nonzero;stroke:none"
             id="path84"
             inkscape:connector-curvature="0" /></g><g
           id="g86"
           transform="translate(446.5155,521.9083)"><path
             d="m 0,0 c 0.992,3.945 5.745,6.149 10.618,4.924 4.873,-1.225 8.019,-5.415 7.027,-9.36 C 16.654,-8.38 11.9,-10.585 7.027,-9.36 2.155,-8.135 -0.992,-3.944 0,0"
             style="fill:#ffffff;fill-opacity:1;fill-rule:evenodd;stroke:none"
             id="path88"
             inkscape:connector-curvature="0" /></g><g
           id="g90"
           transform="translate(446.5155,521.9083)"><path
             d="m 0,0 c 0.992,3.945 5.745,6.149 10.618,4.924 4.873,-1.225 8.019,-5.415 7.027,-9.36 C 16.654,-8.38 11.9,-10.585 7.027,-9.36 2.155,-8.135 -0.992,-3.944 0,0"
             style="fill:#ffffff;fill-opacity:1;fill-rule:nonzero;stroke:none"
             id="path92"
             inkscape:connector-curvature="0" /></g><g
           id="g94"
           transform="translate(508.6498,432.3643)"><path
             d="M 0,0 C 0.933,3.712 5.264,5.824 9.672,4.715 14.081,3.607 16.898,-0.301 15.965,-4.013 15.031,-7.726 10.701,-9.837 6.293,-8.729 1.884,-7.62 -0.933,-3.712 0,0"
             style="fill:#ffffff;fill-opacity:1;fill-rule:evenodd;stroke:none"
             id="path96"
             inkscape:connector-curvature="0" /></g><g
           id="g98"
           transform="translate(508.6498,432.3643)"><path
             d="M 0,0 C 0.933,3.712 5.264,5.824 9.672,4.715 14.081,3.607 16.898,-0.301 15.965,-4.013 15.031,-7.726 10.701,-9.837 6.293,-8.729 1.884,-7.62 -0.933,-3.712 0,0"
             style="fill:#ffffff;fill-opacity:1;fill-rule:nonzero;stroke:none"
             id="path100"
             inkscape:connector-curvature="0" /></g><g
           id="g102"
           transform="translate(541.2684,509.7024)"><path
             d="M 0,0 C 1.546,6.149 10.229,9.265 19.394,6.962 28.559,4.658 34.735,-2.195 33.19,-8.343 31.644,-14.492 22.961,-17.609 13.796,-15.305 4.631,-13.001 -1.546,-6.149 0,0"
             style="fill:#ffffff;fill-opacity:1;fill-rule:evenodd;stroke:none"
             id="path104"
             inkscape:connector-curvature="0" /></g><g
           id="g106"
           transform="translate(541.2684,509.7024)"><path
             d="M 0,0 C 1.546,6.149 10.229,9.265 19.394,6.962 28.559,4.658 34.735,-2.195 33.19,-8.343 31.644,-14.492 22.961,-17.609 13.796,-15.305 4.631,-13.001 -1.546,-6.149 0,0"
             style="fill:#ffffff;fill-opacity:1;fill-rule:nonzero;stroke:none"
             id="path108"
             inkscape:connector-curvature="0" /></g><g
           id="g110"
           transform="translate(482.5362,529.2685)"><path
             d="M 0,0 C 0.919,3.654 5.237,5.719 9.646,4.61 14.054,3.502 16.883,-0.359 15.965,-4.013 15.046,-7.668 10.727,-9.732 6.319,-8.624 1.91,-7.515 -0.919,-3.654 0,0"
             style="fill:#ffffff;fill-opacity:1;fill-rule:evenodd;stroke:none"
             id="path112"
             inkscape:connector-curvature="0" /></g><g
           id="g114"
           transform="translate(482.5362,529.2685)"><path
             d="M 0,0 C 0.919,3.654 5.237,5.719 9.646,4.61 14.054,3.502 16.883,-0.359 15.965,-4.013 15.046,-7.668 10.727,-9.732 6.319,-8.624 1.91,-7.515 -0.919,-3.654 0,0"
             style="fill:#ffffff;fill-opacity:1;fill-rule:nonzero;stroke:none"
             id="path116"
             inkscape:connector-curvature="0" /></g><g
           id="g118"
           transform="translate(542.538,429.0449)"><path
             d="M 0,0 C -3.332,-10.169 9.04,-12.18 21.528,-9.828 34.125,-7.046 43.004,-5.09 46.219,0.715 48.806,7.112 33.361,13.214 22.97,11.41 13.415,9.853 3.16,5.59 0,0"
             style="fill:#ffffff;fill-opacity:1;fill-rule:evenodd;stroke:none"
             id="path120"
             inkscape:connector-curvature="0" /></g><g
           id="g122"
           transform="translate(542.538,429.0449)"><path
             d="M 0,0 C -3.332,-10.169 9.04,-12.18 21.528,-9.828 34.125,-7.046 43.004,-5.09 46.219,0.715 48.806,7.112 33.361,13.214 22.97,11.41 13.415,9.853 3.16,5.59 0,0"
             style="fill:#ffffff;fill-opacity:1;fill-rule:nonzero;stroke:none"
             id="path124"
             inkscape:connector-curvature="0" /></g><g
           id="g126"
           transform="translate(296.3801,442.0645)"><path
             d="m 0,0 c 0,-6.866 5.566,-12.432 12.432,-12.432 6.866,0 12.432,5.566 12.432,12.432 0,6.866 -5.566,12.432 -12.432,12.432 C 5.566,12.432 0,6.866 0,0 Z"
             style="fill:none;stroke:#ffffff;stroke-width:4.84200001;stroke-linecap:butt;stroke-linejoin:miter;stroke-miterlimit:10;stroke-dasharray:none;stroke-opacity:1"
             id="path128"
             inkscape:connector-curvature="0" /></g><g
           id="g130"
           transform="translate(301.4421,442.1995)"><path
             d="m 0,0 c 0,-3.996 3.239,-7.235 7.235,-7.235 3.996,0 7.235,3.239 7.235,7.235 0,3.996 -3.239,7.235 -7.235,7.235 C 3.239,7.235 0,3.996 0,0 Z"
             style="fill:none;stroke:#ffffff;stroke-width:1.93700004;stroke-linecap:butt;stroke-linejoin:miter;stroke-miterlimit:10;stroke-dasharray:none;stroke-opacity:1"
             id="path132"
             inkscape:connector-curvature="0" /></g><g
           id="g134"
           transform="translate(210.4415,351.8255)"><path
             d="m 0,0 c 0,-4.336 -3.515,-7.852 -7.852,-7.852 -4.336,0 -7.852,3.516 -7.852,7.852 0,4.336 3.516,7.852 7.852,7.852 C -3.515,7.852 0,4.336 0,0"
             style="fill:#ffffff;fill-opacity:1;fill-rule:nonzero;stroke:none"
             id="path136"
             inkscape:connector-curvature="0" /></g><g
           id="g138"
           transform="translate(210.4415,351.8255)"><path
             d="m 0,0 c 0,-4.336 -3.515,-7.852 -7.852,-7.852 -4.336,0 -7.852,3.516 -7.852,7.852 0,4.336 3.516,7.852 7.852,7.852 C -3.515,7.852 0,4.336 0,0 Z"
             style="fill:none;stroke:#ffffff;stroke-width:0.96799999;stroke-linecap:butt;stroke-linejoin:miter;stroke-miterlimit:10;stroke-dasharray:none;stroke-opacity:1"
             id="path140"
             inkscape:connector-curvature="0" /></g><g
           id="g142"
           transform="translate(340.475,500.7875)"><path
             d="m 0,0 c 0,-4.336 -3.515,-7.852 -7.852,-7.852 -4.336,0 -7.852,3.516 -7.852,7.852 0,4.336 3.516,7.852 7.852,7.852 C -3.515,7.852 0,4.336 0,0"
             style="fill:#ffffff;fill-opacity:1;fill-rule:nonzero;stroke:none"
             id="path144"
             inkscape:connector-curvature="0" /></g><g
           id="g146"
           transform="translate(340.475,500.7875)"><path
             d="m 0,0 c 0,-4.336 -3.515,-7.852 -7.852,-7.852 -4.336,0 -7.852,3.516 -7.852,7.852 0,4.336 3.516,7.852 7.852,7.852 C -3.515,7.852 0,4.336 0,0 Z"
             style="fill:none;stroke:#ffffff;stroke-width:0.96799999;stroke-linecap:butt;stroke-linejoin:miter;stroke-miterlimit:10;stroke-dasharray:none;stroke-opacity:1"
             id="path148"
             inkscape:connector-curvature="0" /></g><g
           id="g150"
           transform="translate(568.8771,156.2394)"><path
             d="m 0,0 c 0,-4.336 -3.515,-7.852 -7.852,-7.852 -4.336,0 -7.852,3.516 -7.852,7.852 0,4.336 3.516,7.852 7.852,7.852 C -3.515,7.852 0,4.336 0,0"
             style="fill:#ffffff;fill-opacity:1;fill-rule:nonzero;stroke:none"
             id="path152"
             inkscape:connector-curvature="0" /></g><g
           id="g154"
           transform="translate(568.8771,156.2394)"><path
             d="m 0,0 c 0,-4.336 -3.515,-7.852 -7.852,-7.852 -4.336,0 -7.852,3.516 -7.852,7.852 0,4.336 3.516,7.852 7.852,7.852 C -3.515,7.852 0,4.336 0,0 Z"
             style="fill:none;stroke:#ffffff;stroke-width:0.96799999;stroke-linecap:butt;stroke-linejoin:miter;stroke-miterlimit:10;stroke-dasharray:none;stroke-opacity:1"
             id="path156"
             inkscape:connector-curvature="0" /></g><g
           id="g158"
           transform="translate(362.0554,153.1154)"><path
             d="m 0,0 c 0,-4.337 -3.515,-7.852 -7.852,-7.852 -4.336,0 -7.852,3.515 -7.852,7.852 0,4.336 3.516,7.852 7.852,7.852 C -3.515,7.852 0,4.336 0,0"
             style="fill:#ffffff;fill-opacity:1;fill-rule:nonzero;stroke:none"
             id="path160"
             inkscape:connector-curvature="0" /></g><g
           id="g162"
           transform="translate(362.0554,153.1154)"><path
             d="m 0,0 c 0,-4.337 -3.515,-7.852 -7.852,-7.852 -4.336,0 -7.852,3.515 -7.852,7.852 0,4.336 3.516,7.852 7.852,7.852 C -3.515,7.852 0,4.336 0,0 Z"
             style="fill:none;stroke:#ffffff;stroke-width:0.96799999;stroke-linecap:butt;stroke-linejoin:miter;stroke-miterlimit:10;stroke-dasharray:none;stroke-opacity:1"
             id="path164"
             inkscape:connector-curvature="0" /></g><g
           id="g166"
           transform="translate(576.729,396.1222)"><path
             d="m 0,0 c 0,-4.336 -3.515,-7.852 -7.852,-7.852 -4.336,0 -7.852,3.516 -7.852,7.852 0,4.336 3.516,7.852 7.852,7.852 C -3.515,7.852 0,4.336 0,0"
             style="fill:#ffffff;fill-opacity:1;fill-rule:nonzero;stroke:none"
             id="path168"
             inkscape:connector-curvature="0" /></g><g
           id="g170"
           transform="translate(576.729,396.1222)"><path
             d="m 0,0 c 0,-4.336 -3.515,-7.852 -7.852,-7.852 -4.336,0 -7.852,3.516 -7.852,7.852 0,4.336 3.516,7.852 7.852,7.852 C -3.515,7.852 0,4.336 0,0 Z"
             style="fill:none;stroke:#ffffff;stroke-width:0.96799999;stroke-linecap:butt;stroke-linejoin:miter;stroke-miterlimit:10;stroke-dasharray:none;stroke-opacity:1"
             id="path172"
             inkscape:connector-curvature="0" /></g><g
           id="g174"
           transform="translate(229.2563,164.0913)"><path
             d="m 0,0 c 0,-4.336 -3.515,-7.852 -7.852,-7.852 -4.336,0 -7.852,3.516 -7.852,7.852 0,4.336 3.516,7.852 7.852,7.852 C -3.515,7.852 0,4.336 0,0"
             style="fill:#ffffff;fill-opacity:1;fill-rule:nonzero;stroke:none"
             id="path176"
             inkscape:connector-curvature="0" /></g><g
           id="g178"
           transform="translate(229.2563,164.0913)"><path
             d="m 0,0 c 0,-4.336 -3.515,-7.852 -7.852,-7.852 -4.336,0 -7.852,3.516 -7.852,7.852 0,4.336 3.516,7.852 7.852,7.852 C -3.515,7.852 0,4.336 0,0 Z"
             style="fill:none;stroke:#ffffff;stroke-width:0.96799999;stroke-linecap:butt;stroke-linejoin:miter;stroke-miterlimit:10;stroke-dasharray:none;stroke-opacity:1"
             id="path180"
             inkscape:connector-curvature="0" /></g><g
           id="g182"
           transform="translate(257.3923,215.1827)"><path
             d="m 0,0 c 0,-4.336 -3.515,-7.852 -7.852,-7.852 -4.336,0 -7.852,3.516 -7.852,7.852 0,4.337 3.516,7.852 7.852,7.852 C -3.515,7.852 0,4.337 0,0"
             style="fill:#ffffff;fill-opacity:1;fill-rule:nonzero;stroke:none"
             id="path184"
             inkscape:connector-curvature="0" /></g><g
           id="g186"
           transform="translate(257.3923,215.1827)"><path
             d="m 0,0 c 0,-4.336 -3.515,-7.852 -7.852,-7.852 -4.336,0 -7.852,3.516 -7.852,7.852 0,4.337 3.516,7.852 7.852,7.852 C -3.515,7.852 0,4.337 0,0 Z"
             style="fill:none;stroke:#ffffff;stroke-width:0.96799999;stroke-linecap:butt;stroke-linejoin:miter;stroke-miterlimit:10;stroke-dasharray:none;stroke-opacity:1"
             id="path188"
             inkscape:connector-curvature="0" /></g><g
           id="g190"
           transform="translate(519.5549,349.0501)"><path
             d="m 0,0 c -0.331,2.048 -2.149,3.351 -3.802,2.979 l -0.165,0 c -1.818,-0.559 -2.81,-2.42 -2.479,-4.469 0.496,-2.979 0.826,-6.144 0.826,-9.495 0,-13.592 -4.959,-26.439 -13.884,-37.982 -1.157,-1.49 -0.992,-3.91 0.33,-5.214 l 0.166,0 c 0.496,-0.558 1.322,-0.93 2.148,-0.93 0.827,0 1.819,0.372 2.48,1.303 9.587,12.474 15.372,27.183 15.372,42.823 C 0.992,-7.261 0.661,-3.538 0,0"
             style="fill:#f7e878;fill-opacity:1;fill-rule:evenodd;stroke:none"
             id="path192"
             inkscape:connector-curvature="0" /></g><g
           id="g194"
           transform="translate(519.5549,349.0501)"><path
             d="m 0,0 c -0.331,2.048 -2.149,3.351 -3.802,2.979 l -0.165,0 c -1.818,-0.559 -2.81,-2.42 -2.479,-4.469 0.496,-2.979 0.826,-6.144 0.826,-9.495 0,-13.592 -4.959,-26.439 -13.884,-37.982 -1.157,-1.49 -0.992,-3.91 0.33,-5.214 l 0.166,0 c 0.496,-0.558 1.322,-0.93 2.148,-0.93 0.827,0 1.819,0.372 2.48,1.303 9.587,12.474 15.372,27.183 15.372,42.823 C 0.992,-7.261 0.661,-3.538 0,0 Z"
             style="fill:none;stroke:#f7e879;stroke-width:5;stroke-linecap:butt;stroke-linejoin:miter;stroke-miterlimit:10;stroke-dasharray:none;stroke-opacity:1"
             id="path196"
             inkscape:connector-curvature="0" /></g><g
           id="g198"
           transform="translate(519.5549,349.0501)"><path
             d="m 0,0 c -0.331,2.048 -2.149,3.351 -3.802,2.979 l -0.165,0 c -1.818,-0.559 -2.81,-2.42 -2.479,-4.469 0.496,-2.979 0.826,-6.144 0.826,-9.495 0,-13.592 -4.959,-26.439 -13.884,-37.982 -1.157,-1.49 -0.992,-3.91 0.33,-5.214 l 0.166,0 c 0.496,-0.558 1.322,-0.93 2.148,-0.93 0.827,0 1.819,0.372 2.48,1.303 9.587,12.474 15.372,27.183 15.372,42.823 C 0.992,-7.261 0.661,-3.538 0,0"
             style="fill:#f7e878;fill-opacity:1;fill-rule:nonzero;stroke:none"
             id="path200"
             inkscape:connector-curvature="0" /></g><g
           id="g202"
           transform="translate(519.5549,349.0501)"><path
             d="m 0,0 c -0.331,2.048 -2.149,3.351 -3.802,2.979 l -0.165,0 c -1.818,-0.559 -2.81,-2.42 -2.479,-4.469 0.496,-2.979 0.826,-6.144 0.826,-9.495 0,-13.592 -4.959,-26.439 -13.884,-37.982 -1.157,-1.49 -0.992,-3.91 0.33,-5.214 l 0.166,0 c 0.496,-0.558 1.322,-0.93 2.148,-0.93 0.827,0 1.819,0.372 2.48,1.303 9.587,12.474 15.372,27.183 15.372,42.823 C 0.992,-7.261 0.661,-3.538 0,0 Z"
             style="fill:none;stroke:#f7e879;stroke-width:5;stroke-linecap:butt;stroke-linejoin:round;stroke-miterlimit:10;stroke-dasharray:none;stroke-opacity:1"
             id="path204"
             inkscape:connector-curvature="0" /></g><g
           id="g206"
           transform="translate(343.5626,262.4704)"><path
             d="m 0,0 c -13.334,4.099 -25.35,9.689 -35.556,16.583 -1.646,0.931 -3.622,0.372 -4.445,-1.305 l 0,-0.186 c -0.988,-1.677 -0.494,-3.913 1.152,-5.031 10.7,-7.266 23.375,-13.042 37.203,-17.327 l 0.823,0 c 1.481,0 2.798,1.117 3.292,2.608 l 0,0.186 C 2.798,-2.608 1.811,-0.559 0,0"
             style="fill:#f7e878;fill-opacity:1;fill-rule:evenodd;stroke:none"
             id="path208"
             inkscape:connector-curvature="0" /></g><g
           id="g210"
           transform="translate(343.5626,262.4704)"><path
             d="m 0,0 c -13.334,4.099 -25.35,9.689 -35.556,16.583 -1.646,0.931 -3.622,0.372 -4.445,-1.305 l 0,-0.186 c -0.988,-1.677 -0.494,-3.913 1.152,-5.031 10.7,-7.266 23.375,-13.042 37.203,-17.327 l 0.823,0 c 1.481,0 2.798,1.117 3.292,2.608 l 0,0.186 C 2.798,-2.608 1.811,-0.559 0,0 Z"
             style="fill:none;stroke:#f7e879;stroke-width:5;stroke-linecap:butt;stroke-linejoin:miter;stroke-miterlimit:10;stroke-dasharray:none;stroke-opacity:1"
             id="path212"
             inkscape:connector-curvature="0" /></g><g
           id="g214"
           transform="translate(343.5626,262.4704)"><path
             d="m 0,0 c -13.334,4.099 -25.35,9.689 -35.556,16.583 -1.646,0.931 -3.622,0.372 -4.445,-1.305 l 0,-0.186 c -0.988,-1.677 -0.494,-3.913 1.152,-5.031 10.7,-7.266 23.375,-13.042 37.203,-17.327 l 0.823,0 c 1.481,0 2.798,1.117 3.292,2.608 l 0,0.186 C 2.798,-2.608 1.811,-0.559 0,0"
             style="fill:#f7e878;fill-opacity:1;fill-rule:nonzero;stroke:none"
             id="path216"
             inkscape:connector-curvature="0" /></g><g
           id="g218"
           transform="translate(343.5626,262.4704)"><path
             d="m 0,0 c -13.334,4.099 -25.35,9.689 -35.556,16.583 -1.646,0.931 -3.622,0.372 -4.445,-1.305 l 0,-0.186 c -0.988,-1.677 -0.494,-3.913 1.152,-5.031 10.7,-7.266 23.375,-13.042 37.203,-17.327 l 0.823,0 c 1.481,0 2.798,1.117 3.292,2.608 l 0,0.186 C 2.798,-2.608 1.811,-0.559 0,0 Z"
             style="fill:none;stroke:#f7e879;stroke-width:5;stroke-linecap:butt;stroke-linejoin:round;stroke-miterlimit:10;stroke-dasharray:none;stroke-opacity:1"
             id="path220"
             inkscape:connector-curvature="0" /></g><g
           id="g222"
           transform="translate(394.8051,255.2307)"><path
             d="m 0,0 -2.298,0 c -12.636,0 -24.781,1.31 -36.269,3.742 -1.805,0.562 -3.447,-0.748 -3.775,-2.806 -0.328,-2.059 0.821,-4.117 2.462,-4.491 11.98,-2.62 24.617,-3.93 37.582,-3.93 l 2.298,0 c 1.805,0 3.282,1.684 3.282,3.743 l 0,0.187 C 3.282,-1.684 1.805,0 0,0"
             style="fill:#f7e878;fill-opacity:1;fill-rule:evenodd;stroke:none"
             id="path224"
             inkscape:connector-curvature="0" /></g><g
           id="g226"
           transform="translate(394.8051,255.2307)"><path
             d="m 0,0 -2.298,0 c -12.636,0 -24.781,1.31 -36.269,3.742 -1.805,0.562 -3.447,-0.748 -3.775,-2.806 -0.328,-2.059 0.821,-4.117 2.462,-4.491 11.98,-2.62 24.617,-3.93 37.582,-3.93 l 2.298,0 c 1.805,0 3.282,1.684 3.282,3.743 l 0,0.187 C 3.282,-1.684 1.805,0 0,0 Z"
             style="fill:none;stroke:#f7e879;stroke-width:5;stroke-linecap:butt;stroke-linejoin:miter;stroke-miterlimit:10;stroke-dasharray:none;stroke-opacity:1"
             id="path228"
             inkscape:connector-curvature="0" /></g><g
           id="g230"
           transform="translate(394.8051,255.2307)"><path
             d="m 0,0 -2.298,0 c -12.636,0 -24.781,1.31 -36.269,3.742 -1.805,0.562 -3.447,-0.748 -3.775,-2.806 -0.328,-2.059 0.821,-4.117 2.462,-4.491 11.98,-2.62 24.617,-3.93 37.582,-3.93 l 2.298,0 c 1.805,0 3.282,1.684 3.282,3.743 l 0,0.187 C 3.282,-1.684 1.805,0 0,0"
             style="fill:#f7e878;fill-opacity:1;fill-rule:nonzero;stroke:none"
             id="path232"
             inkscape:connector-curvature="0" /></g><g
           id="g234"
           transform="translate(394.8051,255.2307)"><path
             d="m 0,0 -2.298,0 c -12.636,0 -24.781,1.31 -36.269,3.742 -1.805,0.562 -3.447,-0.748 -3.775,-2.806 -0.328,-2.059 0.821,-4.117 2.462,-4.491 11.98,-2.62 24.617,-3.93 37.582,-3.93 l 2.298,0 c 1.805,0 3.282,1.684 3.282,3.743 l 0,0.187 C 3.282,-1.684 1.805,0 0,0 Z"
             style="fill:none;stroke:#f7e879;stroke-width:5;stroke-linecap:butt;stroke-linejoin:round;stroke-miterlimit:10;stroke-dasharray:none;stroke-opacity:1"
             id="path236"
             inkscape:connector-curvature="0" /></g><g
           id="g238"
           transform="translate(491.2216,289.9846)"><path
             d="m 0,0 0,0 c -9.032,-8.406 -20.198,-15.877 -33.171,-21.481 -1.642,-0.747 -2.463,-2.989 -1.806,-4.857 0.493,-1.494 1.642,-2.428 2.956,-2.428 0.493,0 0.821,0 1.314,0.187 13.465,5.977 25.288,13.822 34.812,22.975 1.478,1.308 1.642,3.549 0.493,5.23 C 3.284,1.121 1.314,1.308 0,0"
             style="fill:#f7e878;fill-opacity:1;fill-rule:evenodd;stroke:none"
             id="path240"
             inkscape:connector-curvature="0" /></g><g
           id="g242"
           transform="translate(491.2216,289.9846)"><path
             d="m 0,0 0,0 c -9.032,-8.406 -20.198,-15.877 -33.171,-21.481 -1.642,-0.747 -2.463,-2.989 -1.806,-4.857 0.493,-1.494 1.642,-2.428 2.956,-2.428 0.493,0 0.821,0 1.314,0.187 13.465,5.977 25.288,13.822 34.812,22.975 1.478,1.308 1.642,3.549 0.493,5.23 C 3.284,1.121 1.314,1.308 0,0 Z"
             style="fill:none;stroke:#f7e879;stroke-width:5;stroke-linecap:butt;stroke-linejoin:miter;stroke-miterlimit:10;stroke-dasharray:none;stroke-opacity:1"
             id="path244"
             inkscape:connector-curvature="0" /></g><g
           id="g246"
           transform="translate(491.2216,289.9846)"><path
             d="m 0,0 0,0 c -9.032,-8.406 -20.198,-15.877 -33.171,-21.481 -1.642,-0.747 -2.463,-2.989 -1.806,-4.857 0.493,-1.494 1.642,-2.428 2.956,-2.428 0.493,0 0.821,0 1.314,0.187 13.465,5.977 25.288,13.822 34.812,22.975 1.478,1.308 1.642,3.549 0.493,5.23 C 3.284,1.121 1.314,1.308 0,0"
             style="fill:#f7e878;fill-opacity:1;fill-rule:nonzero;stroke:none"
             id="path248"
             inkscape:connector-curvature="0" /></g><g
           id="g250"
           transform="translate(491.2216,289.9846)"><path
             d="m 0,0 0,0 c -9.032,-8.406 -20.198,-15.877 -33.171,-21.481 -1.642,-0.747 -2.463,-2.989 -1.806,-4.857 0.493,-1.494 1.642,-2.428 2.956,-2.428 0.493,0 0.821,0 1.314,0.187 13.465,5.977 25.288,13.822 34.812,22.975 1.478,1.308 1.642,3.549 0.493,5.23 C 3.284,1.121 1.314,1.308 0,0 Z"
             style="fill:none;stroke:#f7e879;stroke-width:5;stroke-linecap:butt;stroke-linejoin:round;stroke-miterlimit:10;stroke-dasharray:none;stroke-opacity:1"
             id="path252"
             inkscape:connector-curvature="0" /></g><g
           id="g254"
           transform="translate(445.7074,263.7792)"><path
             d="m 0,0 0,0 c -11.633,-3.97 -24.412,-6.616 -38.011,-7.939 -1.802,0 -3.113,-1.891 -2.949,-3.97 0.164,-1.89 1.474,-3.403 3.276,-3.403 l 0.164,0 c 13.927,1.134 27.198,3.97 39.322,8.129 1.802,0.567 2.786,2.646 2.294,4.726 C 3.441,-0.567 1.638,0.567 0,0"
             style="fill:#f7e878;fill-opacity:1;fill-rule:evenodd;stroke:none"
             id="path256"
             inkscape:connector-curvature="0" /></g><g
           id="g258"
           transform="translate(445.7074,263.7792)"><path
             d="m 0,0 0,0 c -11.633,-3.97 -24.412,-6.616 -38.011,-7.939 -1.802,0 -3.113,-1.891 -2.949,-3.97 0.164,-1.89 1.474,-3.403 3.276,-3.403 l 0.164,0 c 13.927,1.134 27.198,3.97 39.322,8.129 1.802,0.567 2.786,2.646 2.294,4.726 C 3.441,-0.567 1.638,0.567 0,0 Z"
             style="fill:none;stroke:#f7e879;stroke-width:5;stroke-linecap:butt;stroke-linejoin:miter;stroke-miterlimit:10;stroke-dasharray:none;stroke-opacity:1"
             id="path260"
             inkscape:connector-curvature="0" /></g><g
           id="g262"
           transform="translate(445.7074,263.7792)"><path
             d="m 0,0 0,0 c -11.633,-3.97 -24.412,-6.616 -38.011,-7.939 -1.802,0 -3.113,-1.891 -2.949,-3.97 0.164,-1.89 1.474,-3.403 3.276,-3.403 l 0.164,0 c 13.927,1.134 27.198,3.97 39.322,8.129 1.802,0.567 2.786,2.646 2.294,4.726 C 3.441,-0.567 1.638,0.567 0,0"
             style="fill:#f7e878;fill-opacity:1;fill-rule:nonzero;stroke:none"
             id="path264"
             inkscape:connector-curvature="0" /></g><g
           id="g266"
           transform="translate(445.7074,263.7792)"><path
             d="m 0,0 0,0 c -11.633,-3.97 -24.412,-6.616 -38.011,-7.939 -1.802,0 -3.113,-1.891 -2.949,-3.97 0.164,-1.89 1.474,-3.403 3.276,-3.403 l 0.164,0 c 13.927,1.134 27.198,3.97 39.322,8.129 1.802,0.567 2.786,2.646 2.294,4.726 C 3.441,-0.567 1.638,0.567 0,0 Z"
             style="fill:none;stroke:#f7e879;stroke-width:5;stroke-linecap:butt;stroke-linejoin:round;stroke-miterlimit:10;stroke-dasharray:none;stroke-opacity:1"
             id="path268"
             inkscape:connector-curvature="0" /></g><g
           id="g270"
           transform="translate(297.4001,286.9489)"><path
             d="m 0,0 0,0 c -10.998,9.525 -19.042,20.918 -22.981,32.872 -0.657,1.868 -2.462,2.988 -4.104,2.241 l -0.164,0 c -1.642,-0.747 -2.462,-2.988 -1.97,-4.856 4.596,-13.634 13.46,-25.961 25.279,-36.234 0.657,-0.56 1.314,-0.747 1.97,-0.747 0.985,0 1.97,0.374 2.627,1.494 C 1.806,-3.549 1.477,-1.307 0,0"
             style="fill:#f7e878;fill-opacity:1;fill-rule:evenodd;stroke:none"
             id="path272"
             inkscape:connector-curvature="0" /></g><g
           id="g274"
           transform="translate(297.4001,286.9489)"><path
             d="m 0,0 0,0 c -10.998,9.525 -19.042,20.918 -22.981,32.872 -0.657,1.868 -2.462,2.988 -4.104,2.241 l -0.164,0 c -1.642,-0.747 -2.462,-2.988 -1.97,-4.856 4.596,-13.634 13.46,-25.961 25.279,-36.234 0.657,-0.56 1.314,-0.747 1.97,-0.747 0.985,0 1.97,0.374 2.627,1.494 C 1.806,-3.549 1.477,-1.307 0,0 Z"
             style="fill:none;stroke:#f7e879;stroke-width:5;stroke-linecap:butt;stroke-linejoin:miter;stroke-miterlimit:10;stroke-dasharray:none;stroke-opacity:1"
             id="path276"
             inkscape:connector-curvature="0" /></g><g
           id="g278"
           transform="translate(297.4001,286.9489)"><path
             d="m 0,0 0,0 c -10.998,9.525 -19.042,20.918 -22.981,32.872 -0.657,1.868 -2.462,2.988 -4.104,2.241 l -0.164,0 c -1.642,-0.747 -2.462,-2.988 -1.97,-4.856 4.596,-13.634 13.46,-25.961 25.279,-36.234 0.657,-0.56 1.314,-0.747 1.97,-0.747 0.985,0 1.97,0.374 2.627,1.494 C 1.806,-3.549 1.477,-1.307 0,0"
             style="fill:#f7e878;fill-opacity:1;fill-rule:nonzero;stroke:none"
             id="path280"
             inkscape:connector-curvature="0" /></g><g
           id="g282"
           transform="translate(297.4001,286.9489)"><path
             d="m 0,0 0,0 c -10.998,9.525 -19.042,20.918 -22.981,32.872 -0.657,1.868 -2.462,2.988 -4.104,2.241 l -0.164,0 c -1.642,-0.747 -2.462,-2.988 -1.97,-4.856 4.596,-13.634 13.46,-25.961 25.279,-36.234 0.657,-0.56 1.314,-0.747 1.97,-0.747 0.985,0 1.97,0.374 2.627,1.494 C 1.806,-3.549 1.477,-1.307 0,0 Z"
             style="fill:none;stroke:#f7e879;stroke-width:5;stroke-linecap:butt;stroke-linejoin:round;stroke-miterlimit:10;stroke-dasharray:none;stroke-opacity:1"
             id="path284"
             inkscape:connector-curvature="0" /></g><g
           id="g286"
           transform="translate(271.5233,333.404)"><path
             d="m 0,0 c -0.164,1.491 -0.164,3.167 -0.164,4.658 0,12.111 3.771,23.663 10.82,34.283 1.148,1.677 0.82,3.913 -0.492,5.217 l -0.164,0 C 8.689,45.462 6.558,45.089 5.41,43.412 -2.295,31.861 -6.722,18.632 -6.722,4.658 c 0,-1.863 0,-3.54 0.164,-5.403 0.164,-2.05 1.64,-3.354 3.279,-3.354 l 0.328,0 0.164,0 C -1.148,-3.913 0.164,-2.05 0,0"
             style="fill:#f7e878;fill-opacity:1;fill-rule:evenodd;stroke:none"
             id="path288"
             inkscape:connector-curvature="0" /></g><g
           id="g290"
           transform="translate(271.5233,333.404)"><path
             d="m 0,0 c -0.164,1.491 -0.164,3.167 -0.164,4.658 0,12.111 3.771,23.663 10.82,34.283 1.148,1.677 0.82,3.913 -0.492,5.217 l -0.164,0 C 8.689,45.462 6.558,45.089 5.41,43.412 -2.295,31.861 -6.722,18.632 -6.722,4.658 c 0,-1.863 0,-3.54 0.164,-5.403 0.164,-2.05 1.64,-3.354 3.279,-3.354 l 0.328,0 0.164,0 C -1.148,-3.913 0.164,-2.05 0,0 Z"
             style="fill:none;stroke:#f7e879;stroke-width:5;stroke-linecap:butt;stroke-linejoin:miter;stroke-miterlimit:10;stroke-dasharray:none;stroke-opacity:1"
             id="path292"
             inkscape:connector-curvature="0" /></g><g
           id="g294"
           transform="translate(271.5233,333.404)"><path
             d="m 0,0 c -0.164,1.491 -0.164,3.167 -0.164,4.658 0,12.111 3.771,23.663 10.82,34.283 1.148,1.677 0.82,3.913 -0.492,5.217 l -0.164,0 C 8.689,45.462 6.558,45.089 5.41,43.412 -2.295,31.861 -6.722,18.632 -6.722,4.658 c 0,-1.863 0,-3.54 0.164,-5.403 0.164,-2.05 1.64,-3.354 3.279,-3.354 l 0.328,0 0.164,0 C -1.148,-3.913 0.164,-2.05 0,0"
             style="fill:#f7e878;fill-opacity:1;fill-rule:nonzero;stroke:none"
             id="path296"
             inkscape:connector-curvature="0" /></g><g
           id="g298"
           transform="translate(271.5233,333.404)"><path
             d="m 0,0 c -0.164,1.491 -0.164,3.167 -0.164,4.658 0,12.111 3.771,23.663 10.82,34.283 1.148,1.677 0.82,3.913 -0.492,5.217 l -0.164,0 C 8.689,45.462 6.558,45.089 5.41,43.412 -2.295,31.861 -6.722,18.632 -6.722,4.658 c 0,-1.863 0,-3.54 0.164,-5.403 0.164,-2.05 1.64,-3.354 3.279,-3.354 l 0.328,0 0.164,0 C -1.148,-3.913 0.164,-2.05 0,0 Z"
             style="fill:none;stroke:#f7e879;stroke-width:5;stroke-linecap:butt;stroke-linejoin:round;stroke-miterlimit:10;stroke-dasharray:none;stroke-opacity:1"
             id="path300"
             inkscape:connector-curvature="0" /></g><g
           id="g302"
           transform="translate(385.6787,420.6125)"><path
             d="m 0,0 c 2.313,0 4.462,0.185 6.775,0.185 11.071,0 21.977,-1.109 32.222,-2.956 l 0.496,0 c 1.487,0 2.975,1.108 3.14,2.956 l 0.165,0 C 42.963,2.217 41.807,4.249 39.989,4.434 29.413,6.466 18.342,7.574 6.775,7.574 4.462,7.574 2.148,7.389 -0.165,7.389 -1.983,7.205 -3.47,5.542 -3.305,3.51 -3.305,1.478 -1.818,0 0,0"
             style="fill:#f7e878;fill-opacity:1;fill-rule:evenodd;stroke:none"
             id="path304"
             inkscape:connector-curvature="0" /></g><g
           id="g306"
           transform="translate(385.6787,420.6125)"><path
             d="m 0,0 c 2.313,0 4.462,0.185 6.775,0.185 11.071,0 21.977,-1.109 32.222,-2.956 l 0.496,0 c 1.487,0 2.975,1.108 3.14,2.956 l 0.165,0 C 42.963,2.217 41.807,4.249 39.989,4.434 29.413,6.466 18.342,7.574 6.775,7.574 4.462,7.574 2.148,7.389 -0.165,7.389 -1.983,7.205 -3.47,5.542 -3.305,3.51 -3.305,1.478 -1.818,0 0,0 Z"
             style="fill:none;stroke:#f7e879;stroke-width:5;stroke-linecap:butt;stroke-linejoin:miter;stroke-miterlimit:10;stroke-dasharray:none;stroke-opacity:1"
             id="path308"
             inkscape:connector-curvature="0" /></g><g
           id="g310"
           transform="translate(385.6787,420.6125)"><path
             d="m 0,0 c 2.313,0 4.462,0.185 6.775,0.185 11.071,0 21.977,-1.109 32.222,-2.956 l 0.496,0 c 1.487,0 2.975,1.108 3.14,2.956 l 0.165,0 C 42.963,2.217 41.807,4.249 39.989,4.434 29.413,6.466 18.342,7.574 6.775,7.574 4.462,7.574 2.148,7.389 -0.165,7.389 -1.983,7.205 -3.47,5.542 -3.305,3.51 -3.305,1.478 -1.818,0 0,0"
             style="fill:#f7e878;fill-opacity:1;fill-rule:nonzero;stroke:none"
             id="path312"
             inkscape:connector-curvature="0" /></g><g
           id="g314"
           transform="translate(385.6787,420.6125)"><path
             d="m 0,0 c 2.313,0 4.462,0.185 6.775,0.185 11.071,0 21.977,-1.109 32.222,-2.956 l 0.496,0 c 1.487,0 2.975,1.108 3.14,2.956 l 0.165,0 C 42.963,2.217 41.807,4.249 39.989,4.434 29.413,6.466 18.342,7.574 6.775,7.574 4.462,7.574 2.148,7.389 -0.165,7.389 -1.983,7.205 -3.47,5.542 -3.305,3.51 -3.305,1.478 -1.818,0 0,0 Z"
             style="fill:none;stroke:#f7e879;stroke-width:5;stroke-linecap:butt;stroke-linejoin:round;stroke-miterlimit:10;stroke-dasharray:none;stroke-opacity:1"
             id="path316"
             inkscape:connector-curvature="0" /></g><g
           id="g318"
           transform="translate(484.1093,392.0753)"><path
             d="m 0,0 c 11.558,-9.097 20.308,-19.866 25.097,-31.376 0.66,-1.3 1.816,-2.043 2.972,-2.043 0.495,0 0.99,0 1.32,0.186 0,0.186 0.166,0.186 0.166,0.186 1.651,0.742 2.311,2.97 1.486,4.827 C 25.592,-15.224 16.181,-3.528 3.798,6.127 2.312,7.241 0.165,6.869 -0.826,5.198 l 0,-0.185 C -1.816,3.342 -1.486,1.114 0,0"
             style="fill:#f7e878;fill-opacity:1;fill-rule:evenodd;stroke:none"
             id="path320"
             inkscape:connector-curvature="0" /></g><g
           id="g322"
           transform="translate(484.1093,392.0753)"><path
             d="m 0,0 c 11.558,-9.097 20.308,-19.866 25.097,-31.376 0.66,-1.3 1.816,-2.043 2.972,-2.043 0.495,0 0.99,0 1.32,0.186 0,0.186 0.166,0.186 0.166,0.186 1.651,0.742 2.311,2.97 1.486,4.827 C 25.592,-15.224 16.181,-3.528 3.798,6.127 2.312,7.241 0.165,6.869 -0.826,5.198 l 0,-0.185 C -1.816,3.342 -1.486,1.114 0,0 Z"
             style="fill:none;stroke:#f7e879;stroke-width:5;stroke-linecap:butt;stroke-linejoin:miter;stroke-miterlimit:10;stroke-dasharray:none;stroke-opacity:1"
             id="path324"
             inkscape:connector-curvature="0" /></g><g
           id="g326"
           transform="translate(484.1093,392.0753)"><path
             d="m 0,0 c 11.558,-9.097 20.308,-19.866 25.097,-31.376 0.66,-1.3 1.816,-2.043 2.972,-2.043 0.495,0 0.99,0 1.32,0.186 0,0.186 0.166,0.186 0.166,0.186 1.651,0.742 2.311,2.97 1.486,4.827 C 25.592,-15.224 16.181,-3.528 3.798,6.127 2.312,7.241 0.165,6.869 -0.826,5.198 l 0,-0.185 C -1.816,3.342 -1.486,1.114 0,0"
             style="fill:#f7e878;fill-opacity:1;fill-rule:nonzero;stroke:none"
             id="path328"
             inkscape:connector-curvature="0" /></g><g
           id="g330"
           transform="translate(484.1093,392.0753)"><path
             d="m 0,0 c 11.558,-9.097 20.308,-19.866 25.097,-31.376 0.66,-1.3 1.816,-2.043 2.972,-2.043 0.495,0 0.99,0 1.32,0.186 0,0.186 0.166,0.186 0.166,0.186 1.651,0.742 2.311,2.97 1.486,4.827 C 25.592,-15.224 16.181,-3.528 3.798,6.127 2.312,7.241 0.165,6.869 -0.826,5.198 l 0,-0.185 C -1.816,3.342 -1.486,1.114 0,0 Z"
             style="fill:none;stroke:#f7e879;stroke-width:5;stroke-linecap:butt;stroke-linejoin:round;stroke-miterlimit:10;stroke-dasharray:none;stroke-opacity:1"
             id="path332"
             inkscape:connector-curvature="0" /></g><g
           id="g334"
           transform="translate(437.3622,414.8741)"><path
             d="m 0,0 c 13.257,-3.519 25.369,-8.705 35.844,-15.188 0.491,-0.185 0.982,-0.37 1.473,-0.37 1.146,0 2.291,0.741 2.946,1.852 0.818,1.852 0.327,4.075 -1.309,5.001 C 27.988,-1.852 15.221,3.519 1.473,7.223 -0.327,7.779 -2.128,6.483 -2.455,4.445 -2.946,2.593 -1.8,0.556 0,0"
             style="fill:#f7e878;fill-opacity:1;fill-rule:evenodd;stroke:none"
             id="path336"
             inkscape:connector-curvature="0" /></g><g
           id="g338"
           transform="translate(437.3622,414.8741)"><path
             d="m 0,0 c 13.257,-3.519 25.369,-8.705 35.844,-15.188 0.491,-0.185 0.982,-0.37 1.473,-0.37 1.146,0 2.291,0.741 2.946,1.852 0.818,1.852 0.327,4.075 -1.309,5.001 C 27.988,-1.852 15.221,3.519 1.473,7.223 -0.327,7.779 -2.128,6.483 -2.455,4.445 -2.946,2.593 -1.8,0.556 0,0 Z"
             style="fill:none;stroke:#f7e879;stroke-width:5;stroke-linecap:butt;stroke-linejoin:miter;stroke-miterlimit:10;stroke-dasharray:none;stroke-opacity:1"
             id="path340"
             inkscape:connector-curvature="0" /></g><g
           id="g342"
           transform="translate(437.3622,414.8741)"><path
             d="m 0,0 c 13.257,-3.519 25.369,-8.705 35.844,-15.188 0.491,-0.185 0.982,-0.37 1.473,-0.37 1.146,0 2.291,0.741 2.946,1.852 0.818,1.852 0.327,4.075 -1.309,5.001 C 27.988,-1.852 15.221,3.519 1.473,7.223 -0.327,7.779 -2.128,6.483 -2.455,4.445 -2.946,2.593 -1.8,0.556 0,0"
             style="fill:#f7e878;fill-opacity:1;fill-rule:nonzero;stroke:none"
             id="path344"
             inkscape:connector-curvature="0" /></g><g
           id="g346"
           transform="translate(437.3622,414.8741)"><path
             d="m 0,0 c 13.257,-3.519 25.369,-8.705 35.844,-15.188 0.491,-0.185 0.982,-0.37 1.473,-0.37 1.146,0 2.291,0.741 2.946,1.852 0.818,1.852 0.327,4.075 -1.309,5.001 C 27.988,-1.852 15.221,3.519 1.473,7.223 -0.327,7.779 -2.128,6.483 -2.455,4.445 -2.946,2.593 -1.8,0.556 0,0 Z"
             style="fill:none;stroke:#f7e879;stroke-width:5;stroke-linecap:butt;stroke-linejoin:round;stroke-miterlimit:10;stroke-dasharray:none;stroke-opacity:1"
             id="path348"
             inkscape:connector-curvature="0" /></g><g
           id="g350"
           transform="translate(334.0996,410.6237)"><path
             d="m 0,0 c 0.329,0 0.658,0.185 0.987,0.185 11.674,4.242 24.5,7.378 37.983,8.853 1.809,0.185 3.124,1.845 2.96,3.874 l 0,0.184 c -0.165,2.029 -1.809,3.505 -3.618,3.32 C 24.336,14.756 11.181,11.62 -0.987,7.194 -2.631,6.64 -3.617,4.611 -3.124,2.582 -2.631,0.922 -1.315,0 0,0"
             style="fill:#f7e878;fill-opacity:1;fill-rule:evenodd;stroke:none"
             id="path352"
             inkscape:connector-curvature="0" /></g><g
           id="g354"
           transform="translate(334.0996,410.6237)"><path
             d="m 0,0 c 0.329,0 0.658,0.185 0.987,0.185 11.674,4.242 24.5,7.378 37.983,8.853 1.809,0.185 3.124,1.845 2.96,3.874 l 0,0.184 c -0.165,2.029 -1.809,3.505 -3.618,3.32 C 24.336,14.756 11.181,11.62 -0.987,7.194 -2.631,6.64 -3.617,4.611 -3.124,2.582 -2.631,0.922 -1.315,0 0,0 Z"
             style="fill:none;stroke:#f7e879;stroke-width:5;stroke-linecap:butt;stroke-linejoin:miter;stroke-miterlimit:10;stroke-dasharray:none;stroke-opacity:1"
             id="path356"
             inkscape:connector-curvature="0" /></g><g
           id="g358"
           transform="translate(334.0996,410.6237)"><path
             d="m 0,0 c 0.329,0 0.658,0.185 0.987,0.185 11.674,4.242 24.5,7.378 37.983,8.853 1.809,0.185 3.124,1.845 2.96,3.874 l 0,0.184 c -0.165,2.029 -1.809,3.505 -3.618,3.32 C 24.336,14.756 11.181,11.62 -0.987,7.194 -2.631,6.64 -3.617,4.611 -3.124,2.582 -2.631,0.922 -1.315,0 0,0"
             style="fill:#f7e878;fill-opacity:1;fill-rule:nonzero;stroke:none"
             id="path360"
             inkscape:connector-curvature="0" /></g><g
           id="g362"
           transform="translate(334.0996,410.6237)"><path
             d="m 0,0 c 0.329,0 0.658,0.185 0.987,0.185 11.674,4.242 24.5,7.378 37.983,8.853 1.809,0.185 3.124,1.845 2.96,3.874 l 0,0.184 c -0.165,2.029 -1.809,3.505 -3.618,3.32 C 24.336,14.756 11.181,11.62 -0.987,7.194 -2.631,6.64 -3.617,4.611 -3.124,2.582 -2.631,0.922 -1.315,0 0,0 Z"
             style="fill:none;stroke:#f7e879;stroke-width:5;stroke-linecap:butt;stroke-linejoin:round;stroke-miterlimit:10;stroke-dasharray:none;stroke-opacity:1"
             id="path364"
             inkscape:connector-curvature="0" /></g><g
           id="g366"
           transform="translate(290.9021,382.8656)"><path
             d="m 0,0 0,0 c 8.346,8.899 19.309,16.685 32.073,22.803 1.637,0.742 2.455,2.967 1.8,4.821 -0.818,1.854 -2.618,2.781 -4.418,2.039 C 16.2,23.174 4.582,15.017 -4.582,5.376 -5.891,3.893 -5.891,1.668 -4.746,0.185 L -4.582,0 c 0.655,-0.742 1.473,-1.112 2.291,-1.112 0.818,0 1.636,0.37 2.291,1.112"
             style="fill:#f7e878;fill-opacity:1;fill-rule:evenodd;stroke:none"
             id="path368"
             inkscape:connector-curvature="0" /></g><g
           id="g370"
           transform="translate(290.9021,382.8656)"><path
             d="m 0,0 0,0 c 8.346,8.899 19.309,16.685 32.073,22.803 1.637,0.742 2.455,2.967 1.8,4.821 -0.818,1.854 -2.618,2.781 -4.418,2.039 C 16.2,23.174 4.582,15.017 -4.582,5.376 -5.891,3.893 -5.891,1.668 -4.746,0.185 L -4.582,0 c 0.655,-0.742 1.473,-1.112 2.291,-1.112 0.818,0 1.636,0.37 2.291,1.112 z"
             style="fill:none;stroke:#f7e879;stroke-width:5;stroke-linecap:butt;stroke-linejoin:miter;stroke-miterlimit:10;stroke-dasharray:none;stroke-opacity:1"
             id="path372"
             inkscape:connector-curvature="0" /></g><g
           id="g374"
           transform="translate(290.9021,382.8656)"><path
             d="m 0,0 0,0 c 8.346,8.899 19.309,16.685 32.073,22.803 1.637,0.742 2.455,2.967 1.8,4.821 -0.818,1.854 -2.618,2.781 -4.418,2.039 C 16.2,23.174 4.582,15.017 -4.582,5.376 -5.891,3.893 -5.891,1.668 -4.746,0.185 L -4.582,0 c 0.655,-0.742 1.473,-1.112 2.291,-1.112 0.818,0 1.636,0.37 2.291,1.112"
             style="fill:#f7e878;fill-opacity:1;fill-rule:nonzero;stroke:none"
             id="path376"
             inkscape:connector-curvature="0" /></g><g
           id="g378"
           transform="translate(290.9021,382.8656)"><path
             d="m 0,0 0,0 c 8.346,8.899 19.309,16.685 32.073,22.803 1.637,0.742 2.455,2.967 1.8,4.821 -0.818,1.854 -2.618,2.781 -4.418,2.039 C 16.2,23.174 4.582,15.017 -4.582,5.376 -5.891,3.893 -5.891,1.668 -4.746,0.185 L -4.582,0 c 0.655,-0.742 1.473,-1.112 2.291,-1.112 0.818,0 1.636,0.37 2.291,1.112 z"
             style="fill:none;stroke:#f7e879;stroke-width:5;stroke-linecap:butt;stroke-linejoin:round;stroke-miterlimit:10;stroke-dasharray:none;stroke-opacity:1"
             id="path380"
             inkscape:connector-curvature="0" /></g><g
           id="g382"
           transform="translate(519.4023,283.3708)"><path
             d="m 0,0 c -1.97,2.1 -5.772,1.717 -8.568,-0.721 -71.597,-57.822 -165.866,-57.822 -237.463,0 -2.796,2.438 -6.597,2.821 -8.568,0.721 -1.97,-2.1 -1.237,-6.009 1.721,-8.588 75.354,-61.223 175.803,-61.223 251.157,0 C 1.237,-6.009 1.97,-2.1 0,0"
             style="fill:#ffffff;fill-opacity:1;fill-rule:nonzero;stroke:none"
             id="path384"
             inkscape:connector-curvature="0" /></g><g
           id="g386"
           transform="translate(519.4023,283.3708)"><path
             d="m 0,0 c -1.97,2.1 -5.772,1.717 -8.568,-0.721 -71.597,-57.822 -165.866,-57.822 -237.463,0 -2.796,2.438 -6.597,2.821 -8.568,0.721 -1.97,-2.1 -1.237,-6.009 1.721,-8.588 75.354,-61.223 175.803,-61.223 251.157,0 C 1.237,-6.009 1.97,-2.1 0,0 Z"
             style="fill:none;stroke:#ffffff;stroke-width:5;stroke-linecap:round;stroke-linejoin:round;stroke-miterlimit:10;stroke-dasharray:6.629;stroke-dashoffset:0;stroke-opacity:1"
             id="path388"
             inkscape:connector-curvature="0" /></g><g
           id="g390"
           transform="translate(552.0949,283.7607)"><path
             d="m 0,0 c 2.069,-2.003 2.413,-5.01 0.738,-6.68 -42.842,-40.459 -93.061,-63.828 -151.604,-70.545 -2.355,-0.205 -4.434,1.994 -4.634,4.867 -0.2,2.873 1.472,5.326 3.728,5.523 56.049,6.431 104.129,28.804 145.146,67.54 C -5.022,2.304 -2.069,2.003 0,0"
             style="fill:#ffffff;fill-opacity:1;fill-rule:nonzero;stroke:none"
             id="path392"
             inkscape:connector-curvature="0" /></g><g
           id="g394"
           transform="translate(552.0949,283.7607)"><path
             d="m 0,0 c 2.069,-2.003 2.413,-5.01 0.738,-6.68 -42.842,-40.459 -93.061,-63.828 -151.604,-70.545 -2.355,-0.205 -4.434,1.994 -4.634,4.867 -0.2,2.873 1.472,5.326 3.728,5.523 56.049,6.431 104.129,28.804 145.146,67.54 C -5.022,2.304 -2.069,2.003 0,0 Z"
             style="fill:none;stroke:#ffffff;stroke-width:5;stroke-linecap:round;stroke-linejoin:round;stroke-miterlimit:10;stroke-dasharray:6.629;stroke-dashoffset:0;stroke-opacity:1"
             id="path396"
             inkscape:connector-curvature="0" /></g><g
           id="g398"
           transform="translate(363.4077,217.2235)"><path
             d="m 0,0 c -0.468,-2.842 -2.743,-4.837 -5.07,-4.412 -57.657,12.166 -105.47,40.13 -144.338,84.421 -1.511,1.819 -0.887,4.78 1.36,6.581 2.248,1.801 5.216,1.824 6.663,0.082 C -104.172,44.268 -58.396,17.495 -3.195,5.847 -0.967,5.44 0.468,2.842 0,0"
             style="fill:#ffffff;fill-opacity:1;fill-rule:nonzero;stroke:none"
             id="path400"
             inkscape:connector-curvature="0" /></g><g
           id="g402"
           transform="translate(363.4077,217.2235)"><path
             d="m 0,0 c -0.468,-2.842 -2.743,-4.837 -5.07,-4.412 -57.657,12.166 -105.47,40.13 -144.338,84.421 -1.511,1.819 -0.887,4.78 1.36,6.581 2.248,1.801 5.216,1.824 6.663,0.082 C -104.172,44.268 -58.396,17.495 -3.195,5.847 -0.967,5.44 0.468,2.842 0,0 Z"
             style="fill:none;stroke:#ffffff;stroke-width:5;stroke-linecap:round;stroke-linejoin:round;stroke-miterlimit:10;stroke-dasharray:6.629;stroke-dashoffset:0;stroke-opacity:1"
             id="path404"
             inkscape:connector-curvature="0" /></g><g
           id="g406"
           transform="translate(452.3552,196.9763)"><path
             d="m 0,0 c 0.6,-2.817 -0.791,-5.504 -3.112,-5.957 -58.123,-9.697 -112.841,-1.094 -165.184,25.973 -2.07,1.143 -2.569,4.128 -1.133,6.624 1.435,2.497 4.191,3.6 6.174,2.506 C -113.142,3.232 -60.755,-5.005 -5.107,4.28 -2.885,4.713 -0.6,2.817 0,0"
             style="fill:#ffffff;fill-opacity:1;fill-rule:nonzero;stroke:none"
             id="path408"
             inkscape:connector-curvature="0" /></g><g
           id="g410"
           transform="translate(452.3552,196.9763)"><path
             d="m 0,0 c 0.6,-2.817 -0.791,-5.504 -3.112,-5.957 -58.123,-9.697 -112.841,-1.094 -165.184,25.973 -2.07,1.143 -2.569,4.128 -1.133,6.624 1.435,2.497 4.191,3.6 6.174,2.506 C -113.142,3.232 -60.755,-5.005 -5.107,4.28 -2.885,4.713 -0.6,2.817 0,0 Z"
             style="fill:none;stroke:#ffffff;stroke-width:5;stroke-linecap:round;stroke-linejoin:round;stroke-miterlimit:10;stroke-dasharray:6.629;stroke-dashoffset:0;stroke-opacity:1"
             id="path412"
             inkscape:connector-curvature="0" /></g><g
           id="g414"
           transform="translate(224.676,381.7532)"><path
             d="m 0,0 c 0,-6.866 5.566,-12.432 12.432,-12.432 6.866,0 12.432,5.566 12.432,12.432 0,6.866 -5.566,12.432 -12.432,12.432 C 5.566,12.432 0,6.866 0,0 Z"
             style="fill:none;stroke:#ffffff;stroke-width:4.84200001;stroke-linecap:butt;stroke-linejoin:miter;stroke-miterlimit:10;stroke-dasharray:none;stroke-opacity:1"
             id="path416"
             inkscape:connector-curvature="0" /></g><g
           id="g418"
           transform="translate(229.7381,381.8882)"><path
             d="m 0,0 c 0,-3.996 3.239,-7.235 7.235,-7.235 3.996,0 7.235,3.239 7.235,7.235 0,3.996 -3.239,7.235 -7.235,7.235 C 3.239,7.235 0,3.996 0,0 Z"
             style="fill:none;stroke:#ffffff;stroke-width:1.93700004;stroke-linecap:butt;stroke-linejoin:miter;stroke-miterlimit:10;stroke-dasharray:none;stroke-opacity:1"
             id="path420"
             inkscape:connector-curvature="0" /></g><g
           id="g422"
           transform="translate(515.3382,207.8125)"><path
             d="m 0,0 c 0,-6.866 5.566,-12.432 12.432,-12.432 6.866,0 12.432,5.566 12.432,12.432 0,6.866 -5.566,12.432 -12.432,12.432 C 5.566,12.432 0,6.866 0,0 Z"
             style="fill:none;stroke:#ffffff;stroke-width:4.84200001;stroke-linecap:butt;stroke-linejoin:miter;stroke-miterlimit:10;stroke-dasharray:none;stroke-opacity:1"
             id="path424"
             inkscape:connector-curvature="0" /></g><g
           id="g426"
           transform="translate(520.4002,207.9476)"><path
             d="m 0,0 c 0,-3.996 3.239,-7.235 7.235,-7.235 3.996,0 7.235,3.239 7.235,7.235 0,3.996 -3.239,7.235 -7.235,7.235 C 3.239,7.235 0,3.996 0,0 Z"
             style="fill:none;stroke:#ffffff;stroke-width:1.93700004;stroke-linecap:butt;stroke-linejoin:miter;stroke-miterlimit:10;stroke-dasharray:none;stroke-opacity:1"
             id="path428"
             inkscape:connector-curvature="0" /></g><g
           id="g430"
           transform="translate(191.248,252.3693)"><path
             d="m 0,0 c 0,-6.866 5.566,-12.432 12.432,-12.432 6.866,0 12.432,5.566 12.432,12.432 0,6.866 -5.566,12.432 -12.432,12.432 C 5.566,12.432 0,6.866 0,0 Z"
             style="fill:none;stroke:#ffffff;stroke-width:4.84200001;stroke-linecap:butt;stroke-linejoin:miter;stroke-miterlimit:10;stroke-dasharray:none;stroke-opacity:1"
             id="path432"
             inkscape:connector-curvature="0" /></g><g
           id="g434"
           transform="translate(196.3101,252.5043)"><path
             d="m 0,0 c 0,-3.996 3.239,-7.235 7.235,-7.235 3.996,0 7.235,3.239 7.235,7.235 0,3.996 -3.239,7.235 -7.235,7.235 C 3.239,7.235 0,3.996 0,0 Z"
             style="fill:none;stroke:#ffffff;stroke-width:1.93700004;stroke-linecap:butt;stroke-linejoin:miter;stroke-miterlimit:10;stroke-dasharray:none;stroke-opacity:1"
             id="path436"
             inkscape:connector-curvature="0" /></g><g
           id="g438"
           transform="translate(275.0607,148.3875)"><path
             d="m 0,0 c 0,-6.866 5.566,-12.432 12.432,-12.432 6.866,0 12.432,5.566 12.432,12.432 0,6.866 -5.566,12.432 -12.432,12.432 C 5.566,12.432 0,6.866 0,0 Z"
             style="fill:none;stroke:#ffffff;stroke-width:4.84200001;stroke-linecap:butt;stroke-linejoin:miter;stroke-miterlimit:10;stroke-dasharray:none;stroke-opacity:1"
             id="path440"
             inkscape:connector-curvature="0" /></g><g
           id="g442"
           transform="translate(280.1227,148.5225)"><path
             d="m 0,0 c 0,-3.996 3.239,-7.235 7.235,-7.235 3.996,0 7.235,3.239 7.235,7.235 0,3.996 -3.239,7.235 -7.235,7.235 C 3.239,7.235 0,3.996 0,0 Z"
             style="fill:none;stroke:#ffffff;stroke-width:1.93700004;stroke-linecap:butt;stroke-linejoin:miter;stroke-miterlimit:10;stroke-dasharray:none;stroke-opacity:1"
             id="path444"
             inkscape:connector-curvature="0" /></g><g
           id="g446"
           transform="translate(529.7894,358.6566)"><path
             d="m 0,0 c 0,-6.866 5.566,-12.432 12.432,-12.432 6.866,0 12.432,5.566 12.432,12.432 0,6.866 -5.566,12.432 -12.432,12.432 C 5.566,12.432 0,6.866 0,0 Z"
             style="fill:none;stroke:#ffffff;stroke-width:4.84200001;stroke-linecap:butt;stroke-linejoin:miter;stroke-miterlimit:10;stroke-dasharray:none;stroke-opacity:1"
             id="path448"
             inkscape:connector-curvature="0" /></g><g
           id="g450"
           transform="translate(534.8514,358.7917)"><path
             d="m 0,0 c 0,-3.996 3.239,-7.235 7.235,-7.235 3.996,0 7.235,3.239 7.235,7.235 0,3.996 -3.239,7.235 -7.235,7.235 C 3.239,7.235 0,3.996 0,0 Z"
             style="fill:none;stroke:#ffffff;stroke-width:1.93700004;stroke-linecap:butt;stroke-linejoin:miter;stroke-miterlimit:10;stroke-dasharray:none;stroke-opacity:1"
             id="path452"
             inkscape:connector-curvature="0" /></g><g
           id="g454"
           transform="translate(517.9944,127.606)"><path
             d="m 0,0 c -1.702,-4.224 -4.182,-7.562 -7.201,-10.225 -1.509,-1.332 -3.152,-2.494 -4.9,-3.515 -28.721,-15.685 -60.868,-19.631 -92.909,-15.445 -2.77,0.249 -5.537,0.547 -8.3,0.89 -2.763,0.343 -5.522,0.731 -8.275,1.16 -2.853,0.585 -5.662,1.376 -8.404,2.456 -2.742,1.079 -5.418,2.451 -8.008,4.172 -10.919,7.724 -6.532,23.671 0.628,31.802 1.995,2.208 4.208,3.865 6.586,5.103 2.377,1.237 4.918,2.055 7.569,2.576 2.592,-0.185 5.197,-0.355 7.809,-0.504 2.64,-0.462 5.286,-0.84 7.937,-1.133 2.65,-0.294 5.305,-0.505 7.963,-0.633 21.4,-0.853 42.612,3.564 62.775,11.317 2.513,0.944 5.019,1.939 7.52,2.98 2.666,0.471 5.345,0.799 8.051,0.905 C -9.441,32.438 -1.765,21.597 -1.708,10.563 -0.674,5.14 0,0 0,0 Z"
             style="fill:none;stroke:#ffffff;stroke-width:9;stroke-linecap:butt;stroke-linejoin:miter;stroke-miterlimit:10;stroke-dasharray:none;stroke-opacity:1"
             id="path456"
             inkscape:connector-curvature="0" /></g><g
           id="g458"
           transform="translate(409.3684,141.6018)"><path
             d="M 0,0 C 0.339,2.926 -1.759,5.572 -4.685,5.911 -7.611,6.25 -10.257,4.152 -10.596,1.226 l -2.146,-18.543 c -0.339,-2.926 1.759,-5.572 4.685,-5.911 2.926,-0.338 5.572,1.759 5.911,4.685 L 0,0 Z"
             style="fill:#ffffff;fill-opacity:1;fill-rule:nonzero;stroke:none"
             id="path460"
             inkscape:connector-curvature="0" /></g><g
           id="g462"
           transform="translate(409.3684,141.6018)"><path
             d="M 0,0 C 0.339,2.926 -1.759,5.572 -4.685,5.911 -7.611,6.25 -10.257,4.152 -10.596,1.226 l -2.146,-18.543 c -0.339,-2.926 1.759,-5.572 4.685,-5.911 2.926,-0.338 5.572,1.759 5.911,4.685 L 0,0 Z"
             style="fill:none;stroke:#ffffff;stroke-width:1;stroke-linecap:butt;stroke-linejoin:miter;stroke-miterlimit:10;stroke-dasharray:none;stroke-opacity:1"
             id="path464"
             inkscape:connector-curvature="0" /></g><g
           id="g466"
           transform="translate(465.4241,122.3475)"><path
             d="M 0,0 C -0.475,2.907 -3.216,4.879 -6.123,4.404 -9.03,3.93 -11.002,1.188 -10.527,-1.719 l 3.007,-18.422 c 0.475,-2.907 3.216,-4.879 6.123,-4.405 2.907,0.475 4.879,3.216 4.404,6.123 L 0,0 Z"
             style="fill:#ffffff;fill-opacity:1;fill-rule:nonzero;stroke:none"
             id="path468"
             inkscape:connector-curvature="0" /></g><g
           id="g470"
           transform="translate(465.4241,122.3475)"><path
             d="M 0,0 C -0.475,2.907 -3.216,4.879 -6.123,4.404 -9.03,3.93 -11.002,1.188 -10.527,-1.719 l 3.007,-18.422 c 0.475,-2.907 3.216,-4.879 6.123,-4.405 2.907,0.475 4.879,3.216 4.404,6.123 L 0,0 Z"
             style="fill:none;stroke:#ffffff;stroke-width:1;stroke-linecap:butt;stroke-linejoin:miter;stroke-miterlimit:10;stroke-dasharray:none;stroke-opacity:1"
             id="path472"
             inkscape:connector-curvature="0" /></g><g
           id="g474"
           transform="translate(445.1158,142.5021)"><path
             d="m 0,0 c -0.18,2.94 -2.71,5.177 -5.65,4.997 -2.94,-0.181 -5.177,-2.71 -4.997,-5.65 l 1.143,-18.632 c 0.181,-2.94 2.71,-5.177 5.65,-4.997 2.94,0.181 5.177,2.71 4.997,5.65 L 0,0 Z"
             style="fill:#ffffff;fill-opacity:1;fill-rule:nonzero;stroke:none"
             id="path476"
             inkscape:connector-curvature="0" /></g><g
           id="g478"
           transform="translate(445.1158,142.5021)"><path
             d="m 0,0 c -0.18,2.94 -2.71,5.177 -5.65,4.997 -2.94,-0.181 -5.177,-2.71 -4.997,-5.65 l 1.143,-18.632 c 0.181,-2.94 2.71,-5.177 5.65,-4.997 2.94,0.181 5.177,2.71 4.997,5.65 L 0,0 Z"
             style="fill:none;stroke:#ffffff;stroke-width:1;stroke-linecap:butt;stroke-linejoin:miter;stroke-miterlimit:10;stroke-dasharray:none;stroke-opacity:1"
             id="path480"
             inkscape:connector-curvature="0" /></g><g
           id="g482"
           transform="translate(499.7669,137.1269)"><path
             d="M 0,0 C -1.961,2.198 -5.332,2.391 -7.53,0.431 -9.728,-1.53 -9.921,-4.901 -7.961,-7.1 L 4.464,-21.031 c 1.96,-2.198 5.332,-2.391 7.53,-0.43 2.198,1.96 2.391,5.331 0.43,7.53 L 0,0 Z"
             style="fill:#ffffff;fill-opacity:1;fill-rule:nonzero;stroke:none"
             id="path484"
             inkscape:connector-curvature="0" /></g><g
           id="g486"
           transform="translate(499.7669,137.1269)"><path
             d="M 0,0 C -1.961,2.198 -5.332,2.391 -7.53,0.431 -9.728,-1.53 -9.921,-4.901 -7.961,-7.1 L 4.464,-21.031 c 1.96,-2.198 5.332,-2.391 7.53,-0.43 2.198,1.96 2.391,5.331 0.43,7.53 L 0,0 Z"
             style="fill:none;stroke:#ffffff;stroke-width:1;stroke-linecap:butt;stroke-linejoin:miter;stroke-miterlimit:10;stroke-dasharray:none;stroke-opacity:1"
             id="path488"
             inkscape:connector-curvature="0" /></g><g
           id="g490"
           transform="translate(426.0351,117.9352)"><path
             d="M 0,0 C 0.339,2.926 -1.759,5.572 -4.685,5.911 -7.611,6.25 -10.257,4.152 -10.596,1.226 l -2.146,-18.543 c -0.339,-2.926 1.759,-5.572 4.685,-5.911 2.926,-0.338 5.572,1.759 5.911,4.685 L 0,0 Z"
             style="fill:#ffffff;fill-opacity:1;fill-rule:nonzero;stroke:none"
             id="path492"
             inkscape:connector-curvature="0" /></g><g
           id="g494"
           transform="translate(426.0351,117.9352)"><path
             d="M 0,0 C 0.339,2.926 -1.759,5.572 -4.685,5.911 -7.611,6.25 -10.257,4.152 -10.596,1.226 l -2.146,-18.543 c -0.339,-2.926 1.759,-5.572 4.685,-5.911 2.926,-0.338 5.572,1.759 5.911,4.685 L 0,0 Z"
             style="fill:none;stroke:#ffffff;stroke-width:1;stroke-linecap:butt;stroke-linejoin:miter;stroke-miterlimit:10;stroke-dasharray:none;stroke-opacity:1"
             id="path496"
             inkscape:connector-curvature="0" /></g><g
           id="g498"
           transform="translate(473.473,152.6833)"><path
             d="m 0,0 c -1.347,2.62 -4.562,3.651 -7.182,2.304 -2.619,-1.346 -3.651,-4.562 -2.304,-7.181 l 8.535,-16.601 c 1.347,-2.62 4.562,-3.652 7.182,-2.305 2.619,1.347 3.651,4.562 2.304,7.182 L 0,0 Z"
             style="fill:#ffffff;fill-opacity:1;fill-rule:nonzero;stroke:none"
             id="path500"
             inkscape:connector-curvature="0" /></g><g
           id="g502"
           transform="translate(473.473,152.6833)"><path
             d="m 0,0 c -1.347,2.62 -4.562,3.651 -7.182,2.304 -2.619,-1.346 -3.651,-4.562 -2.304,-7.181 l 8.535,-16.601 c 1.347,-2.62 4.562,-3.652 7.182,-2.305 2.619,1.347 3.651,4.562 2.304,7.182 L 0,0 Z"
             style="fill:none;stroke:#ffffff;stroke-width:1;stroke-linecap:butt;stroke-linejoin:miter;stroke-miterlimit:10;stroke-dasharray:none;stroke-opacity:1"
             id="path504"
             inkscape:connector-curvature="0" /></g><g
           id="g506"
           transform="translate(607.8668,369.0331)"><path
             d="m 0,0 c 3.861,-2.415 6.713,-5.442 8.806,-8.88 1.046,-1.719 1.903,-3.541 2.602,-5.44 10.411,-31.025 8.666,-63.366 -1.069,-94.179 -0.73,-2.683 -1.508,-5.355 -2.33,-8.016 -0.822,-2.66 -1.687,-5.308 -2.592,-7.944 -1.075,-2.706 -2.346,-5.333 -3.89,-7.843 -1.543,-2.511 -3.361,-4.905 -5.51,-7.154 -9.517,-9.397 -24.45,-2.284 -31.2,6.189 -1.825,2.351 -3.068,4.821 -3.871,7.378 -0.801,2.558 -1.161,5.203 -1.21,7.904 0.636,2.519 1.259,5.054 1.864,7.6 0.917,2.518 1.753,5.057 2.506,7.615 0.754,2.558 1.426,5.136 2.018,7.729 4.588,20.92 3.956,42.578 -0.145,63.787 -0.49,2.64 -1.031,5.282 -1.617,7.926 0.003,2.707 0.149,5.402 0.519,8.085 1.529,11.63 13.547,17.289 24.42,15.412 C -5.178,0.237 0,0 0,0 Z"
             style="fill:none;stroke:#ffffff;stroke-width:9;stroke-linecap:butt;stroke-linejoin:miter;stroke-miterlimit:10;stroke-dasharray:none;stroke-opacity:1"
             id="path508"
             inkscape:connector-curvature="0" /></g><g
           id="g510"
           transform="translate(575.0592,264.5383)"><path
             d="m 0,0 c -2.821,0.846 -5.794,-0.756 -6.64,-3.577 -0.846,-2.821 0.755,-5.794 3.577,-6.64 l 17.88,-5.361 c 2.821,-0.846 5.794,0.755 6.64,3.577 0.846,2.821 -0.755,5.794 -3.577,6.64 L 0,0 Z"
             style="fill:#ffffff;fill-opacity:1;fill-rule:nonzero;stroke:none"
             id="path512"
             inkscape:connector-curvature="0" /></g><g
           id="g514"
           transform="translate(575.0592,264.5383)"><path
             d="m 0,0 c -2.821,0.846 -5.794,-0.756 -6.64,-3.577 -0.846,-2.821 0.755,-5.794 3.577,-6.64 l 17.88,-5.361 c 2.821,-0.846 5.794,0.755 6.64,3.577 0.846,2.821 -0.755,5.794 -3.577,6.64 L 0,0 Z"
             style="fill:none;stroke:#ffffff;stroke-width:1;stroke-linecap:butt;stroke-linejoin:miter;stroke-miterlimit:10;stroke-dasharray:none;stroke-opacity:1"
             id="path516"
             inkscape:connector-curvature="0" /></g><g
           id="g518"
           transform="translate(603.8351,316.3544)"><path
             d="m 0,0 c -2.945,0.042 -5.367,-2.312 -5.409,-5.257 -0.042,-2.945 2.312,-5.367 5.257,-5.409 l 18.665,-0.266 c 2.945,-0.042 5.367,2.312 5.409,5.257 0.042,2.945 -2.312,5.367 -5.257,5.409 L 0,0 Z"
             style="fill:#ffffff;fill-opacity:1;fill-rule:nonzero;stroke:none"
             id="path520"
             inkscape:connector-curvature="0" /></g><g
           id="g522"
           transform="translate(603.8351,316.3544)"><path
             d="m 0,0 c -2.945,0.042 -5.367,-2.312 -5.409,-5.257 -0.042,-2.945 2.312,-5.367 5.257,-5.409 l 18.665,-0.266 c 2.945,-0.042 5.367,2.312 5.409,5.257 0.042,2.945 -2.312,5.367 -5.257,5.409 L 0,0 Z"
             style="fill:none;stroke:#ffffff;stroke-width:1;stroke-linecap:butt;stroke-linejoin:miter;stroke-miterlimit:10;stroke-dasharray:none;stroke-opacity:1"
             id="path524"
             inkscape:connector-curvature="0" /></g><g
           id="g526"
           transform="translate(580.4348,299.8907)"><path
             d="m 0,0 c -2.926,0.337 -5.572,-1.761 -5.909,-4.687 -0.338,-2.926 1.761,-5.572 4.687,-5.909 l 18.544,-2.139 c 2.926,-0.337 5.572,1.761 5.909,4.687 0.337,2.926 -1.761,5.572 -4.687,5.91 L 0,0 Z"
             style="fill:#ffffff;fill-opacity:1;fill-rule:nonzero;stroke:none"
             id="path528"
             inkscape:connector-curvature="0" /></g><g
           id="g530"
           transform="translate(580.4348,299.8907)"><path
             d="m 0,0 c -2.926,0.337 -5.572,-1.761 -5.909,-4.687 -0.338,-2.926 1.761,-5.572 4.687,-5.909 l 18.544,-2.139 c 2.926,-0.337 5.572,1.761 5.909,4.687 0.337,2.926 -1.761,5.572 -4.687,5.91 L 0,0 Z"
             style="fill:none;stroke:#ffffff;stroke-width:1;stroke-linecap:butt;stroke-linejoin:miter;stroke-miterlimit:10;stroke-dasharray:none;stroke-opacity:1"
             id="path532"
             inkscape:connector-curvature="0" /></g><g
           id="g534"
           transform="translate(595.3002,352.7552)"><path
             d="m 0,0 c -2.508,-1.545 -3.288,-4.831 -1.743,-7.338 1.545,-2.508 4.831,-3.288 7.338,-1.743 l 15.893,9.792 c 2.507,1.545 3.288,4.83 1.743,7.338 -1.546,2.508 -4.831,3.288 -7.339,1.743 L 0,0 Z"
             style="fill:#ffffff;fill-opacity:1;fill-rule:nonzero;stroke:none"
             id="path536"
             inkscape:connector-curvature="0" /></g><g
           id="g538"
           transform="translate(595.3002,352.7552)"><path
             d="m 0,0 c -2.508,-1.545 -3.288,-4.831 -1.743,-7.338 1.545,-2.508 4.831,-3.288 7.338,-1.743 l 15.893,9.792 c 2.507,1.545 3.288,4.83 1.743,7.338 -1.546,2.508 -4.831,3.288 -7.339,1.743 L 0,0 Z"
             style="fill:none;stroke:#ffffff;stroke-width:1;stroke-linecap:butt;stroke-linejoin:miter;stroke-miterlimit:10;stroke-dasharray:none;stroke-opacity:1"
             id="path540"
             inkscape:connector-curvature="0" /></g><g
           id="g542"
           transform="translate(601.2795,276.8016)"><path
             d="m 0,0 c -2.821,0.846 -5.794,-0.756 -6.64,-3.577 -0.846,-2.821 0.755,-5.794 3.577,-6.64 l 17.88,-5.361 c 2.821,-0.846 5.794,0.755 6.64,3.577 0.846,2.821 -0.755,5.794 -3.577,6.64 L 0,0 Z"
             style="fill:#ffffff;fill-opacity:1;fill-rule:nonzero;stroke:none"
             id="path544"
             inkscape:connector-curvature="0" /></g><g
           id="g546"
           transform="translate(601.2795,276.8016)"><path
             d="m 0,0 c -2.821,0.846 -5.794,-0.756 -6.64,-3.577 -0.846,-2.821 0.755,-5.794 3.577,-6.64 l 17.88,-5.361 c 2.821,-0.846 5.794,0.755 6.64,3.577 0.846,2.821 -0.755,5.794 -3.577,6.64 L 0,0 Z"
             style="fill:none;stroke:#ffffff;stroke-width:1;stroke-linecap:butt;stroke-linejoin:miter;stroke-miterlimit:10;stroke-dasharray:none;stroke-opacity:1"
             id="path548"
             inkscape:connector-curvature="0" /></g><g
           id="g550"
           transform="translate(575.3784,329.5928)"><path
             d="m 0,0 c -2.815,-0.867 -4.394,-3.852 -3.527,-6.667 0.867,-2.815 3.852,-4.394 6.667,-3.527 l 17.84,5.495 c 2.815,0.868 4.394,3.853 3.527,6.667 -0.868,2.815 -3.853,4.394 -6.668,3.527 L 0,0 Z"
             style="fill:#ffffff;fill-opacity:1;fill-rule:nonzero;stroke:none"
             id="path552"
             inkscape:connector-curvature="0" /></g><g
           id="g554"
           transform="translate(575.3784,329.5928)"><path
             d="m 0,0 c -2.815,-0.867 -4.394,-3.852 -3.527,-6.667 0.867,-2.815 3.852,-4.394 6.667,-3.527 l 17.84,5.495 c 2.815,0.868 4.394,3.853 3.527,6.667 -0.868,2.815 -3.853,4.394 -6.668,3.527 L 0,0 Z"
             style="fill:none;stroke:#ffffff;stroke-width:1;stroke-linecap:butt;stroke-linejoin:miter;stroke-miterlimit:10;stroke-dasharray:none;stroke-opacity:1"
             id="path556"
             inkscape:connector-curvature="0" /></g><g
           id="g558"
           transform="translate(183.5571,434.1546)"><path
             d="m 0,0 c -0.665,4.505 -0.209,8.639 1.051,12.462 0.63,1.911 1.461,3.745 2.454,5.508 16.868,28.043 42.621,47.684 72.39,60.253 2.516,1.184 5.055,2.324 7.613,3.424 2.558,1.099 5.136,2.158 7.729,3.177 2.757,0.936 5.581,1.672 8.493,2.125 2.912,0.453 5.914,0.621 9.019,0.443 13.325,-1.152 17.592,-17.132 15.519,-27.765 -0.606,-2.914 -1.681,-5.462 -3.107,-7.731 -1.428,-2.268 -3.208,-4.257 -5.232,-6.046 -2.331,-1.149 -4.665,-2.318 -6.995,-3.509 -2.512,-0.934 -4.986,-1.945 -7.423,-3.03 C 99.075,38.226 96.678,37.067 94.319,35.836 75.418,25.764 59.341,11.24 45.853,-5.635 44.161,-7.72 42.5,-9.844 40.868,-12.005 38.804,-13.758 36.658,-15.394 34.376,-16.852 24.531,-23.23 12.431,-17.749 6.808,-8.254 3.177,-4.096 0,0 0,0 Z"
             style="fill:none;stroke:#ffffff;stroke-width:9;stroke-linecap:butt;stroke-linejoin:miter;stroke-miterlimit:10;stroke-dasharray:none;stroke-opacity:1"
             id="path560"
             inkscape:connector-curvature="0" /></g><g
           id="g562"
           transform="translate(284.3808,476.9342)"><path
             d="M 0,0 C 1.185,-2.696 4.332,-3.921 7.029,-2.736 9.725,-1.55 10.95,1.596 9.765,4.293 L 2.252,21.381 c -1.185,2.697 -4.332,3.921 -7.029,2.736 -2.696,-1.185 -3.921,-4.332 -2.736,-7.029 L 0,0 Z"
             style="fill:#ffffff;fill-opacity:1;fill-rule:nonzero;stroke:none"
             id="path564"
             inkscape:connector-curvature="0" /></g><g
           id="g566"
           transform="translate(284.3808,476.9342)"><path
             d="M 0,0 C 1.185,-2.696 4.332,-3.921 7.029,-2.736 9.725,-1.55 10.95,1.596 9.765,4.293 L 2.252,21.381 c -1.185,2.697 -4.332,3.921 -7.029,2.736 -2.696,-1.185 -3.921,-4.332 -2.736,-7.029 L 0,0 Z"
             style="fill:none;stroke:#ffffff;stroke-width:1;stroke-linecap:butt;stroke-linejoin:miter;stroke-miterlimit:10;stroke-dasharray:none;stroke-opacity:1"
             id="path568"
             inkscape:connector-curvature="0" /></g><g
           id="g570"
           transform="translate(226.2751,465.2428)"><path
             d="M 0,0 C 1.878,-2.269 5.24,-2.587 7.509,-0.709 9.778,1.169 10.096,4.53 8.218,6.8 l -11.9,14.382 c -1.877,2.269 -5.239,2.587 -7.509,0.709 -2.269,-1.878 -2.587,-5.24 -0.709,-7.509 L 0,0 Z"
             style="fill:#ffffff;fill-opacity:1;fill-rule:nonzero;stroke:none"
             id="path572"
             inkscape:connector-curvature="0" /></g><g
           id="g574"
           transform="translate(226.2751,465.2428)"><path
             d="M 0,0 C 1.878,-2.269 5.24,-2.587 7.509,-0.709 9.778,1.169 10.096,4.53 8.218,6.8 l -11.9,14.382 c -1.877,2.269 -5.239,2.587 -7.509,0.709 -2.269,-1.878 -2.587,-5.24 -0.709,-7.509 L 0,0 Z"
             style="fill:none;stroke:#ffffff;stroke-width:1;stroke-linecap:butt;stroke-linejoin:miter;stroke-miterlimit:10;stroke-dasharray:none;stroke-opacity:1"
             id="path576"
             inkscape:connector-curvature="0" /></g><g
           id="g578"
           transform="translate(253.9818,458.1036)"><path
             d="m 0,0 c 1.64,-2.446 4.954,-3.1 7.4,-1.459 2.446,1.64 3.1,4.953 1.459,7.4 L -1.537,21.444 c -1.64,2.447 -4.953,3.1 -7.4,1.46 -2.446,-1.641 -3.099,-4.954 -1.459,-7.4 L 0,0 Z"
             style="fill:#ffffff;fill-opacity:1;fill-rule:nonzero;stroke:none"
             id="path580"
             inkscape:connector-curvature="0" /></g><g
           id="g582"
           transform="translate(253.9818,458.1036)"><path
             d="m 0,0 c 1.64,-2.446 4.954,-3.1 7.4,-1.459 2.446,1.64 3.1,4.953 1.459,7.4 L -1.537,21.444 c -1.64,2.447 -4.953,3.1 -7.4,1.46 -2.446,-1.641 -3.099,-4.954 -1.459,-7.4 L 0,0 Z"
             style="fill:none;stroke:#ffffff;stroke-width:1;stroke-linecap:butt;stroke-linejoin:miter;stroke-miterlimit:10;stroke-dasharray:none;stroke-opacity:1"
             id="path584"
             inkscape:connector-curvature="0" /></g><g
           id="g586"
           transform="translate(204.0977,435.1425)"><path
             d="m 0,0 c 2.802,-0.907 5.81,0.629 6.717,3.431 0.907,2.803 -0.629,5.81 -3.432,6.717 l -17.759,5.75 c -2.802,0.907 -5.809,-0.63 -6.717,-3.432 -0.907,-2.802 0.629,-5.809 3.432,-6.717 L 0,0 Z"
             style="fill:#ffffff;fill-opacity:1;fill-rule:nonzero;stroke:none"
             id="path588"
             inkscape:connector-curvature="0" /></g><g
           id="g590"
           transform="translate(204.0977,435.1425)"><path
             d="m 0,0 c 2.802,-0.907 5.81,0.629 6.717,3.431 0.907,2.803 -0.629,5.81 -3.432,6.717 l -17.759,5.75 c -2.802,0.907 -5.809,-0.63 -6.717,-3.432 -0.907,-2.802 0.629,-5.809 3.432,-6.717 L 0,0 Z"
             style="fill:none;stroke:#ffffff;stroke-width:1;stroke-linecap:butt;stroke-linejoin:miter;stroke-miterlimit:10;stroke-dasharray:none;stroke-opacity:1"
             id="path592"
             inkscape:connector-curvature="0" /></g><g
           id="g594"
           transform="translate(258.0434,488.9438)"><path
             d="M 0,0 C 1.185,-2.696 4.332,-3.921 7.029,-2.736 9.725,-1.55 10.95,1.596 9.765,4.293 L 2.252,21.381 c -1.185,2.696 -4.332,3.921 -7.029,2.736 -2.696,-1.185 -3.921,-4.332 -2.736,-7.029 L 0,0 Z"
             style="fill:#ffffff;fill-opacity:1;fill-rule:nonzero;stroke:none"
             id="path596"
             inkscape:connector-curvature="0" /></g><g
           id="g598"
           transform="translate(258.0434,488.9438)"><path
             d="M 0,0 C 1.185,-2.696 4.332,-3.921 7.029,-2.736 9.725,-1.55 10.95,1.596 9.765,4.293 L 2.252,21.381 c -1.185,2.696 -4.332,3.921 -7.029,2.736 -2.696,-1.185 -3.921,-4.332 -2.736,-7.029 L 0,0 Z"
             style="fill:none;stroke:#ffffff;stroke-width:1;stroke-linecap:butt;stroke-linejoin:miter;stroke-miterlimit:10;stroke-dasharray:none;stroke-opacity:1"
             id="path600"
             inkscape:connector-curvature="0" /></g><g
           id="g602"
           transform="translate(234.6485,434.995)"><path
             d="M 0,0 C 2.485,-1.581 5.782,-0.847 7.362,1.638 8.943,4.123 8.21,7.42 5.724,9 l -15.75,10.018 c -2.486,1.581 -5.782,0.848 -7.363,-1.638 -1.581,-2.485 -0.847,-5.781 1.638,-7.362 L 0,0 Z"
             style="fill:#ffffff;fill-opacity:1;fill-rule:nonzero;stroke:none"
             id="path604"
             inkscape:connector-curvature="0" /></g><g
           id="g606"
           transform="translate(234.6485,434.995)"><path
             d="M 0,0 C 2.485,-1.581 5.782,-0.847 7.362,1.638 8.943,4.123 8.21,7.42 5.724,9 l -15.75,10.018 c -2.486,1.581 -5.782,0.848 -7.363,-1.638 -1.581,-2.485 -0.847,-5.781 1.638,-7.362 L 0,0 Z"
             style="fill:none;stroke:#ffffff;stroke-width:1;stroke-linecap:butt;stroke-linejoin:miter;stroke-miterlimit:10;stroke-dasharray:none;stroke-opacity:1"
             id="path608"
             inkscape:connector-curvature="0" /></g></g></g></g></svg>