<?xml version="1.0" encoding="UTF-8" standalone="no"?>
<!-- Created with Inkscape (http://www.inkscape.org/) -->

<svg
   xmlns:dc="http://purl.org/dc/elements/1.1/"
   xmlns:cc="http://creativecommons.org/ns#"
   xmlns:rdf="http://www.w3.org/1999/02/22-rdf-syntax-ns#"
   xmlns:svg="http://www.w3.org/2000/svg"
   xmlns="http://www.w3.org/2000/svg"
   xmlns:sodipodi="http://sodipodi.sourceforge.net/DTD/sodipodi-0.dtd"
   xmlns:inkscape="http://www.inkscape.org/namespaces/inkscape"
   width="179"
   height="103"
   viewBox="0 0 179 103"
   id="svg2"
   version="1.1"
   inkscape:version="0.91 r13725"
   sodipodi:docname="cookie.svg">
  <defs
     id="defs4">
    <inkscape:path-effect
       effect="skeletal"
       id="path-effect4151"
       is_visible="true"
       pattern="M 0,0 1,0"
       copytype="single_stretched"
       prop_scale="1"
       scale_y_rel="false"
       spacing="0"
       normal_offset="0"
       tang_offset="0"
       prop_units="false"
       vertical_pattern="false"
       fuse_tolerance="0" />
  </defs>
  <sodipodi:namedview
     id="base"
     pagecolor="#ffffff"
     bordercolor="#666666"
     borderopacity="1.0"
     inkscape:pageopacity="0.0"
     inkscape:pageshadow="2"
     inkscape:zoom="1.979899"
     inkscape:cx="18.73328"
     inkscape:cy="162.69247"
     inkscape:document-units="px"
     inkscape:current-layer="layer1"
     showgrid="false"
     units="px"
     inkscape:window-width="1920"
     inkscape:window-height="998"
     inkscape:window-x="0"
     inkscape:window-y="0"
     inkscape:window-maximized="1" />
  <metadata
     id="metadata7">
    <rdf:RDF>
      <cc:Work
         rdf:about="">
        <dc:format>image/svg+xml</dc:format>
        <dc:type
           rdf:resource="http://purl.org/dc/dcmitype/StillImage" />
        <dc:title></dc:title>
      </cc:Work>
    </rdf:RDF>
  </metadata>
  <g
     inkscape:label="Ebene 1"
     inkscape:groupmode="layer"
     id="layer1"
     transform="translate(0,-949.3621)">
    <g
       id="g4211"
       transform="translate(-89.802887,732.38844)">
      <path
         style="fill:#e8c894"
         d="m 172.07143,319.67291 c -0.55,-0.25703 -5.05,-0.93476 -10,-1.50607 -17.78714,-2.05291 -22.05547,-2.76673 -25.65548,-4.29057 -2.01052,-0.85102 -6.21328,-2.07831 -9.33947,-2.7273 -3.1262,-0.649 -6.44154,-1.92723 -7.36742,-2.84052 -2.87813,-2.83898 -12.50533,-7.16053 -15.95165,-7.16053 -5.502626,0 -8.967148,-2.45884 -10.22471,-7.25668 -0.61172,-2.33383 -1.807036,-6.68098 -2.656257,-9.66033 -2.042211,-7.16478 -1.235208,-13.20825 2.975645,-22.284 5.456338,-11.76017 17.387882,-26.79899 21.261862,-26.79899 1.84281,0 13.8875,-5.99486 18.9577,-9.43559 2.03551,-1.38134 5.11817,-2.74055 6.85036,-3.02048 1.73218,-0.27992 8.59075,-1.41145 15.24128,-2.51451 6.65052,-1.10305 17.95088,-2.30208 25.1119,-2.66451 11.59729,-0.58696 14.6469,-0.36255 27.90814,2.05367 8.18845,1.49195 17.5881,3.38951 20.8881,4.21681 6.81093,1.70747 16.53896,7.90108 25.70315,16.36461 7.72864,7.13772 11.43334,15.77101 12.32545,28.72276 0.5551,8.0589 0.41169,9.08618 -1.75233,12.55207 -2.87012,4.5968 -13.64069,15.72517 -15.21956,15.72517 -0.62716,0 -3.12768,2.025 -5.55671,4.5 -2.42903,2.475 -5.11022,4.50168 -5.95821,4.50374 -0.84798,0.002 -2.89179,0.81044 -4.54179,1.7964 -1.65,0.98597 -8.175,3.27964 -14.5,5.09705 -6.325,1.81741 -13.61698,3.93645 -16.20439,4.70899 -4.52529,1.35113 -30.24098,2.87901 -32.29561,1.91881 z"
         id="path4219"
         inkscape:connector-curvature="0" />
      <path
         style="fill:#d0a167"
         d="m 169.57143,319.03563 c -4.675,-0.51328 -11.65,-1.57488 -15.5,-2.35911 -3.85,-0.78422 -8.125,-1.40202 -9.5,-1.3729 -1.375,0.0291 -4.525,-0.69621 -7,-1.61186 -2.475,-0.91566 -7.09048,-2.23696 -10.25662,-2.93624 -3.16614,-0.69927 -6.76613,-2.17613 -8,-3.28192 -4.55721,-4.08417 -11.90108,-7.38517 -15.14838,-6.80905 -2.06974,0.3672 -4.08879,-0.071 -6.095004,-1.32285 -2.508634,-1.56534 -3.390269,-3.27286 -5.382762,-10.42515 -3.12986,-11.23501 -2.661048,-16.98538 2.223283,-27.27039 2.034983,-4.2851 3.979984,-7.51107 4.322225,-7.16883 0.34224,0.34224 0.05303,1.30813 -0.64269,2.14642 -1.488213,1.79319 -0.319592,1.96875 3.482548,0.52318 2.31235,-0.87915 2.56257,-0.77972 2.05581,0.81696 -0.90327,2.84593 3.24708,6.07236 7.05101,5.48138 2.93868,-0.45656 3.09124,-0.69764 2.77817,-4.39022 -0.18219,-2.14892 0.10607,-3.90713 0.64058,-3.90713 0.5345,0 0.97183,0.47173 0.97183,1.0483 0,0.65578 1.49773,0.82491 4,0.4517 4.62998,-0.69056 5.02252,0.10268 1.46597,2.96244 -2.31375,1.86044 -2.42241,2.27593 -1.25,4.77976 0.70621,1.50821 1.64808,2.74571 2.09304,2.75 0.44496,0.004 0.52979,0.4596 0.18852,1.01179 -0.367,0.59382 -1.93927,-0.002 -3.84848,-1.4581 -3.18039,-2.4258 -3.26895,-2.43521 -6.00759,-0.63869 -2.72176,1.78545 -2.73385,1.83538 -0.58066,2.39845 1.48097,0.38728 2.00354,1.08428 1.60046,2.13469 -0.32917,0.85781 -0.13606,1.55966 0.42914,1.55966 0.56519,0 0.7527,0.44485 0.41668,0.98855 -0.33603,0.5437 -0.0251,0.78954 0.69098,0.54632 0.71606,-0.24322 4.07778,-0.65771 7.47048,-0.92109 l 6.16854,-0.47888 -0.31878,3.42991 c -0.17532,1.88645 0.0863,3.17954 0.58146,2.87353 0.49513,-0.30601 0.90024,-0.13981 0.90024,0.36932 0,0.50913 2.3625,1.93066 5.25,3.15895 4.49563,1.91237 4.96262,2.35249 3.25,3.06304 -1.1,0.45638 -3.4074,0.86141 -5.12756,0.90006 -1.72016,0.0387 -3.62875,0.67419 -4.24132,1.4123 -1.37735,1.6596 -0.4714,2.7258 1.63069,1.91915 0.9166,-0.35174 1.30821,-0.18348 0.94411,0.40564 -0.37237,0.60251 0.58113,0.9351 2.37487,0.82839 1.64836,-0.0981 3.23107,0.20041 3.51713,0.66326 0.73034,1.18171 7.15341,1.05292 7.90208,-0.15845 0.33991,-0.55 1.11122,-1 1.714,-1 0.60278,0 0.28148,0.9 -0.714,2 -2.10924,2.33068 -2.16351,2.31678 7.86785,2.01571 5.14868,-0.15452 6.68113,0.096 6.12189,1.00089 -0.41029,0.66385 -0.12582,1.64915 0.63214,2.18954 1.07435,0.76595 0.99944,0.86115 -0.33986,0.43187 -0.94489,-0.30287 -1.98394,-0.12032 -2.30902,0.40566 -0.32507,0.52598 0.22302,0.97064 1.21798,0.98813 1.72399,0.0303 1.72602,0.0948 0.0432,1.37183 -1.6144,1.2251 -1.49647,1.39391 1.375,1.9682 4.52126,0.90425 4.88917,0.82013 4.90616,-1.12183 0.0103,-1.18151 0.26202,-1.36194 0.77476,-0.55543 0.8161,1.28369 2.9026,1.25326 5.02723,-0.0733 0.8963,-0.55962 1.49011,-0.16172 1.85797,1.24498 0.47638,1.82168 1.09124,2.00272 5.17175,1.52282 2.54711,-0.29956 4.86103,-0.87997 5.14204,-1.2898 1.37017,-1.99824 3.9383,-1.9035 4.59626,0.16955 0.66157,2.08444 0.79326,2.0403 3.46682,-1.16219 1.89326,-2.26783 3.20445,-3.06341 4.11349,-2.4959 2.01717,1.25931 3.82019,1.34517 6.53923,0.31139 2.82759,-1.07505 5.27028,-0.15469 3.1519,1.18758 -0.90786,0.57524 -0.96271,0.86475 -0.16578,0.875 2.334,0.03 2.60584,-2.32592 0.46813,-4.05694 -2.49831,-2.02301 -2.73506,-2.92775 -0.7661,-2.92775 0.76616,0 1.65203,0.675 1.96862,1.5 0.76906,2.00414 2.63837,1.91738 2.63837,-0.12244 0,-1.17119 0.34767,-1.34089 1.25,-0.61014 0.6875,0.55677 2.45219,1.00562 3.92154,0.99744 2.30635,-0.0128 2.56211,-0.30533 1.87104,-2.13986 -0.85887,-2.27997 -0.66802,-2.26375 -13.34304,-1.13414 -6.25101,0.5571 -6.95814,0.42036 -8.75197,-1.6924 -1.17032,-1.37839 -1.72735,-1.64904 -1.39154,-0.67612 0.61915,1.7938 -3.23847,3.03497 -6.65556,2.14138 -2.99072,-0.78209 -2.2183,-2.0865 1.09953,-1.8568 1.90939,0.13219 3,-0.26756 3,-1.09961 0,-0.71902 0.47829,-1.30731 1.06286,-1.30731 0.58457,0 0.92207,-0.83424 0.75,-1.85386 -0.75369,-4.466 10.49174,-9.79142 16.68714,-7.9024 6.25334,1.90668 6.05947,1.79245 4.58688,2.70257 -1.05017,0.64903 -0.82848,1.12161 0.98022,2.0896 1.71817,0.91953 2.43826,0.94801 2.71843,0.10749 0.71332,-2.13994 2.03944,-1.15323 1.76841,1.31579 -0.22883,2.08455 0.003,2.31307 1.52231,1.5 2.47464,-1.32438 3.23056,-1.2011 2.60652,0.42512 -0.71916,1.8741 6.62094,3.0587 9.47802,1.52964 1.62012,-0.86706 2.28748,-0.81442 2.95107,0.2328 0.66629,1.05148 0.86093,0.963 0.87283,-0.39675 0.008,-0.9625 -0.43469,-1.75 -0.98469,-1.75 -0.55,0 -1,-0.675 -1,-1.5 0,-1.73461 7.46046,-2.18202 8.49419,-0.5094 0.68021,1.1006 6.50581,-2.76631 6.50581,-4.31842 0,-0.52343 -0.7875,-1.54949 -1.75,-2.28013 -1.41942,-1.07749 -1.46664,-1.33734 -0.25,-1.37556 1.33333,-0.0419 1.33333,-0.15482 0,-1.01649 -0.825,-0.53316 -2.4,-0.94074 -3.5,-0.90574 -1.1,0.035 -1.4375,0.29061 -0.75,0.56802 1.93528,0.78091 1.47596,3.13123 -0.75,3.83772 -1.1,0.34913 -2,1.08575 -2,1.63694 0,0.55119 -1.0125,0.85836 -2.25,0.68261 -1.84394,-0.26188 -2.22339,-0.90608 -2.10255,-3.56955 0.11107,-2.44815 -0.27135,-3.25 -1.55,-3.25 -0.9336,0 -2.15675,0.4593 -2.71812,1.02067 -1.45703,1.45703 -11.37933,4.9631 -11.37933,4.02092 0,-0.43229 -1.84724,-1.08136 -4.10497,-1.44239 -2.25774,-0.36102 -5.46745,-1.36097 -7.1327,-2.22211 -2.49288,-1.28911 -3.17359,-1.3297 -3.85339,-0.22975 -0.54559,0.88278 -1.16122,0.99957 -1.81491,0.3443 -1.20746,-1.21037 -12.09403,-0.66945 -12.09403,0.60091 0,0.4991 0.675,0.90745 1.5,0.90745 1.64273,0 2.02893,1.55507 0.60478,2.43524 -0.49236,0.3043 -1.15324,-0.11914 -1.46861,-0.94098 -0.64144,-1.67157 -3.72869,-1.99882 -5.18617,-0.54974 -0.5225,0.51948 -2.49667,1.21573 -4.38706,1.54722 -6.39944,1.12216 -15.83785,4.60205 -17.51828,6.4589 -1.57223,1.7373 -1.53703,1.9413 0.59239,3.4328 1.59357,1.11618 2.46848,1.25483 2.95462,0.46822 0.48459,-0.78407 1.3863,-0.63028 3.022,0.51541 2.29973,1.61079 2.26836,1.63293 -2.31444,1.63293 -5.39304,0 -11.17729,-3.85124 -10.07979,-6.71128 0.42891,-1.1177 0.23873,-1.38091 -0.61604,-0.85263 -0.73576,0.45472 -1.7923,0.015 -2.60904,-1.08595 -1.15645,-1.55884 -1.69184,-1.65525 -3.40039,-0.61232 -1.42893,0.87224 -2.78458,0.95011 -4.59007,0.26366 -1.40923,-0.53578 -4.01161,-1.06281 -5.78307,-1.17117 -1.77146,-0.10836 -3.9351,-0.91708 -4.80809,-1.79716 -1.6668,-1.68034 -3.38384,-6.6546 -3.0318,-8.78315 0.1284,-0.77639 -1.04125,-1.27991 -3.08711,-1.32895 -1.81161,-0.0434 -2.73133,-0.30592 -2.04383,-0.58333 0.6875,-0.27741 1.25,-1.0894 1.25,-1.80442 0,-0.71502 0.9,-1.53539 2,-1.82305 2.16676,-0.56662 2.7972,0.80141 0.75,1.62747 -0.74675,0.30132 -0.54544,0.53617 0.5,0.58333 0.9625,0.0434 1.75,-0.37105 1.75,-0.92105 0,-0.55 0.9,-1 2,-1 2.10908,0 2.69103,1.45488 1,2.5 -1.77488,1.09693 -1.1089,2.62334 0.75,1.71897 0.9625,-0.46827 2.3125,-0.76535 3,-0.66018 0.6875,0.10516 1.68587,0.24746 2.21861,0.31621 1.42405,0.18377 0.0418,3.125 -1.46861,3.125 -0.70732,0 -1.54718,0.68056 -1.86638,1.51237 -0.46204,1.20407 -0.0252,1.38347 2.14302,0.88006 1.49784,-0.34777 3.28586,-1.33935 3.97336,-2.2035 0.72048,-0.90561 1.25,-1.0772 1.25,-0.40506 0,0.76237 1.03872,0.95838 3,0.56613 2.54047,-0.5081 3,-0.29089 3,1.41801 0,1.10991 0.7394,2.30175 1.64312,2.64854 2.31213,0.88725 2.52037,0.3509 1.26356,-3.25439 -1.14258,-3.27762 -1.42179,-3.42154 -6.40668,-3.30236 -2.77174,0.0663 -2.64011,-0.0969 1.72993,-2.14404 3.00087,-1.40577 4.73728,-2.86332 4.75,-3.9872 0.011,-0.97429 1.03257,-2.16255 2.27007,-2.64057 1.2375,-0.47802 3.32129,-1.27744 4.63065,-1.77647 2.20209,-0.83928 2.2582,-1.02981 0.74806,-2.53995 -1.51015,-1.51014 -1.4146,-1.78784 1.27371,-3.70209 3.7477,-2.6686 4.07538,-2.62963 7.3865,0.87851 l 2.78244,2.948 -3.53568,0.66329 c -1.94463,0.36482 -3.53568,1.06763 -3.53568,1.56181 0,0.49418 -2.3625,2.00336 -5.25,3.35373 -2.8875,1.35037 -4.66095,2.47096 -3.94099,2.4902 0.74144,0.0198 0.99551,0.54225 0.58596,1.20492 -0.51148,0.82759 -0.16298,0.93449 1.19098,0.3653 7.15855,-3.00934 9.28234,-3.41039 12.84738,-2.42604 2.02247,0.55844 3.9255,1.66231 4.22894,2.45307 0.98228,2.55977 3.82448,1.66464 3.99408,-1.25791 0.19302,-3.32616 2.75484,-5.31561 6.78478,-5.26893 3.58602,0.0415 9.46039,2.86852 6.08665,2.92913 -1.88773,0.0339 -1.87654,0.13113 0.26128,2.26894 1.88012,1.88013 2.54081,2.04158 4.17586,1.02048 1.1969,-0.74748 2.1707,-0.84356 2.53732,-0.25036 0.62406,1.00975 9.52227,0.73396 15.49776,-0.48034 5.47503,-1.1126 5.05533,-1.86502 -0.63562,-1.13948 -4.33014,0.55205 -5.24026,0.38203 -5.80285,-1.08405 -0.36698,-0.95633 -0.38095,-1.45251 -0.031,-1.1026 0.80249,0.80248 4.18212,-2.35172 3.96138,-3.69715 -0.0902,-0.55 0.0247,-0.6625 0.25537,-0.25 0.23069,0.4125 1.68981,0.75 3.24248,0.75 2.30862,0 2.72993,-0.35609 2.31204,-1.95411 -0.45937,-1.75664 -0.12148,-1.89506 3.34362,-1.36976 2.12005,0.32139 4.28213,0.97574 4.80463,1.45411 1.38056,1.26395 2.78941,1.06616 1.96039,-0.27523 -0.48641,-0.78704 0.0422,-0.97105 1.69099,-0.58862 1.31924,0.306 3.47201,0.80714 4.78393,1.11363 1.31192,0.30649 2.44597,0.68387 2.52011,0.83862 1.647,3.43749 2.22119,6.75166 1.23948,7.15411 -0.62969,0.25815 -0.1324,0.50488 1.1051,0.5483 1.2375,0.0434 2.25,-0.27629 2.25,-0.71047 0,-0.43418 1.2375,-0.77168 2.75,-0.75 2.05964,0.0295 2.71226,-0.41716 2.59965,-1.77933 -0.0933,-1.12887 0.34944,-1.62696 1.16724,-1.31314 1.69969,0.65223 2.93117,-2.47316 1.35766,-3.44564 -0.65625,-0.40559 -1.90899,-0.49352 -2.78387,-0.19542 -1.09517,0.37317 -0.9894,0.0738 0.33954,-0.96088 1.90046,-1.47973 1.89864,-1.5198 -0.11852,-2.59935 -1.1268,-0.60305 -2.4454,-0.78229 -2.93022,-0.3983 -0.48481,0.38398 -0.43148,0.20456 0.11852,-0.39871 0.55,-0.60327 2.43583,-1.57556 4.19072,-2.16065 2.59127,-0.86393 3.09238,-0.8075 2.66725,0.30038 -0.28964,0.75478 -1.21754,1.09784 -2.07718,0.76797 -1.04123,-0.39956 -1.40079,-0.13136 -1.09012,0.81314 0.25496,0.77514 1.75323,1.56012 3.32948,1.7444 2.53959,0.2969 2.71317,0.15101 1.52449,-1.28126 -1.14171,-1.37568 -1.05879,-1.84711 0.55698,-3.16668 1.62042,-1.32338 1.64602,-1.4713 0.17483,-1.01028 -0.94796,0.29706 -2.07296,-0.004 -2.5,-0.66836 -1.22645,-1.90877 -5.01501,-3.70847 -7.80677,-3.70847 -1.4949,0 -2.46731,-0.51933 -2.34056,-1.25 0.37069,-2.13689 -2.31095,-6.61747 -3.65247,-6.10268 -0.70092,0.26896 -1.54884,0.045 -1.88428,-0.49777 -0.93406,-1.51135 4.70877,-2.36574 7.81777,-1.1837 1.5167,0.57665 3.23941,0.75071 3.82823,0.38679 0.63336,-0.39143 0.77919,-0.19015 0.35707,0.49285 -0.4117,0.66615 -0.11138,1.15451 0.70998,1.15451 1.83225,0 7.13394,4.80343 8.69428,7.87717 0.96921,1.90926 0.94037,2.54597 -0.1465,3.23469 -1.04229,0.66046 -0.93819,0.86103 0.45298,0.87283 2.91561,0.0247 5.61769,7.63618 6.34416,17.87084 0.55121,7.76551 0.38404,9.4456 -1.17873,11.84664 -3.53269,5.42759 -10.01274,12.41351 -13.47166,14.52334 -1.925,1.17419 -5.3,3.90064 -7.5,6.05878 -2.2,2.15813 -5.8,4.59388 -8,5.41277 -28.82775,10.73037 -48.47768,14.27919 -67.5,12.19065 z m -25.27084,-15.49188 c -0.33229,-0.33229 -1.19479,-0.36782 -1.91666,-0.0789 -0.79774,0.31923 -0.56078,0.55619 0.60416,0.60417 1.05417,0.0434 1.64479,-0.19293 1.3125,-0.52522 z m 4.27084,-3.58579 c 0,-1.32759 -3.24537,-0.57706 -3.72424,0.86127 -0.24807,0.74511 0.35855,0.97557 1.66713,0.63337 1.13141,-0.29587 2.05711,-0.96845 2.05711,-1.49464 z m 6.5,1.18996 c 0.33991,-0.55 -0.0835,-1 -0.94099,-1 -0.85746,0 -1.55901,0.45 -1.55901,1 0,0.55 0.42344,1 0.94098,1 0.51754,0 1.2191,-0.45 1.55902,-1 z m 56.88156,-0.55194 c 0.34149,-0.88992 0.17385,-1.29132 -0.39301,-0.94098 -0.5437,0.33602 -0.98855,1.0344 -0.98855,1.55194 0,1.43843 0.71677,1.12146 1.38156,-0.61096 z m 29.61844,-12.94806 c 0,-0.825 -0.40186,-1.5 -0.89301,-1.5 -0.49116,0 -1.15203,0.675 -1.46862,1.5 -0.35062,0.91371 -0.002,1.5 0.89301,1.5 0.80774,0 1.46862,-0.675 1.46862,-1.5 z m -75.75,-5.16228 c -0.6875,-0.27741 -1.8125,-0.27741 -2.5,0 -0.6875,0.27741 -0.125,0.50438 1.25,0.50438 1.375,0 1.9375,-0.22697 1.25,-0.50438 z m 0.84164,-5.54776 c 0.3254,-0.49254 1.0004,-0.79911 1.5,-0.68127 0.49959,0.11785 2.03336,-0.25409 3.40836,-0.82653 1.375,-0.57245 3.27565,-1.20761 4.22366,-1.41148 1.08356,-0.23302 1.43608,-0.82992 0.94926,-1.60729 -0.59909,-0.95666 -1.89489,-0.81498 -5.72367,0.62579 -8.87322,3.339 -10.24597,3.97289 -10.90183,5.03408 -0.80696,1.30569 5.67442,0.18328 6.54422,-1.1333 z m -58.50986,-2.78996 c 0.78002,0 1.41822,-0.47656 1.41822,-1.05902 0,-0.58246 -0.41372,-0.80332 -0.91938,-0.49081 -0.50566,0.31252 -1.58146,-0.0939 -2.39067,-0.90308 -1.29505,-1.29505 -1.529,-1.16941 -1.95304,1.04884 -0.36481,1.90836 -0.12874,2.38467 0.97245,1.9621 0.79982,-0.30691 2.09241,-0.55803 2.87242,-0.55803 z m 82.08489,-6.5 c 0,-0.90476 -0.92593,-1.5 -2.33334,-1.5 -2.95021,0 -2.98419,0.80283 -0.0833,1.96884 1.2375,0.49741 2.2875,0.93291 2.33333,0.96777 0.0458,0.0349 0.0833,-0.61161 0.0833,-1.43661 z m 4.33333,-0.5 c -0.825,-0.53316 -1.95,-0.96937 -2.5,-0.96937 -0.55,0 -0.325,0.43621 0.5,0.96937 0.825,0.53316 1.95,0.96937 2.5,0.96937 0.55,0 0.325,-0.43621 -0.5,-0.96937 z m 57.55887,-23.5318 c -1.86806,-1.41293 -5.55887,-2.03437 -5.55887,-0.93598 0,0.70782 4.10933,2.33278 6,2.37259 1.12295,0.0236 1.01207,-0.33747 -0.44113,-1.43661 z m -74.38748,52.23831 c -0.85126,-1.0257 -0.35714,-1.20985 2.38683,-0.88951 1.90317,0.22219 3.7077,0.80426 4.01007,1.29349 0.87405,1.41425 -5.2066,1.03025 -6.3969,-0.40397 z m 16.82861,0.29349 c 0,-0.55 0.47656,-1 1.05902,-1 0.58246,0 0.7809,0.45 0.44098,1 -0.33992,0.55 -0.81648,1 -1.05902,1 -0.24254,0 -0.44098,-0.45 -0.44098,-1 z m -37,-5 c 0,-0.55 0.47655,-1 1.05901,-1 0.58246,0 0.7809,0.45 0.44099,1 -0.33992,0.55 -0.81648,1 -1.05902,1 -0.24254,0 -0.44098,-0.45 -0.44098,-1 z m -6.5,-1 c 0.33991,-0.55 0.81647,-1 1.05901,-1 0.24254,0 0.44099,0.45 0.44099,1 0,0.55 -0.47656,1 -1.05902,1 -0.58246,0 -0.7809,-0.45 -0.44098,-1 z m 22.02092,-0.96614 c -0.70285,-1.13723 2.61443,-3.03386 5.30635,-3.03386 1.07731,0 2.22872,-0.70352 2.55868,-1.56338 0.83481,-2.17548 2.61405,-0.80813 2.61405,2.0089 0,1.82158 -0.65208,2.42319 -3,2.76779 -1.74382,0.25594 -3.00642,-0.0106 -3.01532,-0.6365 -0.01,-0.69973 -0.27258,-0.72663 -0.75,-0.0768 -1.00992,1.37462 -3.01592,1.66299 -3.71376,0.53386 z m 47.97908,-8.03386 c 0.33992,-0.55 1.04148,-1 1.55902,-1 0.51754,0 0.94098,0.45 0.94098,1 0,0.55 -0.70156,1 -1.55902,1 -0.85746,0 -1.2809,-0.45 -0.94098,-1 z m -40.0162,-16.29313 c -0.78886,-1.93539 -0.1731,-3.13049 1.31955,-2.56104 0.51059,0.19479 0.58701,1.25417 0.16983,2.35417 -0.70738,1.86518 -0.80778,1.87913 -1.48938,0.20687 z m 66.0162,-1.70687 c 0.33992,-0.55 1.06803,-1 1.61803,-1 0.55,0 0.72189,0.45 0.38197,1 -0.33992,0.55 -1.06803,1 -1.61803,1 -0.55,0 -0.72189,-0.45 -0.38197,-1 z m -38.25,-3.09918 c -2.52763,-0.93957 -2.81133,-1.93949 -1.05,-3.70082 0.93333,-0.93333 0.80911,-1.2 -0.55902,-1.2 -0.96746,0 -1.4809,-0.45 -1.14098,-1 0.33992,-0.55 -0.0354,-1 -0.83399,-1 -1.5362,0 -2.66601,-2.05196 -2.66601,-4.84201 0,-1.78941 4.47988,-7.15799 5.97308,-7.15799 0.49068,0 1.18612,0.92623 1.54542,2.0583 0.43605,1.37387 1.34684,1.95578 2.73906,1.75 2.8094,-0.41526 3.31912,-2.42423 0.78333,-3.08736 -1.12249,-0.29353 -2.04089,-1.0344 -2.04089,-1.64637 0,-1.50499 3.79606,-0.47326 10.26627,2.79028 5.9518,3.00205 7.54317,6.44695 3.54203,7.66754 -1.26957,0.38729 -3.05792,1.36141 -3.97413,2.16471 -1.93127,1.69325 -6.63512,2.43399 -7.41751,1.16806 -0.29408,-0.47584 0.33676,-0.86516 1.40188,-0.86516 1.06511,0 2.44889,-0.61731 3.07506,-1.37179 0.91032,-1.09687 0.55819,-1.48785 -1.75702,-1.9509 -1.59253,-0.3185 -3.61145,-1.29504 -4.48648,-2.17007 -1.45464,-1.45464 -1.64433,-1.35172 -2.21348,1.20089 -0.34238,1.53553 -0.82806,3.55433 -1.07929,4.48623 -0.28208,1.04632 0.51841,2.33334 2.09294,3.36501 1.40235,0.91886 2.54973,2.02075 2.54973,2.44865 0,1.32149 -2.38885,1.77049 -4.75,0.8928 z m 0.25,-12.90082 c 0.33992,-0.55 0.14148,-1 -0.44098,-1 -0.58246,0 -1.05902,0.45 -1.05902,1 0,0.55 0.19844,1 0.44098,1 0.24254,0 0.7191,-0.45 1.05902,-1 z m -48,11 c 0.33991,-0.55 0.81647,-1 1.05901,-1 0.24254,0 0.44099,0.45 0.44099,1 0,0.55 -0.47656,1 -1.05902,1 -0.58246,0 -0.7809,-0.45 -0.44098,-1 z m 23,0 c 2.73138,-1.17371 3.5,-1.17371 3.5,0 0,0.55 -1.2375,0.96837 -2.75,0.92971 -2.43684,-0.0623 -2.52225,-0.16815 -0.75,-0.92971 z m -49.89498,-2.16994 c 0.48364,-0.78253 0.18155,-0.96214 -0.91226,-0.5424 -0.89943,0.34514 -3.33575,0.003 -5.41405,-0.7596 -2.07829,-0.76293 -3.18966,-1.41884 -2.4697,-1.4576 0.71996,-0.0387 1.01195,-0.55114 0.64885,-1.13863 -0.36309,-0.5875 -1.26093,-0.83764 -1.99519,-0.55588 -0.73426,0.28176 -2.44723,-0.36256 -3.80658,-1.43183 -2.85521,-2.2459 -4.51738,-2.46779 -5.19981,-0.69412 -0.59305,1.54135 -11.66387,1.62724 -12.1748,0.0944 -0.19145,-0.57436 0.34189,-1.61692 1.18521,-2.31681 1.04457,-0.86692 1.53331,-0.91476 1.53331,-0.15009 0,1.34237 3.64087,1.51254 4.44721,0.20786 0.31089,-0.50302 -0.6138,-1.3076 -2.05485,-1.78795 l -2.62009,-0.87337 2.70276,-3.21205 c 2.64144,-3.13917 7.52497,-4.5053 7.52497,-2.10505 0,0.60884 0.62406,0.86751 1.38681,0.57482 0.97288,-0.37333 1.23655,0.0425 0.88337,1.39301 -0.2769,1.05885 -1.11184,1.92518 -1.85543,1.92518 -0.74747,0 -1.11197,-0.62547 -0.8152,-1.39885 1.06057,-2.76379 -1.48958,-2.56434 -3.51109,0.27461 -1.69805,2.3847 -1.82664,3.09665 -0.7245,4.01134 1.51538,1.25766 7.15538,-0.27484 9.45746,-2.56978 0.72679,-0.72452 1.96429,-1.31732 2.75,-1.31732 0.78572,0 1.42858,-0.675 1.42858,-1.5 0,-0.96111 -0.98797,-1.51273 -2.75,-1.53544 -1.5125,-0.0195 -3.875,-0.71783 -5.25,-1.55187 -1.375,-0.83405 -1.825,-1.34066 -1,-1.1258 0.825,0.21486 3.02783,-0.24514 4.89519,-1.02221 3.51621,-1.46321 5.0503,-0.71408 5.08949,2.48532 0.008,0.6875 1.14032,1.25 2.51532,1.25 1.375,0 2.5,-0.45 2.5,-1 0,-0.55 0.62356,-1 1.38569,-1 0.76213,0 2.6385,-0.64996 4.1697,-1.44436 1.95676,-1.01518 3.32787,-1.1533 4.61431,-0.46482 1.19598,0.64007 2.46739,0.63858 3.66862,-0.004 1.01108,-0.54111 2.71412,-0.75482 3.78453,-0.4749 1.31535,0.34397 3.12621,-0.63707 5.5866,-3.02657 2.00222,-1.94453 3.78668,-3.13371 3.96547,-2.64262 0.17879,0.49108 1.51853,0.66089 2.97721,0.37735 1.76943,-0.34394 2.80027,-1.29045 3.09722,-2.84387 0.41641,-2.1783 0.15472,-2.31699 -4.0605,-2.15213 -5.33601,0.20869 -6.53622,-1.52304 -2.27802,-3.28685 3.06273,-1.26863 14.18669,-1.71273 15.92897,-0.63594 2.04254,1.26236 -0.11428,4.36947 -3.90046,5.61902 -2.9207,0.96392 -4.41577,2.28144 -5.96781,5.2591 -1.63232,3.13168 -1.74946,3.84965 -0.5532,3.3906 0.83469,-0.3203 1.80612,-0.11556 2.15873,0.45499 0.37022,0.59902 1.75702,0.74049 3.28203,0.33481 4.81666,-1.28135 9.59139,-1.34812 10.35656,-0.14483 0.49309,0.77545 0.75902,0.53785 0.76904,-0.68713 0.0111,-1.35482 0.36086,-1.60065 1.26531,-0.88927 0.6875,0.54075 3.00119,1.03454 5.14154,1.09732 2.14034,0.0628 4.09979,0.3224 4.35433,0.57694 0.25454,0.25454 -0.22242,1.83635 -1.05991,3.51514 -1.39191,2.79016 -1.37117,3.2395 0.24151,5.23107 0.97032,1.1983 2.39609,2.27367 3.16837,2.38972 1.7645,0.26515 9.11548,4.57354 8.63063,5.05839 -0.19741,0.19742 -1.79163,-0.052 -3.5427,-0.55416 -2.59358,-0.74383 -3.18377,-0.62814 -3.18377,0.62409 0,0.92054 -0.5724,1.31754 -1.42689,0.98964 -0.78478,-0.30115 -1.96488,0.1007 -2.62244,0.89301 -1.52956,1.843 -2.95067,1.84787 -2.95067,0.0101 0,-0.78675 1.0125,-1.57425 2.25,-1.75 1.2375,-0.17575 2.10799,-0.76955 1.93442,-1.31955 -0.17356,-0.55 -1.00622,-0.8574 -1.85035,-0.68312 -0.84413,0.17429 -1.26316,-0.12261 -0.93118,-0.65976 1.23251,-1.99424 -0.60273,-4.19989 -3.26751,-3.927 -2.14253,0.21941 -2.70099,-0.19765 -2.9862,-2.23012 -0.51279,-3.65428 -1.75087,-4.08003 -11.15038,-3.83433 -8.06504,0.21083 -14.9988,-1.36548 -14.9988,-3.40978 0,-1.27104 -3.51648,-0.84381 -6.8846,0.83643 -1.75553,0.87577 -3.84967,1.33989 -4.65364,1.03138 -1.90925,-0.73265 -1.85112,0.37541 0.17117,3.26262 1.96006,2.79839 0.96283,3.76448 -4.89739,4.74443 -5.63438,0.94218 -3.1431,3.28223 2.7832,2.61425 2.96264,-0.33394 4.48126,-0.12215 4.48126,0.62495 0,0.62153 -0.43588,1.13005 -0.96862,1.13005 -0.53274,0 -0.73726,0.6029 -0.45449,1.33979 0.78769,2.05269 -2.28,3.99543 -6.08324,3.85245 -1.8783,-0.0706 -3.68432,0.30725 -4.01339,0.83969 -0.32906,0.53244 -1.0483,0.96807 -1.5983,0.96807 -0.55,0 -0.67462,-0.52647 -0.27694,-1.16994 z m 0.12002,-8.83006 c -0.16669,-2.21286 -0.57146,-2.38335 -2.60316,-1.09649 -1.59013,1.00717 -0.66238,3.09649 1.37498,3.09649 0.76239,0 1.31148,-0.89416 1.22818,-2 z m -7.54171,-5.21667 c -0.71756,-0.71756 -1.18333,-0.7766 -1.18333,-0.15 0,0.56834 0.3,1.33334 0.66666,1.7 0.36667,0.36667 0.89917,0.43417 1.18334,0.15 0.28416,-0.28416 -0.0158,-1.04916 -0.66667,-1.7 z m 5.38809,0.33028 c 0,-1.12621 -0.51811,-1.68756 -1.28571,-1.39301 -1.6366,0.62802 -1.65482,1.96379 -0.0357,2.61712 0.6875,0.27741 1.26607,0.53991 1.28571,0.58333 0.0196,0.0434 0.0357,-0.76992 0.0357,-1.80744 z m 16.42858,13.88639 c 0,-0.55 0.675,-1 1.5,-1 0.825,0 1.5,0.45 1.5,1 0,0.55 -0.675,1 -1.5,1 -0.825,0 -1.5,-0.45 -1.5,-1 z m 44,-1 c -0.90129,-0.58246 -1.02463,-0.97549 -0.30902,-0.98469 0.65504,-0.008 1.4691,0.43469 1.80902,0.98469 0.7673,1.24153 0.42112,1.24153 -1.5,0 z m -44.49626,-4.00606 c 0.34198,-0.55334 0.64659,-2.80334 0.6769,-5 0.0611,-4.4309 0.29172,-4.66444 2.46221,-2.49394 1.33334,1.33333 1.31719,1.68281 -0.14531,3.14532 -1.22318,1.22317 -1.33692,1.83592 -0.44332,2.38819 1.49804,0.92584 0.34769,2.96649 -1.67226,2.96649 -0.825,0 -1.2202,-0.45273 -0.87822,-1.00606 z m 79.64538,-5.59776 c -1.82254,-2.06117 -0.64941,-3.03933 1.30326,-1.08666 0.85119,0.85119 1.54762,1.80477 1.54762,2.11905 0,1.05 -1.48511,0.5122 -2.85088,-1.03239 z m 13.85088,0.5448 c 0,-0.58246 0.45,-0.7809 1,-0.44098 0.55,0.33992 1,0.81648 1,1.05902 0,0.24254 -0.45,0.44098 -1,0.44098 -0.55,0 -1,-0.47656 -1,-1.05902 z m -70.25,-1.16122 c -1.5125,-0.52053 -2.75,-1.58393 -2.75,-2.36309 0,-1.93721 1.33403,-1.77695 4.13921,0.49725 2.88663,2.34023 2.29563,3.134 -1.38921,1.86584 z m 64.0625,-0.46287 c 0.72187,-0.28888 1.58437,-0.25335 1.91667,0.0789 0.33229,0.33229 -0.25834,0.56864 -1.3125,0.52522 -1.16495,-0.048 -1.4019,-0.28495 -0.60417,-0.60417 z m -95.22955,-11.18268 c -0.43078,-0.697 -0.51316,-1.53733 -0.18309,-1.86741 0.89496,-0.89496 1.87077,0.4213 1.38739,1.87145 -0.33873,1.01617 -0.57427,1.01538 -1.2043,-0.004 z m 46.21705,-0.33421 c 2.18595,-2.18595 1.25416,-3.67586 -3.72842,-5.96166 -2.71063,-1.24353 -4.70454,-2.62321 -4.43091,-3.06596 0.27364,-0.44275 0.98596,-0.50314 1.58294,-0.13418 0.64782,0.40038 0.79775,0.20538 0.37188,-0.48369 -0.39244,-0.63498 -0.21724,-1.15451 0.38933,-1.15451 0.60657,0 0.97368,-0.5625 0.8158,-1.25 -0.15787,-0.6875 -0.0651,-1.28646 0.20617,-1.33102 0.27126,-0.0446 1.49535,-0.61735 2.72018,-1.27286 1.40828,-0.75369 2.87877,-0.86509 4,-0.30302 3.57721,1.79324 8.45692,3.02357 9.85865,2.48567 1.78818,-0.68619 4.6217,1.52676 3.75354,2.93148 -0.42133,0.68172 0.94963,0.85459 4.02681,0.50775 2.5661,-0.28924 4.90689,-0.13552 5.20177,0.3416 0.29487,0.47712 -0.16734,0.59754 -1.02714,0.2676 -1.14052,-0.43765 -1.39413,-0.15908 -0.9378,1.03011 0.52541,1.36919 0.23388,1.48109 -1.82213,0.6994 -1.45276,-0.55234 -3.02338,-0.56614 -3.86414,-0.034 -0.77909,0.49314 -2.68361,0.90351 -4.23227,0.91194 -3.35741,0.0183 -6.32741,1.46518 -9.57062,4.66263 -1.3125,1.29397 -2.865,2.35268 -3.45,2.35268 -0.67576,0 -0.62603,-0.43761 0.13636,-1.2 z m -20.8,-1.67756 c 0,-0.48265 0.62244,-1.39414 1.38321,-2.02552 1.06218,-0.88153 1.51172,-0.81311 1.93686,0.2948 0.3045,0.79352 -0.12975,1.705 -0.965,2.02552 -2.03077,0.77928 -2.35507,0.73868 -2.35507,-0.2948 z m 55.5,-1.29617 c -6.01958,-1.13914 -8.17515,-2.76227 -3.95,-2.97433 5.79368,-0.29079 15.97431,0.37401 17.3599,1.13361 1.1377,0.6237 1.04117,0.95584 -0.5,1.72035 -2.50925,1.24474 -6.75895,1.28436 -12.9099,0.12037 z m -85.5,-2.82627 c 0,-0.55 0.3375,-0.9044 0.75,-0.78755 0.4125,0.11685 1.73519,-0.33437 2.93931,-1.0027 2.51152,-1.394 4.56874,0.37931 2.1888,1.88674 -1.88772,1.19566 -5.87811,1.13016 -5.87811,-0.0965 z"
         id="path4217"
         inkscape:connector-curvature="0" />
      <path
         style="fill:#9f6d3f"
         d="m 171.07143,318.60964 c -0.55,-0.20921 -4.825,-0.83027 -9.5,-1.38013 -17.10704,-2.01208 -23.05454,-3.05843 -25.97833,-4.57038 -1.64296,-0.84961 -5.06555,-1.82962 -7.60575,-2.17779 -2.64594,-0.36267 -5.81842,-1.64266 -7.42785,-2.99691 -1.54511,-1.30013 -4.39375,-3.02589 -6.3303,-3.83504 -1.93656,-0.80914 -3.80334,-1.92799 -4.14841,-2.48632 -0.34507,-0.55833 -2.60467,-1.01515 -5.02133,-1.01515 -5.827773,0 -9.406165,-1.74445 -10.095371,-4.92144 -0.307662,-1.41821 -1.196872,-4.57122 -1.976024,-7.0067 -1.51925,-4.74888 -1.720623,-13.00017 -0.416639,-17.07186 0.53376,-1.66667 0.833867,-1.91667 0.90032,-0.75 0.05482,0.9625 0.805004,1.75 1.667068,1.75 1.092177,0 1.382074,0.58387 0.956168,1.92578 -0.397757,1.25322 -0.009,2.26281 1.113218,2.89082 1.555102,0.87028 1.572733,1.11675 0.179545,2.50994 -1.153,1.153 -1.832986,1.25679 -2.680605,0.40917 -0.847619,-0.84761 -1.135714,-0.70447 -1.135714,0.56429 0,1.14667 0.813725,1.7 2.5,1.7 1.375,0 2.5,-0.45 2.5,-1 0,-0.55 0.528441,-1 1.174314,-1 0.64587,0 0.12271,1.11938 -1.162583,2.48751 -1.696018,1.80533 -2.679259,2.20338 -3.585286,1.45145 -1.917202,-1.59114 -2.381539,0.22402 -0.910951,3.56104 0.727137,1.65 1.358617,2.4375 1.403287,1.75 0.04467,-0.6875 1.192096,-1.25 2.549834,-1.25 1.783482,0 2.308869,0.41631 1.893011,1.5 -0.316582,0.825 -0.09158,1.5 0.499998,1.5 0.59159,0 0.81463,0.6801 0.49565,1.51134 -0.979435,2.55237 2.08186,0.70814 3.88145,-2.33831 1.50157,-2.54198 1.50308,-2.84613 0.0187,-3.78248 -1.13223,-0.71419 -1.3702,-1.59635 -0.79696,-2.95439 0.4495,-1.06489 0.90457,-2.72344 1.01127,-3.68567 0.29375,-2.64913 1.52831,-3.39 1.52831,-0.91716 0,2.73085 2.99109,2.91674 3.6938,0.22957 0.57211,-2.18776 4.64466,-3.82681 8.13265,-3.27309 1.56786,0.2489 2.14163,0.85098 1.75964,1.84644 -0.327,0.85214 0.54863,2.51088 2.06956,3.92043 2.7354,2.53508 4.34435,3.10239 4.34435,1.5318 0,-1.01377 2.55567,-0.86614 3.63159,0.20978 0.83471,0.83472 -2.49301,4.70174 -4.04603,4.70174 -0.60746,0 -1.63622,0.85146 -2.28613,1.89213 -1.09065,1.74642 -0.76262,1.94449 4.25945,2.57196 2.99262,0.3739 5.44112,1.09744 5.44112,1.60787 0,1.4071 6.7597,1.1105 7.33771,-0.32196 0.28158,-0.69782 0.53927,-0.41542 0.58334,0.63929 0.0701,1.67668 0.64944,1.82172 5.14839,1.28889 2.7882,-0.33022 6.39542,-0.33521 8.01605,-0.0111 2.37826,0.47565 2.72391,0.85764 1.79206,1.98044 -0.77827,0.93775 -2.22173,1.19092 -4.4291,0.77681 -4.23308,-0.79413 -7.18818,0.18023 -7.96445,2.62605 -0.51037,1.60802 -0.97066,1.75952 -2.6368,0.86783 -1.11017,-0.59415 -2.25086,-0.84791 -2.53485,-0.56392 -0.72825,0.72825 1.92532,4.09213 3.47816,4.4092 1.88776,0.38545 5.36368,-1.705 4.67848,-2.81368 -0.32287,-0.52241 0.36609,-0.94983 1.53101,-0.94983 1.16491,0 1.88009,0.38499 1.58927,0.85554 -0.29081,0.47055 0.4711,0.66441 1.69314,0.43081 1.30585,-0.24963 3.04555,0.36537 4.21973,1.49173 1.57627,1.51206 2.62857,1.73795 4.98675,1.07049 1.73225,-0.4903 4.25489,-0.44421 6,0.10964 4.77765,1.51626 18.73229,2.10311 20.24075,0.85121 1.93163,-1.60311 2.63369,-0.3156 0.81798,1.5001 -2.29275,2.29275 -1.98246,3.97899 0.45238,2.45841 1.60053,-0.99955 2.40221,-0.99784 4.01368,0.009 1.77355,1.1076 2.15045,0.95741 3.16052,-1.25945 0.63076,-1.38436 1.6371,-2.54295 2.23632,-2.57464 4.67025,-0.24698 8.64748,-1.05191 11.85259,-2.3988 3.44107,-1.44604 4.03009,-1.44332 6.8827,0.0318 2.5768,1.33251 3.27028,1.3793 3.98564,0.2689 1.45063,-2.25171 0.46204,-4.36323 -1.92244,-4.1061 -1.45504,0.15646 -2.20901,-0.3067 -2.20901,-1.35744 0,-1.13279 0.50728,-1.38197 1.75,-0.85961 4.15192,1.74519 6.02683,1.63509 7.47974,-0.43923 l 1.47379,-2.10412 1.88558,2.51087 c 2.16078,2.87732 2.96859,3.10587 3.75297,1.0618 0.35359,-0.92143 0.0754,-1.26463 -0.76397,-0.94253 -1.77373,0.68064 -3.00479,-2.72075 -1.36198,-3.76314 1.71684,-1.08936 3.03543,-1.06132 2.34863,0.05 -1.58862,2.57045 5.5224,1.54626 10.888,-1.56819 1.58585,-0.92049 1.72273,-1.41064 0.72851,-2.60861 -0.85236,-1.02702 -0.93722,-2.23011 -0.27937,-3.96039 0.94015,-2.47279 4.0981,-4.5739 4.0981,-2.72664 0,0.53274 -0.45,0.96862 -1,0.96862 -0.55,0 -1,0.45 -1,1 0,1.34209 3.32433,1.27567 4.69378,-0.0938 0.60158,-0.60158 1.92908,-0.87878 2.95,-0.616 1.52785,0.39326 1.45818,0.4983 -0.39378,0.59378 -1.2375,0.0638 -2.25,0.61415 -2.25,1.22299 0,0.60884 0.675,0.84797 1.5,0.53138 0.825,-0.31658 1.5,-0.35022 1.5,-0.0748 0,0.27547 -1.0125,0.89127 -2.25,1.36846 -2.06713,0.7971 -2.101,0.92769 -0.41672,1.60672 2.49074,1.00417 5.75575,-2.39456 7.28907,-7.58759 1.14475,-3.87705 1.08635,-4.1268 -1.20976,-5.17298 -3.0875,-1.40675 -3.16984,-3.01662 -0.0945,-1.84737 3.03773,1.15494 5.30258,-1.90258 3.66957,-4.95388 -0.68464,-1.27929 -0.70512,-1.97697 -0.058,-1.97697 1.58127,0 3.2971,3.98644 2.50853,5.82814 -0.39372,0.91952 -0.82031,2.34686 -0.94798,3.17186 -0.12767,0.825 -0.56005,2.4 -0.96084,3.5 -0.4008,1.1 0.48513,0.0565 1.96873,-2.3189 3.11707,-4.99074 4.27465,-4.96625 2.18035,0.0461 -1.65477,3.96043 -13.26795,16.77278 -15.20294,16.77278 -0.71236,0 -3.22516,2.025 -5.58398,4.5 -2.35883,2.475 -4.73231,4.5 -5.27441,4.5 -0.5421,0 -2.81522,0.86376 -5.05137,1.91948 -8.75652,4.13405 -29.73747,9.9765 -40.06572,11.15687 -7.19126,0.82186 -22.21817,1.06315 -24,0.38537 z m -13.5,-9.46172 c -1.93876,-1.25292 -3,-1.25292 -3,0 0,0.55 1.0125,0.99311 2.25,0.98469 1.81943,-0.0124 1.96295,-0.20082 0.75,-0.98469 z m -25.63838,-8.5 c -0.62715,-1.63433 -2.36162,-2.06275 -2.36162,-0.58333 0,0.759 0.70083,1.27571 2.71861,2.00438 0.12024,0.0434 -0.0404,-0.59605 -0.35699,-1.42105 z m 113.40469,-2.84722 c 0.69647,-0.43504 1.00742,-1.20988 0.69098,-1.72188 -0.87904,-1.42233 -1.85706,-1.12166 -3.16524,0.97306 -1.27016,2.03385 -0.13365,2.3778 2.47426,0.74882 z M 125.57143,286.14792 c 0,-0.55 -0.47656,-1 -1.05902,-1 -0.58246,0 -0.7809,0.45 -0.44098,1 0.33992,0.55 0.81647,1 1.05901,1 0.24254,0 0.44099,-0.45 0.44099,-1 z m -11,-4 c 0,-0.55 -0.675,-1 -1.5,-1 -0.825,0 -1.5,0.45 -1.5,1 0,0.55 0.675,1 1.5,1 0.825,0 1.5,-0.45 1.5,-1 z m 70,20 c 0,-0.55 0.47656,-1 1.05902,-1 0.58246,0 0.7809,0.45 0.44098,1 -0.33992,0.55 -0.81648,1 -1.05902,1 -0.24254,0 -0.44098,-0.45 -0.44098,-1 z m 10.83725,-11.40507 c -3.23929,-3.47696 0.0783,-9.89013 6.04029,-11.67639 5.4773,-1.64103 9.63627,-0.15309 9.58308,3.42854 -0.0267,1.79526 0.60691,2.85696 1.96141,3.28687 2.83647,0.90026 8.17164,6.36605 6.21391,6.36605 -0.83485,0 -1.82025,-0.4892 -2.18978,-1.08712 -0.37423,-0.60552 -1.61864,-0.7912 -2.80902,-0.41913 -1.17543,0.36739 -5.47035,0.98688 -9.54427,1.37664 -6.62731,0.63406 -7.60173,0.49978 -9.25562,-1.27546 z m -26.33725,0.40507 c 0.33991,-0.55 0.81647,-1 1.05901,-1 0.24254,0 0.44099,0.45 0.44099,1 0,0.55 -0.47656,1 -1.05902,1 -0.58246,0 -0.7809,-0.45 -0.44098,-1 z m -5.5,-1.05902 c 0,-0.58246 0.45,-0.7809 1,-0.44098 0.55,0.33992 1,0.81648 1,1.05902 0,0.24254 -0.45,0.44098 -1,0.44098 -0.55,0 -1,-0.47656 -1,-1.05902 z m -2.26667,-4.06507 c 0.67833,-0.68342 1.48524,-0.99067 1.79313,-0.68278 0.30788,0.30788 -0.24712,0.86705 -1.23334,1.24258 -1.42519,0.54268 -1.54006,0.42782 -0.55979,-0.5598 z m -15.73333,-3.60791 c -1.375,-0.2528 -3.04279,-0.90526 -3.7062,-1.44991 -0.66341,-0.54465 -1.74544,-0.657 -2.40451,-0.24967 -0.75807,0.46851 -0.93617,0.31645 -0.48479,-0.41391 0.39244,-0.63498 2.03697,-1.15451 3.65451,-1.15451 1.61754,0 3.84099,-0.9 4.94099,-2 2.40062,-2.40063 6.50746,-2.76481 5.63837,-0.5 -0.44347,1.15566 0.22064,1.5 2.89301,1.5 1.90774,0 3.46862,0.36651 3.46862,0.81446 0,0.44795 2.41591,0.77509 5.3687,0.72699 4.1893,-0.0682 6.27627,-0.71642 9.5,-2.95046 2.27221,-1.57465 4.1313,-3.52557 4.1313,-4.3354 0,-1.06001 0.68077,-1.30154 2.4306,-0.86236 1.33683,0.33552 3.69546,0.12914 5.24141,-0.45863 4.29488,-1.63291 15.56606,-1.71486 17.22331,-0.12522 0.97758,0.9377 1.59835,1.00988 2.07349,0.24108 0.75207,-1.21687 2,-1.52782 10.28633,-2.56313 3.12676,-0.39067 6.20358,-1.33513 6.83738,-2.09882 0.63381,-0.76368 0.75977,-1.44594 0.27992,-1.51613 -4.13577,-0.60499 -6.05738,-0.50283 -7.14661,0.37995 -1.63636,1.32622 -2.45403,0.50591 -1.63172,-1.63698 1.05401,-2.7467 3.58681,-3.45195 8.90589,-2.47982 2.75,0.5026 5.53625,0.97771 6.19167,1.05581 0.76147,0.0907 0.98709,1.16484 0.625,2.97533 -0.37691,1.88454 -0.15412,2.83333 0.66532,2.83333 0.67759,0 0.98998,-0.63066 0.6942,-1.40146 -0.31977,-0.8333 0.24497,-1.60617 1.39301,-1.90638 1.1534,-0.30163 1.9308,-1.37164 1.9308,-2.65756 0,-1.18395 0.39627,-1.90773 0.8806,-1.6084 1.55781,0.96278 1.83117,5.24749 0.45488,7.12969 -0.73452,1.0045 -1.33548,2.19036 -1.33548,2.63524 0,1.53984 3.90463,0.8017 4.86832,-0.92032 0.91718,-1.63891 1.06745,-1.63891 2.87843,0 1.0509,0.95106 2.4378,1.72919 3.08199,1.72919 0.64419,0 1.17126,0.45 1.17126,1 0,0.55 -1.37656,1 -3.05902,1 -1.68246,0 -2.82165,0.38406 -2.53155,0.85346 0.80101,1.29606 -1.70874,7.21674 -2.88211,6.79909 -0.56502,-0.20111 -0.96415,-1.75099 -0.88693,-3.44418 0.18834,-4.13015 -1.45446,-4.50551 -7.26389,-1.65971 -5.9783,2.92852 -8.39904,2.99983 -16.28748,0.47978 -3.39434,-1.08436 -9.67736,-2.09006 -13.96227,-2.23489 -7.00974,-0.23693 -8.43414,0.0533 -14.20875,2.89543 -9.72113,4.78446 -16.65957,6.77039 -18.45331,5.28172 -1.11155,-0.92251 -2.12356,-0.94241 -4.21379,-0.0829 -1.92259,0.79059 -3.79263,0.83015 -6.21058,0.13137 -2.28392,-0.66006 -3.79623,-0.66329 -4.45,-0.01 -1.01475,1.01474 -2.21926,1.06195 -6.59032,0.25831 z m 84.68311,-12.4555 c -0.31922,-0.79773 -0.55618,-0.56078 -0.60416,0.60417 -0.0434,1.05416 0.19292,1.64479 0.52522,1.3125 0.33229,-0.33229 0.36781,-1.1948 0.0789,-1.91667 z m -1.95394,0.58333 c -0.3323,-0.33229 -1.1948,-0.36782 -1.91667,-0.0789 -0.79773,0.31923 -0.56078,0.55619 0.60417,0.60417 1.05416,0.0434 1.64479,-0.19293 1.3125,-0.52522 z m 26.77083,10.38853 c -2.75512,-1.59083 -4.85755,-3.78436 -3.62719,-3.78436 0.55861,0 2.27826,1.11078 3.82143,2.4684 3.0377,2.67245 2.96839,3.14209 -0.19424,1.31596 z m -96.625,-5.28436 c -0.0687,-0.275 -0.18815,-0.8375 -0.26532,-1.25 -0.0772,-0.4125 -0.45772,-1.24817 -0.84566,-1.85704 -0.98992,-1.55367 8.02168,-6.26478 13.39138,-7.00078 3.48473,-0.47764 4.87115,-0.19081 6.85629,1.41848 1.36857,1.10945 2.26331,2.20229 1.98831,2.42853 -0.89871,0.73938 -18.50598,6.76081 -19.76927,6.76081 -0.6769,0 -1.28698,-0.225 -1.35573,-0.5 z m -23.375,-3.90451 c 0,-1.32248 0.3375,-2.19592 0.75,-1.94098 0.4125,0.25494 0.75,1.33697 0.75,2.40451 0,1.06754 -0.3375,1.94098 -0.75,1.94098 -0.4125,0 -0.75,-1.08203 -0.75,-2.40451 z m -27.94423,-1.50525 c -0.30925,-0.50037 -0.32711,-1.52254 -0.0397,-2.27151 0.64109,-1.67064 4.48394,-4.18532 4.48394,-2.93419 0,0.49581 -0.675,1.1605 -1.5,1.47709 -2.20568,0.84639 -1.82599,2.63837 0.55901,2.63837 1.13246,0 1.7809,0.45 1.44099,1 -0.77234,1.24967 -4.18912,1.31203 -4.94423,0.0902 z m 49.9875,-2.02022 c -0.28643,-0.46345 0.37416,-1.07667 1.46797,-1.36271 1.09382,-0.28604 1.98876,-0.16035 1.98876,0.27932 0,1.17493 -2.84842,2.06766 -3.45673,1.08339 z m 32.72576,-5.76301 c 0.97297,-0.25354 2.32297,-0.23687 3,0.0371 0.67703,0.27392 -0.11903,0.48137 -1.76903,0.46099 -1.65,-0.0204 -2.20394,-0.2445 -1.23097,-0.49805 z m 71.23097,-0.30701 c 0.33992,-0.55 0.81648,-1 1.05902,-1 0.24254,0 0.44098,0.45 0.44098,1 0,0.55 -0.47656,1 -1.05902,1 -0.58246,0 -0.7809,-0.45 -0.44098,-1 z m -145.07143,-2 c 0,-1.1 0.35357,-2 0.78571,-2 0.43215,0 0.78572,0.9 0.78572,2 0,1.1 -0.35357,2 -0.78572,2 -0.43214,0 -0.78571,-0.9 -0.78571,-2 z m 50.07358,-3.00349 c 0.3411,-0.55191 2.04149,-0.75308 3.77864,-0.44704 4.6844,0.82527 4.60976,1.45053 -0.17314,1.45053 -2.57227,0 -3.98302,-0.39264 -3.6055,-1.00349 z m -37.19686,-2.695 c -1.25997,-0.24463 -1.98772,-0.96551 -1.70872,-1.69258 0.26729,-0.69655 -0.51774,-1.71434 -1.74451,-2.26174 -3.49762,-1.56068 -0.74075,-2.23115 2.89794,-0.70478 2.12668,0.89211 3.25,2.05361 3.25,3.36046 0,1.09842 -0.1125,1.93585 -0.25,1.86095 -0.1375,-0.0749 -1.23762,-0.32794 -2.44471,-0.56231 z m 90.1747,-2.23845 c 0.44494,-1.40191 0.21373,-2.06306 -0.72147,-2.06306 -0.75694,0 -2.22431,-0.62011 -3.26081,-1.37801 -1.77081,-1.29486 -1.78235,-1.48021 -0.19113,-3.07143 0.93138,-0.93138 1.69342,-2.35211 1.69342,-3.15717 0,-1.1961 0.41143,-1.25097 2.25,-0.30007 4.6302,2.3947 5.65428,3.88283 4.65153,6.75932 -0.51549,1.47871 -1.86854,3.27017 -3.00679,3.98102 -1.87862,1.17322 -2.00914,1.10213 -1.41475,-0.7706 z m -82.40105,-0.64639 c 0.048,-1.16495 0.28494,-1.4019 0.60417,-0.60417 0.28887,0.72187 0.25334,1.58438 -0.0789,1.91667 -0.33229,0.33229 -0.56864,-0.25834 -0.52522,-1.3125 z m 6.13163,-0.0216 c -1.05908,-1.14583 -1.02496,-1.39504 0.19098,-1.39504 1.69864,0 3.00817,1.6334 1.86476,2.32594 -0.42147,0.25528 -1.34656,-0.16363 -2.05574,-0.9309 z m 61.4561,0.93829 c -1.98513,-1.98512 0.75365,-10.33333 3.39003,-10.33333 1.27241,0 1.20108,3.34222 -0.0991,4.64238 -0.72318,0.72318 -0.58827,1.41927 0.44056,2.27311 0.81561,0.67691 1.23654,1.87283 0.93539,2.65762 -0.56348,1.46841 -3.48312,1.94401 -4.6669,0.76022 z m -98.66667,-3.33333 c 0,-0.55 0.70155,-1 1.55901,-1 0.85746,0 1.28091,0.45 0.94099,1 -0.33992,0.55 -1.04148,1 -1.55902,1 -0.51754,0 -0.94098,-0.45 -0.94098,-1 z m 14,-1.5 c -0.69444,-0.83674 -0.80272,-1.5 -0.24489,-1.5 0.55,0 1.5602,0.675 2.24489,1.5 0.69443,0.83674 0.80271,1.5 0.24489,1.5 -0.55,0 -1.56021,-0.675 -2.24489,-1.5 z m 14.62829,-3.98104 c -1.82727,-1.38378 -1.82611,-1.49578 0.0489,-4.71819 1.27487,-2.191 2.81138,-3.40548 4.57004,-3.61221 2.23241,-0.26241 2.98646,0.3492 4.79063,3.88565 1.73296,3.39689 1.8858,4.35897 0.80166,5.04613 -2.08851,1.32377 -8.13968,0.96739 -10.21122,-0.60138 z m -11.87829,-5.27635 c -0.9625,-0.21409 -1.75,-0.80626 -1.75,-1.31593 0,-1.2774 2.73189,-1.16951 3.54112,0.13985 0.84335,1.36458 0.39117,1.66149 -1.79112,1.17608 z m 38.75,-0.24261 c -0.36781,-0.59512 0.82294,-1 2.94098,-1 1.95746,0 3.55902,0.45 3.55902,1 0,0.55 -1.32345,1 -2.94099,1 -1.61754,0 -3.2191,-0.45 -3.55901,-1 z m 8.85579,-0.23333 c -0.5224,-0.84526 0.82707,-1.04675 7.89129,-1.17828 2.6109,-0.0486 4.7484,0.36911 4.75001,0.92828 0.003,1.17727 -11.92245,1.41312 -12.6413,0.25 z m 14.25052,-0.35023 c -0.37373,-0.97391 -0.15024,-1.43108 0.58051,-1.1875 1.49484,0.49828 2.31789,2.77106 1.0035,2.77106 -0.53699,0 -1.24979,-0.7126 -1.58401,-1.58356 z m -26.31699,-1.72803 c 0.36305,-0.94609 -0.37347,-1.22544 -2.64301,-1.00244 l -3.14631,0.30915 3.3815,-1.55409 c 4.39804,-2.02127 6.67629,-1.30707 4.9006,1.53628 -1.39888,2.23994 -3.28603,2.77829 -2.49278,0.7111 z m 30.71068,-4.6271 c 0,-0.56811 -1.80877,-2.22992 -4.01949,-3.69291 -3.83636,-2.53878 -3.95144,-2.76382 -2.52589,-4.93948 1.13594,-1.73367 1.20047,-2.40763 0.26949,-2.81453 -0.67326,-0.29426 0.0134,-0.2791 1.52589,0.0337 1.58515,0.32783 2.75,0.13337 2.75,-0.45907 0,-1.54465 7.2323,0.62394 8.78949,2.6355 1.12406,1.45205 1.40736,1.47501 2.20835,0.17897 1.35518,-2.19272 3.38694,0.20881 2.51116,2.96817 -0.46095,1.45232 -1.2127,1.97228 -2.26673,1.56781 -0.94767,-0.36365 -3.10659,0.62401 -5.40966,2.47481 -2.10793,1.69398 -3.83261,2.61515 -3.83261,2.04703 z m 42.8125,-1.74442 c 0.72187,-0.28888 1.58437,-0.25335 1.91667,0.0789 0.33229,0.33229 -0.25834,0.56864 -1.3125,0.52522 -1.16495,-0.048 -1.4019,-0.28495 -0.60417,-0.60417 z m -12.39538,-1.18278 c 0.49786,-0.80557 5.58288,-0.36613 5.58288,0.48247 0,0.21088 -1.37656,0.38342 -3.05902,0.38342 -1.68246,0 -2.8182,-0.38965 -2.52386,-0.86589 z m -55.41712,-6.13411 c 0,-0.55 0.45,-1 1,-1 0.55,0 1,0.45 1,1 0,0.55 -0.45,1 -1,1 -0.55,0 -1,-0.45 -1,-1 z"
         id="path4215"
         inkscape:connector-curvature="0" />
      <path
         style="fill:#5a3c2a"
         d="m 167.57143,317.9871 c -3.575,-0.48531 -9.2,-1.34872 -12.5,-1.91868 -3.3,-0.56996 -7.8,-1.16423 -10,-1.32061 -2.2,-0.15638 -6.19471,-1.25533 -8.87712,-2.44211 -2.68242,-1.18678 -5.87777,-2.15778 -7.10078,-2.15778 -3.17317,0 -8.5221,-2.01241 -8.5221,-3.20623 0,-0.60848 1.09422,-0.72715 2.75,-0.29826 4.69275,1.21555 5.69814,1.27152 7.36789,0.41015 1.97436,-1.01851 3.26576,-6.73846 1.89441,-8.39083 -1.45652,-1.75501 -0.18147,-2.51483 4.2201,-2.51483 5.20233,0 7.73011,1.42733 7.06077,3.98691 -0.60604,2.31748 -0.76584,2.36568 -3.31693,1.00038 -1.51022,-0.80825 -2.11901,-0.58905 -3.01528,1.08564 -0.61765,1.1541 -0.97405,2.22387 -0.79198,2.37726 1.81865,1.5323 5.24038,2.48517 7.17791,1.99888 3.20909,-0.80543 7.91574,3.33025 6.55573,5.76046 -0.79226,1.41567 -0.11935,1.7352 4.83857,2.29754 3.16734,0.35924 9.77762,1.26992 14.6895,2.02373 9.71432,1.4908 25.78305,0.57157 34.56931,-1.9776 2.475,-0.71807 8.1,-2.31113 12.5,-3.54012 4.4,-1.229 10.7,-3.31101 14,-4.62669 3.3,-1.31567 6.52797,-2.39085 7.17327,-2.38926 0.64531,0.002 2.67031,-1.20952 4.5,-2.69132 l 3.32673,-2.69419 -2.93709,3.19419 c -1.6154,1.7568 -3.47352,3.19419 -4.12916,3.19419 -0.65563,0 -3.60894,1.10552 -6.56291,2.45671 -6.29535,2.87959 -29.21006,8.93273 -39.6394,10.47113 -8.25393,1.21751 -15.80519,1.19098 -25.23144,-0.0887 z m -16.39461,-10.42512 c -0.33472,-0.87227 -0.17155,-2.33477 0.3626,-3.25 1.07951,-1.84966 1.11094,-1.80269 1.39627,2.08594 0.22074,3.00845 -0.79352,3.67971 -1.75887,1.16406 z m -38.50322,-5.39917 c -3.72189,-2.00357 -6.24346,-2.73663 -8.12145,-2.36103 -1.58356,0.31671 -3.92854,-0.11973 -5.602176,-1.04267 l -2.878548,-1.58738 4.187174,0.60586 c 3.84015,0.55564 4.14349,0.4388 3.66007,-1.40983 -0.28992,-1.10863 0.22567,-3.16459 1.14575,-4.5688 1.09834,-1.67628 1.42227,-3.34266 0.9432,-4.85208 -0.76123,-2.39842 -0.46925,-3.47665 0.82467,-3.04534 0.41847,0.13949 2.0259,-1.1622 3.57205,-2.89265 1.65944,-1.85723 3.39623,-2.91055 4.23914,-2.57092 1.04323,0.42034 0.84039,0.75474 -0.75288,1.24119 -2.35694,0.71961 -3.76962,3.07233 -2.36574,3.93998 1.08072,0.66792 4.04657,-0.41037 4.04657,-1.47122 0,-1.83372 3.01381,-1.7188 5.16901,0.1971 1.56864,1.39446 1.92217,2.21892 1.08099,2.52087 -1.99725,0.71693 -1.4441,2.28203 0.80653,2.28203 2.02113,0 2.02544,0.0529 0.25,3.07207 -0.99359,1.68964 -2.58846,3.82714 -3.54415,4.75 -0.95569,0.92286 -2.65396,2.55551 -3.77394,3.62811 l -2.03632,1.95018 2.52394,1.53144 c 1.38816,0.84229 2.52394,1.87721 2.52394,2.29982 0,1.00654 0.29767,1.11843 -5.89783,-2.21673 z m 109.89783,-0.0739 c 0,-0.58246 0.45,-0.7809 1,-0.44098 0.55,0.33992 1,0.81648 1,1.05902 0,0.24254 -0.45,0.44098 -1,0.44098 -0.55,0 -1,-0.47656 -1,-1.05902 z m -99.34503,-4.19098 c 0.63981,-1.03627 3.10811,-0.94236 3.77939,0.1438 0.30382,0.49159 -0.52644,0.82909 -1.84502,0.75 -1.31858,-0.0791 -2.18905,-0.4813 -1.93437,-0.8938 z m 123.66866,-1.15098 c 0.33748,-0.87946 0.17772,-1.59902 -0.35501,-1.59902 -0.53274,0 -0.95494,-0.7875 -0.93821,-1.75 0.0285,-1.63996 0.096,-1.6372 1.07422,0.0438 1.52704,2.62428 4.48397,1.35634 10.84215,-4.64917 l 5.44678,-5.14466 -3.90353,4.5 c -3.99468,4.60508 -6.19223,6.47633 -10.39211,8.84902 -2.10628,1.18992 -2.31553,1.16044 -1.77429,-0.25 z m -51.36815,-6.68221 c -0.88342,-1.65069 -0.77123,-2.46293 0.54043,-3.91229 0.91042,-1.006 1.76545,-2.57955 1.90007,-3.49678 0.13462,-0.91722 0.8881,-2.0748 1.67439,-2.5724 1.99593,-1.26309 9.30447,-1.1605 10.61396,0.14899 1.22593,1.22593 0.58043,4.91567 -0.85998,4.91567 -0.51831,0 -0.71064,0.37497 -0.4274,0.83327 0.28325,0.4583 1.8214,0.64153 3.41812,0.40718 2.25752,-0.33133 3.01824,0.0141 3.42078,1.55343 0.44762,1.71172 -0.2323,2.13013 -5.02588,3.09282 -8.92898,1.79319 -13.94647,1.47418 -15.25449,-0.96989 z m 7.40615,-7.41681 c -0.31659,-0.825 -1.03256,-1.5 -1.59106,-1.5 -0.58531,0 -0.48812,0.63541 0.22943,1.5 0.68469,0.825 1.40067,1.5 1.59106,1.5 0.19039,0 0.0872,-0.675 -0.22943,-1.5 z m 44.13837,6.5 c -0.33992,-0.55 0.33508,-1 1.5,-1 1.16492,0 1.83992,0.45 1.5,1 -0.33992,0.55 -1.01492,1 -1.5,1 -0.48508,0 -1.16008,-0.45 -1.5,-1 z m -101,-7.52578 c -3.46469,-1.09528 -3.63987,-1.27855 -1.30902,-1.36937 1.48004,-0.0577 2.9691,-0.55485 3.30902,-1.10485 0.92849,-1.50234 4.5,-1.20269 4.5,0.37756 0,2.66902 -2.32113,3.41773 -6.5,2.09666 z m 10.52896,-0.43516 c -0.80908,-0.51167 -1.12611,-1.27525 -0.70452,-1.69683 0.42158,-0.42159 1.65148,-0.21385 2.73312,0.46164 1.08163,0.6755 3.19866,0.98904 4.70452,0.69678 2.27199,-0.44096 2.39756,-0.37056 0.73792,0.4137 -2.61365,1.23505 -5.63558,1.2855 -7.47104,0.12471 z m 16.32472,-2.48536 c 2.66601,-1.89546 5.50037,-4.25796 6.29859,-5.25 1.34448,-1.67095 1.40241,-1.61971 0.78711,0.6963 -0.54261,2.04243 -0.42397,2.27122 0.64823,1.25 1.48041,-1.41003 4.91239,-1.69471 4.91239,-0.40747 0,0.46339 -1.4625,1.53854 -3.25,2.38923 -12.1303,5.7729 -16.52664,6.39141 -9.39632,1.32194 z m 64.64632,-2.0537 c 0,-3.35587 -0.14917,-3.5 -3.62244,-3.5 -3.12568,0 -3.44968,-0.20817 -2.3626,-1.51802 0.69291,-0.83491 1.36558,-2.52241 1.49482,-3.75 0.37863,-3.59649 0.43696,-3.73198 1.60685,-3.73198 0.65551,0 0.86199,0.82592 0.5,2 -0.33915,1.1 -0.89411,2.9 -1.23326,4 -0.46269,1.5007 -0.15063,2.00794 1.25,2.0318 3.241,0.0552 5.21888,2.29025 4.65183,5.25662 -0.74203,3.88167 -2.2852,3.34926 -2.2852,-0.78842 z m -18.5,0.57129 c -1.65,-0.3982 -4.125,-1.33706 -5.5,-2.08636 l -2.5,-1.36236 2.5,-0.60733 c 2.16646,-0.52629 2.25807,-0.7003 0.68662,-1.30422 -2.6534,-1.01972 -1.28001,-2.36412 3.039,-2.97488 2.07591,-0.29355 5.12438,-1.10152 6.77438,-1.79548 l 3,-1.26174 -5,-1.18568 c -3.25873,-0.77277 -5.43532,-0.84834 -6.25,-0.21702 -1.77685,1.37694 -1.62355,-0.72131 0.1609,-2.20227 2.00029,-1.6601 12.56137,-0.16591 12.60275,1.78304 0.008,0.35365 0.285,1.65551 0.61664,2.89301 0.51285,1.9137 0.21188,2.25 -2.01366,2.25 -1.43915,0 -2.61663,0.45 -2.61663,1 0,0.93937 1.45668,1.41829 3.32536,1.0933 1.31919,-0.22942 -0.36994,4.28299 -2.11746,5.6567 -1.7392,1.36716 -2.26896,1.39253 -6.7079,0.32129 z m -59.93419,-1.9648 c -1.20793,-1.95447 0.98166,-4.97394 5.03485,-6.94313 5.13832,-2.49639 10.17297,-2.78315 12.95821,-0.73806 1.86556,1.3698 1.82434,1.47007 -1.05887,2.57559 -9.60867,3.68427 -16.52404,5.76924 -16.93419,5.1056 z m 45.63419,-23.30649 c -1.60276,-1.60276 -1.52433,-5.28594 0.14201,-6.66888 1.67076,-1.3866 3.0031,-0.25187 1.63698,1.39419 -0.69412,0.83637 -0.53724,1.59642 0.50868,2.46446 0.83178,0.69031 1.51233,1.87502 1.51233,2.63267 0,1.69656 -2.17918,1.79838 -3.8,0.17756 z m 15.18181,-0.42763 c 0.56581,-1.78269 0.15957,-2.22232 -2.60575,-2.81993 -3.15408,-0.68161 -3.1897,-0.74207 -0.9566,-1.62368 1.7722,-0.69965 2.16277,-1.40938 1.65537,-3.00806 -0.58283,-1.83634 -0.42219,-1.9629 1.31289,-1.03431 3.47678,1.86072 4.33837,6.93415 1.56803,9.23332 -1.45467,1.20728 -1.56696,1.12111 -0.97394,-0.74734 z m -83.51294,-7.71438 c 1.33129,-1.60409 0.49468,-2.73473 -1.46664,-1.9821 -1.81051,0.69476 -1.77342,-0.17975 0.13087,-3.08607 2.35913,-3.60048 6.24795,-3.1168 8.22191,1.02262 1.82793,3.83323 1.06097,5.37825 -1.78692,3.5997 -2.63686,-1.64674 -3.47226,-1.52455 -1.96809,0.28786 1.05514,1.27137 0.82651,1.5 -1.5,1.5 -2.1829,0 -2.51686,-0.27476 -1.63113,-1.34201 z m 52.37588,-15.15799 c 0.26285,-1.375 0.0903,-2.5 -0.38342,-2.5 -0.47373,0 -0.86133,0.45 -0.86133,1 0,1.52897 -1.53345,1.19837 -4.10678,-0.88538 -2.02575,-1.64035 -2.14909,-2.10139 -0.94906,-3.54734 1.09145,-1.31511 1.55104,-1.3912 2.20226,-0.36461 0.61218,0.96506 0.82688,0.84912 0.83827,-0.45267 0.0119,-1.35696 0.86876,-1.75 3.81531,-1.75 2.09,0 4.34,0.54 5,1.2 2.05133,2.05133 1.39553,5.38988 -1.3,6.61805 -1.375,0.62649 -2.5,1.59872 -2.5,2.16051 0,0.56179 -0.50246,1.02144 -1.11658,1.02144 -0.65179,0 -0.91764,-1.04065 -0.63867,-2.5 z m 1.75525,-5.39301 c 0,-1.01369 -3.04579,-2.39454 -3.74326,-1.69706 -0.25136,0.25135 -0.16039,0.93695 0.20214,1.52354 0.79781,1.29088 3.54112,1.42531 3.54112,0.17352 z m 7,1.39301 c 0,-0.825 0.43588,-1.5 0.96862,-1.5 0.53273,0 0.70959,0.675 0.39301,1.5 -0.31659,0.825 -0.75246,1.5 -0.96862,1.5 -0.21615,0 -0.39301,-0.675 -0.39301,-1.5 z"
         id="path4213"
         inkscape:connector-curvature="0" />
    </g>
  </g>
</svg>
