<?xml version="1.0" encoding="UTF-8" standalone="no"?>
<!-- Created with Inkscape (http://www.inkscape.org/) -->

<svg
   xmlns:dc="http://purl.org/dc/elements/1.1/"
   xmlns:cc="http://creativecommons.org/ns#"
   xmlns:rdf="http://www.w3.org/1999/02/22-rdf-syntax-ns#"
   xmlns:svg="http://www.w3.org/2000/svg"
   xmlns="http://www.w3.org/2000/svg"
   xmlns:sodipodi="http://sodipodi.sourceforge.net/DTD/sodipodi-0.dtd"
   xmlns:inkscape="http://www.inkscape.org/namespaces/inkscape"
   width="390"
   height="445"
   viewBox="0 0 390 445.00001"
   id="svg10436"
   version="1.1"
   inkscape:version="0.91 r13725"
   sodipodi:docname="database-logo.svg">
  <defs
     id="defs10438">
    <clipPath
       clipPathUnits="userSpaceOnUse"
       id="clipPath846">
      <path
         d="m 0,595.28 841.89,0 L 841.89,0 0,0 0,595.28 Z"
         id="path848"
         inkscape:connector-curvature="0" />
    </clipPath>
    <clipPath
       clipPathUnits="userSpaceOnUse"
       id="clipPath796">
      <path
         d="m 0,595.28 841.89,0 L 841.89,0 0,0 0,595.28 Z"
         id="path798"
         inkscape:connector-curvature="0" />
    </clipPath>
    <clipPath
       clipPathUnits="userSpaceOnUse"
       id="clipPath664">
      <path
         d="m 0,595.28 841.89,0 L 841.89,0 0,0 0,595.28 Z"
         id="path666"
         inkscape:connector-curvature="0" />
    </clipPath>
  </defs>
  <sodipodi:namedview
     id="base"
     pagecolor="#ffffff"
     bordercolor="#666666"
     borderopacity="1.0"
     inkscape:pageopacity="0.0"
     inkscape:pageshadow="2"
     inkscape:zoom="1.4"
     inkscape:cx="126.70008"
     inkscape:cy="253.72518"
     inkscape:document-units="px"
     inkscape:current-layer="layer1"
     showgrid="false"
     units="px"
     inkscape:window-width="1920"
     inkscape:window-height="998"
     inkscape:window-x="0"
     inkscape:window-y="0"
     inkscape:window-maximized="1" />
  <metadata
     id="metadata10441">
    <rdf:RDF>
      <cc:Work
         rdf:about="">
        <dc:format>image/svg+xml</dc:format>
        <dc:type
           rdf:resource="http://purl.org/dc/dcmitype/StillImage" />
        <dc:title></dc:title>
      </cc:Work>
    </rdf:RDF>
  </metadata>
  <g
     inkscape:label="Ebene 1"
     inkscape:groupmode="layer"
     id="layer1"
     transform="translate(0,-607.36148)">
    <g
       transform="matrix(1.25,0,0,-1.25,-125.8096,1237.1306)"
       id="g660"
       style="fill:#640000;fill-opacity:1">
      <g
         id="g662"
         clip-path="url(#clipPath664)"
         style="fill:#640000;fill-opacity:1">
        <g
           id="g668"
           transform="translate(337.1136,302.1491)"
           style="fill:#640000;fill-opacity:1">
          <path
             d="m 0,0 c -0.404,-0.415 -0.775,-0.835 -1.218,-1.243 -0.645,-0.596 -1.381,-1.175 -2.106,-1.755 -0.453,-0.363 -0.864,-0.735 -1.348,-1.091 -0.866,-0.638 -1.831,-1.256 -2.794,-1.873 -0.441,-0.283 -0.833,-0.575 -1.293,-0.854 -1.469,-0.886 -3.033,-1.751 -4.707,-2.59 -17.028,-8.54 -42.462,-13.44 -69.779,-13.44 -27.314,0 -52.749,4.9 -69.777,13.44 -1.671,0.838 -3.234,1.702 -4.701,2.587 -0.494,0.298 -0.915,0.611 -1.385,0.913 -0.928,0.598 -1.863,1.194 -2.7,1.81 -0.504,0.372 -0.932,0.757 -1.402,1.135 -0.708,0.568 -1.427,1.133 -2.058,1.715 -0.444,0.409 -0.818,0.831 -1.224,1.249 -0.554,0.568 -1.118,1.135 -1.601,1.716 -0.084,0.1 -0.197,0.196 -0.278,0.297 l 0,-30.87 c 0,-17.551 38.983,-32.38 85.126,-32.38 46.142,0 85.126,14.829 85.126,32.38 l 0,30.867 C 1.798,1.912 1.685,1.815 1.6,1.713 1.118,1.134 0.553,0.568 0,0"
             style="fill:#640000;fill-opacity:1;fill-rule:nonzero;stroke:none"
             id="path670"
             inkscape:connector-curvature="0" />
        </g>
        <g
           id="g672"
           transform="translate(337.1136,302.1491)"
           style="fill:#640000;fill-opacity:1">
          <path
             d="m 0,0 c -0.404,-0.415 -0.775,-0.835 -1.218,-1.243 -0.645,-0.596 -1.381,-1.175 -2.106,-1.755 -0.453,-0.363 -0.864,-0.735 -1.348,-1.091 -0.866,-0.638 -1.831,-1.256 -2.794,-1.873 -0.441,-0.283 -0.833,-0.575 -1.293,-0.854 -1.469,-0.886 -3.033,-1.751 -4.707,-2.59 -17.028,-8.54 -42.462,-13.44 -69.779,-13.44 -27.314,0 -52.749,4.9 -69.777,13.44 -1.671,0.838 -3.234,1.702 -4.701,2.587 -0.494,0.298 -0.915,0.611 -1.385,0.913 -0.928,0.598 -1.863,1.194 -2.7,1.81 -0.504,0.372 -0.932,0.757 -1.402,1.135 -0.708,0.568 -1.427,1.133 -2.058,1.715 -0.444,0.409 -0.818,0.831 -1.224,1.249 -0.554,0.568 -1.118,1.135 -1.601,1.716 -0.084,0.1 -0.197,0.196 -0.278,0.297 l 0,-30.87 c 0,-17.551 38.983,-32.38 85.126,-32.38 46.142,0 85.126,14.829 85.126,32.38 l 0,30.867 C 1.798,1.912 1.685,1.815 1.6,1.713 1.118,1.134 0.553,0.568 0,0 Z"
             style="fill:#640000;stroke:#ffffff;stroke-width:0.96499997;stroke-linecap:butt;stroke-linejoin:miter;stroke-miterlimit:10;stroke-dasharray:none;stroke-opacity:1;fill-opacity:1"
             id="path674"
             inkscape:connector-curvature="0" />
        </g>
        <g
           id="g676"
           transform="translate(253.8683,375.4364)"
           style="fill:#640000;fill-opacity:1">
          <path
             d="m 0,0 c -34.248,0 -63.182,10.314 -63.182,22.525 0,11.975 18.946,17.62 19.753,17.854 1.185,0.36 2.465,-0.27 2.844,-1.383 0.372,-1.114 -0.293,-2.299 -1.487,-2.648 -0.166,-0.047 -16.57,-4.947 -16.57,-13.823 C -58.642,14.062 -33.025,4.224 0,4.224 1.253,4.224 2.27,3.278 2.27,2.112 2.27,0.946 1.253,0 0,0 m 0,58.073 c -46.142,0 -85.126,-14.829 -85.126,-32.38 0,-6.883 6.216,-13.787 17.501,-19.446 16.39,-8.219 41.038,-12.934 67.625,-12.934 26.59,0 51.238,4.715 67.628,12.934 11.282,5.659 17.498,12.566 17.498,19.446 0,17.551 -38.984,32.38 -85.126,32.38"
             style="fill:#640000;fill-opacity:1;fill-rule:nonzero;stroke:none"
             id="path678"
             inkscape:connector-curvature="0" />
        </g>
        <g
           id="g680"
           transform="translate(253.8683,375.4364)"
           style="fill:#640000;fill-opacity:1">
          <path
             d="m 0,0 c -34.248,0 -63.182,10.314 -63.182,22.525 0,11.975 18.946,17.62 19.753,17.854 1.185,0.36 2.465,-0.27 2.844,-1.383 0.372,-1.114 -0.293,-2.299 -1.487,-2.648 -0.166,-0.047 -16.57,-4.947 -16.57,-13.823 C -58.642,14.062 -33.025,4.224 0,4.224 1.253,4.224 2.27,3.278 2.27,2.112 2.27,0.946 1.253,0 0,0 Z m 0,58.073 c -46.142,0 -85.126,-14.829 -85.126,-32.38 0,-6.883 6.216,-13.787 17.501,-19.446 16.39,-8.219 41.038,-12.934 67.625,-12.934 26.59,0 51.238,4.715 67.628,12.934 11.282,5.659 17.498,12.566 17.498,19.446 0,17.551 -38.984,32.38 -85.126,32.38 z"
             style="fill:#640000;stroke:#ffffff;stroke-width:0.96499997;stroke-linecap:butt;stroke-linejoin:miter;stroke-miterlimit:10;stroke-dasharray:none;stroke-opacity:1;fill-opacity:1"
             id="path682"
             inkscape:connector-curvature="0" />
        </g>
        <g
           id="g684"
           transform="translate(337.1136,387.3719)"
           style="fill:#640000;fill-opacity:1">
          <path
             d="m 0,0 c -0.404,-0.415 -0.775,-0.835 -1.218,-1.243 -0.645,-0.596 -1.381,-1.175 -2.106,-1.755 -0.453,-0.363 -0.864,-0.735 -1.348,-1.091 -0.866,-0.638 -1.831,-1.256 -2.794,-1.873 -0.441,-0.283 -0.833,-0.575 -1.293,-0.854 -1.469,-0.886 -3.033,-1.751 -4.707,-2.59 -17.028,-8.54 -42.462,-13.44 -69.779,-13.44 -27.314,0 -52.749,4.9 -69.777,13.44 -1.671,0.838 -3.234,1.702 -4.701,2.587 -0.494,0.298 -0.915,0.611 -1.385,0.913 -0.928,0.599 -1.863,1.194 -2.7,1.81 -0.504,0.372 -0.932,0.757 -1.402,1.135 -0.708,0.568 -1.427,1.133 -2.058,1.715 -0.444,0.409 -0.818,0.832 -1.224,1.249 -0.554,0.568 -1.118,1.135 -1.601,1.716 -0.084,0.1 -0.197,0.196 -0.278,0.297 l 0,-30.87 c 0,-6.883 6.216,-13.787 17.501,-19.446 16.39,-8.218 41.038,-12.934 67.625,-12.934 26.59,0 51.238,4.716 67.628,12.934 11.282,5.659 17.498,12.566 17.498,19.446 l 0,30.867 C 1.798,1.912 1.685,1.815 1.6,1.713 1.118,1.134 0.553,0.568 0,0"
             style="fill:#640000;fill-opacity:1;fill-rule:nonzero;stroke:none"
             id="path686"
             inkscape:connector-curvature="0" />
        </g>
        <g
           id="g688"
           transform="translate(337.1136,387.3719)"
           style="fill:#640000;fill-opacity:1">
          <path
             d="m 0,0 c -0.404,-0.415 -0.775,-0.835 -1.218,-1.243 -0.645,-0.596 -1.381,-1.175 -2.106,-1.755 -0.453,-0.363 -0.864,-0.735 -1.348,-1.091 -0.866,-0.638 -1.831,-1.256 -2.794,-1.873 -0.441,-0.283 -0.833,-0.575 -1.293,-0.854 -1.469,-0.886 -3.033,-1.751 -4.707,-2.59 -17.028,-8.54 -42.462,-13.44 -69.779,-13.44 -27.314,0 -52.749,4.9 -69.777,13.44 -1.671,0.838 -3.234,1.702 -4.701,2.587 -0.494,0.298 -0.915,0.611 -1.385,0.913 -0.928,0.599 -1.863,1.194 -2.7,1.81 -0.504,0.372 -0.932,0.757 -1.402,1.135 -0.708,0.568 -1.427,1.133 -2.058,1.715 -0.444,0.409 -0.818,0.832 -1.224,1.249 -0.554,0.568 -1.118,1.135 -1.601,1.716 -0.084,0.1 -0.197,0.196 -0.278,0.297 l 0,-30.87 c 0,-6.883 6.216,-13.787 17.501,-19.446 16.39,-8.218 41.038,-12.934 67.625,-12.934 26.59,0 51.238,4.716 67.628,12.934 11.282,5.659 17.498,12.566 17.498,19.446 l 0,30.867 C 1.798,1.912 1.685,1.815 1.6,1.713 1.118,1.134 0.553,0.568 0,0 Z"
             style="fill:#640000;stroke:#ffffff;stroke-width:0.96499997;stroke-linecap:butt;stroke-linejoin:miter;stroke-miterlimit:10;stroke-dasharray:none;stroke-opacity:1;fill-opacity:1"
             id="path690"
             inkscape:connector-curvature="0" />
        </g>
        <g
           id="g692"
           transform="translate(337.0797,344.7255)"
           style="fill:#640000;fill-opacity:1">
          <path
             d="m 0,0 c -0.392,-0.401 -0.75,-0.808 -1.178,-1.203 -0.655,-0.604 -1.4,-1.192 -2.138,-1.781 -0.444,-0.355 -0.846,-0.719 -1.32,-1.069 -0.873,-0.643 -1.845,-1.265 -2.817,-1.888 -0.433,-0.277 -0.818,-0.565 -1.271,-0.838 -1.469,-0.887 -3.033,-1.753 -4.708,-2.592 -17.028,-8.54 -42.462,-13.44 -69.779,-13.44 -27.314,0 -52.749,4.9 -69.777,13.44 -1.671,0.838 -3.234,1.702 -4.701,2.587 -0.494,0.298 -0.915,0.611 -1.385,0.914 -0.928,0.598 -1.863,1.193 -2.7,1.809 -0.504,0.372 -0.932,0.757 -1.402,1.135 -0.708,0.568 -1.427,1.133 -2.058,1.715 -0.444,0.409 -0.818,0.832 -1.224,1.249 -0.554,0.568 -1.118,1.135 -1.601,1.716 -0.084,0.1 -0.197,0.196 -0.278,0.297 l 0,-30.87 c 0,-6.883 6.216,-13.787 17.501,-19.446 16.39,-8.218 41.038,-12.934 67.625,-12.934 26.59,0 51.238,4.716 67.628,12.934 11.282,5.659 17.498,12.566 17.498,19.446 l 0,30.87 C 1.835,1.952 1.725,1.859 1.643,1.761 1.148,1.164 0.57,0.583 0,0"
             style="fill:#640000;fill-opacity:1;fill-rule:nonzero;stroke:none"
             id="path694"
             inkscape:connector-curvature="0" />
        </g>
        <g
           id="g696"
           transform="translate(337.0797,344.7255)"
           style="fill:#640000;fill-opacity:1">
          <path
             d="m 0,0 c -0.392,-0.401 -0.75,-0.808 -1.178,-1.203 -0.655,-0.604 -1.4,-1.192 -2.138,-1.781 -0.444,-0.355 -0.846,-0.719 -1.32,-1.069 -0.873,-0.643 -1.845,-1.265 -2.817,-1.888 -0.433,-0.277 -0.818,-0.565 -1.271,-0.838 -1.469,-0.887 -3.033,-1.753 -4.708,-2.592 -17.028,-8.54 -42.462,-13.44 -69.779,-13.44 -27.314,0 -52.749,4.9 -69.777,13.44 -1.671,0.838 -3.234,1.702 -4.701,2.587 -0.494,0.298 -0.915,0.611 -1.385,0.914 -0.928,0.598 -1.863,1.193 -2.7,1.809 -0.504,0.372 -0.932,0.757 -1.402,1.135 -0.708,0.568 -1.427,1.133 -2.058,1.715 -0.444,0.409 -0.818,0.832 -1.224,1.249 -0.554,0.568 -1.118,1.135 -1.601,1.716 -0.084,0.1 -0.197,0.196 -0.278,0.297 l 0,-30.87 c 0,-6.883 6.216,-13.787 17.501,-19.446 16.39,-8.218 41.038,-12.934 67.625,-12.934 26.59,0 51.238,4.716 67.628,12.934 11.282,5.659 17.498,12.566 17.498,19.446 l 0,30.87 C 1.835,1.952 1.725,1.859 1.643,1.761 1.148,1.164 0.57,0.583 0,0 Z"
             style="fill:#640000;stroke:#ffffff;stroke-width:0.96499997;stroke-linecap:butt;stroke-linejoin:miter;stroke-miterlimit:10;stroke-dasharray:none;stroke-opacity:1;fill-opacity:1"
             id="path698"
             inkscape:connector-curvature="0" />
        </g>
      </g>
    </g>
    <text
       y="794.55121"
       x="231.43974"
       transform="matrix(0.99568737,0.09277208,-0.09277208,0.99568737,0,0)"
       style="font-variant:normal;font-weight:bold;font-stretch:normal;font-size:22.50003242px;font-family:'Myriad Pro';-inkscape-font-specification:MyriadPro-Bold;writing-mode:lr-tb;fill:#ffffff;fill-opacity:1;fill-rule:nonzero;stroke:none"
       id="text700">
      <tspan
         x="231.43974"
         y="794.55121"
         id="tspan702">Q</tspan>
    </text>
    <text
       y="807.24347"
       x="202.93465"
       transform="matrix(0.99933872,0.0363611,-0.0363611,0.99933872,0,0)"
       style="font-variant:normal;font-weight:bold;font-stretch:normal;font-size:22.50000572px;font-family:'Myriad Pro';-inkscape-font-specification:MyriadPro-Bold;writing-mode:lr-tb;fill:#ffffff;fill-opacity:1;fill-rule:nonzero;stroke:none"
       id="text704">
      <tspan
         x="202.93465"
         y="807.24347"
         id="tspan706">u</tspan>
    </text>
    <text
       y="816.21112"
       x="179.53496"
       transform="matrix(0.99995915,-0.00903887,0.00903887,0.99995915,0,0)"
       style="font-variant:normal;font-weight:bold;font-stretch:normal;font-size:22.50004387px;font-family:'Myriad Pro';-inkscape-font-specification:MyriadPro-Bold;writing-mode:lr-tb;fill:#ffffff;fill-opacity:1;fill-rule:nonzero;stroke:none"
       id="text708">
      <tspan
         x="179.53496"
         y="816.21112"
         id="tspan710">a</tspan>
    </text>
    <text
       y="822.08392"
       x="164.48463"
       transform="matrix(0.99910543,-0.04228888,0.04228888,0.99910543,0,0)"
       style="font-variant:normal;font-weight:bold;font-stretch:normal;font-size:22.50000191px;font-family:'Myriad Pro';-inkscape-font-specification:MyriadPro-Bold;writing-mode:lr-tb;fill:#ffffff;fill-opacity:1;fill-rule:nonzero;stroke:none"
       id="text712">
      <tspan
         x="164.48463"
         y="822.08392"
         id="tspan714">l</tspan>
    </text>
    <text
       y="825.86017"
       x="151.60214"
       transform="matrix(0.99784015,-0.06568897,0.06568897,0.99784015,0,0)"
       style="font-variant:normal;font-weight:bold;font-stretch:normal;font-size:22.49997139px;font-family:'Myriad Pro';-inkscape-font-specification:MyriadPro-Bold;writing-mode:lr-tb;fill:#ffffff;fill-opacity:1;fill-rule:nonzero;stroke:none"
       id="text716">
      <tspan
         x="151.60214"
         y="825.86017"
         id="tspan718">i</tspan>
    </text>
    <text
       y="829.98193"
       x="134.76396"
       transform="matrix(0.99560311,-0.09367199,0.09367199,0.99560311,0,0)"
       style="font-variant:normal;font-weight:bold;font-stretch:normal;font-size:22.50005531px;font-family:'Myriad Pro';-inkscape-font-specification:MyriadPro-Bold;writing-mode:lr-tb;fill:#ffffff;fill-opacity:1;fill-rule:nonzero;stroke:none"
       id="text720">
      <tspan
         x="134.76396"
         y="829.98193"
         id="tspan722">t</tspan>
    </text>
    <text
       y="835.30353"
       x="108.58154"
       transform="matrix(0.99079481,-0.13537227,0.13537227,0.99079481,0,0)"
       style="font-variant:normal;font-weight:bold;font-stretch:normal;font-size:22.49999237px;font-family:'Myriad Pro';-inkscape-font-specification:MyriadPro-Bold;writing-mode:lr-tb;fill:#ffffff;fill-opacity:1;fill-rule:nonzero;stroke:none"
       id="text724">
      <tspan
         x="108.58154"
         y="835.30353"
         id="tspan726">y</tspan>
    </text>
    <text
       y="836.63776"
       x="263.64139"
       transform="matrix(0.99108467,0.13323352,-0.13323352,0.99108467,0,0)"
       style="font-variant:normal;font-weight:bold;font-stretch:normal;font-size:22.49996758px;font-family:'Myriad Pro';-inkscape-font-specification:MyriadPro-Bold;writing-mode:lr-tb;fill:#ffffff;fill-opacity:1;fill-rule:nonzero;stroke:none"
       id="text728">
      <tspan
         x="263.64139"
         y="836.63776"
         id="tspan730">S</tspan>
    </text>
    <text
       y="847.3678"
       x="240.95372"
       transform="matrix(0.99577645,0.09181099,-0.09181099,0.99577645,0,0)"
       style="font-variant:normal;font-weight:bold;font-stretch:normal;font-size:22.50003242px;font-family:'Myriad Pro';-inkscape-font-specification:MyriadPro-Bold;writing-mode:lr-tb;fill:#ffffff;fill-opacity:1;fill-rule:nonzero;stroke:none"
       id="text732">
      <tspan
         x="240.95372"
         y="847.3678"
         id="tspan734">t</tspan>
    </text>
    <text
       y="856.46155"
       x="216.41902"
       transform="matrix(0.99859422,0.05300553,-0.05300553,0.99859422,0,0)"
       style="font-variant:normal;font-weight:bold;font-stretch:normal;font-size:22.50000572px;font-family:'Myriad Pro';-inkscape-font-specification:MyriadPro-Bold;writing-mode:lr-tb;fill:#ffffff;fill-opacity:1;fill-rule:nonzero;stroke:none"
       id="text736">
      <tspan
         x="216.41902"
         y="856.46155"
         id="tspan738">a</tspan>
    </text>
    <text
       y="866.15253"
       x="188.78525"
       transform="matrix(0.999978,0.00663333,-0.00663333,0.999978,0,0)"
       style="font-variant:normal;font-weight:bold;font-stretch:normal;font-size:22.49999619px;font-family:'Myriad Pro';-inkscape-font-specification:MyriadPro-Bold;writing-mode:lr-tb;fill:#ffffff;fill-opacity:1;fill-rule:nonzero;stroke:none"
       id="text740">
      <tspan
         x="188.78525"
         y="866.15253"
         id="tspan742">n</tspan>
    </text>
    <text
       y="874.9325"
       x="160.18156"
       transform="matrix(0.99912554,-0.04181102,0.04181102,0.99912554,0,0)"
       style="font-variant:normal;font-weight:bold;font-stretch:normal;font-size:22.50004959px;font-family:'Myriad Pro';-inkscape-font-specification:MyriadPro-Bold;writing-mode:lr-tb;fill:#ffffff;fill-opacity:1;fill-rule:nonzero;stroke:none"
       id="text744">
      <tspan
         x="160.18156"
         y="874.9325"
         id="tspan746">d</tspan>
    </text>
    <text
       y="882.32776"
       x="131.35182"
       transform="matrix(0.99591513,-0.0902943,0.0902943,0.99591513,0,0)"
       style="font-variant:normal;font-weight:bold;font-stretch:normal;font-size:22.50003624px;font-family:'Myriad Pro';-inkscape-font-specification:MyriadPro-Bold;writing-mode:lr-tb;fill:#ffffff;fill-opacity:1;fill-rule:nonzero;stroke:none"
       id="text748">
      <tspan
         x="131.35182"
         y="882.32776"
         id="tspan750">a</tspan>
    </text>
    <text
       y="887.55499"
       x="106.34719"
       transform="matrix(0.99122751,-0.13216663,0.13216663,0.99122751,0,0)"
       style="font-variant:normal;font-weight:bold;font-stretch:normal;font-size:22.50000763px;font-family:'Myriad Pro';-inkscape-font-specification:MyriadPro-Bold;writing-mode:lr-tb;fill:#ffffff;fill-opacity:1;fill-rule:nonzero;stroke:none"
       id="text752">
      <tspan
         x="106.34719"
         y="887.55499"
         id="tspan754">r</tspan>
    </text>
    <text
       y="892.17865"
       x="71.691734"
       transform="matrix(0.98358924,-0.1804223,0.1804223,0.98358924,0,0)"
       style="font-variant:normal;font-weight:bold;font-stretch:normal;font-size:22.49999237px;font-family:'Myriad Pro';-inkscape-font-specification:MyriadPro-Bold;writing-mode:lr-tb;fill:#ffffff;fill-opacity:1;fill-rule:nonzero;stroke:none"
       id="text756">
      <tspan
         x="71.691734"
         y="892.17865"
         id="tspan758">d</tspan>
    </text>
    <text
       y="888.27948"
       x="262.40945"
       transform="matrix(0.99206481,0.12572754,-0.12572754,0.99206481,0,0)"
       style="font-variant:normal;font-weight:bold;font-stretch:normal;font-size:22.50004196px;font-family:'Myriad Pro';-inkscape-font-specification:MyriadPro-Bold;writing-mode:lr-tb;fill:#ffffff;fill-opacity:1;fill-rule:nonzero;stroke:none"
       id="text760">
      <tspan
         x="262.40945"
         y="888.27948"
         id="tspan762">D</tspan>
    </text>
    <text
       y="902.27344"
       x="228.9536"
       transform="matrix(0.99750588,0.07058336,-0.07058336,0.99750588,0,0)"
       style="font-variant:normal;font-weight:bold;font-stretch:normal;font-size:22.49999237px;font-family:'Myriad Pro';-inkscape-font-specification:MyriadPro-Bold;writing-mode:lr-tb;fill:#ffffff;fill-opacity:1;fill-rule:nonzero;stroke:none"
       id="text764">
      <tspan
         x="228.9536"
         y="902.27344"
         id="tspan766">a</tspan>
    </text>
    <text
       y="910.58826"
       x="207.21739"
       transform="matrix(0.99944299,0.03337217,-0.03337217,0.99944299,0,0)"
       style="font-variant:normal;font-weight:bold;font-stretch:normal;font-size:22.50003242px;font-family:'Myriad Pro';-inkscape-font-specification:MyriadPro-Bold;writing-mode:lr-tb;fill:#ffffff;fill-opacity:1;fill-rule:nonzero;stroke:none"
       id="text768">
      <tspan
         x="207.21739"
         y="910.58826"
         id="tspan770">t</tspan>
    </text>
    <text
       y="917.96838"
       x="182.05113"
       transform="matrix(0.9999936,-0.00357777,0.00357777,0.9999936,0,0)"
       style="font-variant:normal;font-weight:bold;font-stretch:normal;font-size:22.50001907px;font-family:'Myriad Pro';-inkscape-font-specification:MyriadPro-Bold;writing-mode:lr-tb;fill:#ffffff;fill-opacity:1;fill-rule:nonzero;stroke:none"
       id="text772">
      <tspan
         x="182.05113"
         y="917.96838"
         id="tspan774">a</tspan>
    </text>
    <text
       y="926.00317"
       x="151.53241"
       transform="matrix(0.99875144,-0.04995563,0.04995563,0.99875144,0,0)"
       style="font-variant:normal;font-weight:bold;font-stretch:normal;font-size:22.49996758px;font-family:'Myriad Pro';-inkscape-font-specification:MyriadPro-Bold;writing-mode:lr-tb;fill:#ffffff;fill-opacity:1;fill-rule:nonzero;stroke:none"
       id="text776">
      <tspan
         x="151.53241"
         y="926.00317"
         id="tspan778">b</tspan>
    </text>
    <text
       y="932.98535"
       x="119.74339"
       transform="matrix(0.99509073,-0.09896685,0.09896685,0.99509073,0,0)"
       style="font-variant:normal;font-weight:bold;font-stretch:normal;font-size:22.49995995px;font-family:'Myriad Pro';-inkscape-font-specification:MyriadPro-Bold;writing-mode:lr-tb;fill:#ffffff;fill-opacity:1;fill-rule:nonzero;stroke:none"
       id="text780">
      <tspan
         x="119.74339"
         y="932.98535"
         id="tspan782">a</tspan>
    </text>
    <text
       y="938.00079"
       x="89.479927"
       transform="matrix(0.98955584,-0.14415004,0.14415004,0.98955584,0,0)"
       style="font-variant:normal;font-weight:bold;font-stretch:normal;font-size:22.49999237px;font-family:'Myriad Pro';-inkscape-font-specification:MyriadPro-Bold;writing-mode:lr-tb;fill:#ffffff;fill-opacity:1;fill-rule:nonzero;stroke:none"
       id="text784">
      <tspan
         x="89.479927"
         y="938.00079"
         id="tspan786">s</tspan>
    </text>
    <text
       y="941.85596"
       x="52.285271"
       transform="matrix(0.98102894,-0.19386133,0.19386133,0.98102894,0,0)"
       style="font-variant:normal;font-weight:bold;font-stretch:normal;font-size:22.4999733px;font-family:'Myriad Pro';-inkscape-font-specification:MyriadPro-Bold;writing-mode:lr-tb;fill:#ffffff;fill-opacity:1;fill-rule:nonzero;stroke:none"
       id="text788">
      <tspan
         x="52.285271"
         y="941.85596"
         id="tspan790">e</tspan>
    </text>
    <g
       transform="matrix(1.25,0,0,-1.25,-125.8096,1237.1306)"
       id="g792"
       style="fill:#640000;fill-opacity:1">
      <g
         id="g794"
         clip-path="url(#clipPath796)"
         style="fill:#640000;fill-opacity:1">
        <g
           id="g800"
           transform="translate(199.5986,459.8469)"
           style="fill:#640000;fill-opacity:1">
          <path
             d="M 0,0 -40.701,-26.548 -7.084,-33.62 0,0 Z"
             style="fill:#640000;fill-opacity:1;fill-rule:nonzero;stroke:none"
             id="path802"
             inkscape:connector-curvature="0" />
        </g>
        <g
           id="g804"
           transform="translate(187.6893,454.9751)"
           style="fill:#640000;fill-opacity:1">
          <path
             d="M 0,0 -19.533,-12.741 -30.901,4.687 -11.368,17.428 0,0 Z"
             style="fill:#640000;fill-opacity:1;fill-rule:nonzero;stroke:none"
             id="path806"
             inkscape:connector-curvature="0" />
        </g>
        <g
           id="g808"
           transform="translate(253.1095,459.722)"
           style="fill:#640000;fill-opacity:1">
          <path
             d="M 0,0 -48.594,-0.099 -24.251,-24.339 0,0 Z"
             style="fill:#640000;fill-opacity:1;fill-rule:nonzero;stroke:none"
             id="path810"
             inkscape:connector-curvature="0" />
        </g>
        <g
           id="g812"
           transform="translate(240.4681,462.1221)"
           style="fill:#640000;fill-opacity:1">
          <path
             d="M 0,0 -23.321,-0.048 -23.363,20.76 -0.043,20.808 0,0 Z"
             style="fill:#640000;fill-opacity:1;fill-rule:nonzero;stroke:none"
             id="path814"
             inkscape:connector-curvature="0" />
        </g>
        <g
           id="g816"
           transform="translate(307.5992,459.8166)"
           style="fill:#640000;fill-opacity:1">
          <path
             d="M 0,0 -48.594,-0.099 -24.251,-24.339 0,0 Z"
             style="fill:#640000;fill-opacity:1;fill-rule:nonzero;stroke:none"
             id="path818"
             inkscape:connector-curvature="0" />
        </g>
        <g
           id="g820"
           transform="translate(294.9578,462.2167)"
           style="fill:#640000;fill-opacity:1">
          <path
             d="M 0,0 -23.321,-0.048 -23.363,20.76 -0.043,20.808 0,0 Z"
             style="fill:#640000;fill-opacity:1;fill-rule:nonzero;stroke:none"
             id="path822"
             inkscape:connector-curvature="0" />
        </g>
        <g
           id="g824"
           transform="translate(353.7489,432.851)"
           style="fill:#640000;fill-opacity:1">
          <path
             d="M 0,0 -40.701,26.548 -33.623,-7.068 0,0 Z"
             style="fill:#640000;fill-opacity:1;fill-rule:nonzero;stroke:none"
             id="path826"
             inkscape:connector-curvature="0" />
        </g>
        <g
           id="g828"
           transform="translate(324.9575,454.5273)"
           style="fill:#640000;fill-opacity:1">
          <path
             d="M 0,0 19.533,-12.741 30.901,4.687 11.368,17.428 0,0 Z"
             style="fill:#640000;fill-opacity:1;fill-rule:nonzero;stroke:none"
             id="path830"
             inkscape:connector-curvature="0" />
        </g>
      </g>
    </g>
    <text
       y="626.87299"
       x="114.83801"
       style="font-variant:normal;font-weight:bold;font-stretch:normal;font-size:22.5px;font-family:'Myriad Pro';-inkscape-font-specification:MyriadPro-Bold;writing-mode:lr-tb;fill:#1d1d1b;fill-opacity:1;fill-rule:nonzero;stroke:none"
       id="text832">
      <tspan
         x="114.83801 127.70801 136.078 149.06055 157.20557 169.08557 175.25049 188.43555"
         y="626.87299"
         sodipodi:role="line"
         id="tspan834">Proteins</tspan>
      <tspan
         x="6.3880615 18.200562 24.365479 34.130493 43.895508 57.013062 68.893066"
         y="651.69049"
         sodipodi:role="line"
         id="tspan836">Tissues</tspan>
      <tspan
         x="205.28809 218.24805 230.12805 236.31555 242.50305"
         y="626.87299"
         sodipodi:role="line"
         id="tspan838">Cells</tspan>
      <tspan
         x="310.97058 323.12048 336.64307 348.52307 359.03052 367.28809 375.59058"
         y="651.69049"
         sodipodi:role="line"
         id="tspan840">Spectra</tspan>
    </text>
    <path
       inkscape:connector-curvature="0"
       id="path852"
       style="fill:#640000;fill-opacity:1;stroke:#640000;stroke-width:16.76000023;stroke-linecap:butt;stroke-linejoin:miter;stroke-miterlimit:10;stroke-dasharray:11.17375, 11.17375000000000007;stroke-dashoffset:0;stroke-opacity:1"
       d="m 190.27515,940.58322 0,42.7125" />
    <g
       id="g854"
       transform="matrix(1.25,0,0,-1.25,222.8524,978.92772)"
       style="fill:#640000;fill-opacity:1">
      <path
         d="M 0,0 -52.124,0 -26.066,-26.053 0,0 Z"
         style="fill:#640000;fill-opacity:1;fill-rule:nonzero;stroke:none"
         id="path856"
         inkscape:connector-curvature="0" />
    </g>
    <text
       y="1043.1621"
       x="114.83801"
       style="font-variant:normal;font-weight:bold;font-stretch:normal;font-size:22.5px;font-family:'Myriad Pro';-inkscape-font-specification:MyriadPro-Bold;writing-mode:lr-tb;fill:#1d1d1b;fill-opacity:1;fill-rule:nonzero;stroke:none"
       id="text858">
      <tspan
         x="114.83801 125.68298 137.56299 145.93298 159.09558 170.97559 179.12048 191.00049 204.41052 208.95557 220.83557 230.60059 240.36548 251.97559"
         y="1043.1621"
         sodipodi:role="line"
         id="tspan860">Targeted assay</tspan>
    </text>
  </g>
</svg>
