<?xml version="1.0" encoding="UTF-8" standalone="no"?>
<!-- Created with Inkscape (http://www.inkscape.org/) -->

<svg
   xmlns:dc="http://purl.org/dc/elements/1.1/"
   xmlns:cc="http://creativecommons.org/ns#"
   xmlns:rdf="http://www.w3.org/1999/02/22-rdf-syntax-ns#"
   xmlns:svg="http://www.w3.org/2000/svg"
   xmlns="http://www.w3.org/2000/svg"
   xmlns:sodipodi="http://sodipodi.sourceforge.net/DTD/sodipodi-0.dtd"
   xmlns:inkscape="http://www.inkscape.org/namespaces/inkscape"
   width="250"
   height="138"
   viewBox="0 0 250 138"
   id="svg2"
   version="1.1"
   inkscape:version="0.91 r13725"
   sodipodi:docname="eye.svg">
  <defs
     id="defs4" />
  <sodipodi:namedview
     id="base"
     pagecolor="#ffffff"
     bordercolor="#666666"
     borderopacity="1.0"
     inkscape:pageopacity="0.0"
     inkscape:pageshadow="2"
     inkscape:zoom="0.35"
     inkscape:cx="-577.85714"
     inkscape:cy="520"
     inkscape:document-units="px"
     inkscape:current-layer="layer1"
     showgrid="false"
     units="px"
     inkscape:window-width="1920"
     inkscape:window-height="998"
     inkscape:window-x="0"
     inkscape:window-y="0"
     inkscape:window-maximized="1" />
  <metadata
     id="metadata7">
    <rdf:RDF>
      <cc:Work
         rdf:about="">
        <dc:format>image/svg+xml</dc:format>
        <dc:type
           rdf:resource="http://purl.org/dc/dcmitype/StillImage" />
        <dc:title></dc:title>
      </cc:Work>
    </rdf:RDF>
  </metadata>
  <g
     inkscape:label="Ebene 1"
     inkscape:groupmode="layer"
     id="layer1"
     transform="translate(0,-914.36216)">
    <path
       style="fill:#000000"
       d="m 110.64503,1051.6628 c -25.559046,-3.4713 -51.119796,-14.8484 -77.133006,-34.3319 -12.49943,-9.3619 -30.7716698,-26.25984 -32.52312983,-30.077 -2.28920997,-4.98909 -1.0714,-7.3578 8.65898003,-16.84233 18.4667098,-18.0001 37.1820398,-31.43063 57.5488098,-41.2983 20.53033,-9.94691 38.293616,-14.35463 57.849756,-14.35463 19.40534,0 37.26171,4.40022 57.46556,14.16084 20.58858,9.94646 39.36906,23.3972 57.93301,41.49209 8.00301,7.80079 9.55499,9.94173 9.55499,13.18096 0,3.23922 -1.55198,5.38016 -9.55499,13.18096 -32.11561,31.30411 -67.55681,50.49581 -101.3883,54.90251 -7.0669,0.9205 -21.58649,0.9137 -28.41168,-0.013 z m -21.071666,-27.4736 c -10.39657,-7.7497 -17.36207,-17.9595 -20.27794,-29.72272 -1.49569,-6.03388 -1.49569,-15.71403 0,-21.74791 2.91587,-11.76322 9.88137,-21.97299 20.27794,-29.72268 2.10413,-1.56844 3.57943,-2.85171 3.27844,-2.85171 -0.30101,0 -3.12097,1.0163 -6.26662,2.25843 -18.63996,7.36045 -37.8009,19.61029 -56.10265,35.86716 -3.03255,2.69372 -5.51373,5.08896 -5.51373,5.32276 0,0.23379 2.48118,2.62902 5.51373,5.32275 18.21203,16.17722 36.94582,28.18562 55.75331,35.73802 3.22202,1.2938 6.15184,2.3603 6.51071,2.37 0.35887,0.01 -1.06906,-1.2657 -3.17319,-2.8341 z m 73.934336,0.5932 c 18.63996,-7.3604 37.80091,-19.6103 56.10265,-35.86712 3.03256,-2.69373 5.51373,-5.08896 5.51373,-5.32275 0,-0.2338 -2.48117,-2.62904 -5.51373,-5.32276 -18.30174,-16.25687 -37.46269,-28.50671 -56.10265,-35.86716 -3.14564,-1.24213 -5.96562,-2.25843 -6.26661,-2.25843 -0.301,0 1.17431,1.28327 3.27844,2.85171 10.39657,7.74969 17.36206,17.95946 20.27793,29.72268 1.49569,6.03388 1.49569,15.71403 0,21.74791 -2.91587,11.76322 -9.88136,21.97302 -20.27793,29.72272 -2.10413,1.5684 -3.57944,2.8517 -3.27844,2.8517 0.30099,0 3.12097,-1.0163 6.26661,-2.2585 z m -55.89694,-40.18677 c 3.61343,-1.38948 7.99761,-5.40739 10.00034,-9.16488 5.34926,-10.03625 1.28683,-22.24322 -9.02853,-27.12937 -3.09935,-1.46809 -3.64561,-1.56671 -8.677576,-1.56671 -4.99551,0 -5.57268,0.10213 -8.2758,1.46455 -7.92643,3.99502 -12.5039,12.60504 -11.12511,20.9258 1.23971,7.4814 6.44235,13.63656 13.46369,15.9287 3.92794,1.28229 9.613466,1.09138 13.642986,-0.45809 z"
       id="path4147"
       inkscape:connector-curvature="0" />
  </g>
</svg>
