<?xml version="1.0" encoding="UTF-8" standalone="no"?>
<!-- Created with Inkscape (http://www.inkscape.org/) -->

<svg
   xmlns:dc="http://purl.org/dc/elements/1.1/"
   xmlns:cc="http://creativecommons.org/ns#"
   xmlns:rdf="http://www.w3.org/1999/02/22-rdf-syntax-ns#"
   xmlns:svg="http://www.w3.org/2000/svg"
   xmlns="http://www.w3.org/2000/svg"
   xmlns:sodipodi="http://sodipodi.sourceforge.net/DTD/sodipodi-0.dtd"
   xmlns:inkscape="http://www.inkscape.org/namespaces/inkscape"
   width="200"
   height="221"
   viewBox="0 0 200 221"
   id="svg2"
   version="1.1"
   inkscape:version="0.91 r13725"
   sodipodi:docname="gut.svg">
  <defs
     id="defs4" />
  <sodipodi:namedview
     id="base"
     pagecolor="#ffffff"
     bordercolor="#666666"
     borderopacity="1.0"
     inkscape:pageopacity="0.0"
     inkscape:pageshadow="2"
     inkscape:zoom="0.49497475"
     inkscape:cx="545.14576"
     inkscape:cy="456.51498"
     inkscape:document-units="px"
     inkscape:current-layer="layer1"
     showgrid="false"
     units="px"
     inkscape:window-width="1920"
     inkscape:window-height="998"
     inkscape:window-x="0"
     inkscape:window-y="0"
     inkscape:window-maximized="1" />
  <metadata
     id="metadata7">
    <rdf:RDF>
      <cc:Work
         rdf:about="">
        <dc:format>image/svg+xml</dc:format>
        <dc:type
           rdf:resource="http://purl.org/dc/dcmitype/StillImage" />
        <dc:title></dc:title>
      </cc:Work>
    </rdf:RDF>
  </metadata>
  <g
     inkscape:label="Ebene 1"
     inkscape:groupmode="layer"
     id="layer1"
     transform="translate(0,-831.36216)">
    <path
       style="color:#000000;display:inline;overflow:visible;visibility:visible;opacity:1;fill:#000000;fill-opacity:1;fill-rule:evenodd;stroke:none;stroke-width:1.89999998;stroke-linecap:round;stroke-linejoin:miter;stroke-miterlimit:4;stroke-dasharray:none;stroke-dashoffset:0;stroke-opacity:1;marker:none;enable-background:accumulate"
       d="m 16.708312,831.54708 c -2.93884,-0.0177 -5.51772,0.44103 -7.3459499,1.41947 -6.80604,3.64249 -11.21329,17.42184 -8.59973999,26.88732 0.78201999,2.83226 4.07267999,7.79816 7.31004999,11.03551 l 5.8850599,5.88781 -3.11514,3.90496 c -6.3597599,7.97589 -6.8972899,21.17474 -1.1957799,29.31479 1.5327799,2.18837 1.1849199,3.79726 -2.29493,10.61298 -5.88576,11.52797 -6.56292999,19.2378 -2.73402,31.14575 2.62537,8.1649 2.88677,10.63227 1.61004,15.23044 -5.03513,18.13414 3.17146,28.82484 22.3388899,29.09661 18.59957,0.26372 25.9403,-12.2466 18.56925,-31.64561 -2.37819,-6.25887 -2.50717,-7.69181 -0.86715,-9.56079 1.06088,-1.20899 3.65903,-5.64993 5.77458,-9.87009 10.87948,-21.70269 11.51197,-42.47682 1.89172,-62.14238 -2.51997,-5.1513 -4.8422,-9.9045 -5.1615,-10.56328 -1.53108,-3.15885 6.88745,2.99995 13.17855,9.64088 6.72623,7.10022 7.58483,7.54923 17.63581,9.23492 17.32343,2.90537 38.752268,0.0342 47.179828,-6.31863 1.43065,-1.07843 3.20353,-4.63445 3.93811,-7.9038 0.73458,-3.26937 2.26793,-7.27607 3.40785,-8.90353 1.90507,-2.71988 2.07124,-2.15734 2.07124,6.95658 0,17.57444 5.9739,33.7386 17.16358,46.45075 l 5.23883,5.95132 -4.33578,8.74612 c -3.84007,7.7476 -4.31899,10.07844 -4.19216,20.41127 0.0788,6.41575 1.06855,15.00564 2.19825,19.08844 2.52653,9.13108 0.56482,9.93557 -5.99827,2.46062 l -4.3551,-4.96267 -6.33245,4.83287 c -9.41051,7.1832 -14.38238,8.36892 -30.33382,7.22721 -13.422148,-0.96068 -13.874518,-0.89556 -18.119118,2.67603 -10.94683,9.21115 -12.89019,30.22235 -5.27749,57.04995 1.73893,6.1281 2.66257,7.4233 5.28577,7.4233 3.12645,0 3.16743,-0.2376 2.62909,-14.7803 -0.4788,-12.9344 -0.16552,-15.5664 2.50204,-21.0769 2.05713,-4.2494 4.63627,-7.0499 7.931418,-8.6135 5.31497,-2.5221 7.25123,-2.3588 27.46174,2.3446 22.26685,5.182 46.7501,-1.1593 57.16039,-14.80788 8.48651,-11.12639 10.03097,-17.07276 10.00818,-38.50828 -0.0222,-20.90991 -1.66127,-30.8207 -8.57765,-51.87461 l -3.5708,-10.86981 5.88505,-5.88783 c 12.02593,-12.02593 14.74361,-26.77913 7.3432,-39.87805 -5.50984,-9.75257 -11.13148,-12.76803 -22.28642,-11.96066 -4.68895,0.33936 -11.10186,1.93157 -14.25006,3.53767 l -5.72211,2.91905 -7.66632,-3.79173 c -6.26409,-3.09879 -9.6141,-3.79449 -18.30413,-3.79449 -9.16927,0 -11.9385,0.64323 -20.08263,4.65335 l -9.447558,4.6506 -5.98448,-4.33576 c -12.5395,-9.08356 -29.3538,-10.67737 -44.60322,-4.23084 l -7.32939,3.09857 -7.62764,-3.73097 c -5.09152,-2.49106 -10.98964,-3.84781 -15.88771,-3.87735 z"
       id="rect4203"
       inkscape:connector-curvature="0" />
  </g>
</svg>
