<?xml version="1.0" encoding="UTF-8" standalone="no"?>
<!-- Created with Inkscape (http://www.inkscape.org/) -->

<svg
   xmlns:dc="http://purl.org/dc/elements/1.1/"
   xmlns:cc="http://creativecommons.org/ns#"
   xmlns:rdf="http://www.w3.org/1999/02/22-rdf-syntax-ns#"
   xmlns:svg="http://www.w3.org/2000/svg"
   xmlns="http://www.w3.org/2000/svg"
   xmlns:sodipodi="http://sodipodi.sourceforge.net/DTD/sodipodi-0.dtd"
   xmlns:inkscape="http://www.inkscape.org/namespaces/inkscape"
   id="svg2"
   version="1.1"
   inkscape:version="0.91 r13725"
   xml:space="preserve"
   width="912"
   height="744.09998"
   viewBox="0 0 911.99996 744.09998"
   sodipodi:docname="pathway-browser.svg"><metadata
     id="metadata8"><rdf:RDF><cc:Work
         rdf:about=""><dc:format>image/svg+xml</dc:format><dc:type
           rdf:resource="http://purl.org/dc/dcmitype/StillImage" /><dc:title></dc:title></cc:Work></rdf:RDF></metadata><defs
     id="defs6"><clipPath
       clipPathUnits="userSpaceOnUse"
       id="clipPath18"><path
         d="m 0,595.28 841.89,0 L 841.89,0 0,0 0,595.28 Z"
         id="path20"
         inkscape:connector-curvature="0" /></clipPath><linearGradient
       x1="0"
       y1="0"
       x2="1"
       y2="0"
       gradientUnits="userSpaceOnUse"
       gradientTransform="matrix(61.2272,-35.3495,35.3495,61.2272,-55.6893,529.2797)"
       spreadMethod="pad"
       id="linearGradient28"><stop
         style="stop-opacity:1;stop-color:#f7e879"
         offset="0"
         id="stop30" /><stop
         style="stop-opacity:1;stop-color:#ffffff"
         offset="0.8"
         id="stop32" /><stop
         style="stop-opacity:1;stop-color:#ffffff"
         offset="1"
         id="stop34" /></linearGradient><linearGradient
       x1="0"
       y1="0"
       x2="1"
       y2="0"
       gradientUnits="userSpaceOnUse"
       gradientTransform="matrix(48.456,-83.9282,83.9282,48.456,-117.2213,718.4337)"
       spreadMethod="pad"
       id="linearGradient40"><stop
         style="stop-opacity:1;stop-color:#ffffff"
         offset="0"
         id="stop42" /><stop
         style="stop-opacity:1;stop-color:#ffffff"
         offset="0.2"
         id="stop44" /><stop
         style="stop-opacity:1;stop-color:#f7e879"
         offset="1"
         id="stop46" /></linearGradient><linearGradient
       x1="0"
       y1="0"
       x2="1"
       y2="0"
       gradientUnits="userSpaceOnUse"
       gradientTransform="matrix(126.845,0,0,126.845,-7.4973,611.6257)"
       spreadMethod="pad"
       id="linearGradient52"><stop
         style="stop-opacity:1;stop-color:#f7e879"
         offset="0"
         id="stop54" /><stop
         style="stop-opacity:1;stop-color:#ffffff"
         offset="0.8"
         id="stop56" /><stop
         style="stop-opacity:1;stop-color:#ffffff"
         offset="1"
         id="stop58" /></linearGradient></defs><sodipodi:namedview
     pagecolor="#ffffff"
     bordercolor="#666666"
     borderopacity="1"
     objecttolerance="10"
     gridtolerance="10"
     guidetolerance="10"
     inkscape:pageopacity="0"
     inkscape:pageshadow="2"
     inkscape:window-width="1920"
     inkscape:window-height="1006"
     id="namedview4"
     showgrid="false"
     inkscape:zoom="0.31716168"
     inkscape:cx="526.18127"
     inkscape:cy="372.04999"
     inkscape:window-x="0"
     inkscape:window-y="0"
     inkscape:window-maximized="1"
     inkscape:current-layer="g10" /><g
     id="g10"
     inkscape:groupmode="layer"
     inkscape:label="Network"
     transform="matrix(1.25,0,0,-1.25,0,744.1)"><g
       id="g14"
       transform="translate(-25.9625,-0.52488)"><g
         id="g16"
         clip-path="url(#clipPath18)"><g
           id="g22"
           transform="translate(434.6163,318.8747)"><path
             d="m 0,0 c 0,-27.545 -22.33,-49.875 -49.875,-49.875 -27.545,0 -49.875,22.33 -49.875,49.875 0,27.545 22.33,49.875 49.875,49.875 C -22.33,49.875 0,27.545 0,0 Z"
             style="fill:none;stroke:#f7e879;stroke-width:17;stroke-linecap:butt;stroke-linejoin:miter;stroke-miterlimit:10;stroke-dasharray:none;stroke-opacity:1"
             id="path24"
             inkscape:connector-curvature="0" /></g><g
           id="g26"
           transform="translate(395.825,366.362)"><path
             d="M 0,0 27.432,72.376"
             style="fill:#ffffff;fill-opacity:1;fill-rule:nonzero;stroke:url(#linearGradient28);stroke-width:17;stroke-linecap:butt;stroke-linejoin:miter;stroke-miterlimit:10;stroke-dasharray:none;stroke-opacity:1"
             id="path36"
             inkscape:connector-curvature="0" /></g><g
           id="g38"
           transform="translate(363.0932,280.6511)"><path
             d="M 0,0 -42.94,-85.932"
             style="fill:#ffffff;fill-opacity:1;fill-rule:nonzero;stroke:url(#linearGradient40);stroke-width:17;stroke-linecap:butt;stroke-linejoin:miter;stroke-miterlimit:10;stroke-dasharray:none;stroke-opacity:1"
             id="path48"
             inkscape:connector-curvature="0" /></g><g
           id="g50"
           transform="translate(427.2981,303.8589)"><path
             d="M 0,0 126.487,-2.66"
             style="fill:#ffffff;fill-opacity:1;fill-rule:nonzero;stroke:url(#linearGradient52);stroke-width:17;stroke-linecap:butt;stroke-linejoin:miter;stroke-miterlimit:10;stroke-dasharray:none;stroke-opacity:1"
             id="path60"
             inkscape:connector-curvature="0" /></g><g
           id="g62"
           transform="translate(452.0467,452.6728)"><path
             d="m 0,0 c 0,-11.42 -9.258,-20.678 -20.678,-20.678 -11.42,0 -20.678,9.258 -20.678,20.678 0,11.42 9.258,20.678 20.678,20.678 C -9.258,20.678 0,11.42 0,0 Z"
             style="fill:none;stroke:#ffffff;stroke-width:16.78300095;stroke-linecap:butt;stroke-linejoin:miter;stroke-miterlimit:10;stroke-dasharray:none;stroke-opacity:1"
             id="path64"
             inkscape:connector-curvature="0" /></g><g
           id="g66"
           transform="translate(622.5376,301.4241)"><path
             d="m 0,0 c 0,-20.262 -16.425,-36.687 -36.687,-36.687 -20.262,0 -36.687,16.425 -36.687,36.687 0,20.262 16.425,36.687 36.687,36.687 C -16.425,36.687 0,20.262 0,0 Z"
             style="fill:none;stroke:#ffffff;stroke-width:16.78300095;stroke-linecap:butt;stroke-linejoin:miter;stroke-miterlimit:10;stroke-dasharray:none;stroke-opacity:1"
             id="path68"
             inkscape:connector-curvature="0" /></g><g
           id="g70"
           transform="translate(338.938,181.3571)"><path
             d="m 0,0 c 0,-11.42 -9.258,-20.678 -20.678,-20.678 -11.42,0 -20.678,9.258 -20.678,20.678 0,11.42 9.258,20.678 20.678,20.678 C -9.258,20.678 0,11.42 0,0 Z"
             style="fill:none;stroke:#ffffff;stroke-width:16.78300095;stroke-linecap:butt;stroke-linejoin:miter;stroke-miterlimit:10;stroke-dasharray:none;stroke-opacity:1"
             id="path72"
             inkscape:connector-curvature="0" /></g><g
           id="g74"
           transform="translate(583.0742,189.3616)"><path
             d="m 0,0 c 0,-20.262 -16.425,-36.687 -36.687,-36.687 -20.262,0 -36.687,16.425 -36.687,36.687 0,20.262 16.425,36.687 36.687,36.687 C -16.425,36.687 0,20.262 0,0 Z"
             style="fill:none;stroke:#ffffff;stroke-width:16.78300095;stroke-linecap:butt;stroke-linejoin:miter;stroke-miterlimit:10;stroke-dasharray:none;stroke-opacity:1"
             id="path76"
             inkscape:connector-curvature="0" /></g><g
           id="g78"
           transform="translate(561.514,534.4957)"><path
             d="m 0,0 c 0,-27.193 -22.044,-49.237 -49.237,-49.237 -27.194,0 -49.238,22.044 -49.238,49.237 0,27.193 22.044,49.237 49.238,49.237 C -22.044,49.237 0,27.193 0,0 Z"
             style="fill:none;stroke:#ffffff;stroke-width:16.78300095;stroke-linecap:butt;stroke-linejoin:miter;stroke-miterlimit:10;stroke-dasharray:none;stroke-opacity:1"
             id="path80"
             inkscape:connector-curvature="0" /></g><g
           id="g82"
           transform="translate(584.8627,338.1112)"><path
             d="M 0,0 0,73.374"
             style="fill:#ffffff;fill-opacity:1;fill-rule:nonzero;stroke:#ffffff;stroke-width:16.78300095;stroke-linecap:butt;stroke-linejoin:miter;stroke-miterlimit:10;stroke-dasharray:none;stroke-opacity:1"
             id="path84"
             inkscape:connector-curvature="0" /></g><g
           id="g86"
           transform="translate(616.4252,282.7253)"><path
             d="M 0,0 75.831,-53.341"
             style="fill:#ffffff;fill-opacity:1;fill-rule:nonzero;stroke:#ffffff;stroke-width:16.78300095;stroke-linecap:butt;stroke-linejoin:miter;stroke-miterlimit:10;stroke-dasharray:none;stroke-opacity:1"
             id="path88"
             inkscape:connector-curvature="0" /></g><g
           id="g90"
           transform="translate(578.0021,267.4084)"><path
             d="M 0,0 -17.607,-44.695"
             style="fill:#ffffff;fill-opacity:1;fill-rule:nonzero;stroke:#ffffff;stroke-width:16.78300095;stroke-linecap:butt;stroke-linejoin:miter;stroke-miterlimit:10;stroke-dasharray:none;stroke-opacity:1"
             id="path92"
             inkscape:connector-curvature="0" /></g><g
           id="g94"
           transform="translate(729.8769,222.7135)"><path
             d="m 0,0 c 0,-11.42 -9.258,-20.678 -20.678,-20.678 -11.42,0 -20.678,9.258 -20.678,20.678 0,11.42 9.258,20.678 20.678,20.678 C -9.258,20.678 0,11.42 0,0 Z"
             style="fill:none;stroke:#ffffff;stroke-width:16.78300095;stroke-linecap:butt;stroke-linejoin:miter;stroke-miterlimit:10;stroke-dasharray:none;stroke-opacity:1"
             id="path96"
             inkscape:connector-curvature="0" /></g><g
           id="g98"
           transform="translate(252.3563,232.3856)"><path
             d="m 0,0 c 0,-20.262 -16.425,-36.687 -36.687,-36.687 -20.262,0 -36.687,16.425 -36.687,36.687 0,20.262 16.425,36.687 36.687,36.687 C -16.425,36.687 0,20.262 0,0 Z"
             style="fill:none;stroke:#ffffff;stroke-width:16.78300095;stroke-linecap:butt;stroke-linejoin:miter;stroke-miterlimit:10;stroke-dasharray:none;stroke-opacity:1"
             id="path100"
             inkscape:connector-curvature="0" /></g><g
           id="g102"
           transform="translate(605.5408,430.1626)"><path
             d="m 0,0 c 0,-11.42 -9.258,-20.678 -20.678,-20.678 -11.42,0 -20.678,9.258 -20.678,20.678 0,11.42 9.258,20.678 20.678,20.678 C -9.258,20.678 0,11.42 0,0 Z"
             style="fill:none;stroke:#ffffff;stroke-width:16.78300095;stroke-linecap:butt;stroke-linejoin:miter;stroke-miterlimit:10;stroke-dasharray:none;stroke-opacity:1"
             id="path104"
             inkscape:connector-curvature="0" /></g><g
           id="g106"
           transform="translate(414.7722,465.0081)"><path
             d="M 0,0 -53.443,31.689"
             style="fill:#ffffff;fill-opacity:1;fill-rule:nonzero;stroke:#ffffff;stroke-width:16.78300095;stroke-linecap:butt;stroke-linejoin:miter;stroke-miterlimit:10;stroke-dasharray:none;stroke-opacity:1"
             id="path108"
             inkscape:connector-curvature="0" /></g><g
           id="g110"
           transform="translate(445.6584,437.7346)"><path
             d="M 0,0 54.415,-38.425"
             style="fill:#ffffff;fill-opacity:1;fill-rule:nonzero;stroke:#ffffff;stroke-width:16.78300095;stroke-linecap:butt;stroke-linejoin:miter;stroke-miterlimit:10;stroke-dasharray:none;stroke-opacity:1"
             id="path112"
             inkscape:connector-curvature="0" /></g><g
           id="g114"
           transform="translate(445.6584,467.6108)"><path
             d="M 0,0 35.071,36.424"
             style="fill:#ffffff;fill-opacity:1;fill-rule:nonzero;stroke:#ffffff;stroke-width:16.78300095;stroke-linecap:butt;stroke-linejoin:miter;stroke-miterlimit:10;stroke-dasharray:none;stroke-opacity:1"
             id="path116"
             inkscape:connector-curvature="0" /></g><g
           id="g118"
           transform="translate(302.305,183.0247)"><path
             d="M 0,0 -55.418,30.017"
             style="fill:#ffffff;fill-opacity:1;fill-rule:nonzero;stroke:#ffffff;stroke-width:16.78300095;stroke-linecap:butt;stroke-linejoin:miter;stroke-miterlimit:10;stroke-dasharray:none;stroke-opacity:1"
             id="path120"
             inkscape:connector-curvature="0" /></g><g
           id="g122"
           transform="translate(316.2773,165.9366)"><path
             d="M 0,0 0.036,-62.623"
             style="fill:#ffffff;fill-opacity:1;fill-rule:nonzero;stroke:#ffffff;stroke-width:16.78300095;stroke-linecap:butt;stroke-linejoin:miter;stroke-miterlimit:10;stroke-dasharray:none;stroke-opacity:1"
             id="path124"
             inkscape:connector-curvature="0" /></g><g
           id="g126"
           transform="translate(338.0018,175.47)"><path
             d="M 0,0 38.893,-3.393"
             style="fill:#ffffff;fill-opacity:1;fill-rule:nonzero;stroke:#ffffff;stroke-width:16.78300095;stroke-linecap:butt;stroke-linejoin:miter;stroke-miterlimit:10;stroke-dasharray:none;stroke-opacity:1"
             id="path128"
             inkscape:connector-curvature="0" /></g><g
           id="g130"
           transform="translate(516.2213,202.0353)"><path
             d="M 0,0 -51.731,32.919"
             style="fill:#ffffff;fill-opacity:1;fill-rule:nonzero;stroke:#ffffff;stroke-width:16.78300095;stroke-linecap:butt;stroke-linejoin:miter;stroke-miterlimit:10;stroke-dasharray:none;stroke-opacity:1"
             id="path132"
             inkscape:connector-curvature="0" /></g><g
           id="g134"
           transform="translate(576.483,173.3526)"><path
             d="M 0,0 63.771,-16.009"
             style="fill:#ffffff;fill-opacity:1;fill-rule:nonzero;stroke:#ffffff;stroke-width:16.78300095;stroke-linecap:butt;stroke-linejoin:miter;stroke-miterlimit:10;stroke-dasharray:none;stroke-opacity:1"
             id="path136"
             inkscape:connector-curvature="0" /></g><g
           id="g138"
           transform="translate(530.9414,156.7719)"><path
             d="M 0,0 -32.889,-53.916"
             style="fill:#ffffff;fill-opacity:1;fill-rule:nonzero;stroke:#ffffff;stroke-width:16.78300095;stroke-linecap:butt;stroke-linejoin:miter;stroke-miterlimit:10;stroke-dasharray:none;stroke-opacity:1"
             id="path140"
             inkscape:connector-curvature="0" /></g><g
           id="g142"
           transform="translate(680.3826,152.6745)"><path
             d="m 0,0 c 0,-11.42 -9.258,-20.678 -20.678,-20.678 -11.42,0 -20.678,9.258 -20.678,20.678 0,11.42 9.258,20.678 20.678,20.678 C -9.258,20.678 0,11.42 0,0 Z"
             style="fill:none;stroke:#ffffff;stroke-width:16.78300095;stroke-linecap:butt;stroke-linejoin:miter;stroke-miterlimit:10;stroke-dasharray:none;stroke-opacity:1"
             id="path144"
             inkscape:connector-curvature="0" /></g><g
           id="g146"
           transform="translate(446.6003,172.0767)"><path
             d="m 0,0 c 0,-20.262 -16.425,-36.687 -36.687,-36.687 -20.262,0 -36.687,16.425 -36.687,36.687 0,20.262 16.425,36.687 36.687,36.687 C -16.425,36.687 0,20.262 0,0 Z"
             style="fill:none;stroke:#ffffff;stroke-width:16.78300095;stroke-linecap:butt;stroke-linejoin:miter;stroke-miterlimit:10;stroke-dasharray:none;stroke-opacity:1"
             id="path148"
             inkscape:connector-curvature="0" /></g><g
           id="g150"
           transform="translate(471.6787,245.6391)"><path
             d="m 0,0 c 0,-11.42 -9.258,-20.678 -20.678,-20.678 -11.42,0 -20.678,9.258 -20.678,20.678 0,11.42 9.258,20.678 20.678,20.678 C -9.258,20.678 0,11.42 0,0 Z"
             style="fill:none;stroke:#ffffff;stroke-width:16.78300095;stroke-linecap:butt;stroke-linejoin:miter;stroke-miterlimit:10;stroke-dasharray:none;stroke-opacity:1"
             id="path152"
             inkscape:connector-curvature="0" /></g><g
           id="g154"
           transform="translate(533.5665,390.6381)"><path
             d="m 0,0 c 0,-11.42 -9.258,-20.678 -20.678,-20.678 -11.42,0 -20.678,9.258 -20.678,20.678 0,11.42 9.258,20.678 20.678,20.678 C -9.258,20.678 0,11.42 0,0 Z"
             style="fill:none;stroke:#ffffff;stroke-width:16.78300095;stroke-linecap:butt;stroke-linejoin:miter;stroke-miterlimit:10;stroke-dasharray:none;stroke-opacity:1"
             id="path156"
             inkscape:connector-curvature="0" /></g><g
           id="g158"
           transform="translate(371.4362,512.3327)"><path
             d="m 0,0 c 0,-20.262 -16.425,-36.687 -36.687,-36.687 -20.262,0 -36.687,16.425 -36.687,36.687 0,20.262 16.425,36.687 36.687,36.687 C -16.425,36.687 0,20.262 0,0 Z"
             style="fill:none;stroke:#ffffff;stroke-width:16.78300095;stroke-linecap:butt;stroke-linejoin:miter;stroke-miterlimit:10;stroke-dasharray:none;stroke-opacity:1"
             id="path160"
             inkscape:connector-curvature="0" /></g><g
           id="g162"
           transform="translate(336.991,86.4508)"><path
             d="m 0,0 c 0,-11.42 -9.258,-20.678 -20.678,-20.678 -11.42,0 -20.678,9.258 -20.678,20.678 0,11.42 9.258,20.678 20.678,20.678 C -9.258,20.678 0,11.42 0,0 Z"
             style="fill:none;stroke:#ffffff;stroke-width:16.78300095;stroke-linecap:butt;stroke-linejoin:miter;stroke-miterlimit:10;stroke-dasharray:none;stroke-opacity:1"
             id="path164"
             inkscape:connector-curvature="0" /></g><g
           id="g166"
           transform="translate(324.4127,477.1321)"><path
             d="M 0,0 -16.826,-55.641"
             style="fill:#ffffff;fill-opacity:1;fill-rule:nonzero;stroke:#ffffff;stroke-width:16.78300095;stroke-linecap:butt;stroke-linejoin:miter;stroke-miterlimit:10;stroke-dasharray:none;stroke-opacity:1"
             id="path168"
             inkscape:connector-curvature="0" /></g><g
           id="g170"
           transform="translate(299.1329,521.1376)"><path
             d="M 0,0 -18.227,5.079"
             style="fill:#ffffff;fill-opacity:1;fill-rule:nonzero;stroke:#ffffff;stroke-width:16.78300095;stroke-linecap:butt;stroke-linejoin:miter;stroke-miterlimit:10;stroke-dasharray:none;stroke-opacity:1"
             id="path172"
             inkscape:connector-curvature="0" /></g><g
           id="g174"
           transform="translate(557.8725,536.746)"><path
             d="M 0,0 70.945,-31.217"
             style="fill:#ffffff;fill-opacity:1;fill-rule:nonzero;stroke:#ffffff;stroke-width:16.78300095;stroke-linecap:butt;stroke-linejoin:miter;stroke-miterlimit:10;stroke-dasharray:none;stroke-opacity:1"
             id="path176"
             inkscape:connector-curvature="0" /></g><g
           id="g178"
           transform="translate(275.5687,534.0115)"><path
             d="m 0,0 c 0,-11.42 -9.258,-20.678 -20.678,-20.678 -11.42,0 -20.678,9.258 -20.678,20.678 0,11.42 9.258,20.678 20.678,20.678 C -9.258,20.678 0,11.42 0,0 Z"
             style="fill:none;stroke:#ffffff;stroke-width:16.78300095;stroke-linecap:butt;stroke-linejoin:miter;stroke-miterlimit:10;stroke-dasharray:none;stroke-opacity:1"
             id="path180"
             inkscape:connector-curvature="0" /></g><g
           id="g182"
           transform="translate(334.2687,390.6381)"><path
             d="m 0,0 c 0,-20.262 -16.425,-36.687 -36.687,-36.687 -20.262,0 -36.687,16.425 -36.687,36.687 0,20.262 16.425,36.687 36.687,36.687 C -16.425,36.687 0,20.262 0,0 Z"
             style="fill:none;stroke:#ffffff;stroke-width:16.78300095;stroke-linecap:butt;stroke-linejoin:miter;stroke-miterlimit:10;stroke-dasharray:none;stroke-opacity:1"
             id="path184"
             inkscape:connector-curvature="0" /></g><g
           id="g186"
           transform="translate(528.663,58.9534)"><path
             d="m 0,0 c 0,-27.193 -22.044,-49.237 -49.237,-49.237 -27.194,0 -49.238,22.044 -49.238,49.237 0,27.193 22.044,49.237 49.238,49.237 C -22.044,49.237 0,27.193 0,0 Z"
             style="fill:none;stroke:#ffffff;stroke-width:16.78300095;stroke-linecap:butt;stroke-linejoin:miter;stroke-miterlimit:10;stroke-dasharray:none;stroke-opacity:1"
             id="path188"
             inkscape:connector-curvature="0" /></g><g
           id="g190"
           transform="translate(695.4037,495.7095)"><path
             d="m 0,0 c 0,-20.262 -16.425,-36.687 -36.687,-36.687 -20.262,0 -36.687,16.425 -36.687,36.687 0,20.262 16.425,36.687 36.687,36.687 C -16.425,36.687 0,20.262 0,0 Z"
             style="fill:none;stroke:#ffffff;stroke-width:16.78300095;stroke-linecap:butt;stroke-linejoin:miter;stroke-miterlimit:10;stroke-dasharray:none;stroke-opacity:1"
             id="path192"
             inkscape:connector-curvature="0" /></g><g
           id="g194"
           transform="translate(709.1987,243.3917)"><path
             d="M 0,0 0,50.295"
             style="fill:#ffffff;fill-opacity:1;fill-rule:nonzero;stroke:#ffffff;stroke-width:16.78300095;stroke-linecap:butt;stroke-linejoin:miter;stroke-miterlimit:10;stroke-dasharray:none;stroke-opacity:1"
             id="path196"
             inkscape:connector-curvature="0" /></g><g
           id="g198"
           transform="translate(745.8858,325.4909)"><path
             d="m 0,0 c 0,-20.262 -16.425,-36.687 -36.687,-36.687 -20.262,0 -36.687,16.425 -36.687,36.687 0,20.262 16.425,36.687 36.687,36.687 C -16.425,36.687 0,20.262 0,0 Z"
             style="fill:none;stroke:#ffffff;stroke-width:16.78300095;stroke-linecap:butt;stroke-linejoin:miter;stroke-miterlimit:10;stroke-dasharray:none;stroke-opacity:1"
             id="path200"
             inkscape:connector-curvature="0" /></g><g
           id="g202"
           transform="translate(182.2727,459.0811)"><path
             d="m 0,0 c 0,-20.262 -16.425,-36.687 -36.687,-36.687 -20.262,0 -36.687,16.425 -36.687,36.687 0,20.262 16.425,36.687 36.687,36.687 C -16.425,36.687 0,20.262 0,0 Z"
             style="fill:none;stroke:#ffffff;stroke-width:16.78300095;stroke-linecap:butt;stroke-linejoin:miter;stroke-miterlimit:10;stroke-dasharray:none;stroke-opacity:1"
             id="path204"
             inkscape:connector-curvature="0" /></g><g
           id="g206"
           transform="translate(145.5855,422.394)"><path
             d="M 0,0 0,-62.567"
             style="fill:#ffffff;fill-opacity:1;fill-rule:nonzero;stroke:#ffffff;stroke-width:16.78300095;stroke-linecap:butt;stroke-linejoin:miter;stroke-miterlimit:10;stroke-dasharray:none;stroke-opacity:1"
             id="path208"
             inkscape:connector-curvature="0" /></g><g
           id="g210"
           transform="translate(120.5127,485.8512)"><path
             d="M 0,0 -23.969,20.554"
             style="fill:#ffffff;fill-opacity:1;fill-rule:nonzero;stroke:#ffffff;stroke-width:16.78300095;stroke-linecap:butt;stroke-linejoin:miter;stroke-miterlimit:10;stroke-dasharray:none;stroke-opacity:1"
             id="path212"
             inkscape:connector-curvature="0" /></g><g
           id="g214"
           transform="translate(182.2727,453.0953)"><path
             d="M 0,0 31.669,0"
             style="fill:#ffffff;fill-opacity:1;fill-rule:nonzero;stroke:#ffffff;stroke-width:16.78300095;stroke-linecap:butt;stroke-linejoin:miter;stroke-miterlimit:10;stroke-dasharray:none;stroke-opacity:1"
             id="path216"
             inkscape:connector-curvature="0" /></g><g
           id="g218"
           transform="translate(166.2637,343.3547)"><path
             d="m 0,0 c 0,-11.42 -9.258,-20.678 -20.678,-20.678 -11.42,0 -20.678,9.258 -20.678,20.678 0,11.42 9.258,20.678 20.678,20.678 C -9.258,20.678 0,11.42 0,0 Z"
             style="fill:none;stroke:#ffffff;stroke-width:16.78300095;stroke-linecap:butt;stroke-linejoin:miter;stroke-miterlimit:10;stroke-dasharray:none;stroke-opacity:1"
             id="path220"
             inkscape:connector-curvature="0" /></g><g
           id="g222"
           transform="translate(250.1772,453.0953)"><path
             d="m 0,0 c 0,-11.42 -9.258,-20.678 -20.678,-20.678 -11.42,0 -20.678,9.258 -20.678,20.678 0,11.42 9.258,20.678 20.678,20.678 C -9.258,20.678 0,11.42 0,0 Z"
             style="fill:none;stroke:#ffffff;stroke-width:16.78300095;stroke-linecap:butt;stroke-linejoin:miter;stroke-miterlimit:10;stroke-dasharray:none;stroke-opacity:1"
             id="path224"
             inkscape:connector-curvature="0" /></g><g
           id="g226"
           transform="translate(166.2637,339.7887)"><path
             d="M 0,0 60.352,-23.346"
             style="fill:#ffffff;fill-opacity:1;fill-rule:nonzero;stroke:#ffffff;stroke-width:16.78300095;stroke-linecap:butt;stroke-linejoin:miter;stroke-miterlimit:10;stroke-dasharray:none;stroke-opacity:1"
             id="path228"
             inkscape:connector-curvature="0" /></g><g
           id="g230"
           transform="translate(263.5446,312.9472)"><path
             d="m 0,0 c 0,-11.42 -9.258,-20.678 -20.678,-20.678 -11.42,0 -20.678,9.258 -20.678,20.678 0,11.42 9.258,20.678 20.678,20.678 C -9.258,20.678 0,11.42 0,0 Z"
             style="fill:none;stroke:#ffffff;stroke-width:16.78300095;stroke-linecap:butt;stroke-linejoin:miter;stroke-miterlimit:10;stroke-dasharray:none;stroke-opacity:1"
             id="path232"
             inkscape:connector-curvature="0" /></g><g
           id="g234"
           transform="translate(131.6115,328.1155)"><path
             d="M 0,0 -11.099,-11.673"
             style="fill:#ffffff;fill-opacity:1;fill-rule:nonzero;stroke:#ffffff;stroke-width:16.78300095;stroke-linecap:butt;stroke-linejoin:miter;stroke-miterlimit:10;stroke-dasharray:none;stroke-opacity:1"
             id="path236"
             inkscape:connector-curvature="0" /></g><g
           id="g238"
           transform="translate(126.961,285.7584)"><path
             d="m 0,0 c 0,-20.262 -16.425,-36.687 -36.687,-36.687 -20.262,0 -36.687,16.425 -36.687,36.687 0,20.262 16.425,36.687 36.687,36.687 C -16.425,36.687 0,20.262 0,0 Z"
             style="fill:none;stroke:#ffffff;stroke-width:16.78300095;stroke-linecap:butt;stroke-linejoin:miter;stroke-miterlimit:10;stroke-dasharray:none;stroke-opacity:1"
             id="path240"
             inkscape:connector-curvature="0" /></g><g
           id="g242"
           transform="translate(108.528,530.819)"><path
             d="m 0,0 c 0,-20.262 -16.425,-36.687 -36.687,-36.687 -20.262,0 -36.687,16.425 -36.687,36.687 0,20.262 16.425,36.687 36.687,36.687 C -16.425,36.687 0,20.262 0,0 Z"
             style="fill:none;stroke:#ffffff;stroke-width:16.78300095;stroke-linecap:butt;stroke-linejoin:miter;stroke-miterlimit:10;stroke-dasharray:none;stroke-opacity:1"
             id="path244"
             inkscape:connector-curvature="0" /></g></g></g></g></svg>