<?xml version="1.0" encoding="UTF-8" standalone="no"?>
<!-- Created with Inkscape (http://www.inkscape.org/) -->

<svg
   xmlns:dc="http://purl.org/dc/elements/1.1/"
   xmlns:cc="http://creativecommons.org/ns#"
   xmlns:rdf="http://www.w3.org/1999/02/22-rdf-syntax-ns#"
   xmlns:svg="http://www.w3.org/2000/svg"
   xmlns="http://www.w3.org/2000/svg"
   xmlns:sodipodi="http://sodipodi.sourceforge.net/DTD/sodipodi-0.dtd"
   xmlns:inkscape="http://www.inkscape.org/namespaces/inkscape"
   width="300"
   height="412"
   viewBox="0 0 300 412.00001"
   id="svg2"
   version="1.1"
   inkscape:version="0.91 r13725"
   sodipodi:docname="spleen.svg">
  <defs
     id="defs4" />
  <sodipodi:namedview
     id="base"
     pagecolor="#ffffff"
     bordercolor="#666666"
     borderopacity="1.0"
     inkscape:pageopacity="0.0"
     inkscape:pageshadow="2"
     inkscape:zoom="0.7"
     inkscape:cx="21.138654"
     inkscape:cy="484.73307"
     inkscape:document-units="px"
     inkscape:current-layer="layer1"
     showgrid="false"
     units="px"
     inkscape:window-width="1920"
     inkscape:window-height="998"
     inkscape:window-x="0"
     inkscape:window-y="0"
     inkscape:window-maximized="1" />
  <metadata
     id="metadata7">
    <rdf:RDF>
      <cc:Work
         rdf:about="">
        <dc:format>image/svg+xml</dc:format>
        <dc:type
           rdf:resource="http://purl.org/dc/dcmitype/StillImage" />
        <dc:title></dc:title>
      </cc:Work>
    </rdf:RDF>
  </metadata>
  <g
     inkscape:label="Ebene 1"
     inkscape:groupmode="layer"
     id="layer1"
     transform="translate(0,-640.36218)">
    <path
       style="color:#000000;display:inline;overflow:visible;visibility:visible;opacity:1;fill:#ffffff;fill-opacity:1;fill-rule:evenodd;stroke:none;stroke-width:1.89999998;stroke-linecap:round;stroke-linejoin:miter;stroke-miterlimit:4;stroke-dasharray:none;stroke-dashoffset:0;stroke-opacity:1;marker:none;enable-background:accumulate"
       d="m 126.95879,639.86123 c 5.21856,-0.005 9.85124,0.19411 12.54297,0.63086 25.25224,4.09737 44.5631,12.98471 72.08399,33.17774 42.14505,30.92329 71.56888,78.13506 82.16015,131.82812 5.43568,27.55651 6.40976,35.88197 5.8418,49.98828 -0.59557,14.79199 -2.23531,22.05125 -7.19727,31.88476 l -3.46875,6.875 3.46485,4.04688 c 7.40132,8.64678 10.13015,23.18644 6.99609,37.27344 -5.82623,26.18777 -20.23756,56.6697 -37.6582,79.65239 -8.7543,11.5493 -25.94587,28.9686 -31.61524,32.0332 -8.07188,4.3632 -18.02561,6.0548 -27.05664,4.5996 -7.70037,-1.2408 -15.54562,-5.3149 -21.57031,-11.2032 -4.69228,-4.586 -7.36528,-9.3127 -24.4043,-43.15035 -22.3634,-44.41121 -28.42176,-55.47045 -39.84961,-72.75977 -7.21733,-10.91919 -8.75359,-12.69533 -10.64843,-12.31055 -1.21787,0.24732 -4.56597,0.71544 -7.441413,1.04102 -5.05353,0.5722 -5.54861,0.92198 -14.80859,10.46484 -11.86705,12.22957 -23.3474,20.5344 -39.14063,28.31446 -10.09227,4.97165 -12.74651,5.89137 -15.5,5.37109 -10.75831,-2.03283 -18.94016,-14.49167 -18.74805,-28.55273 0.13978,-10.23157 4.55998,-17.1279 12.24024,-19.10157 16.08835,-4.13439 26.16619,-8.81219 25.28711,-11.73828 -2.28985,-7.62199 -3.15099,-49.84058 -1.12891,-55.36328 0.2893,-0.79015 -5.01398,-7.47814 -12.58008,-15.86523 -15.84354,-17.5627 -20.70954,-24.19604 -25.9472602,-35.37305 -12.12329,-25.87042 -11.71703,-56.30783 1.08984,-81.62695 6.9196202,-13.68005 25.8906302,-35.46601 40.0488302,-45.99023 14.82818,-11.02224 34.41077,-19.47272 52.320313,-22.58008 5.6667,-0.98319 15.98991,-1.55791 24.6875,-1.56641 z"
       id="path4323"
       inkscape:connector-curvature="0" />
    <path
       style="fill:#000000;fill-opacity:1"
       d="m 203.05151,1051.8516 c -7.70037,-1.2408 -15.54589,-5.3159 -21.57058,-11.2041 -4.69228,-4.5861 -7.36547,-9.3126 -24.40449,-43.15019 -22.3634,-44.41121 -28.42033,-55.47077 -39.84818,-72.76009 -7.21733,-10.91919 -8.75359,-12.69522 -10.64843,-12.31044 -1.21787,0.24732 -4.56694,0.71605 -7.442394,1.04163 -5.05353,0.5722 -5.54791,0.92157 -14.80789,10.46443 -11.86705,12.22957 -23.34839,20.53525 -39.14161,28.31531 -10.09227,4.97165 -12.74651,5.89141 -15.5,5.37113 -10.75831,-2.03283 -18.93845,-14.4924 -18.74634,-28.55347 0.13978,-10.23156 4.55853,-17.12817 12.23879,-19.10184 16.08835,-4.13439 26.16586,-8.8126 25.28678,-11.73869 -2.28985,-7.62199 -3.14986,-49.83923 -1.12779,-55.36193 0.2893,-0.79015 -5.01436,-7.47896 -12.58046,-15.86605 -15.84354,-17.5627 -20.70899,-24.19569 -25.9467095,-35.3727 -12.12329,-25.87042 -11.71682,-56.30817 1.09005,-81.62729 6.9196195,-13.68005 25.8904495,-35.46482 40.0486395,-45.98904 14.82818,-11.02223 34.41044,-19.47393 52.319994,-22.58129 9.06672,-1.5731 30.05287,-2.10074 37.23081,-0.93606 25.25224,4.09737 44.56287,12.98567 72.08376,33.17869 42.14504,30.92331 71.56905,78.13463 82.16032,131.82769 5.43568,27.55651 6.40851,35.88294 5.84055,49.98926 -0.59557,14.79199 -2.23385,22.05123 -7.19581,31.88474 l -3.4686,6.87398 3.4638,4.04667 c 7.40132,8.64678 10.13067,23.18737 6.99661,37.27437 -5.82623,26.18777 -20.23704,56.66867 -37.65768,79.65128 -8.7543,11.5494 -25.94695,28.9688 -31.61632,32.0334 -8.07188,4.3633 -18.02579,6.0558 -27.05682,4.6006 z m 17.38587,-12.5017 c 10.09518,-3.3746 35.17147,-31.736 47.83488,-54.10145 9.65107,-17.04519 18.32738,-39.66544 21.57592,-56.25114 2.24963,-11.48569 -2.04635,-22.77558 -10.71126,-28.14936 -7.48247,-4.64046 -20.67045,-2.24398 -26.17731,4.75686 -4.13016,5.25065 -4.53681,9.07811 -2.50487,23.57647 2.51389,17.93726 2.57392,42.09315 0.12439,50.06016 -2.0122,6.54465 -5.14338,9.36679 -9.24914,8.33631 -3.5979,-0.90302 -4.02604,-2.97114 -1.95397,-9.43865 2.74624,-8.57178 3.08138,-24.23704 0.86004,-40.19985 -1.0288,-7.39307 -1.86298,-17.04194 -1.85373,-21.44194 0.0146,-6.95271 0.40066,-8.69691 2.94896,-13.32355 4.7884,-8.69374 13.85051,-14.49097 24.63291,-15.75823 2.99233,-0.35169 7.1232,-0.17485 9.1797,0.39298 3.55851,0.98255 3.85946,0.87462 6.23095,-2.23456 5.58304,-7.31975 9.18295,-25.42325 7.96929,-40.07665 -0.79305,-9.57509 -6.58738,-41.78889 -9.53317,-53 -3.02629,-11.51748 -8.38198,-25.36563 -14.69627,-38 -16.32143,-32.65781 -39.59265,-58.53843 -71.74536,-79.79013 -27.22367,-17.99378 -44.6177,-23.81033 -71.00382,-23.74365 -34.477394,0.0871 -63.113934,13.56692 -86.847964,40.88106 -18.48609,21.27457 -24.88713,36.88654 -24.86815,60.65272 0.0117,14.60015 2.18451,23.9123 8.64029,37.02954 4.26356,8.66296 9.56861,15.60186 24.76075,32.3866 l 5.68492,6.28088 1.09903,-4.0815 c 1.18776,-4.41098 3.94393,-6.59535 7.06994,-5.60319 3.12428,0.9916 4.18617,3.93835 3.00286,8.33286 -3.88831,14.44008 -5.33011,33.7938 -3.98057,53.43246 0.57533,8.3723 1.49931,16.94708 2.05328,19.05507 0.80388,3.05893 0.68766,4.32045 -0.5757,6.24856 -1.86936,2.85301 -12.20434,8.22682 -22.03869,11.45931 -3.85,1.26548 -7.11907,2.38061 -7.2646,2.47807 -0.14553,0.0975 0.85161,2.17431 2.21585,4.61521 2.89046,5.17159 5.94296,16.25067 5.22929,18.97974 -0.63075,2.41202 -0.68174,2.4206 6.16857,-1.03743 14.65379,-7.39722 30.46921,-20.02072 41.33769,-32.99482 5.20577,-6.21431 1.77641,-5.52049 32.829614,-6.64194 20.8895,-0.75441 33.53902,0.1764 47.45544,3.49197 8.00218,1.90651 9.48644,2.96491 9.51284,6.78344 0.0284,4.10905 -3.08431,4.59619 -14.26845,2.23303 -6.18007,-1.30583 -15.73211,-2.37282 -24.17788,-2.70073 l -13.96164,-0.54208 1.91658,2.89748 c 12.5547,18.98015 21.13673,34.67525 44.49397,81.37202 8.77026,17.53385 17.33907,33.46645 19.0418,35.40575 1.70273,1.9393 5.83964,4.8971 9.19313,6.5729 4.96441,2.4807 7.33504,3.0468 12.75938,3.0468 3.66418,0 8.8798,-0.7413 11.59028,-1.6474 z m 3.62814,-40.55259 c -1.57188,-1.57188 -1.54065,-6.28474 0.05,-7.54723 2.17331,-1.72495 8.37547,-3.33372 10.18106,-2.64085 2.06981,0.79426 3.45815,4.09575 2.79259,6.64083 -0.98337,3.76043 -10.2787,6.29224 -13.02365,3.54725 z m -30.23421,-55.86392 c -1.22796,-2.29447 0.18359,-4.93608 2.6376,-4.93608 1.52972,0 2.93423,4.3211 1.93174,5.94316 -1.06337,1.72057 -3.38318,1.20928 -4.56934,-1.00708 z m -3.42705,-15.11758 c -2.17525,-7.32488 -2.03605,-9.0284 0.70589,-8.63805 1.77283,0.25238 2.53564,1.41086 3.62919,5.51168 1.49251,5.59689 1.06709,8.30787 -1.30369,8.30787 -0.9335,0 -2.06906,-1.94099 -3.03139,-5.1815 z m -6.22332,-19.0685 c -0.51121,-0.6875 -2.65537,-5.20071 -4.7648,-10.02936 -7.05144,-16.14127 -16.98957,-30.17024 -27.98687,-39.50712 -2.76289,-2.34574 -10.86084,-7.23162 -17.99546,-10.85752 -7.13462,-3.6259 -16.8187,-8.98067 -21.52016,-11.89949 -11.78938,-7.31923 -25.478994,-18.48503 -25.851014,-21.08514 -0.56507,-3.94935 2.46288,-3.31001 8.43621,1.78129 9.511824,8.10727 24.797524,17.85042 41.366674,26.36722 14.08218,7.23847 16.28338,8.74536 24.06407,16.47369 4.71024,4.67854 10.74801,11.86867 13.41728,15.97808 5.57618,8.5847 14.19219,26.14607 15.1311,30.8406 0.54694,2.73468 0.35293,3.18775 -1.36501,3.18775 -1.1014,0 -2.42081,-0.5625 -2.93202,-1.25 z m -29.81542,-16.30838 c -12.44118,-3.43263 -27.08731,-3.88182 -44.78783,-1.3736 -8.38131,1.18766 -10.712524,0.24024 -10.711394,-4.3532 4.3e-4,-1.76815 1.266024,-5.91482 2.812404,-9.21482 1.54638,-3.3 4.31275,-9.75255 6.14749,-14.339 3.60791,-9.01899 6.03567,-11.30369 9.84511,-9.26494 3.53446,1.89158 3.40399,4.42464 -0.78097,15.16325 -2.21365,5.68021 -4.02481,10.43619 -4.02481,10.56886 0,0.13267 6.6375,0.22872 14.75,0.21344 14.41603,-0.0271 32.2161,2.46433 37.39039,5.23352 3.24258,1.73538 4.25239,4.83337 2.28433,7.00806 -2.02543,2.23806 -5.73895,2.34105 -12.92472,0.35843 z m -85.520244,-3.47942 c -3.48973,-6.52062 -5.21683,-32.74345 -2.90867,-44.16299 1.38569,-6.85568 4.90495,-17.9333 6.22683,-19.60029 1.38206,-1.74286 6.74254,-1.11091 8.03026,0.94669 0.74926,1.1972 0.30856,4.60332 -1.61733,12.5 -3.05825,12.53974 -4.23328,24.15972 -3.01028,29.76912 l 0.85351,3.91474 6.67251,-14.41474 c 7.13784,-15.42002 9.3983,-18.06383 13.26405,-15.5135 1.10514,0.72909 2.13903,2.39958 2.29752,3.71219 0.49406,4.09174 -13.2453,33.35009 -19.55202,41.63658 -3.0178,3.96513 -8.44008,4.60599 -10.25638,1.2122 z M 260.30048,874.68843 c -0.30745,-0.80118 0.19436,-4.04812 1.11512,-7.21541 2.2287,-7.66647 1.59446,-15.20837 -1.62107,-19.27657 -1.33596,-1.69021 -5.90815,-6.03262 -10.16042,-9.64981 -4.25226,-3.61719 -8.39254,-7.85524 -9.20061,-9.41789 -1.07637,-2.08147 -3.56798,-15.94485 -3.56798,-19.85233 0,-0.15035 -1.65842,-2.10903 -3.68537,-4.35262 -2.02695,-2.2436 -7.82818,-6.51744 -12.89162,-9.49743 -10.43414,-6.14082 -15.01399,-10.73188 -16.01187,-16.05105 -0.37813,-2.01561 -0.38165,-8.78062 -0.008,-15.03336 0.98333,-16.44757 -0.35023,-18.98921 -15.6456,-29.81912 -3.98819,-2.82385 -7.3873,-5.84068 -7.55358,-6.70407 -1.5286,-7.9374 22.58856,9.05615 27.05183,19.06138 1.75437,3.93274 1.88764,5.78127 1.29771,18 -0.83617,17.31887 -0.54225,17.85944 14.44633,26.56924 3.575,2.07741 8.1066,5.04928 10.07022,6.60415 l 3.57021,2.82704 1.22662,-3.39216 c 2.50974,-6.94055 11.30689,-11.36192 19.42642,-9.76354 3.26952,0.64363 4.2777,1.32307 4.52607,3.05025 0.30271,2.10506 -0.0301,2.22217 -6.31574,2.22217 -7.92345,0 -10.20841,1.04875 -12.08846,5.54837 -1.74711,4.18142 -1.81836,21.45918 -0.1089,26.40442 0.81608,2.3608 4.15647,6.0122 10.56211,11.54548 5.15271,4.45098 10.19634,9.64722 11.20808,11.54721 3.66661,6.88567 1.26535,26.91595 -3.32966,27.77472 -0.96417,0.18019 -2.00457,-0.32789 -2.31201,-1.12907 z M 76.992866,807.51964 c -4.55511,-4.94171 -4.82091,-5.70186 -2.62963,-7.52046 1.25133,-1.03851 2.23668,-0.44172 5.98934,3.62756 2.47038,2.67881 4.4964,5.65806 4.50226,6.62056 0.0192,3.14352 -3.61106,1.88404 -7.86197,-2.72766 z m -9.71426,-14.01462 c -1.80891,-2.76074 -1.29528,-5.50772 1.02984,-5.50772 1.728,0 4.50306,4.88244 3.83652,6.75 -0.72768,2.03888 -3.11593,1.42921 -4.86636,-1.24228 z m -5.37792,-11.44198 c -2.02961,-3.79237 -0.82978,-6.69162 2.27604,-5.49981 1.96355,0.75349 2.89128,4.48515 1.52448,6.13203 -1.50161,1.80934 -2.5908,1.62815 -3.80052,-0.63222 z M 167.63242,717.74731 c -5.83383,-7.67461 -7.38771,-14.25 -3.36753,-14.25 1.31111,0 2.31854,1.21075 3.25279,3.90927 0.74439,2.1501 2.47717,5.38258 3.85063,7.18328 1.37347,1.8007 2.49721,3.97903 2.49721,4.84073 0,2.69935 -3.65117,1.71334 -6.2331,-1.68328 z m -6.36492,-22.14484 c -0.29439,-0.76716 -0.39276,-3.12966 -0.21861,-5.25 0.27605,-3.36107 0.63704,-3.85516 2.81663,-3.85516 2.34921,0 2.47846,0.27142 2.14282,4.5 -0.32688,4.11815 -1.37182,5.94447 -3.4242,5.98469 -0.42977,0.008 -1.02225,-0.61237 -1.31664,-1.37953 z M 30.865516,941.47581 c 0,-4.99454 -3.16409,-14.26609 -6.03619,-17.6875 -1.64498,-1.95959 -2.06856,-2.07401 -2.92818,-0.791 -1.52263,2.27258 -1.23129,10.59584 0.51742,14.78212 1.76622,4.2282 6.33097,9.40759 7.59997,8.62331 0.46584,-0.28791 0.84698,-2.50503 0.84698,-4.92693 z"
       id="path3347-3"
       inkscape:connector-curvature="0" />
  </g>
</svg>
