<?xml version="1.0" encoding="UTF-8" standalone="no"?>
<!-- Created with Inkscape (http://www.inkscape.org/) -->

<svg
   xmlns:dc="http://purl.org/dc/elements/1.1/"
   xmlns:cc="http://creativecommons.org/ns#"
   xmlns:rdf="http://www.w3.org/1999/02/22-rdf-syntax-ns#"
   xmlns:svg="http://www.w3.org/2000/svg"
   xmlns="http://www.w3.org/2000/svg"
   xmlns:sodipodi="http://sodipodi.sourceforge.net/DTD/sodipodi-0.dtd"
   xmlns:inkscape="http://www.inkscape.org/namespaces/inkscape"
   width="225.856"
   height="224.17599"
   viewBox="0 0 225.85601 224.176"
   id="svg2"
   version="1.1"
   inkscape:version="0.91 r13725"
   sodipodi:docname="update.svg">
  <defs
     id="defs4" />
  <sodipodi:namedview
     id="base"
     pagecolor="#ffffff"
     bordercolor="#666666"
     borderopacity="1.0"
     inkscape:pageopacity="0.0"
     inkscape:pageshadow="2"
     inkscape:zoom="0.49497475"
     inkscape:cx="474.42315"
     inkscape:cy="535.24815"
     inkscape:document-units="px"
     inkscape:current-layer="layer1"
     showgrid="false"
     units="px"
     inkscape:window-width="1920"
     inkscape:window-height="1006"
     inkscape:window-x="0"
     inkscape:window-y="0"
     inkscape:window-maximized="1" />
  <metadata
     id="metadata7">
    <rdf:RDF>
      <cc:Work
         rdf:about="">
        <dc:format>image/svg+xml</dc:format>
        <dc:type
           rdf:resource="http://purl.org/dc/dcmitype/StillImage" />
        <dc:title></dc:title>
      </cc:Work>
    </rdf:RDF>
  </metadata>
  <g
     inkscape:label="Ebene 1"
     inkscape:groupmode="layer"
     id="layer1"
     transform="translate(0,-828.18617)">
    <g
       id="g4147"
       transform="matrix(0,-1,1,0,-387.81892,1271.8425)"
       style="fill:#008700;fill-opacity:1;stroke:#000000;stroke-opacity:1"
       inkscape:export-xdpi="12.751494"
       inkscape:export-ydpi="12.751494">
      <path
         style="fill:#008700;fill-opacity:1;stroke:#000000;stroke-opacity:1"
         d="m 312.83002,612.18005 c -21.73054,-3.57585 -44.13734,-15.32705 -60.35624,-31.65371 -20.24513,-20.37965 -30.97528,-44.68072 -32.36145,-73.2905 -2.65031,-54.70093 34.85465,-103.11804 88.71769,-114.53029 11.6757,-2.4738 32.56893,-2.50789 44,-0.0718 13.81695,2.94454 25.3649,7.45785 36.72231,14.35226 l 7.47124,4.53535 11.74589,-11.60122 c 10.46173,-10.33287 12.12669,-11.60122 15.22892,-11.60122 2.45089,0 4.20141,0.76452 5.90733,2.57998 l 2.42431,2.57997 0,38.7654 c 0,31.38646 -0.26124,39.08036 -1.37244,40.42003 -1.2343,1.48807 -5.32253,1.65462 -40.61515,1.65462 -37.89691,0 -39.33102,-0.0695 -41.81844,-2.02609 -6.061,-4.76758 -4.7714,-7.77375 9.21039,-21.4702 6.1026,-5.97806 11.09564,-11.26061 11.09564,-11.739 0,-1.28462 -11.52891,-6.43075 -19,-8.48097 -10.05883,-2.76036 -29.228,-2.48409 -39,0.56206 -20.93794,6.52684 -36.2073,19.50588 -45.47522,38.6542 -5.29454,10.93896 -7.53044,20.52814 -7.50742,32.19741 0.066,33.46674 21.43091,61.63029 53.75181,70.8565 8.38368,2.39318 10.48536,2.60511 22,2.21847 10.30139,-0.3459 14.25748,-0.93258 20.73083,-3.07434 30.42519,-10.06642 50.5,-37.75609 50.5,-69.65588 l 0,-8.04216 19.15099,0 19.15099,0 -0.61491,12.75 c -0.35401,7.34038 -1.48025,16.28336 -2.65445,21.07782 -7.74694,31.63223 -28.79113,58.36219 -57.59944,73.1618 -8.93486,4.59007 -23.70873,9.43796 -33.43318,10.97074 -7.7657,1.22403 -28.30254,1.16744 -36,-0.0992 z"
         id="path4153"
         inkscape:connector-curvature="0" />
      <path
         style="fill:#008700;fill-opacity:1;stroke:#000000;stroke-opacity:1"
         d="m 314.33002,611.87052 c -50.10394,-7.83195 -88.34675,-48.39064 -93.5126,-99.17546 -3.38713,-33.29854 8.47484,-65.97496 32.63544,-89.9015 20.678,-20.47767 47.73846,-31.50733 77.36751,-31.53447 22.40422,-0.0205 43.57213,6.0437 60.61952,17.36636 l 5.10986,3.39392 6.39014,-6.02545 c 3.51457,-3.314 9.16368,-8.64661 12.55358,-11.85023 6.96955,-6.5866 9.94361,-7.30863 13.882,-3.37023 l 2.45455,2.45454 0,38.89047 c 0,36.40646 -0.11681,38.99617 -1.82874,40.54545 -1.63234,1.47725 -5.80471,1.65499 -38.85078,1.65499 -38.14876,0 -42.38635,-0.38604 -44.34159,-4.03944 -2.56385,-4.79059 -1.36719,-6.88944 11.14244,-19.54306 l 12.12133,-12.26084 -4.87133,-2.43936 c -15.94859,-7.98637 -36.75468,-10.1394 -53.87133,-5.57464 -6.57684,1.75395 -16.2909,6.53257 -22.97414,11.30164 -28.11678,20.06371 -38.63774,57.16299 -25.25525,89.0557 6.7428,16.06923 20.40641,30.44776 36.02782,37.91291 11.33262,5.41563 18.51835,6.97125 32.20157,6.97125 13.65536,0 20.87041,-1.55649 32.10931,-6.92687 17.6194,-8.41924 31.43997,-23.80081 37.83704,-42.11063 2.63862,-7.55229 4.98871,-22.49436 4.37062,-27.78874 l -0.38735,-3.31791 5.93188,-0.62001 c 3.26254,-0.341 11.47048,-0.62 18.23988,-0.62 l 12.30799,0 0.63087,3.36283 c 0.8553,4.55912 -1.15762,23.53226 -3.40952,32.13717 -9.80705,37.47439 -38.05605,67.09056 -74.89248,78.51708 -15.0428,4.66622 -33.91762,6.00751 -49.73824,3.53453 z"
         id="path4151"
         inkscape:connector-curvature="0" />
      <path
         style="fill:#008700;fill-opacity:1;stroke:#000000;stroke-opacity:1"
         d="m 319.59898,612.33104 c -26.66583,-3.34044 -48.49174,-13.86959 -66.75155,-32.20196 -20.99668,-21.08011 -32.01955,-47.8215 -32.01604,-77.67064 0.004,-29.98948 10.07307,-55.52625 30.28516,-76.80432 14.82973,-15.61185 32.24918,-25.71335 54.21347,-31.43827 7.75667,-2.02175 11.3485,-2.34314 26,-2.32645 14.10852,0.0161 18.37616,0.38187 25.09095,2.15066 12.07838,3.18165 23.20453,7.74677 32.50737,13.33795 l 8.31417,4.99696 11.04376,-10.91919 c 6.07406,-6.00556 12.09708,-11.45585 13.38448,-12.11177 3.07882,-1.56863 7.47573,0.17928 9.02955,3.58954 1.64778,3.61648 1.58218,77.5329 -0.0703,79.18536 -0.89248,0.89248 -11.2367,1.2 -40.36514,1.2 -38.10812,0 -39.23625,-0.0559 -41.8,-2.07258 -5.27063,-4.14588 -2.99323,-8.52747 11.60276,-22.32302 l 10.26238,-9.69959 -2.5,-1.92609 c -3.93346,-3.03047 -17.87406,-7.70466 -26.92668,-9.02833 -35.99624,-5.26334 -71.83998,18.87785 -81.73513,55.04961 -2.75567,10.07338 -2.49507,29.25728 0.52944,38.97478 10.16716,32.66614 38.47983,54.0437 71.54233,54.01821 39.92376,-0.0308 72.13216,-30.68984 74.31791,-70.74299 l 0.55936,-10.25 17.85638,0 17.85639,0 0,9.38953 c 0,44.68143 -29.42225,85.76591 -72.74259,101.57587 -14.47811,5.28386 -35.28444,7.82607 -49.48845,6.04673 z"
         id="path4149"
         inkscape:connector-curvature="0" />
    </g>
  </g>
</svg>
