<?xml version="1.0" encoding="UTF-8" standalone="no"?>
<!-- Created with Inkscape (http://www.inkscape.org/) -->

<svg
   xmlns:dc="http://purl.org/dc/elements/1.1/"
   xmlns:cc="http://creativecommons.org/ns#"
   xmlns:rdf="http://www.w3.org/1999/02/22-rdf-syntax-ns#"
   xmlns:svg="http://www.w3.org/2000/svg"
   xmlns="http://www.w3.org/2000/svg"
   xmlns:sodipodi="http://sodipodi.sourceforge.net/DTD/sodipodi-0.dtd"
   xmlns:inkscape="http://www.inkscape.org/namespaces/inkscape"
   width="66"
   height="76"
   viewBox="0 0 66.000001 76.000001"
   id="svg7136"
   version="1.1"
   inkscape:version="0.91 r13725"
   sodipodi:docname="about.svg">
  <defs
     id="defs7138">
    <clipPath
       clipPathUnits="userSpaceOnUse"
       id="clipPath866">
      <path
         d="m 0,595.28 841.89,0 L 841.89,0 0,0 0,595.28 Z"
         id="path868"
         inkscape:connector-curvature="0" />
    </clipPath>
  </defs>
  <sodipodi:namedview
     id="base"
     pagecolor="#ffffff"
     bordercolor="#666666"
     borderopacity="1.0"
     inkscape:pageopacity="0.0"
     inkscape:pageshadow="2"
     inkscape:zoom="11.2"
     inkscape:cx="26.206928"
     inkscape:cy="33.539358"
     inkscape:document-units="px"
     inkscape:current-layer="layer1"
     showgrid="false"
     units="px"
     inkscape:window-width="1920"
     inkscape:window-height="1006"
     inkscape:window-x="0"
     inkscape:window-y="0"
     inkscape:window-maximized="1" />
  <metadata
     id="metadata7141">
    <rdf:RDF>
      <cc:Work
         rdf:about="">
        <dc:format>image/svg+xml</dc:format>
        <dc:type
           rdf:resource="http://purl.org/dc/dcmitype/StillImage" />
        <dc:title></dc:title>
      </cc:Work>
    </rdf:RDF>
  </metadata>
  <g
     inkscape:label="Ebene 1"
     inkscape:groupmode="layer"
     id="layer1"
     transform="translate(0,-976.36216)">
    <g
       transform="matrix(1.25,0,0,-1.25,-901.03875,1107.7922)"
       id="g862">
      <g
         id="g864"
         clip-path="url(#clipPath866)">
        <path
           d="m 732.651,56.163 33.061,0 0,-3.672 -33.061,0 0,3.672 z m 36.732,40.406 0,-47.753 -38.569,0 c -3.042,0 -5.509,2.467 -5.509,5.511 0,3.042 2.467,5.509 5.509,5.509 l 34.897,0 0,44.079 -36.733,0 c -4.04,0 -7.347,-3.306 -7.347,-7.346 l 0,-44.078 c 0,-4.042 3.307,-7.347 7.347,-7.347 l 44.08,0 0,51.425 -3.675,0 z"
           style="fill:#ffffff;fill-opacity:1;fill-rule:nonzero;stroke:none"
           id="path870"
           inkscape:connector-curvature="0" />
      </g>
    </g>
    <g
       transform="translate(4.1964286,964.2193)"
       style="font-style:normal;font-variant:normal;font-weight:normal;font-stretch:normal;font-size:13.75px;line-height:125%;font-family:Calibri;-inkscape-font-specification:Calibri;letter-spacing:0px;word-spacing:0px;fill:#000000;fill-opacity:1;stroke:none;stroke-width:1px;stroke-linecap:butt;stroke-linejoin:miter;stroke-opacity:1"
       id="flowRoot4146">
      <path
         d="m 9.7349854,38.665835 q 0,0.610962 -0.2282715,1.087646 -0.2215576,0.476685 -0.6243897,0.812378 -0.3961181,0.32898 -0.9399414,0.496827 -0.5371094,0.167846 -1.161499,0.167846 -0.4364014,0 -0.8123779,-0.07385 Q 5.5992432,41.082827 5.303833,40.975405 5.0151367,40.867983 4.8137207,40.753848 4.6190186,40.639712 4.5384521,40.559146 q -0.073853,-0.08057 -0.1141357,-0.201417 -0.033569,-0.127563 -0.033569,-0.335693 0,-0.147705 0.013428,-0.241699 0.013428,-0.100708 0.040283,-0.161133 0.026855,-0.06043 0.067139,-0.08057 0.040283,-0.02686 0.093994,-0.02686 0.093994,0 0.2618408,0.114136 0.1745606,0.114136 0.4431153,0.248413 0.2685547,0.134277 0.6445312,0.255127 0.3826905,0.114136 0.8795166,0.114136 0.3759766,0 0.6848145,-0.100708 0.3155517,-0.100708 0.5371094,-0.281983 0.2282714,-0.187988 0.349121,-0.456543 0.1208497,-0.268554 0.1208497,-0.610962 0,-0.369262 -0.1678467,-0.631103 Q 8.1907959,37.900454 7.9155273,37.705752 7.6402588,37.504336 7.2844238,37.343203 6.9353027,37.175356 6.56604,37.00751 6.1967773,36.832949 5.8476562,36.624819 5.4985352,36.416689 5.2232666,36.134707 4.947998,35.852725 4.7734375,35.476748 4.6055908,35.094058 4.6055908,34.563662 q 0,-0.543823 0.1947022,-0.966797 0.201416,-0.429687 0.5505371,-0.718384 0.3558349,-0.288696 0.8392334,-0.436401 0.4901123,-0.154419 1.0540771,-0.154419 0.2886963,0 0.5773926,0.05371 0.2954102,0.047 0.5505371,0.134277 0.2618408,0.08057 0.4632568,0.187989 0.2014161,0.100708 0.2618409,0.167846 0.067139,0.06042 0.08728,0.100708 0.020142,0.03357 0.033569,0.09399 0.013428,0.05371 0.020142,0.134277 0.00671,0.08057 0.00671,0.20813 0,0.120849 -0.013428,0.214844 -0.00671,0.09399 -0.026855,0.161132 -0.020142,0.06042 -0.060425,0.09399 -0.033569,0.02686 -0.080566,0.02686 -0.073853,0 -0.2349853,-0.09399 -0.154419,-0.09399 -0.3826904,-0.20813 -0.2282715,-0.12085 -0.5438233,-0.214844 -0.3088379,-0.100708 -0.6982422,-0.100708 -0.3625488,0 -0.6311035,0.100708 -0.2685547,0.09399 -0.4431152,0.255127 -0.1745606,0.161133 -0.2618408,0.382691 -0.08728,0.221557 -0.08728,0.46997 0,0.362549 0.1678467,0.62439 0.1678466,0.261841 0.4431152,0.463257 0.2819824,0.201416 0.6378174,0.369262 0.3558349,0.167847 0.7250976,0.342408 0.3692627,0.167846 0.7250977,0.375976 0.3558349,0.201416 0.6311035,0.483399 0.2819824,0.275268 0.4498291,0.657959 0.1745606,0.375976 0.1745606,0.892944 z"
         style=""
         id="path4155" />
      <path
         d="m 16.744263,32.912051 q 0,0.127563 -0.01343,0.221557 -0.01343,0.09399 -0.047,0.154419 -0.02686,0.05371 -0.07385,0.08057 -0.04028,0.02685 -0.09399,0.02685 l -2.443847,0 0,7.532959 q 0,0.05371 -0.02686,0.09399 -0.02685,0.04028 -0.09399,0.06714 -0.06714,0.02014 -0.181274,0.03357 -0.107422,0.02014 -0.275269,0.02014 -0.161133,0 -0.275269,-0.02014 -0.114135,-0.01343 -0.181274,-0.03357 -0.06714,-0.02685 -0.09399,-0.06714 -0.02686,-0.04028 -0.02686,-0.09399 l 0,-7.532959 -2.443847,0 q -0.05371,0 -0.100708,-0.02685 -0.04028,-0.02686 -0.06714,-0.08057 -0.02685,-0.06042 -0.047,-0.154419 -0.01343,-0.09399 -0.01343,-0.221557 0,-0.127564 0.01343,-0.221558 0.02014,-0.100708 0.047,-0.161133 0.02686,-0.06042 0.06714,-0.08728 0.047,-0.02685 0.100708,-0.02685 l 6.04248,0 q 0.05371,0 0.09399,0.02685 0.047,0.02686 0.07385,0.08728 0.03357,0.06043 0.047,0.161133 0.01343,0.09399 0.01343,0.221558 z"
         style=""
         id="path4157" />
      <path
         d="m 23.444702,40.693423 q 0.05371,0.147705 0.05371,0.241699 0.0067,0.08728 -0.047,0.134277 -0.05371,0.047 -0.181274,0.06043 -0.12085,0.01343 -0.32898,0.01343 -0.20813,0 -0.335693,-0.01343 -0.12085,-0.0067 -0.187989,-0.02685 -0.06042,-0.02686 -0.09399,-0.06714 -0.02685,-0.04028 -0.05371,-0.100708 l -0.745239,-2.114868 -3.61206,0 -0.71167,2.088013 q -0.02014,0.06042 -0.05371,0.107421 -0.03357,0.04028 -0.100708,0.07385 -0.06042,0.02686 -0.181275,0.04028 -0.114135,0.01343 -0.302124,0.01343 -0.194702,0 -0.322265,-0.02014 -0.12085,-0.01343 -0.174561,-0.06042 -0.047,-0.047 -0.047,-0.134278 0.0067,-0.09399 0.06042,-0.241699 l 2.913818,-8.070068 q 0.02686,-0.07385 0.06714,-0.12085 0.047,-0.047 0.127563,-0.07385 0.08728,-0.02685 0.214844,-0.03357 0.134277,-0.01343 0.335693,-0.01343 0.214844,0 0.355835,0.01343 0.140992,0.0067 0.228272,0.03357 0.08728,0.02686 0.134277,0.08057 0.047,0.047 0.07385,0.120849 l 2.913818,8.070069 z m -3.739624,-7.123413 -0.0067,0 -1.497192,4.330444 3.02124,0 -1.517334,-4.330444 z"
         style=""
         id="path4159" />
      <path
         d="m 34.334595,40.928408 q 0,0.05371 -0.02686,0.09399 -0.02685,0.04028 -0.09399,0.06714 -0.06714,0.02014 -0.17456,0.03357 -0.100708,0.02014 -0.268555,0.02014 -0.154419,0 -0.268555,-0.02014 -0.107422,-0.01343 -0.17456,-0.03357 -0.06042,-0.02685 -0.08728,-0.06714 -0.02685,-0.04028 -0.02685,-0.09399 l 0,-7.566528 -0.01343,0 -3.095093,7.600098 q -0.02014,0.047 -0.06042,0.08057 -0.03357,0.03357 -0.107422,0.06043 -0.06714,0.02014 -0.167847,0.02685 -0.09399,0.01343 -0.228271,0.01343 -0.140992,0 -0.2417,-0.01343 -0.100708,-0.01343 -0.167846,-0.03357 -0.06714,-0.02686 -0.107422,-0.06043 -0.03357,-0.03357 -0.047,-0.07385 l -2.960816,-7.600098 -0.0067,0 0,7.566528 q 0,0.05371 -0.02685,0.09399 -0.02686,0.04028 -0.09399,0.06714 -0.06714,0.02014 -0.174561,0.03357 -0.107422,0.02014 -0.275268,0.02014 -0.161133,0 -0.268555,-0.02014 -0.107422,-0.01343 -0.174561,-0.03357 -0.06042,-0.02685 -0.08728,-0.06714 -0.02014,-0.04028 -0.02014,-0.09399 l 0,-7.989502 q 0,-0.281982 0.147705,-0.402832 0.147705,-0.120849 0.328979,-0.120849 l 0.698242,0 q 0.214844,0 0.375977,0.04028 0.161133,0.04028 0.281982,0.127563 0.12085,0.08728 0.201416,0.221558 0.08057,0.134277 0.140992,0.315552 l 2.5177,6.290893 0.03357,0 2.618408,-6.270752 q 0.07385,-0.201416 0.161133,-0.342407 0.08728,-0.140991 0.187988,-0.221558 0.107422,-0.08728 0.234986,-0.120849 0.127563,-0.04028 0.29541,-0.04028 l 0.731811,0 q 0.100708,0 0.187989,0.03357 0.09399,0.02685 0.154419,0.09399 0.06714,0.06042 0.107422,0.161133 0.04028,0.09399 0.04028,0.234985 l 0,7.989502 z"
         style=""
         id="path4161" />
      <path
         d="m 41.988403,34.95978 q 0,0.651245 -0.214843,1.174927 -0.214844,0.523682 -0.617676,0.892944 -0.396118,0.369263 -0.980225,0.570679 -0.577392,0.201416 -1.383056,0.201416 l -0.986939,0 0,3.128662 q 0,0.05371 -0.03357,0.09399 -0.02686,0.04028 -0.09399,0.06714 -0.06042,0.02014 -0.174561,0.03357 -0.107422,0.02014 -0.275269,0.02014 -0.167846,0 -0.281982,-0.02014 -0.107422,-0.01343 -0.17456,-0.03357 -0.06714,-0.02685 -0.09399,-0.06714 -0.02685,-0.04028 -0.02685,-0.09399 l 0,-8.016357 q 0,-0.268555 0.140991,-0.382691 0.140991,-0.114135 0.315552,-0.114135 l 1.859741,0 q 0.281983,0 0.537109,0.02685 0.261841,0.02014 0.610962,0.100708 0.355835,0.07385 0.718384,0.288696 0.369263,0.20813 0.62439,0.516968 0.255127,0.308838 0.389404,0.718384 0.140991,0.402832 0.140991,0.892944 z m -1.21521,0.09399 q 0,-0.530395 -0.201416,-0.88623 -0.194702,-0.355835 -0.490112,-0.530396 -0.288696,-0.17456 -0.604248,-0.221557 -0.308838,-0.047 -0.604248,-0.047 l -1.067505,0 0,3.484497 1.040649,0 q 0.523682,0 0.866089,-0.134278 0.349121,-0.134277 0.584107,-0.369262 0.234985,-0.241699 0.355835,-0.570679 0.120849,-0.335693 0.120849,-0.725098 z"
         style=""
         id="path4163" />
      <path
         d="m 48.433716,38.665835 q 0,0.610962 -0.228272,1.087646 -0.221557,0.476685 -0.624389,0.812378 -0.396118,0.32898 -0.939942,0.496827 -0.537109,0.167846 -1.161499,0.167846 -0.436401,0 -0.812378,-0.07385 -0.369262,-0.07385 -0.664673,-0.181275 -0.288696,-0.107422 -0.490112,-0.221557 -0.194702,-0.114136 -0.275268,-0.194702 -0.07385,-0.08057 -0.114136,-0.201417 -0.03357,-0.127563 -0.03357,-0.335693 0,-0.147705 0.01343,-0.241699 0.01343,-0.100708 0.04028,-0.161133 0.02686,-0.06043 0.06714,-0.08057 0.04028,-0.02686 0.09399,-0.02686 0.09399,0 0.261841,0.114136 0.174561,0.114136 0.443115,0.248413 0.268555,0.134277 0.644532,0.255127 0.38269,0.114136 0.879516,0.114136 0.375977,0 0.684815,-0.100708 0.315551,-0.100708 0.537109,-0.281983 0.228272,-0.187988 0.349121,-0.456543 0.12085,-0.268554 0.12085,-0.610962 0,-0.369262 -0.167847,-0.631103 -0.167847,-0.261841 -0.443115,-0.456543 -0.275269,-0.201416 -0.631104,-0.362549 -0.349121,-0.167847 -0.718383,-0.335693 -0.369263,-0.174561 -0.718384,-0.382691 -0.349121,-0.20813 -0.62439,-0.490112 -0.275268,-0.281982 -0.449829,-0.657959 -0.167847,-0.38269 -0.167847,-0.913086 0,-0.543823 0.194702,-0.966797 0.201416,-0.429687 0.550538,-0.718384 0.355835,-0.288696 0.839233,-0.436401 0.490112,-0.154419 1.054077,-0.154419 0.288696,0 0.577393,0.05371 0.29541,0.047 0.550537,0.134277 0.261841,0.08057 0.463257,0.187989 0.201416,0.100708 0.26184,0.167846 0.06714,0.06042 0.08728,0.100708 0.02014,0.03357 0.03357,0.09399 0.01343,0.05371 0.02014,0.134277 0.0067,0.08057 0.0067,0.20813 0,0.120849 -0.01343,0.214844 -0.0067,0.09399 -0.02686,0.161132 -0.02014,0.06042 -0.06042,0.09399 -0.03357,0.02686 -0.08057,0.02686 -0.07385,0 -0.234985,-0.09399 -0.154419,-0.09399 -0.382691,-0.20813 -0.228271,-0.12085 -0.543823,-0.214844 -0.308838,-0.100708 -0.698242,-0.100708 -0.362549,0 -0.631104,0.100708 -0.268554,0.09399 -0.443115,0.255127 -0.17456,0.161133 -0.261841,0.382691 -0.08728,0.221557 -0.08728,0.46997 0,0.362549 0.167847,0.62439 0.167846,0.261841 0.443115,0.463257 0.281982,0.201416 0.637817,0.369262 0.355835,0.167847 0.725098,0.342408 0.369263,0.167846 0.725098,0.375976 0.355835,0.201416 0.631103,0.483399 0.281983,0.275268 0.449829,0.657959 0.174561,0.375976 0.174561,0.892944 z"
         style=""
         id="path4165" />
    </g>
  </g>
</svg>
