<?xml version="1.0" encoding="UTF-8" standalone="no"?>
<!-- Created with Inkscape (http://www.inkscape.org/) -->

<svg
   xmlns:dc="http://purl.org/dc/elements/1.1/"
   xmlns:cc="http://creativecommons.org/ns#"
   xmlns:rdf="http://www.w3.org/1999/02/22-rdf-syntax-ns#"
   xmlns:svg="http://www.w3.org/2000/svg"
   xmlns="http://www.w3.org/2000/svg"
   xmlns:sodipodi="http://sodipodi.sourceforge.net/DTD/sodipodi-0.dtd"
   xmlns:inkscape="http://www.inkscape.org/namespaces/inkscape"
   width="200"
   height="280"
   viewBox="0 0 200 280"
   id="svg2"
   version="1.1"
   inkscape:version="0.91 r13725"
   sodipodi:docname="blood.svg">
  <defs
     id="defs4" />
  <sodipodi:namedview
     id="base"
     pagecolor="#ffffff"
     bordercolor="#666666"
     borderopacity="1.0"
     inkscape:pageopacity="0.0"
     inkscape:pageshadow="2"
     inkscape:zoom="1.4"
     inkscape:cx="99.327431"
     inkscape:cy="197.73907"
     inkscape:document-units="px"
     inkscape:current-layer="layer1"
     showgrid="false"
     units="px"
     inkscape:window-width="1920"
     inkscape:window-height="998"
     inkscape:window-x="0"
     inkscape:window-y="0"
     inkscape:window-maximized="1" />
  <metadata
     id="metadata7">
    <rdf:RDF>
      <cc:Work
         rdf:about="">
        <dc:format>image/svg+xml</dc:format>
        <dc:type
           rdf:resource="http://purl.org/dc/dcmitype/StillImage" />
        <dc:title></dc:title>
      </cc:Work>
    </rdf:RDF>
  </metadata>
  <g
     inkscape:label="Ebene 1"
     inkscape:groupmode="layer"
     id="layer1"
     transform="translate(0,-772.36216)">
    <path
       style="fill:#000000"
       d="m 91.279836,1052.0104 c -42.951348,-3.4593 -79.73301,-35.695 -88.9962279,-77.99682 -1.99220476,-9.09769 -2.4734157,-14.03578 -2.22262829,-22.80814 0.24746916,-8.65637 1.18287689,-13.74201 4.45754749,-24.23486 1.9069306,-6.11027 2.1964355,-6.90137 5.7105527,-15.60451 8.156647,-20.20095 24.724248,-50.92123 41.954204,-77.79307 1.861305,-2.9029 4.345814,-6.79548 5.521127,-8.65018 5.988607,-9.45033 19.489156,-29.44763 27.72641,-41.06895 6.000126,-8.46513 7.602282,-9.90899 12.116313,-10.91918 5.087866,-1.13862 9.694456,0.94146 13.574016,6.12926 5.41151,7.23633 24.42354,35.20847 31.32366,46.08605 1.25739,1.98218 3.59149,5.64129 5.18689,8.13136 17.35573,27.08843 34.00583,57.94133 42.13923,78.08471 3.51412,8.70314 3.80362,9.49424 5.71055,15.60451 3.27467,10.49285 4.21008,15.57849 4.45754,24.23486 0.25079,8.77236 -0.23042,13.71045 -2.22263,22.80814 -7.47175,34.12082 -32.69416,62.06132 -66.04841,73.16622 -13.14851,4.3776 -26.3734,5.9593 -40.388144,4.8306 z m 7.601904,-17.0711 c 8.03823,-4.1164 10.47207,-14.991 4.94335,-22.0874 -6.739688,-8.6507 -19.90781,-7.3011 -24.996437,2.5618 -0.721208,1.3978 -1.076756,3.0589 -1.22236,5.7108 -0.182766,3.3286 -0.07046,4.0347 1.022003,6.4254 1.346587,2.9468 3.260314,5.1917 5.831204,6.8402 2.510141,1.6096 4.379736,2.0257 8.426682,1.8755 2.866012,-0.1063 4.181564,-0.3974 5.995558,-1.3263 z m -39.119764,-22.291 c 2.929426,-1.2958 5.149887,-3.4823 6.712734,-6.6098 1.166258,-2.3338 1.397618,-3.3384 1.393878,-6.05246 -0.0066,-4.79269 -1.315846,-7.26003 -6.604513,-12.44654 -8.528957,-8.36421 -13.510058,-17.62358 -15.449944,-28.71991 -0.989326,-5.65903 -0.767614,-17.17161 0.449843,-23.35833 1.127367,-5.7289 1.061515,-7.78632 -0.354979,-11.09087 -1.312824,-3.06269 -3.599953,-5.40543 -6.716513,-6.87983 -6.477823,-3.06456 -14.380842,-0.70289 -17.933391,5.35908 -2.822176,4.81568 -4.735721,20.65813 -3.879308,32.11727 1.321229,17.67861 7.516296,33.45771 18.019178,45.89559 2.948844,3.4921 10.218369,10.3852 11.91359,11.2966 3.611737,1.9416 8.712659,2.1421 12.449425,0.4892 z"
       id="path4147"
       inkscape:connector-curvature="0" />
  </g>
</svg>
