<?xml version="1.0" encoding="UTF-8" standalone="no"?>
<!-- Created with Inkscape (http://www.inkscape.org/) -->

<svg
   xmlns:dc="http://purl.org/dc/elements/1.1/"
   xmlns:cc="http://creativecommons.org/ns#"
   xmlns:rdf="http://www.w3.org/1999/02/22-rdf-syntax-ns#"
   xmlns:svg="http://www.w3.org/2000/svg"
   xmlns="http://www.w3.org/2000/svg"
   xmlns:sodipodi="http://sodipodi.sourceforge.net/DTD/sodipodi-0.dtd"
   xmlns:inkscape="http://www.inkscape.org/namespaces/inkscape"
   width="200"
   height="257"
   viewBox="0 0 200 257"
   id="svg2"
   version="1.1"
   inkscape:version="0.91 r13725"
   sodipodi:docname="fat.svg">
  <defs
     id="defs4" />
  <sodipodi:namedview
     id="base"
     pagecolor="#ffffff"
     bordercolor="#666666"
     borderopacity="1.0"
     inkscape:pageopacity="0.0"
     inkscape:pageshadow="2"
     inkscape:zoom="1.4"
     inkscape:cx="99.327431"
     inkscape:cy="197.73907"
     inkscape:document-units="px"
     inkscape:current-layer="layer1"
     showgrid="false"
     units="px"
     inkscape:window-width="1920"
     inkscape:window-height="998"
     inkscape:window-x="0"
     inkscape:window-y="0"
     inkscape:window-maximized="1" />
  <metadata
     id="metadata7">
    <rdf:RDF>
      <cc:Work
         rdf:about="">
        <dc:format>image/svg+xml</dc:format>
        <dc:type
           rdf:resource="http://purl.org/dc/dcmitype/StillImage" />
        <dc:title></dc:title>
      </cc:Work>
    </rdf:RDF>
  </metadata>
  <g
     inkscape:label="Ebene 1"
     inkscape:groupmode="layer"
     id="layer1"
     transform="translate(0,-795.36216)">
    <path
       style="fill:#000000"
       d="m 68.425534,1051.1145 c -7.932972,-2.3071 -10.564533,-6.9134 -14.199105,-24.8547 -1.833604,-9.0512 -3.078892,-16.7116 -2.767309,-17.0233 0.311585,-0.3115 3.218117,0.5701 6.458961,1.9593 5.885354,2.5228 20.562665,5.8341 32.108341,7.244 l 6.111918,0.7464 0,10.7596 c 0,9.8153 -0.305237,11.1222 -3.478401,14.8934 -5.81367,6.9089 -14.405044,9.1337 -24.234405,6.2753 z m 46.306446,-0.4412 c -2.15816,-0.9401 -5.48755,-3.5675 -7.39864,-5.8387 -3.16885,-3.7659 -3.47468,-5.0763 -3.47468,-14.8888 l 0,-10.7596 6.11192,-0.7686 c 12.59247,-1.5833 21.68045,-3.5718 29.80909,-6.5222 4.60707,-1.6723 8.58985,-2.8271 8.85061,-2.5664 0.26077,0.2608 -1.0261,7.8796 -2.8597,16.9308 -2.73187,13.4853 -3.95743,17.1076 -6.78742,20.0615 -5.58953,5.8342 -16.39602,7.7734 -24.25118,4.352 z m -32.965198,-36.7349 c -33.895364,-6.2084 -55.496369,-24.7006 -61.38907,-52.55396 -3.497716,-16.53287 -0.748562,-39.4339 6.866053,-57.19569 2.351313,-5.48465 4.056661,-9.97209 3.789666,-9.97209 -0.266995,0 -2.46625,3.93335 -4.887225,8.74078 -4.374655,8.6869 -8.903033,22.36899 -10.368491,31.32743 -0.538467,3.2917 -1.562463,4.89168 -3.445963,5.38422 -3.799671,0.99363 -8.3442236,-1.04206 -10.8442815,-4.85764 -2.5144949,-3.83759 -2.02446051,-7.62874 2.885083,-22.32066 C 11.44995,891.3115 22.228518,873.9458 36.299441,861.05235 c 8.336649,-7.63902 24.743855,-17.01776 29.770952,-17.01776 1.537726,0 4.086764,2.17272 6.415715,5.46856 7.253176,10.26441 23.603477,16.04178 35.952212,12.70371 7.2146,-1.95022 16.65382,-8.46805 19.92216,-13.75636 3.1474,-5.09259 5.19902,-5.382 13.3586,-1.8844 23.67907,10.15003 43.30553,34.20718 53.99091,66.17933 5.19703,15.55029 5.47967,18.99569 1.88653,22.99723 -1.66327,1.85231 -4.18216,3.46633 -5.59756,3.58669 -6.06047,0.51539 -6.95597,-0.051 -7.75307,-4.90269 -1.4969,-9.1113 -5.99818,-22.73813 -10.39509,-31.46922 -2.42098,-4.80743 -4.62023,-8.74078 -4.88723,-8.74078 -0.26699,0 1.43836,4.48744 3.78967,9.97209 7.61529,17.76335 10.16694,38.57021 6.91408,56.37934 -4.45978,24.41686 -22.80185,42.94151 -50.29476,50.79531 -10.5603,3.0168 -37.298045,4.4631 -47.605778,2.575 z M 88.877726,859.35816 C 82.52789,857.5183 72.222084,847.44072 69.551814,840.46024 c -6.770611,-17.69936 2.229964,-37.30411 19.8888,-43.32107 11.274306,-3.84155 22.872006,-1.52084 32.168996,6.43703 10.31023,8.82518 13.87559,23.70874 8.83558,36.88404 -2.79563,7.30816 -13.04177,17.0614 -19.93501,18.97598 -5.66803,1.57428 -16.059194,1.53679 -21.632454,-0.0781 z"
       id="path4188"
       inkscape:connector-curvature="0" />
  </g>
</svg>
