<?xml version="1.0" encoding="UTF-8" standalone="no"?>
<!-- Created with Inkscape (http://www.inkscape.org/) -->

<svg
   xmlns:dc="http://purl.org/dc/elements/1.1/"
   xmlns:cc="http://creativecommons.org/ns#"
   xmlns:rdf="http://www.w3.org/1999/02/22-rdf-syntax-ns#"
   xmlns:svg="http://www.w3.org/2000/svg"
   xmlns="http://www.w3.org/2000/svg"
   xmlns:sodipodi="http://sodipodi.sourceforge.net/DTD/sodipodi-0.dtd"
   xmlns:inkscape="http://www.inkscape.org/namespaces/inkscape"
   id="svg2"
   version="1.1"
   inkscape:version="0.91 r13725"
   xml:space="preserve"
   width="636"
   height="444"
   viewBox="0 0 635.99997 444"
   sodipodi:docname="gears.svg"><metadata
     id="metadata8"><rdf:RDF><cc:Work
         rdf:about=""><dc:format>image/svg+xml</dc:format><dc:type
           rdf:resource="http://purl.org/dc/dcmitype/StillImage" /><dc:title></dc:title></cc:Work></rdf:RDF></metadata><defs
     id="defs6"><clipPath
       clipPathUnits="userSpaceOnUse"
       id="clipPath18"><path
         d="m 0,595.28 841.89,0 L 841.89,0 0,0 0,595.28 Z"
         id="path20"
         inkscape:connector-curvature="0" /></clipPath></defs><sodipodi:namedview
     pagecolor="#ffffff"
     bordercolor="#666666"
     borderopacity="1"
     objecttolerance="10"
     gridtolerance="10"
     guidetolerance="10"
     inkscape:pageopacity="0"
     inkscape:pageshadow="2"
     inkscape:window-width="1920"
     inkscape:window-height="1006"
     id="namedview4"
     showgrid="false"
     inkscape:zoom="0.31716168"
     inkscape:cx="523.02831"
     inkscape:cy="372.04999"
     inkscape:window-x="0"
     inkscape:window-y="0"
     inkscape:window-maximized="1"
     inkscape:current-layer="g10" /><g
     id="g10"
     inkscape:groupmode="layer"
     inkscape:label="functional search"
     transform="matrix(1.25,0,0,-1.25,0,444.00002)"><g
       id="g14"
       transform="translate(-166.7325,-166.81657)"><g
         id="g16"
         clip-path="url(#clipPath18)"><g
           id="g22"
           transform="translate(578.4872,385.3823)"><path
             d="M 0,0 C -20.991,0.011 -37.998,17.037 -37.987,38.027 -37.975,59.018 -20.95,76.025 0.041,76.014 21.031,76.002 38.038,58.977 38.027,37.987 38.016,16.996 20.991,-0.011 0,0 M 89.875,77.371 74.459,76.953 c -3.812,7.271 -8.653,13.914 -14.338,19.736 l 5.173,14.517 c -4.835,4.315 -10.101,8.158 -15.725,11.457 l -12.215,-9.391 c -7.209,3.583 -15.005,6.155 -23.206,7.544 L 9.8,135.603 c -3.2,0.317 -6.444,0.484 -9.727,0.485 -3.284,0.002 -6.528,-0.161 -9.728,-0.474 l -4.364,-14.783 c -8.203,-1.38 -16.001,-3.944 -23.214,-7.519 l -12.206,9.404 c -5.627,-3.293 -10.896,-7.13 -15.737,-11.44 l 5.159,-14.523 C -65.709,90.937 -70.557,84.3 -74.377,77.032 l -15.415,0.435 c -2.59,-5.885 -4.617,-12.072 -6.016,-18.494 l 12.713,-8.719 c -0.583,-3.985 -0.898,-8.056 -0.9,-12.202 -0.002,-4.146 0.309,-8.218 0.887,-12.203 L -95.83,17.143 c 1.392,-6.424 3.413,-12.613 5.996,-18.501 l 15.415,0.419 c 3.813,-7.272 8.654,-13.914 14.339,-19.736 l -5.174,-14.517 c 4.836,-4.316 10.101,-8.159 15.725,-11.458 l 12.215,9.392 c 7.21,-3.583 15.005,-6.155 23.207,-7.545 l 4.348,-14.787 c 3.2,-0.317 6.444,-0.483 9.727,-0.485 3.283,-10e-4 6.527,0.161 9.728,0.475 l 4.363,14.782 c 8.204,1.381 16.002,3.945 23.215,7.52 l 12.205,-9.404 c 5.628,3.292 10.897,7.13 15.737,11.44 l -5.158,14.523 c 5.691,5.815 10.54,12.453 14.36,19.72 l 15.415,-0.435 c 2.589,5.885 4.616,12.072 6.015,18.495 L 83.136,25.76 c 0.582,3.985 0.897,8.056 0.899,12.202 0.003,4.146 -0.308,8.218 -0.886,12.203 L 95.87,58.87 c -1.392,6.425 -3.412,12.614 -5.995,18.501"
             style="fill:#ffffff;fill-opacity:1;fill-rule:nonzero;stroke:none"
             id="path24"
             inkscape:connector-curvature="0" /></g><g
           id="g26"
           transform="translate(442.8384,234.7766)"><path
             d="m 0,0 c -23.41,-1.264 -43.413,16.689 -44.677,40.1 -1.264,23.41 16.689,43.412 40.1,44.676 C 18.833,86.04 38.836,68.087 40.099,44.677 41.363,21.266 23.41,1.264 0,0 M 95.527,91.754 78.361,90.35 c -4.694,7.877 -10.497,14.991 -17.192,21.138 l 4.888,16.505 c -5.656,4.518 -11.761,8.484 -18.234,11.821 L 34.771,128.597 c -8.258,3.558 -17.108,5.952 -26.34,7.003 l -5.748,16.227 c -3.588,0.159 -7.216,0.147 -10.878,-0.051 -3.661,-0.197 -7.27,-0.576 -10.82,-1.12 l -3.967,-16.752 c -9.065,-2.039 -17.606,-5.372 -25.433,-9.798 l -14.184,9.746 c -6.076,-4.015 -11.719,-8.615 -16.855,-13.716 l 6.636,-15.883 C -78.811,97.421 -83.815,89.724 -87.633,81.387 l -17.218,-0.452 c -2.53,-6.721 -4.415,-13.744 -5.584,-20.992 l 14.707,-8.951 c -0.407,-4.479 -0.51,-9.039 -0.261,-13.663 0.25,-4.624 0.844,-9.146 1.731,-13.555 l -13.658,-10.483 c 1.943,-7.08 4.572,-13.859 7.811,-20.268 l 17.167,1.404 c 4.694,-7.878 10.497,-14.991 17.191,-21.138 l -4.887,-16.505 c 5.655,-4.519 11.761,-8.485 18.234,-11.822 l 13.052,11.217 c 8.258,-3.558 17.108,-5.952 26.34,-7.003 l 5.748,-16.227 c 3.588,-0.158 7.216,-0.147 10.877,0.051 3.662,0.198 7.27,0.577 10.82,1.121 l 3.968,16.751 c 9.065,2.039 17.606,5.372 25.433,9.798 l 14.183,-9.746 c 6.076,4.015 11.719,8.615 16.856,13.716 l -6.636,15.883 c 5.993,6.832 10.997,14.529 14.815,22.866 l 17.218,0.453 c 2.53,6.72 4.414,13.743 5.584,20.992 l -14.707,8.95 c 0.406,4.48 0.51,9.04 0.26,13.663 -0.249,4.624 -0.843,9.146 -1.73,13.556 l 13.658,10.482 c -1.943,7.08 -4.573,13.86 -7.812,20.269"
             style="fill:#f7e977;fill-opacity:1;fill-rule:nonzero;stroke:none"
             id="path28"
             inkscape:connector-curvature="0" /></g><g
           id="g30"
           transform="translate(251.9615,268.8912)"><path
             d="M 0,0 C -18.493,0.01 -33.477,15.01 -33.467,33.503 -33.457,51.996 -18.458,66.98 0.036,66.97 18.529,66.96 33.513,51.961 33.503,33.467 33.493,14.974 18.493,-0.01 0,0 M 79.182,68.167 65.601,67.798 c -3.359,6.406 -7.624,12.259 -12.633,17.388 l 4.558,12.79 c -4.26,3.802 -8.899,7.188 -13.854,10.094 L 32.91,99.796 c -6.351,3.157 -13.22,5.423 -20.446,6.647 l -3.83,13.028 c -2.819,0.279 -5.678,0.425 -8.57,0.427 -2.893,0.001 -5.751,-0.142 -8.571,-0.418 l -3.844,-13.024 c -7.227,-1.216 -14.098,-3.475 -20.453,-6.625 l -10.753,8.286 c -4.958,-2.902 -9.6,-6.282 -13.865,-10.08 l 4.545,-12.795 c -5.014,-5.124 -9.286,-10.971 -12.651,-17.374 l -13.582,0.383 c -2.281,-5.185 -4.067,-10.636 -5.299,-16.294 l 11.199,-7.682 c -0.512,-3.511 -0.79,-7.098 -0.792,-10.75 -0.002,-3.653 0.272,-7.24 0.781,-10.752 l -11.208,-7.669 c 1.226,-5.66 3.006,-11.113 5.282,-16.3 l 13.582,0.368 c 3.359,-6.406 7.624,-12.258 12.633,-17.387 l -4.559,-12.791 c 4.261,-3.801 8.899,-7.187 13.855,-10.094 l 10.762,8.275 c 6.351,-3.157 13.219,-5.423 20.445,-6.647 L -8.598,-52.5 c 2.819,-0.28 5.677,-0.426 8.57,-0.428 2.892,-0.001 5.751,0.142 8.57,0.418 l 3.845,13.024 c 7.227,1.217 14.097,3.475 20.452,6.625 l 10.753,-8.285 c 4.959,2.901 9.601,6.282 13.866,10.079 l -4.545,12.795 c 5.014,5.124 9.286,10.972 12.651,17.375 l 13.581,-0.384 c 2.282,5.185 4.068,10.636 5.3,16.295 l -11.2,7.681 c 0.513,3.511 0.791,7.098 0.793,10.751 0.002,3.652 -0.272,7.24 -0.781,10.751 l 11.208,7.67 c -1.227,5.66 -3.007,11.112 -5.283,16.3"
             style="fill:#ffffff;fill-opacity:1;fill-rule:nonzero;stroke:none"
             id="path32"
             inkscape:connector-curvature="0" /></g><g
           id="g34"
           transform="translate(199.7994,293.8877)"><path
             d="m 0,0 c 0,0 -0.122,0.446 -0.35,1.281 -0.222,0.838 -0.602,2.049 -0.869,3.655 -0.347,1.591 -0.591,3.552 -0.758,5.814 -0.119,2.264 -0.16,4.843 0.17,7.633 0.245,2.802 0.896,5.797 1.816,8.898 0.923,3.107 2.319,6.251 4.015,9.369 1.689,3.132 3.892,6.11 6.356,8.933 1.219,1.432 2.597,2.729 3.967,4.054 1.447,1.233 2.885,2.504 4.458,3.602 3.095,2.252 6.416,4.239 9.887,5.761 l 1.289,0.594 1.317,0.51 c 0.879,0.329 1.744,0.698 2.627,0.987 1.776,0.548 3.523,1.146 5.293,1.52 3.512,0.91 6.998,1.327 10.306,1.649 1.656,0.085 3.273,0.162 4.837,0.196 1.559,-0.038 3.073,-0.046 4.522,-0.112 1.444,-0.12 2.829,-0.234 4.146,-0.343 1.309,-0.162 2.545,-0.357 3.712,-0.52 1.173,-0.143 2.244,-0.384 3.242,-0.586 0.998,-0.204 1.914,-0.392 2.742,-0.562 3.264,-0.858 5.129,-1.349 5.129,-1.349 l -2.44,-7.405 c 0,0 -1.675,0.562 -4.608,1.544 -0.744,0.204 -1.569,0.429 -2.466,0.675 -0.898,0.245 -1.867,0.535 -2.922,0.731 -1.052,0.217 -2.169,0.472 -3.354,0.7 -1.192,0.178 -2.445,0.366 -3.753,0.562 -1.313,0.146 -2.685,0.241 -4.107,0.374 -1.421,0.061 -2.894,0.087 -4.411,0.113 -3.02,-0.1 -6.229,-0.261 -9.48,-0.883 -1.643,-0.231 -3.264,-0.677 -4.927,-1.066 -0.827,-0.211 -1.634,-0.499 -2.462,-0.746 l -1.24,-0.385 -1.216,-0.469 C 27.186,53.545 24.011,51.917 21.004,50.02 19.476,49.101 18.07,48.008 16.64,46.949 15.287,45.799 13.913,44.672 12.686,43.406 10.204,40.914 7.932,38.243 6.139,35.38 4.337,32.53 2.8,29.616 1.718,26.693 0.641,23.776 -0.184,20.92 -0.6,18.217 -1.101,15.525 -1.227,13.004 -1.258,10.772 -1.24,8.541 -1.128,6.583 -0.889,4.995 -0.731,3.392 -0.431,2.15 -0.264,1.302 -0.092,0.453 0,0 0,0"
             style="fill:#1d1d1b;fill-opacity:1;fill-rule:nonzero;stroke:none"
             id="path36"
             inkscape:connector-curvature="0" /></g><g
           id="g38"
           transform="translate(265.3298,344.4274)"><path
             d="M 0,0 7.866,7.8 7.712,18.877 26.23,0.298 0,0 Z"
             style="fill:#1d1d1b;fill-opacity:1;fill-rule:nonzero;stroke:none"
             id="path40"
             inkscape:connector-curvature="0" /></g><g
           id="g42"
           transform="translate(482.2703,235.2033)"><path
             d="m 0,0 c 0,0 0.407,0.218 1.17,0.628 0.76,0.414 1.907,0.976 3.241,1.878 1.375,0.831 2.953,1.995 4.681,3.406 1.698,1.45 3.557,3.157 5.308,5.262 1.814,2.046 3.485,4.505 5.041,7.197 1.558,2.699 2.819,5.744 3.861,8.951 1.057,3.208 1.661,6.662 1.993,10.163 0.191,1.753 0.18,3.53 0.201,5.305 -0.099,1.777 -0.156,3.557 -0.425,5.32 -0.461,3.526 -1.236,7.009 -2.421,10.29 l -0.416,1.235 -0.496,1.201 c -0.338,0.794 -0.632,1.6 -0.998,2.37 -0.763,1.528 -1.455,3.06 -2.327,4.472 -1.598,2.898 -3.523,5.47 -5.376,7.858 -0.989,1.15 -1.949,2.267 -2.904,3.322 -1.011,1.009 -1.961,2.004 -2.911,2.921 -0.986,0.881 -1.931,1.725 -2.83,2.529 -0.932,0.766 -1.842,1.463 -2.68,2.133 -0.825,0.687 -1.667,1.247 -2.429,1.782 -0.763,0.533 -1.463,1.023 -2.095,1.466 -2.629,1.629 -4.131,2.56 -4.131,2.56 l 4.139,6.607 c 0,0 1.569,-1.122 4.314,-3.085 0.659,-0.529 1.389,-1.114 2.184,-1.751 0.793,-0.638 1.663,-1.309 2.521,-2.12 0.871,-0.794 1.811,-1.62 2.772,-2.525 0.925,-0.943 1.897,-1.935 2.912,-2.971 0.976,-1.072 1.949,-2.232 2.974,-3.407 0.973,-1.225 1.946,-2.519 2.938,-3.847 1.866,-2.751 3.771,-5.7 5.314,-8.983 0.843,-1.601 1.499,-3.328 2.212,-5.043 0.342,-0.865 0.61,-1.765 0.918,-2.652 l 0.449,-1.339 0.366,-1.372 c 1.046,-3.643 1.638,-7.467 1.883,-11.287 0.16,-1.911 0.1,-3.829 0.076,-5.73 -0.144,-1.901 -0.263,-3.79 -0.586,-5.642 C 27.845,33.402 26.961,29.806 25.63,26.506 24.314,23.209 22.787,20.127 20.985,17.432 19.187,14.743 17.298,12.33 15.299,10.352 13.363,8.316 11.352,6.7 9.535,5.345 7.687,4.029 6.022,2.964 4.576,2.215 3.17,1.395 1.996,0.914 1.209,0.55 0.421,0.191 0,0 0,0"
             style="fill:#1d1d1b;fill-opacity:1;fill-rule:nonzero;stroke:none"
             id="path44"
             inkscape:connector-curvature="0" /></g><g
           id="g46"
           transform="translate(488.9003,335.8968)"><path
             d="M 0,0 -8.621,-6.957 -9.599,-17.991 -26.124,2.381 0,0 Z"
             style="fill:#1d1d1b;fill-opacity:1;fill-rule:nonzero;stroke:none"
             id="path48"
             inkscape:connector-curvature="0" /></g><g
           id="g50"
           transform="translate(524.9282,420.3873)"><path
             d="m 0,0 c 0,0 -0.122,0.446 -0.35,1.281 -0.222,0.838 -0.602,2.049 -0.869,3.655 -0.347,1.591 -0.591,3.552 -0.758,5.814 -0.119,2.264 -0.16,4.843 0.17,7.633 0.245,2.802 0.896,5.797 1.816,8.898 0.923,3.107 2.319,6.251 4.015,9.369 1.689,3.132 3.891,6.11 6.356,8.933 1.219,1.432 2.597,2.729 3.967,4.054 1.447,1.233 2.885,2.504 4.458,3.602 3.095,2.252 6.416,4.239 9.887,5.761 l 1.289,0.594 1.317,0.51 c 0.879,0.329 1.744,0.698 2.627,0.987 1.776,0.548 3.523,1.146 5.294,1.52 3.511,0.91 6.997,1.327 10.305,1.649 1.656,0.085 3.273,0.162 4.837,0.196 1.559,-0.038 3.073,-0.046 4.522,-0.112 1.444,-0.12 2.829,-0.234 4.146,-0.343 1.309,-0.162 2.545,-0.357 3.712,-0.52 1.173,-0.143 2.244,-0.384 3.242,-0.586 0.998,-0.204 1.914,-0.392 2.742,-0.562 3.264,-0.858 5.129,-1.349 5.129,-1.349 l -2.44,-7.405 c 0,0 -1.675,0.562 -4.608,1.544 -0.744,0.204 -1.569,0.429 -2.466,0.675 -0.898,0.245 -1.867,0.535 -2.922,0.731 -1.052,0.217 -2.169,0.472 -3.354,0.7 -1.192,0.178 -2.445,0.366 -3.753,0.562 -1.313,0.146 -2.685,0.241 -4.107,0.374 -1.421,0.061 -2.894,0.087 -4.411,0.113 -3.02,-0.1 -6.229,-0.261 -9.48,-0.883 -1.643,-0.231 -3.264,-0.677 -4.927,-1.066 -0.827,-0.211 -1.634,-0.499 -2.462,-0.746 l -1.24,-0.385 -1.216,-0.469 C 27.186,53.545 24.011,51.917 21.004,50.02 19.476,49.101 18.07,48.008 16.639,46.949 15.287,45.799 13.913,44.672 12.686,43.406 10.204,40.914 7.932,38.243 6.139,35.38 4.337,32.53 2.8,29.616 1.718,26.693 0.641,23.776 -0.184,20.92 -0.6,18.217 -1.101,15.525 -1.227,13.004 -1.258,10.772 -1.24,8.541 -1.128,6.583 -0.889,4.995 -0.731,3.392 -0.431,2.15 -0.264,1.302 -0.092,0.453 0,0 0,0"
             style="fill:#1d1d1b;fill-opacity:1;fill-rule:nonzero;stroke:none"
             id="path52"
             inkscape:connector-curvature="0" /></g><g
           id="g54"
           transform="translate(590.4585,470.927)"><path
             d="M 0,0 7.866,7.8 7.712,18.877 26.23,0.298 0,0 Z"
             style="fill:#1d1d1b;fill-opacity:1;fill-rule:nonzero;stroke:none"
             id="path56"
             inkscape:connector-curvature="0" /></g></g></g></g></svg>