<?xml version="1.0" encoding="UTF-8" standalone="no"?>
<!-- Created with Inkscape (http://www.inkscape.org/) -->

<svg
   xmlns:dc="http://purl.org/dc/elements/1.1/"
   xmlns:cc="http://creativecommons.org/ns#"
   xmlns:rdf="http://www.w3.org/1999/02/22-rdf-syntax-ns#"
   xmlns:svg="http://www.w3.org/2000/svg"
   xmlns="http://www.w3.org/2000/svg"
   xmlns:sodipodi="http://sodipodi.sourceforge.net/DTD/sodipodi-0.dtd"
   xmlns:inkscape="http://www.inkscape.org/namespaces/inkscape"
   width="79"
   height="57"
   viewBox="0 0 79.000002 57.000001"
   id="svg4394"
   version="1.1"
   inkscape:version="0.91 r13725"
   sodipodi:docname="liver.svg">
  <defs
     id="defs4396" />
  <sodipodi:namedview
     id="base"
     pagecolor="#ffffff"
     bordercolor="#666666"
     borderopacity="1.0"
     inkscape:pageopacity="0.0"
     inkscape:pageshadow="2"
     inkscape:zoom="1.979899"
     inkscape:cx="-130.61225"
     inkscape:cy="-7.4331843"
     inkscape:document-units="px"
     inkscape:current-layer="layer1"
     showgrid="false"
     units="px"
     inkscape:window-width="1920"
     inkscape:window-height="998"
     inkscape:window-x="0"
     inkscape:window-y="0"
     inkscape:window-maximized="1" />
  <metadata
     id="metadata4399">
    <rdf:RDF>
      <cc:Work
         rdf:about="">
        <dc:format>image/svg+xml</dc:format>
        <dc:type
           rdf:resource="http://purl.org/dc/dcmitype/StillImage" />
        <dc:title></dc:title>
      </cc:Work>
    </rdf:RDF>
  </metadata>
  <g
     inkscape:label="Ebene 1"
     inkscape:groupmode="layer"
     id="layer1"
     transform="translate(0,-995.36216)">
    <path
       inkscape:connector-curvature="0"
       style="fill:#000000"
       d="M 10.734302,1048.9582 C 9.2404734,1047.0861 6.2121034,1042.0443 4.0045834,1037.7541 0.53971344,1031.0205 -0.00781656,1029.158 8.3441744e-5,1024.1329 0.02428344,1008.7477 13.364082,997.01507 30.928422,996.93069 c 7.61015,-0.0366 11.64081,1.40044 14.68284,5.23461 3.82751,4.8243 5.24956,2.6466 1.75476,-2.68716 -0.79068,-1.20672 -1.4376,-2.41983 -1.4376,-2.69579 0,-1.36665 13.45463,-0.3516 18.011711,1.35885 5.57987,2.0943 14.01207,7.3829 14.57661,9.1423 0.46055,1.4353 -22.986351,13.1637 -27.881021,13.9464 -2.66195,0.4257 -3.82499,1.2574 -5.11949,3.6612 -2.15175,3.9955 -16.37014,16.8797 -25.2123,22.8463 l -6.85358,4.6248 -2.71605,-3.404 z"
       id="path3548" />
  </g>
</svg>
