<?xml version="1.0" encoding="UTF-8" standalone="no"?>
<!-- Created with Inkscape (http://www.inkscape.org/) -->

<svg
   xmlns:dc="http://purl.org/dc/elements/1.1/"
   xmlns:cc="http://creativecommons.org/ns#"
   xmlns:rdf="http://www.w3.org/1999/02/22-rdf-syntax-ns#"
   xmlns:svg="http://www.w3.org/2000/svg"
   xmlns="http://www.w3.org/2000/svg"
   xmlns:sodipodi="http://sodipodi.sourceforge.net/DTD/sodipodi-0.dtd"
   xmlns:inkscape="http://www.inkscape.org/namespaces/inkscape"
   width="79"
   height="61"
   viewBox="0 0 79.000001 61.000001"
   id="svg4394"
   version="1.1"
   inkscape:version="0.91 r13725"
   sodipodi:docname="lung.svg">
  <defs
     id="defs4396" />
  <sodipodi:namedview
     id="base"
     pagecolor="#ffffff"
     bordercolor="#666666"
     borderopacity="1.0"
     inkscape:pageopacity="0.0"
     inkscape:pageshadow="2"
     inkscape:zoom="0.49497475"
     inkscape:cx="-530.81738"
     inkscape:cy="321.73913"
     inkscape:document-units="px"
     inkscape:current-layer="layer1"
     showgrid="false"
     units="px"
     inkscape:window-width="1920"
     inkscape:window-height="998"
     inkscape:window-x="0"
     inkscape:window-y="0"
     inkscape:window-maximized="1" />
  <metadata
     id="metadata4399">
    <rdf:RDF>
      <cc:Work
         rdf:about="">
        <dc:format>image/svg+xml</dc:format>
        <dc:type
           rdf:resource="http://purl.org/dc/dcmitype/StillImage" />
        <dc:title></dc:title>
      </cc:Work>
    </rdf:RDF>
  </metadata>
  <g
     inkscape:label="Ebene 1"
     inkscape:groupmode="layer"
     id="layer1"
     transform="translate(0,-991.36216)">
    <path
       inkscape:connector-curvature="0"
       style="fill:#000000"
       d="m 0.24363104,1051.0432 c -1.43403004,-2.3204 3.80895996,-31.0319 6.68251296,-36.5947 5.31233,-10.2838 18.50483,-17.39295 22.27848,-12.0053 1.23492,1.7631 1.07287,2.3552 -1.82183,6.6567 -5.74746,8.5407 -3.7071,9.2137 4.56866,1.5069 l 4.44151,-4.1361 0,-7.20012 0,-7.20011 3.28125,0 3.28125,0 0,7.46221 0,7.46222 3.73005,3.4512 c 2.05153,1.8981 4.58278,4.0484 5.625,4.7784 1.666,1.167 1.89495,1.1454 1.89495,-0.1787 0,-1.9858 -2.31182,-6.3927 -4.15693,-7.924 -5.02795,-4.1729 3.12131,-8.65192 9.62362,-5.2894 3.1605,1.6343 10.71988,9.6116 12.5975,13.2938 2.29223,4.4954 5.55476,19.976 6.08795,28.8871 l 0.49955,8.3489 -7.40397,-0.5599 c -6.06322,-0.4584 -8.67129,-1.2063 -14.40251,-4.1301 -6.39365,-3.2618 -7.09489,-3.9057 -8.11334,-7.4502 -0.61315,-2.1339 -1.4193,-7.1293 -1.79146,-11.1008 l -0.67666,-7.2209 3.01775,1.5605 c 3.35568,1.7353 4.702,1.2287 3.19106,-1.2008 -1.26296,-2.0308 -11.66556,-9.4896 -13.29443,-9.5323 -0.67546,-0.018 -3.05283,1.3389 -5.28304,3.0147 -2.23021,1.6758 -4.91647,3.6453 -5.96947,4.3766 -1.68518,1.1706 -3.49664,4.7641 -2.40149,4.7641 0.2261,0 1.9033,-0.6235 3.7271,-1.3855 l 3.31601,-1.3855 -0.5944,5.3699 c -1.41459,12.7794 -2.23325,15.1188 -6.3292,18.0859 -6.84184,4.9562 -23.698563,8.5607 -25.60547296,5.4753 z"
       id="path3546" />
  </g>
</svg>
