<?xml version="1.0" encoding="UTF-8" standalone="no"?>
<!-- Created with Inkscape (http://www.inkscape.org/) -->

<svg
   xmlns:dc="http://purl.org/dc/elements/1.1/"
   xmlns:cc="http://creativecommons.org/ns#"
   xmlns:rdf="http://www.w3.org/1999/02/22-rdf-syntax-ns#"
   xmlns:svg="http://www.w3.org/2000/svg"
   xmlns="http://www.w3.org/2000/svg"
   xmlns:sodipodi="http://sodipodi.sourceforge.net/DTD/sodipodi-0.dtd"
   xmlns:inkscape="http://www.inkscape.org/namespaces/inkscape"
   id="svg2"
   version="1.1"
   inkscape:version="0.91 r13725"
   xml:space="preserve"
   width="311"
   height="337"
   viewBox="0 0 310.99999 337"
   sodipodi:docname="statistics.svg"><metadata
     id="metadata8"><rdf:RDF><cc:Work
         rdf:about=""><dc:format>image/svg+xml</dc:format><dc:type
           rdf:resource="http://purl.org/dc/dcmitype/StillImage" /><dc:title></dc:title></cc:Work></rdf:RDF></metadata><defs
     id="defs6"><clipPath
       clipPathUnits="userSpaceOnUse"
       id="clipPath18"><path
         d="m 0,595.28 841.89,0 L 841.89,0 0,0 0,595.28 Z"
         id="path20"
         inkscape:connector-curvature="0" /></clipPath></defs><sodipodi:namedview
     pagecolor="#ffffff"
     bordercolor="#666666"
     borderopacity="1"
     objecttolerance="10"
     gridtolerance="10"
     guidetolerance="10"
     inkscape:pageopacity="0"
     inkscape:pageshadow="2"
     inkscape:window-width="1920"
     inkscape:window-height="1006"
     id="namedview4"
     showgrid="false"
     inkscape:zoom="0.8970687"
     inkscape:cx="268.34779"
     inkscape:cy="200.63939"
     inkscape:window-x="0"
     inkscape:window-y="0"
     inkscape:window-maximized="1"
     inkscape:current-layer="g10" /><g
     id="g10"
     inkscape:groupmode="layer"
     inkscape:label="Statistics"
     transform="matrix(1.25,0,0,-1.25,0,337.00002)"><g
       id="g4298"
       transform="matrix(1.6930418,0,0,1.6930418,-295.74514,-558.27665)"><g
         transform="translate(290.80941,433.04718)"
         id="g30"><path
           inkscape:connector-curvature="0"
           id="path32"
           style="fill:#ffffff;fill-opacity:1;fill-rule:nonzero;stroke:none"
           d="m 0,0 2.727,14.77 c 0.216,1.17 -0.808,2.194 -1.979,1.978 l -14.769,-2.727 c -1.345,-0.248 -1.86,-1.904 -0.892,-2.871 l 3.191,-3.192 -13.312,-13.247 c -0.807,0.281 -1.67,0.441 -2.573,0.441 -0.978,0 -1.911,-0.187 -2.774,-0.515 L -44.676,8.392 c 0.039,0.316 0.065,0.635 0.065,0.961 0,4.822 -4.351,8.628 -9.342,7.704 -2.933,-0.543 -5.35,-2.8 -6.087,-5.691 -0.32,-1.257 -0.327,-2.477 -0.092,-3.61 l -27.821,-28.172 5.288,-5.221 27.349,27.695 c 0.888,-0.349 1.851,-0.547 2.863,-0.547 1.219,0 2.368,0.286 3.398,0.783 l 13.798,-13.277 c -0.313,-1.41 -0.281,-2.949 0.382,-4.573 1.077,-2.641 3.502,-4.596 6.335,-4.923 4.749,-0.548 8.776,3.15 8.776,7.788 0,0.664 -0.091,1.304 -0.246,1.919 L -6.468,2.704 -2.871,-0.892 C -1.904,-1.86 -0.248,-1.345 0,0" /></g><g
         transform="translate(284.33581,430.94648)"
         id="g34"><path
           inkscape:connector-curvature="0"
           id="path36"
           style="fill:#ffffff;fill-opacity:1;fill-rule:nonzero;stroke:none"
           d="m 0,0 -9.914,-9.864 c 0.017,-0.243 0.025,-0.486 0.025,-0.726 0,-5.075 -3.381,-9.37 -8.007,-10.764 l 0,-41.12 19.536,0 0,60.913 C 1.491,-1.442 1.335,-1.335 1.198,-1.198 L 0,0 Z" /></g><g
         transform="translate(252.78501,416.20628)"
         id="g38"><path
           inkscape:connector-curvature="0"
           id="path40"
           style="fill:#f7e879;fill-opacity:1;fill-rule:nonzero;stroke:none"
           d="m 0,0 c -0.608,1.489 -0.881,3.025 -0.818,4.587 l -11.073,10.654 c -0.801,-0.187 -1.62,-0.279 -2.451,-0.286 l 0,-62.689 19.536,0 0,41.959 C 2.899,-4.548 1.034,-2.535 0,0" /></g><g
         transform="translate(210.44661,368.47218)"
         id="g42"><path
           inkscape:connector-curvature="0"
           id="path44"
           style="fill:#ffffff;fill-opacity:1;fill-rule:nonzero;stroke:none"
           d="m 0,0 19.536,0 0,56.144 L 0,36.428 0,0 Z" /></g><path
         inkscape:connector-curvature="0"
         id="path24-6"
         d="m 248.2115,488.49437 c -5.82576,0 -11.65189,-1.50682 -16.87189,-4.52032 l -39.31093,-22.69688 c -10.44,-6.028 -16.87344,-17.16687 -16.87344,-29.22187 l 0,-45.39531 c 0,-12.055 6.43344,-23.19488 16.87344,-29.22188 l 39.31093,-22.69687 c 10.44,-6.028 23.30376,-6.028 33.74376,0 l 39.31094,22.69687 c 10.44,6.027 16.87187,17.16688 16.87187,29.22188 l 0,45.39531 c 0,12.055 -6.43187,23.19387 -16.87187,29.22187 l -39.31093,22.69688 c -5.22,3.0135 -11.04613,4.52032 -16.87188,4.52032 z m 0,-8.27032 c 5.21674,0 10.43331,-1.34944 15.1078,-4.04844 l 35.20314,-20.325 c 9.349,-5.398 15.10938,-15.37375 15.10938,-26.16875 l 0,-40.65 c 0,-10.795 -5.76038,-20.76918 -15.10938,-26.16718 l -35.20313,-20.325 c -9.349,-5.397 -20.86662,-5.397 -30.21562,0 l -35.20469,20.325 c -9.349,5.398 -15.10783,15.37218 -15.10783,26.16718 l 0,40.65 c 0,10.795 5.75883,20.77075 15.10783,26.16875 l 35.20469,20.325 c 4.67449,2.699 9.89106,4.04844 15.10781,4.04844 z"
         style="fill:#ffffff;fill-opacity:1;fill-rule:nonzero;stroke:none" /></g></g></svg>