<?xml version="1.0" encoding="UTF-8" standalone="no"?>
<!-- Generator: Adobe Illustrator 19.0.0, SVG Export Plug-In . SVG Version: 6.00 Build 0)  -->

<svg
   xmlns:dc="http://purl.org/dc/elements/1.1/"
   xmlns:cc="http://creativecommons.org/ns#"
   xmlns:rdf="http://www.w3.org/1999/02/22-rdf-syntax-ns#"
   xmlns:svg="http://www.w3.org/2000/svg"
   xmlns="http://www.w3.org/2000/svg"
   xmlns:sodipodi="http://sodipodi.sourceforge.net/DTD/sodipodi-0.dtd"
   xmlns:inkscape="http://www.inkscape.org/namespaces/inkscape"
   version="1.1"
   id="Ebene_1"
   x="0px"
   y="0px"
   viewBox="0 0 534.99998 505.00001"
   xml:space="preserve"
   inkscape:version="0.91 r13725"
   sodipodi:docname="subcellular.svg"
   width="535"
   height="505"><metadata
     id="metadata193"><rdf:RDF><cc:Work
         rdf:about=""><dc:format>image/svg+xml</dc:format><dc:type
           rdf:resource="http://purl.org/dc/dcmitype/StillImage" /><dc:title></dc:title></cc:Work></rdf:RDF></metadata><defs
     id="defs191" /><sodipodi:namedview
     pagecolor="#ffffff"
     bordercolor="#666666"
     borderopacity="1"
     objecttolerance="10"
     gridtolerance="10"
     guidetolerance="10"
     inkscape:pageopacity="0"
     inkscape:pageshadow="2"
     inkscape:window-width="1920"
     inkscape:window-height="998"
     id="namedview189"
     showgrid="false"
     inkscape:zoom="0.79287756"
     inkscape:cx="53.12851"
     inkscape:cy="359.64602"
     inkscape:window-x="0"
     inkscape:window-y="0"
     inkscape:window-maximized="1"
     inkscape:current-layer="Ebene_1" /><style
     type="text/css"
     id="style3">
	.st0{fill:none;stroke:#FFFFFF;stroke-width:8;stroke-miterlimit:10;}
	.st1{fill:none;stroke:#FFFFFF;stroke-miterlimit:10;}
	.st2{fill:none;stroke:#FFFFFF;stroke-width:4.842;stroke-miterlimit:10;}
	.st3{fill:none;stroke:#FFFFFF;stroke-width:5.8864;stroke-miterlimit:10;}
	.st4{fill:none;stroke:#FFFFFF;stroke-width:2.3546;stroke-miterlimit:10;}
	.st5{fill:none;stroke:#FFFFFF;stroke-width:5.499;stroke-miterlimit:10;}
	.st6{fill:none;stroke:#FFFFFF;stroke-width:2.1996;stroke-miterlimit:10;}
	.st7{fill:none;stroke:#FFFFFF;stroke-width:5.6614;stroke-miterlimit:10;}
	.st8{fill:none;stroke:#FFFFFF;stroke-width:2.2646;stroke-miterlimit:10;}
	.st9{fill-rule:evenodd;clip-rule:evenodd;fill:none;stroke:#FFFFFF;stroke-width:1.1834;stroke-miterlimit:10;}
	.st10{fill:none;stroke:#FFFFFF;stroke-width:5.9168;stroke-linejoin:round;stroke-miterlimit:10;}
	.st11{fill:none;stroke:#FFFFFF;stroke-width:1.9368;stroke-miterlimit:10;}
	.st12{fill:none;stroke:#FFFFFF;stroke-width:0.9684;stroke-miterlimit:10;}
	.st13{fill-rule:evenodd;clip-rule:evenodd;fill:none;stroke:#F7E879;stroke-width:5;stroke-miterlimit:10;}
	.st14{fill:none;stroke:#F7E879;stroke-width:5;stroke-linejoin:round;stroke-miterlimit:10;}
	
		.st15{fill:none;stroke:#FFFFFF;stroke-width:5;stroke-linecap:round;stroke-linejoin:round;stroke-miterlimit:10;stroke-dasharray:6.6289;}
</style><path
     style="fill:none;stroke:#ffffff;stroke-width:8;stroke-miterlimit:10"
     inkscape:connector-curvature="0"
     id="path7"
     d="m 529.5,373.3 c 0,70 -76.2,126.7 -170.1,126.7 l -184.3,0 C 81.1,500 5,443.3 5,373.3 L 5,132.4 C 5,62.400002 81.2,5.7000002 175.1,5.7000002 l 184.3,0 c 94,0 170.1,56.7000018 170.1,126.6999998 l 0,240.9 z"
     class="st0" /><path
     style="fill:none;stroke:#ffffff;stroke-width:8;stroke-miterlimit:10"
     inkscape:connector-curvature="0"
     id="path9"
     d="m 513.5,366.7 c 0,65.9 -71.7,119.2 -160.1,119.2 l -173.3,0 C 91.7,485.9 20,432.5 20,366.7 L 20,140.1 C 20,74.200002 91.7,20.900002 180.1,20.900002 l 173.4,0 c 88.4,0 160.1,53.4 160.1,119.199998 l 0,226.6 z"
     class="st0" /><ellipse
     style="fill:none;stroke:#ffffff;stroke-miterlimit:10"
     id="ellipse11"
     ry="76.900002"
     rx="111.9"
     cy="230.10001"
     cx="253.80002"
     class="st1" /><circle
     style="fill:none;stroke:#ffffff;stroke-width:4.84200001;stroke-miterlimit:10"
     id="circle13"
     r="35.400002"
     cy="206.5"
     cx="228.80002"
     class="st2" /><path
     style="fill:none;stroke:#ffffff;stroke-width:5.88640022;stroke-miterlimit:10"
     inkscape:connector-curvature="0"
     id="path15"
     d="m 468.5,203 c 3.9,2.6 6.8,5.9 8.8,9.5 1,1.8 1.9,3.7 2.5,5.7 9.7,32.6 6.8,66.2 -4.4,97.8 -0.9,2.8 -1.8,5.5 -2.7,8.2 -0.9,2.7 -1.9,5.5 -3,8.2 -1.2,2.8 -2.6,5.5 -4.3,8 -1.7,2.6 -3.7,5 -6,7.2 -10.2,9.4 -25.5,1.5 -32.2,-7.5 -1.8,-2.5 -3,-5.1 -3.8,-7.8 -0.7,-2.7 -1,-5.4 -1,-8.3 0.8,-2.6 1.5,-5.2 2.2,-7.8 1,-2.6 2,-5.2 2.9,-7.8 0.9,-2.6 1.7,-5.3 2.4,-8 5.5,-21.6 5.6,-44.1 2.1,-66.3 -0.4,-2.8 -0.9,-5.5 -1.4,-8.3 0.1,-2.8 0.3,-5.6 0.8,-8.4 2,-12 14.7,-17.5 25.9,-15.2 5.8,0.4 11.2,0.8 11.2,0.8 z"
     class="st3" /><path
     style="fill:none;stroke:#ffffff;stroke-width:2.35459995;stroke-miterlimit:10"
     inkscape:connector-curvature="0"
     id="path17"
     d="m 465.3,214.5 c -1.1,4.1 4.2,8.4 7.4,3.9 0.7,2.9 -2.3,4.5 -0.7,7.5 0.8,1 2.7,1.2 3.7,0.3 -1.9,0.8 -4.9,2.4 -4.1,4.3 0.8,1.9 3.3,5 6.1,5.2 -1.9,0.8 -4.8,1.5 -5,3.3 -0.5,5.6 3.7,11.6 4.3,15.4 0.3,7.5 -1.4,15.8 1.8,22.7 -0.8,-1 -1.7,-2 -2.7,-1.2 -4.1,4.3 -0.8,9.3 1.6,14.2 -8.6,1.1 -9.5,11.4 -10,17.9 l -0.8,-1 c -0.3,3.7 0.4,6.6 3,8.7 -2.7,-1.2 -5.7,0.4 -6.8,2.2 -1.2,2.7 0.3,7.5 4.1,6.9 -1.7,-2 -3.5,-3.1 -5.4,-2.4 -2.1,2.6 -1.6,7.4 1,9.5 -1.6,-3 -4.4,-3.2 -6.1,-5.2 -3,2.5 -0.5,5.6 -1.7,8.3 0.2,-2.8 -1.5,-4.8 -2.5,-8 -1,-0.1 -2.7,2.2 -4.3,7.2 0.1,-5.1 0,-7.5 -1.1,-7.5 -1.1,0 -3.1,2.4 -5.5,6.9 1.6,-4.7 2.2,-7 1,-7.5 -2.8,1 -5.7,1.7 -8.6,3.3 1.2,-2.7 4.1,-3.4 5.2,-5.2 1.4,-5.5 -5.3,-3.3 -7.3,-2.5 2.1,-2.6 7.6,-1.2 8.8,-3.9 1.3,-3.6 -4.2,-5.1 -7,-6.2 2.4,-0.3 4.1,-1.3 5.6,-2.6 1.5,-1.3 2.8,-2.8 4.4,-4.1 0,0 -0.9,-0.1 -0.9,-0.1 3.2,-4.4 7.4,-9.7 5.1,-15.5 -0.8,-1 -2.3,-5.8 -7.4,-1.6 3.1,-3.5 7.9,-4 11.8,-6.5 2,-1.7 1.3,-4.6 0.6,-6.5 -1.6,-3 -4.7,-0.4 -6.5,-0.6 4.9,-2.4 8.9,-4.9 8.4,-10.5 0.5,-5.6 -5.9,-7.1 -11.5,-7.6 6.1,-5.1 3.2,-14.7 1,-21.5 -0.8,-1 -2.7,-1.2 -4.6,-1.3 2.9,-0.7 4.9,-2.4 4,-4.8 -0.1,-2.1 -1.3,-4.3 -3.1,-5.4 0.8,1 2.7,1.2 3.7,0.3 0.2,-2.8 0.4,-4.7 -0.3,-7.5 3.5,3.1 7.3,2.5 8.3,-2.6 1.3,5.7 3.8,6.3 6.6,0.6 1.8,6.3 4.3,6.2 6.4,0.7 z"
     class="st4" /><path
     style="fill:none;stroke:#ffffff;stroke-width:5.49900007;stroke-miterlimit:10"
     inkscape:connector-curvature="0"
     id="path19"
     d="m 33.8,162.9 c -1.8,-4.1 -2.4,-8.1 -2.1,-12 0.1,-2 0.4,-3.9 0.9,-5.8 8.8,-30.6 28,-55.499998 52.8,-74.699998 2.1,-1.7 4.2,-3.5 6.3,-5.1 2.1,-1.7 4.3,-3.3 6.5,-4.9 2.4,-1.6 4.8,-3 7.4,-4.1 2.6,-1.2 5.4,-2.1 8.4,-2.7 12.8,-2.3 20.8,11.7 21.5,22.2 0.2,2.9 -0.2,5.5 -1,8 -0.8,2.5 -1.9,4.8 -3.4,7 -1.9,1.7 -3.8,3.3 -5.7,5.1 -2.1,1.5 -4.2,3.1 -6.2,4.699998 -2,1.6 -4,3.3 -5.9,5.1 -15.2,14.2 -26.6,31.9 -35.1,51.1 -1.1,2.4 -2.1,4.8 -3.1,7.2 -1.5,2.2 -3.1,4.2 -4.9,6.2 -7.6,8.5 -20.4,6.4 -28,-1.1 -4.4,-3.1 -8.4,-6.2 -8.4,-6.2 z"
     class="st5" /><path
     style="fill:none;stroke:#ffffff;stroke-width:2.19959998;stroke-miterlimit:10"
     inkscape:connector-curvature="0"
     id="path21"
     d="m 42.1,155.5 c 2.9,-2.7 0.9,-8.7 -3.8,-6.8 0.9,-2.6 4.1,-2.4 4.3,-5.5 -0.2,-1.2 -1.5,-2.3 -2.8,-2.1 1.9,0.4 5.1,0.6 5.4,-1.3 0.4,-1.9 -0.1,-5.6 -2.2,-7.2 1.9,0.4 4.5,1.3 5.6,-0.1 3.2,-4.2 3,-11 4.4,-14.3 3.6,-6.1 9.1,-11.8 10.1,-18.699998 C 63.3,100.7 63.4,102 64.6,101.8 c 5.4,-1.3 5.3,-6.899998 5.9,-11.999998 7.3,3.4 13.2,-4.2 16.9,-9 l 0.2,1.2 c 2.1,-2.8 3,-5.4 2,-8.4 1.5,2.3 4.7,2.5 6.4,1.7 2.3,-1.5 3.6,-6.1 0.3,-7.5 0.3,2.5 1.2,4.2 3.1,4.6 3,-1 5,-5 4,-8 -0.2,3.1 1.9,4.7 2.2,7.2 3.7,-0.5 3.2,-4.2 5.5,-5.7 -1.6,2.1 -1.3,4.5 -2.1,7.6 0.7,0.6 3.2,-0.4 7,-3.5 -2.7,4 -3.8,5.9 -2.9,6.5 0.9,0.6 3.6,-0.3 7.8,-2.7 -3.6,2.8 -5.2,4.4 -4.5,5.4 2.7,0.7 5.3,1.6 8.4,1.8 -2.3,1.5 -4.9,0.6 -6.7,1.5 -3.9,3.6 2.5,5.3 4.5,5.7 -3,1 -6.6,-2.9 -8.9,-1.3 -2.8,2.2 0.8,6.1 2.3,8.4 -2,-1 -3.9,-1.1 -5.7,-0.8 -1.8,0.2 -3.6,0.8 -5.5,1 0,0 0.7,0.5 0.7,0.5 -4.7,1.9 -10.7,3.9 -11.8,9.599998 0.2,1.2 -1.1,5.8 5,5 -4.2,1.2 -8.2,-0.8 -12.6,-0.9 -2.5,0.3 -3.4,2.9 -3.7,4.8 -0.2,3.1 3.5,2.7 4.8,3.7 -5.1,-0.6 -9.4,-0.7 -11.9,4 -3.2,4.2 1.1,8.6 5.3,11.8 -7.4,0.9 -9.9,10 -11.6,16.4 0.2,1.2 1.5,2.3 2.9,3.4 -2.6,-0.9 -5.1,-0.6 -5.5,1.8 -1,1.7 -1.2,4 -0.3,5.8 -0.2,-1.2 -1.5,-2.3 -2.8,-2.1 -1.6,2.1 -2.7,3.5 -3.6,6.1 -1.2,-4.2 -4.5,-5.7 -7.8,-2.2 1.9,-5.2 0.2,-6.9 -4.9,-3.8 1.5,-6 -0.5,-7.2 -4.9,-3.9 z"
     class="st6" /><path
     style="fill:none;stroke:#ffffff;stroke-width:5.66139984;stroke-miterlimit:10"
     inkscape:connector-curvature="0"
     id="path23"
     d="m 380.1,440.9 c -1.7,4.2 -4.2,7.6 -7.2,10.2 -1.5,1.3 -3.2,2.5 -4.9,3.5 -28.7,15.7 -60.9,19.6 -92.9,15.5 -2.8,-0.2 -5.5,-0.5 -8.3,-0.9 -2.8,-0.3 -5.5,-0.7 -8.3,-1.2 -2.9,-0.6 -5.7,-1.4 -8.4,-2.5 -2.7,-1.1 -5.4,-2.5 -8,-4.2 -10.9,-7.7 -6.5,-23.7 0.6,-31.8 2,-2.2 4.2,-3.9 6.6,-5.1 2.4,-1.2 4.9,-2.1 7.6,-2.6 2.6,0.2 5.2,0.4 7.8,0.5 2.6,0.5 5.3,0.8 7.9,1.1 2.7,0.3 5.3,0.5 8,0.6 21.4,0.9 42.6,-3.6 62.8,-11.3 2.5,-0.9 5,-1.9 7.5,-3 2.7,-0.5 5.3,-0.8 8.1,-0.9 11.7,-0.5 19.4,10.3 19.5,21.3 0.9,5.6 1.6,10.8 1.6,10.8 z"
     class="st7" /><path
     style="fill:none;stroke:#ffffff;stroke-width:2.26460004;stroke-miterlimit:10"
     inkscape:connector-curvature="0"
     id="path25"
     d="m 368.7,440.2 c -4.1,-0.2 -7,5.6 -2.2,7.8 -2.6,1.2 -4.7,-1.2 -7.1,0.9 -0.8,1 -0.6,2.8 0.4,3.6 -1.1,-1.7 -3.2,-4.1 -4.9,-3 -1.7,1.1 -4,4.1 -3.7,6.8 -1.1,-1.7 -2.3,-4.2 -4.1,-4 -5.4,0.7 -10.2,5.8 -13.6,7.1 -7,1.8 -15.2,1.9 -21,6.2 0.8,-1 1.6,-2 0.6,-2.8 -4.9,-3 -8.9,1.1 -13.1,4.3 -2.8,-7.8 -12.6,-6.6 -18.8,-5.8 l 0.8,-1 c -3.6,0.4 -6.1,1.7 -7.6,4.6 0.6,-2.8 -1.6,-5.2 -3.4,-5.9 -2.8,-0.6 -7,1.8 -5.7,5.2 1.6,-2 2.2,-3.9 1.1,-5.6 -2.9,-1.5 -7.3,0 -8.7,2.9 2.5,-2.1 2.1,-4.8 3.7,-6.8 -3,-2.4 -5.4,0.7 -8.1,0.1 2.7,-0.3 4.2,-2.3 7.1,-3.9 -0.1,-1 -2.6,-2.1 -7.6,-2.6 4.9,-0.9 7.1,-1.5 6.9,-2.5 -0.2,-1 -2.8,-2.4 -7.6,-3.8 4.7,0.6 7,0.6 7.2,-0.6 -1.5,-2.4 -2.7,-5 -4.8,-7.5 2.8,0.6 4,3.1 5.9,3.8 5.5,0.2 2,-5.7 0.9,-7.4 2.9,1.5 2.7,6.9 5.5,7.5 3.7,0.5 3.9,-5 4.5,-7.8 0.7,2.2 2,3.6 3.5,4.8 1.5,1.2 3.2,2.1 4.7,3.3 0,0 -0.1,-0.9 -0.1,-0.9 4.8,2.1 10.6,5 15.6,1.7 0.8,-1 5,-3.3 0,-7.3 3.9,2.2 5.3,6.6 8.5,9.8 2,1.6 4.6,0.3 6.3,-0.8 2.5,-2.1 -0.5,-4.5 -0.8,-6.3 3.2,4.1 6.3,7.4 11.6,5.8 5.4,-0.7 5.5,-7 4.8,-12.4 6,4.7 14.5,0 20.4,-3.4 0.8,-1 0.6,-2.8 0.3,-4.6 1.2,2.6 3.2,4.1 5.3,2.8 2,-0.5 3.8,-2.1 4.5,-4 -0.8,1 -0.6,2.8 0.4,3.6 2.7,-0.3 4.5,-0.5 7,-1.8 -2.2,3.9 -0.9,7.4 4.1,7.3 -5.1,2.4 -5.2,4.8 0.8,6.3 -5.7,3.1 -5.2,5.4 0.5,6.3 z"
     class="st8" /><g
     id="g27"
     transform="translate(-137.9,-26.8)"><path
       style="clip-rule:evenodd;fill:none;fill-rule:evenodd;stroke:#ffffff;stroke-width:1.18340003;stroke-miterlimit:10"
       inkscape:connector-curvature="0"
       id="path29"
       d="m 535.8,129 c -14.7,6.9 -29.9,1.7 -44.9,-7.8 -15.3,-9.6 -19.8,-15.1 -30,-26.9 -3.5,-4.2 0.2,-13.1 7.9,-8.1 4.8,2.9 6.1,6.3 18.2,19.1 11.9,12.7 27.5,12.6 39.8,7.4 12.5,-5.2 19,-7.5 22,0.7 0.3,4.9 -1.5,10.6 -13,15.6"
       class="st9" /><path
       style="fill:none;stroke:#ffffff;stroke-width:5.91680002;stroke-linejoin:round;stroke-miterlimit:10"
       inkscape:connector-curvature="0"
       id="path31"
       d="m 535.8,129 c -14.7,6.9 -29.9,1.7 -44.9,-7.8 -15.3,-9.6 -19.8,-15.1 -30,-26.9 -3.5,-4.2 0.2,-13.1 7.9,-8.1 4.8,2.9 6.1,6.3 18.2,19.1 11.9,12.7 27.5,12.6 39.8,7.4 12.5,-5.2 19,-7.5 22,0.7 0.3,4.9 -1.5,10.6 -13,15.6"
       class="st10" /><path
       style="clip-rule:evenodd;fill:none;fill-rule:evenodd;stroke:#ffffff;stroke-width:1.18340003;stroke-miterlimit:10"
       inkscape:connector-curvature="0"
       id="path33"
       d="m 399.2,95.6 c 0.2,-11.7 13.9,-14.8 27.9,-6.9 14.1,7.7 35,35.1 60.1,47.6 24.8,12.9 36.2,17 60.8,7.3 24.1,-9.9 49.4,-27.1 57.3,-16.8 7.3,10 -7,9.9 -18.9,11.8 -12,2.3 -34.7,12.1 -47.9,14.9 -13.4,3.3 -35,1.6 -53.6,-9.5 -18.3,-10.8 -32.7,-23.7 -50.4,-27.7 -17.9,-4 -35.4,-8.4 -35.3,-20.7"
       class="st9" /><path
       style="fill:none;stroke:#ffffff;stroke-width:5.91680002;stroke-linejoin:round;stroke-miterlimit:10"
       inkscape:connector-curvature="0"
       id="path35"
       d="m 399.2,95.6 c 0.2,-11.7 13.9,-14.8 27.9,-6.9 14.1,7.7 35,35.1 60.1,47.6 24.8,12.9 36.2,17 60.8,7.3 24.1,-9.9 49.4,-27.1 57.3,-16.8 7.3,10 -7,9.9 -18.9,11.8 -12,2.3 -34.7,12.1 -47.9,14.9 -13.4,3.3 -35,1.6 -53.6,-9.5 -18.3,-10.8 -32.7,-23.7 -50.4,-27.7 -17.9,-4 -35.4,-8.4 -35.3,-20.7"
       class="st10" /><path
       style="clip-rule:evenodd;fill:none;fill-rule:evenodd;stroke:#ffffff;stroke-width:1.18340003;stroke-miterlimit:10"
       inkscape:connector-curvature="0"
       id="path37"
       d="m 415.7,79.7 c 15.1,0.3 30.9,19.3 42.9,31.4 12.1,11.9 19.5,5.8 11.8,-1.5 -7.6,-6.5 -20.8,-20.1 -30.2,-30.4 -7.9,-8.4 -16.4,-13 -25.3,-16.5 -9,-4 -23.1,-7.1 -23.3,5.2 0.2,9.4 11.1,13 24.1,11.8"
       class="st9" /><path
       style="fill:none;stroke:#ffffff;stroke-width:5.91680002;stroke-linejoin:round;stroke-miterlimit:10"
       inkscape:connector-curvature="0"
       id="path39"
       d="m 415.7,79.7 c 15.1,0.3 30.9,19.3 42.9,31.4 12.1,11.9 19.5,5.8 11.8,-1.5 -7.6,-6.5 -20.8,-20.1 -30.2,-30.4 -7.9,-8.4 -16.4,-13 -25.3,-16.5 -9,-4 -23.1,-7.1 -23.3,5.2 0.2,9.4 11.1,13 24.1,11.8"
       class="st10" /><path
       style="clip-rule:evenodd;fill:none;fill-rule:evenodd;stroke:#ffffff;stroke-width:1.18340003;stroke-miterlimit:10"
       inkscape:connector-curvature="0"
       id="path41"
       d="m 479.7,123 c 0.4,-4.7 27.8,13.2 38.2,13.1 10.2,-0.1 28.6,-1.2 46.9,-22.9 10,-10.3 14.2,-9.7 19.5,-2.6 4.7,7 -6.7,13.3 -15.1,19.6 -8.1,5.7 -31.4,16.2 -45.2,15.4 C 510.2,144.8 477.9,127 479.7,123"
       class="st9" /><path
       style="fill:none;stroke:#ffffff;stroke-width:5.91680002;stroke-linejoin:round;stroke-miterlimit:10"
       inkscape:connector-curvature="0"
       id="path43"
       d="m 479.7,123 c 0.4,-4.7 27.8,13.2 38.2,13.1 10.2,-0.1 28.6,-1.2 46.9,-22.9 10,-10.3 14.2,-9.7 19.5,-2.6 4.7,7 -6.7,13.3 -15.1,19.6 -8.1,5.7 -31.4,16.2 -45.2,15.4 C 510.2,144.8 477.9,127 479.7,123"
       class="st10" /><path
       style="clip-rule:evenodd;fill:none;fill-rule:evenodd;stroke:#ffffff;stroke-width:1.18340003;stroke-miterlimit:10"
       inkscape:connector-curvature="0"
       id="path45"
       d="m 495,88.5 c -5.9,11.7 0.7,19.1 9.2,20.8 8.6,1.3 14.6,2.3 18.8,-4.1 3.9,-6.9 -2.8,-21 -9.7,-22.7 -6.3,-1.5 -14,0.1 -18.3,6"
       class="st9" /><path
       style="fill:none;stroke:#ffffff;stroke-width:5.91680002;stroke-linejoin:round;stroke-miterlimit:10"
       inkscape:connector-curvature="0"
       id="path47"
       d="m 495,88.5 c -5.9,11.7 0.7,19.1 9.2,20.8 8.6,1.3 14.6,2.3 18.8,-4.1 3.9,-6.9 -2.8,-21 -9.7,-22.7 -6.3,-1.5 -14,0.1 -18.3,6"
       class="st10" /><path
       style="clip-rule:evenodd;fill:none;fill-rule:evenodd;stroke:#ffffff;stroke-width:1.18340003;stroke-miterlimit:10"
       inkscape:connector-curvature="0"
       id="path49"
       d="m 383.2,137 c -3.8,11.9 28,17.6 39.1,17.1 11.4,-0.7 31.2,4.3 45.9,12.8 14.8,8.4 23.4,15.4 41.3,21.7 17.9,6.2 27.9,8.8 32.1,-3.2 4.2,-12.2 -13.7,-12.7 -18.5,-10.6 -5.1,2.5 -14.6,1.6 -30.4,-4.3 -15.7,-6.2 -28,-14.5 -31.6,-15.9 -3.7,-1.6 -2.7,-9.7 7.4,-3 10.3,6.8 31.5,16.8 33.6,12.4 5.1,-6.2 -14.8,-14.8 -25.3,-18.8 -10.1,-4.5 -22.4,-17.1 -41.9,-20.2 -19.6,-2.7 -30.1,-9.3 -43.5,-19.3 -7.4,-6.5 -18.6,7.7 -3.8,16.5 15.5,9.4 34.6,10.7 47,14 4.3,0.9 5.1,3 2.8,7.5 -2.1,4.3 -8.9,-0.7 -14.3,-2.7 -5.2,-2.1 -37.4,-14 -39.9,-4"
       class="st9" /><path
       style="fill:none;stroke:#ffffff;stroke-width:5.91680002;stroke-linejoin:round;stroke-miterlimit:10"
       inkscape:connector-curvature="0"
       id="path51"
       d="m 383.2,137 c -3.8,11.9 28,17.6 39.1,17.1 11.4,-0.7 31.2,4.3 45.9,12.8 14.8,8.4 23.4,15.4 41.3,21.7 17.9,6.2 27.9,8.8 32.1,-3.2 4.2,-12.2 -13.7,-12.7 -18.5,-10.6 -5.1,2.5 -14.6,1.6 -30.4,-4.3 -15.7,-6.2 -28,-14.5 -31.6,-15.9 -3.7,-1.6 -2.7,-9.7 7.4,-3 10.3,6.8 31.5,16.8 33.6,12.4 5.1,-6.2 -14.8,-14.8 -25.3,-18.8 -10.1,-4.5 -22.4,-17.1 -41.9,-20.2 -19.6,-2.7 -30.1,-9.3 -43.5,-19.3 -7.4,-6.5 -18.6,7.7 -3.8,16.5 15.5,9.4 34.6,10.7 47,14 4.3,0.9 5.1,3 2.8,7.5 -2.1,4.3 -8.9,-0.7 -14.3,-2.7 -5.2,-2.1 -37.4,-14 -39.9,-4"
       class="st10" /><path
       style="clip-rule:evenodd;fill:none;fill-rule:evenodd;stroke:#ffffff;stroke-width:1.18340003;stroke-miterlimit:10"
       inkscape:connector-curvature="0"
       id="path53"
       d="m 446.5,73.4 c 1,-3.9 5.7,-6.1 10.6,-4.9 4.9,1.2 8,5.4 7,9.4 -1,3.9 -5.7,6.1 -10.6,4.9 -4.9,-1.2 -8,-5.5 -7,-9.4 l 0,0 z"
       class="st9" /><path
       style="fill:none;stroke:#ffffff;stroke-width:5.91680002;stroke-linejoin:round;stroke-miterlimit:10"
       inkscape:connector-curvature="0"
       id="path55"
       d="m 446.5,73.4 c 1,-3.9 5.7,-6.1 10.6,-4.9 4.9,1.2 8,5.4 7,9.4 -1,3.9 -5.7,6.1 -10.6,4.9 -4.9,-1.2 -8,-5.5 -7,-9.4 l 0,0 z"
       class="st10" /><path
       style="clip-rule:evenodd;fill:none;fill-rule:evenodd;stroke:#ffffff;stroke-width:1.18340003;stroke-miterlimit:10"
       inkscape:connector-curvature="0"
       id="path57"
       d="m 508.6,162.9 c 0.9,-3.7 5.3,-5.8 9.7,-4.7 4.4,1.1 7.2,5 6.3,8.7 -0.9,3.7 -5.3,5.8 -9.7,4.7 -4.4,-1.1 -7.2,-5 -6.3,-8.7 l 0,0 z"
       class="st9" /><path
       style="fill:none;stroke:#ffffff;stroke-width:5.91680002;stroke-linejoin:round;stroke-miterlimit:10"
       inkscape:connector-curvature="0"
       id="path59"
       d="m 508.6,162.9 c 0.9,-3.7 5.3,-5.8 9.7,-4.7 4.4,1.1 7.2,5 6.3,8.7 -0.9,3.7 -5.3,5.8 -9.7,4.7 -4.4,-1.1 -7.2,-5 -6.3,-8.7 l 0,0 z"
       class="st10" /><path
       style="clip-rule:evenodd;fill:none;fill-rule:evenodd;stroke:#ffffff;stroke-width:1.18340003;stroke-miterlimit:10"
       inkscape:connector-curvature="0"
       id="path61"
       d="m 541.3,85.6 c 1.5,-6.1 10.2,-9.3 19.4,-7 9.2,2.3 15.3,9.2 13.8,15.3 -1.5,6.1 -10.2,9.3 -19.4,7 -9.2,-2.3 -15.4,-9.2 -13.8,-15.3 l 0,0 z"
       class="st9" /><path
       style="fill:none;stroke:#ffffff;stroke-width:5.91680002;stroke-linejoin:round;stroke-miterlimit:10"
       inkscape:connector-curvature="0"
       id="path63"
       d="m 541.3,85.6 c 1.5,-6.1 10.2,-9.3 19.4,-7 9.2,2.3 15.3,9.2 13.8,15.3 -1.5,6.1 -10.2,9.3 -19.4,7 -9.2,-2.3 -15.4,-9.2 -13.8,-15.3 l 0,0 z"
       class="st10" /><path
       style="clip-rule:evenodd;fill:none;fill-rule:evenodd;stroke:#ffffff;stroke-width:1.18340003;stroke-miterlimit:10"
       inkscape:connector-curvature="0"
       id="path65"
       d="m 482.5,66 c 0.9,-3.7 5.2,-5.7 9.6,-4.6 4.4,1.1 7.2,5 6.3,8.6 -0.9,3.7 -5.2,5.7 -9.6,4.6 -4.4,-1.1 -7.2,-4.9 -6.3,-8.6 l 0,0 z"
       class="st9" /><path
       style="fill:none;stroke:#ffffff;stroke-width:5.91680002;stroke-linejoin:round;stroke-miterlimit:10"
       inkscape:connector-curvature="0"
       id="path67"
       d="m 482.5,66 c 0.9,-3.7 5.2,-5.7 9.6,-4.6 4.4,1.1 7.2,5 6.3,8.6 -0.9,3.7 -5.2,5.7 -9.6,4.6 -4.4,-1.1 -7.2,-4.9 -6.3,-8.6 l 0,0 z"
       class="st10" /><path
       style="clip-rule:evenodd;fill:none;fill-rule:evenodd;stroke:#ffffff;stroke-width:1.18340003;stroke-miterlimit:10"
       inkscape:connector-curvature="0"
       id="path69"
       d="m 542.5,166.2 c -3.3,10.2 9,12.2 21.5,9.8 12.6,-2.8 21.5,-4.7 24.7,-10.5 2.6,-6.4 -12.9,-12.5 -23.2,-10.7 -9.5,1.6 -19.8,5.8 -23,11.4"
       class="st9" /><path
       style="fill:none;stroke:#ffffff;stroke-width:5.91680002;stroke-linejoin:round;stroke-miterlimit:10"
       inkscape:connector-curvature="0"
       id="path71"
       d="m 542.5,166.2 c -3.3,10.2 9,12.2 21.5,9.8 12.6,-2.8 21.5,-4.7 24.7,-10.5 2.6,-6.4 -12.9,-12.5 -23.2,-10.7 -9.5,1.6 -19.8,5.8 -23,11.4"
       class="st10" /></g><g
     id="g73"
     transform="translate(-137.9,-26.8)"><circle
       style="fill:none;stroke:#ffffff;stroke-width:4.84200001;stroke-miterlimit:10"
       id="circle75"
       r="12.4"
       cy="133.89999"
       cx="288.10001"
       class="st2" /><circle
       style="fill:none;stroke:#ffffff;stroke-width:1.9368;stroke-miterlimit:10"
       id="circle77"
       r="7.1999998"
       cy="133.7"
       cx="288"
       class="st11" /></g><circle
     style="fill:none;stroke:#ffffff;stroke-width:0.9684;stroke-miterlimit:10"
     id="circle79"
     r="7.9000001"
     cy="214.70001"
     cx="91.400002"
     class="st12" /><circle
     style="fill:none;stroke:#ffffff;stroke-width:0.9684;stroke-miterlimit:10"
     id="circle81"
     r="7.9000001"
     cy="67.699997"
     cx="194.70001"
     class="st12" /><circle
     style="fill:none;stroke:#ffffff;stroke-width:0.9684;stroke-miterlimit:10"
     id="circle83"
     r="7.9000001"
     cy="412.20001"
     cx="423.10001"
     class="st12" /><circle
     style="fill:none;stroke:#ffffff;stroke-width:0.9684;stroke-miterlimit:10"
     id="circle85"
     r="7.9000001"
     cy="415.40002"
     cx="216.30002"
     class="st12" /><circle
     style="fill:none;stroke:#ffffff;stroke-width:0.9684;stroke-miterlimit:10"
     id="circle87"
     r="7.9000001"
     cy="172.39999"
     cx="431.00003"
     class="st12" /><circle
     style="fill:none;stroke:#ffffff;stroke-width:0.9684;stroke-miterlimit:10"
     id="circle89"
     r="7.9000001"
     cy="404.40002"
     cx="83.499992"
     class="st12" /><circle
     style="fill:none;stroke:#ffffff;stroke-width:0.9684;stroke-miterlimit:10"
     id="circle91"
     r="7.9000001"
     cy="353.30002"
     cx="111.6"
     class="st12" /><g
     id="g93"
     transform="translate(-137.9,-26.8)"><path
       style="clip-rule:evenodd;fill:none;fill-rule:evenodd;stroke:#f7e879;stroke-width:5;stroke-miterlimit:10"
       inkscape:connector-curvature="0"
       id="path95"
       d="m 519.6,246.2 c -0.3,-2 -2.1,-3.4 -3.8,-3 -0.2,0 -0.2,0 -0.2,0 -1.8,0.6 -2.8,2.4 -2.5,4.5 0.5,3 0.8,6.1 0.8,9.5 0,13.6 -5,26.4 -13.9,38 -1.2,1.5 -1,3.9 0.3,5.2 0,0 0,0 0.2,0 0.5,0.6 1.3,0.9 2.1,0.9 0.8,0 1.8,-0.4 2.5,-1.3 9.6,-12.5 15.4,-27.2 15.4,-42.8 0,-3.7 -0.3,-7.4 -0.9,-11 l 0,0 z"
       class="st13" /><path
       style="fill:none;stroke:#f7e879;stroke-width:5;stroke-linejoin:round;stroke-miterlimit:10"
       inkscape:connector-curvature="0"
       id="path97"
       d="m 519.6,246.2 c -0.3,-2 -2.1,-3.4 -3.8,-3 -0.2,0 -0.2,0 -0.2,0 -1.8,0.6 -2.8,2.4 -2.5,4.5 0.5,3 0.8,6.1 0.8,9.5 0,13.6 -5,26.4 -13.9,38 -1.2,1.5 -1,3.9 0.3,5.2 0,0 0,0 0.2,0 0.5,0.6 1.3,0.9 2.1,0.9 0.8,0 1.8,-0.4 2.5,-1.3 9.6,-12.5 15.4,-27.2 15.4,-42.8 0,-3.7 -0.3,-7.4 -0.9,-11 l 0,0 z"
       class="st14" /><path
       style="clip-rule:evenodd;fill:none;fill-rule:evenodd;stroke:#f7e879;stroke-width:5;stroke-miterlimit:10"
       inkscape:connector-curvature="0"
       id="path99"
       d="m 343.6,332.8 c -13.3,-4.1 -25.4,-9.7 -35.6,-16.6 -1.6,-0.9 -3.6,-0.4 -4.4,1.3 l 0,0.2 c -1,1.7 -0.5,3.9 1.2,5 10.7,7.3 23.4,13 37.2,17.3 0.3,0 0.7,0 0.8,0 1.5,0 2.8,-1.1 3.3,-2.6 0,-0.2 0,-0.2 0,-0.2 0.3,-1.8 -0.7,-3.8 -2.5,-4.4 l 0,0 z"
       class="st13" /><path
       style="fill:none;stroke:#f7e879;stroke-width:5;stroke-linejoin:round;stroke-miterlimit:10"
       inkscape:connector-curvature="0"
       id="path101"
       d="m 343.6,332.8 c -13.3,-4.1 -25.4,-9.7 -35.6,-16.6 -1.6,-0.9 -3.6,-0.4 -4.4,1.3 l 0,0.2 c -1,1.7 -0.5,3.9 1.2,5 10.7,7.3 23.4,13 37.2,17.3 0.3,0 0.7,0 0.8,0 1.5,0 2.8,-1.1 3.3,-2.6 0,-0.2 0,-0.2 0,-0.2 0.3,-1.8 -0.7,-3.8 -2.5,-4.4 l 0,0 z"
       class="st14" /><path
       style="clip-rule:evenodd;fill:none;fill-rule:evenodd;stroke:#f7e879;stroke-width:5;stroke-miterlimit:10"
       inkscape:connector-curvature="0"
       id="path103"
       d="m 394.8,340 c -0.8,0 -1.5,0 -2.3,0 -12.6,0 -24.8,-1.3 -36.3,-3.7 -1.8,-0.6 -3.4,0.7 -3.8,2.8 l 0,0 c -0.3,2.1 0.8,4.1 2.5,4.5 12,2.6 24.6,3.9 37.6,3.9 0.8,0 1.6,0 2.3,0 1.8,0 3.3,-1.7 3.3,-3.7 0,0 0,0 0,-0.2 0,-1.9 -1.5,-3.6 -3.3,-3.6 l 0,0 z"
       class="st13" /><path
       style="fill:none;stroke:#f7e879;stroke-width:5;stroke-linejoin:round;stroke-miterlimit:10"
       inkscape:connector-curvature="0"
       id="path105"
       d="m 394.8,340 c -0.8,0 -1.5,0 -2.3,0 -12.6,0 -24.8,-1.3 -36.3,-3.7 -1.8,-0.6 -3.4,0.7 -3.8,2.8 l 0,0 c -0.3,2.1 0.8,4.1 2.5,4.5 12,2.6 24.6,3.9 37.6,3.9 0.8,0 1.6,0 2.3,0 1.8,0 3.3,-1.7 3.3,-3.7 0,0 0,0 0,-0.2 0,-1.9 -1.5,-3.6 -3.3,-3.6 l 0,0 z"
       class="st14" /><path
       style="clip-rule:evenodd;fill:none;fill-rule:evenodd;stroke:#f7e879;stroke-width:5;stroke-miterlimit:10"
       inkscape:connector-curvature="0"
       id="path107"
       d="m 491.2,305.3 0,0 c -9,8.4 -20.2,15.9 -33.2,21.5 -1.6,0.7 -2.5,3 -1.8,4.9 l 0,0 c 0.5,1.5 1.6,2.4 3,2.4 0.5,0 0.8,0 1.3,-0.2 13.5,-6 25.3,-13.8 34.8,-23 1.5,-1.3 1.6,-3.5 0.5,-5.2 l 0,0 c -1.3,-1.5 -3.3,-1.7 -4.6,-0.4 l 0,0 z"
       class="st13" /><path
       style="fill:none;stroke:#f7e879;stroke-width:5;stroke-linejoin:round;stroke-miterlimit:10"
       inkscape:connector-curvature="0"
       id="path109"
       d="m 491.2,305.3 0,0 c -9,8.4 -20.2,15.9 -33.2,21.5 -1.6,0.7 -2.5,3 -1.8,4.9 l 0,0 c 0.5,1.5 1.6,2.4 3,2.4 0.5,0 0.8,0 1.3,-0.2 13.5,-6 25.3,-13.8 34.8,-23 1.5,-1.3 1.6,-3.5 0.5,-5.2 l 0,0 c -1.3,-1.5 -3.3,-1.7 -4.6,-0.4 l 0,0 z"
       class="st14" /><path
       style="clip-rule:evenodd;fill:none;fill-rule:evenodd;stroke:#f7e879;stroke-width:5;stroke-miterlimit:10"
       inkscape:connector-curvature="0"
       id="path111"
       d="m 445.7,331.5 0,0 c -11.6,4 -24.4,6.6 -38,7.9 -1.8,0 -3.1,1.9 -2.9,4 l 0,0 c 0.2,1.9 1.5,3.4 3.3,3.4 l 0.2,0 c 13.9,-1.1 27.2,-4 39.3,-8.1 1.8,-0.6 2.8,-2.6 2.3,-4.7 l 0,0 c -0.8,-1.9 -2.6,-3.1 -4.2,-2.5 l 0,0 z"
       class="st13" /><path
       style="fill:none;stroke:#f7e879;stroke-width:5;stroke-linejoin:round;stroke-miterlimit:10"
       inkscape:connector-curvature="0"
       id="path113"
       d="m 445.7,331.5 0,0 c -11.6,4 -24.4,6.6 -38,7.9 -1.8,0 -3.1,1.9 -2.9,4 l 0,0 c 0.2,1.9 1.5,3.4 3.3,3.4 l 0.2,0 c 13.9,-1.1 27.2,-4 39.3,-8.1 1.8,-0.6 2.8,-2.6 2.3,-4.7 l 0,0 c -0.8,-1.9 -2.6,-3.1 -4.2,-2.5 l 0,0 z"
       class="st14" /><path
       style="clip-rule:evenodd;fill:none;fill-rule:evenodd;stroke:#f7e879;stroke-width:5;stroke-miterlimit:10"
       inkscape:connector-curvature="0"
       id="path115"
       d="m 297.4,308.3 0,0 c -11,-9.5 -19,-20.9 -23,-32.9 -0.7,-1.9 -2.5,-3 -4.1,-2.2 l -0.2,0 c -1.6,0.7 -2.5,3 -2,4.9 4.6,13.6 13.5,26 25.3,36.2 0.7,0.6 1.3,0.7 2,0.7 1,0 2,-0.4 2.6,-1.5 l 0,0 c 1.2,-1.6 0.9,-3.9 -0.6,-5.2 l 0,0 z"
       class="st13" /><path
       style="fill:none;stroke:#f7e879;stroke-width:5;stroke-linejoin:round;stroke-miterlimit:10"
       inkscape:connector-curvature="0"
       id="path117"
       d="m 297.4,308.3 0,0 c -11,-9.5 -19,-20.9 -23,-32.9 -0.7,-1.9 -2.5,-3 -4.1,-2.2 l -0.2,0 c -1.6,0.7 -2.5,3 -2,4.9 4.6,13.6 13.5,26 25.3,36.2 0.7,0.6 1.3,0.7 2,0.7 1,0 2,-0.4 2.6,-1.5 l 0,0 c 1.2,-1.6 0.9,-3.9 -0.6,-5.2 l 0,0 z"
       class="st14" /><path
       style="clip-rule:evenodd;fill:none;fill-rule:evenodd;stroke:#f7e879;stroke-width:5;stroke-miterlimit:10"
       inkscape:connector-curvature="0"
       id="path119"
       d="m 271.5,261.9 c -0.2,-1.5 -0.2,-3.2 -0.2,-4.7 0,-12.1 3.8,-23.7 10.8,-34.3 1.1,-1.7 0.8,-3.9 -0.5,-5.2 l -0.2,0 c -1.3,-1.3 -3.4,-0.9 -4.6,0.7 -7.7,11.6 -12.1,24.8 -12.1,38.8 0,1.9 0,3.5 0.2,5.4 0.2,2 1.6,3.4 3.3,3.4 0.2,0 0.2,0 0.3,0 0,0 0,0 0.2,0 1.7,-0.2 3,-2.1 2.8,-4.1 l 0,0 z"
       class="st13" /><path
       style="fill:none;stroke:#f7e879;stroke-width:5;stroke-linejoin:round;stroke-miterlimit:10"
       inkscape:connector-curvature="0"
       id="path121"
       d="m 271.5,261.9 c -0.2,-1.5 -0.2,-3.2 -0.2,-4.7 0,-12.1 3.8,-23.7 10.8,-34.3 1.1,-1.7 0.8,-3.9 -0.5,-5.2 l -0.2,0 c -1.3,-1.3 -3.4,-0.9 -4.6,0.7 -7.7,11.6 -12.1,24.8 -12.1,38.8 0,1.9 0,3.5 0.2,5.4 0.2,2 1.6,3.4 3.3,3.4 0.2,0 0.2,0 0.3,0 0,0 0,0 0.2,0 1.7,-0.2 3,-2.1 2.8,-4.1 l 0,0 z"
       class="st14" /><path
       style="clip-rule:evenodd;fill:none;fill-rule:evenodd;stroke:#f7e879;stroke-width:5;stroke-miterlimit:10"
       inkscape:connector-curvature="0"
       id="path123"
       d="m 385.7,174.7 c 2.3,0 4.5,-0.2 6.8,-0.2 11.1,0 22,1.1 32.2,3 0.2,0 0.3,0 0.5,0 1.5,0 3,-1.1 3.1,-3 0.2,0 0.2,0 0.2,0 0.2,-2 -1,-4.1 -2.8,-4.2 -10.6,-2 -21.6,-3.1 -33.2,-3.1 -2.3,0 -4.6,0.2 -6.9,0.2 -1.8,0.2 -3.3,1.8 -3.1,3.9 l 0,0 c -0.1,1.9 1.4,3.4 3.2,3.4 l 0,0 z"
       class="st13" /><path
       style="fill:none;stroke:#f7e879;stroke-width:5;stroke-linejoin:round;stroke-miterlimit:10"
       inkscape:connector-curvature="0"
       id="path125"
       d="m 385.7,174.7 c 2.3,0 4.5,-0.2 6.8,-0.2 11.1,0 22,1.1 32.2,3 0.2,0 0.3,0 0.5,0 1.5,0 3,-1.1 3.1,-3 0.2,0 0.2,0 0.2,0 0.2,-2 -1,-4.1 -2.8,-4.2 -10.6,-2 -21.6,-3.1 -33.2,-3.1 -2.3,0 -4.6,0.2 -6.9,0.2 -1.8,0.2 -3.3,1.8 -3.1,3.9 l 0,0 c -0.1,1.9 1.4,3.4 3.2,3.4 l 0,0 z"
       class="st14" /><path
       style="clip-rule:evenodd;fill:none;fill-rule:evenodd;stroke:#f7e879;stroke-width:5;stroke-miterlimit:10"
       inkscape:connector-curvature="0"
       id="path127"
       d="m 484.1,203.2 c 11.6,9.1 20.3,19.9 25.1,31.4 0.7,1.3 1.8,2 3,2 0.5,0 1,0 1.3,-0.2 0,-0.2 0.2,-0.2 0.2,-0.2 1.7,-0.7 2.3,-3 1.5,-4.8 -5.4,-13 -14.9,-24.7 -27.2,-34.3 -1.5,-1.1 -3.6,-0.7 -4.6,0.9 0,0.2 0,0.2 0,0.2 -1.1,1.7 -0.8,3.9 0.7,5 l 0,0 z"
       class="st13" /><path
       style="fill:none;stroke:#f7e879;stroke-width:5;stroke-linejoin:round;stroke-miterlimit:10"
       inkscape:connector-curvature="0"
       id="path129"
       d="m 484.1,203.2 c 11.6,9.1 20.3,19.9 25.1,31.4 0.7,1.3 1.8,2 3,2 0.5,0 1,0 1.3,-0.2 0,-0.2 0.2,-0.2 0.2,-0.2 1.7,-0.7 2.3,-3 1.5,-4.8 -5.4,-13 -14.9,-24.7 -27.2,-34.3 -1.5,-1.1 -3.6,-0.7 -4.6,0.9 0,0.2 0,0.2 0,0.2 -1.1,1.7 -0.8,3.9 0.7,5 l 0,0 z"
       class="st14" /><path
       style="clip-rule:evenodd;fill:none;fill-rule:evenodd;stroke:#f7e879;stroke-width:5;stroke-miterlimit:10"
       inkscape:connector-curvature="0"
       id="path131"
       d="m 437.4,180.4 c 13.3,3.5 25.4,8.7 35.8,15.2 0.5,0.2 1,0.4 1.5,0.4 1.1,0 2.3,-0.7 2.9,-1.9 l 0,0 c 0.8,-1.9 0.3,-4.1 -1.3,-5 -11,-6.9 -23.7,-12.2 -37.5,-15.9 -1.8,-0.6 -3.6,0.7 -3.9,2.8 l 0,0 c -0.5,1.8 0.7,3.9 2.5,4.4 l 0,0 z"
       class="st13" /><path
       style="fill:none;stroke:#f7e879;stroke-width:5;stroke-linejoin:round;stroke-miterlimit:10"
       inkscape:connector-curvature="0"
       id="path133"
       d="m 437.4,180.4 c 13.3,3.5 25.4,8.7 35.8,15.2 0.5,0.2 1,0.4 1.5,0.4 1.1,0 2.3,-0.7 2.9,-1.9 l 0,0 c 0.8,-1.9 0.3,-4.1 -1.3,-5 -11,-6.9 -23.7,-12.2 -37.5,-15.9 -1.8,-0.6 -3.6,0.7 -3.9,2.8 l 0,0 c -0.5,1.8 0.7,3.9 2.5,4.4 l 0,0 z"
       class="st14" /><path
       style="clip-rule:evenodd;fill:none;fill-rule:evenodd;stroke:#f7e879;stroke-width:5;stroke-miterlimit:10"
       inkscape:connector-curvature="0"
       id="path135"
       d="m 334.1,184.7 c 0.3,0 0.7,-0.2 1,-0.2 11.7,-4.2 24.5,-7.4 38,-8.9 1.8,-0.2 3.1,-1.8 3,-3.9 l 0,-0.2 c -0.2,-2 -1.8,-3.5 -3.6,-3.3 -14,1.7 -27.1,4.8 -39.3,9.2 -1.6,0.6 -2.6,2.6 -2.1,4.6 l 0,0 c 0.4,1.7 1.7,2.7 3,2.7 l 0,0 z"
       class="st13" /><path
       style="fill:none;stroke:#f7e879;stroke-width:5;stroke-linejoin:round;stroke-miterlimit:10"
       inkscape:connector-curvature="0"
       id="path137"
       d="m 334.1,184.7 c 0.3,0 0.7,-0.2 1,-0.2 11.7,-4.2 24.5,-7.4 38,-8.9 1.8,-0.2 3.1,-1.8 3,-3.9 l 0,-0.2 c -0.2,-2 -1.8,-3.5 -3.6,-3.3 -14,1.7 -27.1,4.8 -39.3,9.2 -1.6,0.6 -2.6,2.6 -2.1,4.6 l 0,0 c 0.4,1.7 1.7,2.7 3,2.7 l 0,0 z"
       class="st14" /><path
       style="clip-rule:evenodd;fill:none;fill-rule:evenodd;stroke:#f7e879;stroke-width:5;stroke-miterlimit:10"
       inkscape:connector-curvature="0"
       id="path139"
       d="m 290.9,212.4 0,0 c 8.3,-8.9 19.3,-16.7 32.1,-22.8 1.6,-0.7 2.5,-3 1.8,-4.8 l 0,0 c -0.8,-1.9 -2.6,-2.8 -4.4,-2 -13.3,6.5 -24.9,14.6 -34,24.3 -1.3,1.5 -1.3,3.7 -0.2,5.2 l 0.2,0.2 c 0.7,0.7 1.5,1.1 2.3,1.1 0.7,-0.1 1.5,-0.4 2.2,-1.2 l 0,0 z"
       class="st13" /><path
       style="fill:none;stroke:#f7e879;stroke-width:5;stroke-linejoin:round;stroke-miterlimit:10"
       inkscape:connector-curvature="0"
       id="path141"
       d="m 290.9,212.4 0,0 c 8.3,-8.9 19.3,-16.7 32.1,-22.8 1.6,-0.7 2.5,-3 1.8,-4.8 l 0,0 c -0.8,-1.9 -2.6,-2.8 -4.4,-2 -13.3,6.5 -24.9,14.6 -34,24.3 -1.3,1.5 -1.3,3.7 -0.2,5.2 l 0.2,0.2 c 0.7,0.7 1.5,1.1 2.3,1.1 0.7,-0.1 1.5,-0.4 2.2,-1.2 l 0,0 z"
       class="st14" /></g><g
     id="g143"
     transform="translate(-137.9,-26.8)"><path
       style="fill:none;stroke:#ffffff;stroke-width:5;stroke-linecap:round;stroke-linejoin:round;stroke-miterlimit:10;stroke-dasharray:6.6289"
       inkscape:connector-curvature="0"
       id="path145"
       d="m 519.4,311.9 c -2,-2.1 -5.8,-1.7 -8.6,0.7 -71.6,57.8 -165.9,57.8 -237.5,0 -2.8,-2.4 -6.6,-2.8 -8.6,-0.7 l 0,0 c -2,2.1 -1.2,6 1.7,8.6 75.3,61.2 175.8,61.2 251.2,0 3,-2.6 3.8,-6.5 1.8,-8.6 l 0,0 z"
       class="st15" /></g><g
     id="g147"
     transform="translate(-137.9,-26.8)"><path
       style="fill:none;stroke:#ffffff;stroke-width:5;stroke-linecap:round;stroke-linejoin:round;stroke-miterlimit:10;stroke-dasharray:6.6289"
       inkscape:connector-curvature="0"
       id="path149"
       d="m 552.1,311.5 c 2.1,2 2.4,5 0.7,6.7 -43,40.6 -92.9,63.8 -151.6,70.5 -2.4,0.2 -4.4,-2 -4.6,-4.9 l 0,0 c -0.2,-2.9 1.5,-5.3 3.7,-5.5 56.2,-6.4 104,-28.7 145.1,-67.5 1.7,-1.6 4.6,-1.3 6.7,0.7 l 0,0 z"
       class="st15" /></g><g
     id="g151"
     transform="translate(-137.9,-26.8)"><path
       style="fill:none;stroke:#ffffff;stroke-width:5;stroke-linecap:round;stroke-linejoin:round;stroke-miterlimit:10;stroke-dasharray:6.6289"
       inkscape:connector-curvature="0"
       id="path153"
       d="m 363.4,378.1 c -0.5,2.8 -2.7,4.8 -5.1,4.4 C 300.5,370.3 253,342.5 214,298 c -1.5,-1.8 -0.9,-4.8 1.4,-6.6 l 0,0 c 2.2,-1.8 5.2,-1.8 6.7,-0.1 37.3,42.5 82.8,69.1 138.2,80.8 2.1,0.5 3.6,3.1 3.1,6 l 0,0 z"
       class="st15" /></g><g
     id="g155"
     transform="translate(-137.9,-26.8)"><path
       style="fill:none;stroke:#ffffff;stroke-width:5;stroke-linecap:round;stroke-linejoin:round;stroke-miterlimit:10;stroke-dasharray:6.6289"
       inkscape:connector-curvature="0"
       id="path157"
       d="m 452.4,398.3 c 0.6,2.8 -0.8,5.5 -3.1,6 -58.3,9.7 -112.7,1.2 -165.2,-26 -2.1,-1.1 -2.6,-4.1 -1.1,-6.6 l 0,0 c 1.4,-2.5 4.2,-3.6 6.2,-2.5 50.2,26 102.4,34.2 158.1,24.9 2.2,-0.5 4.5,1.4 5.1,4.2 l 0,0 z"
       class="st15" /></g><g
     id="g159"
     transform="translate(-137.9,-26.8)"><circle
       style="fill:none;stroke:#ffffff;stroke-width:4.84200001;stroke-miterlimit:10"
       id="circle161"
       r="12.4"
       cy="213.5"
       cx="237.10001"
       class="st2" /><circle
       style="fill:none;stroke:#ffffff;stroke-width:1.9368;stroke-miterlimit:10"
       id="circle163"
       r="7.1999998"
       cy="213.39999"
       cx="237"
       class="st11" /></g><g
     id="g165"
     transform="translate(-137.9,-26.8)"><circle
       style="fill:none;stroke:#ffffff;stroke-width:4.84200001;stroke-miterlimit:10"
       id="circle167"
       r="12.4"
       cy="387.5"
       cx="527.79999"
       class="st2" /><circle
       style="fill:none;stroke:#ffffff;stroke-width:1.9368;stroke-miterlimit:10"
       id="circle169"
       r="7.1999998"
       cy="387.29999"
       cx="527.59998"
       class="st11" /></g><g
     id="g171"
     transform="translate(-137.9,-26.8)"><circle
       style="fill:none;stroke:#ffffff;stroke-width:4.84200001;stroke-miterlimit:10"
       id="circle173"
       r="12.4"
       cy="342.89999"
       cx="203.7"
       class="st2" /><circle
       style="fill:none;stroke:#ffffff;stroke-width:1.9368;stroke-miterlimit:10"
       id="circle175"
       r="7.1999998"
       cy="342.79999"
       cx="203.5"
       class="st11" /></g><g
     id="g177"
     transform="translate(-137.9,-26.8)"><circle
       style="fill:none;stroke:#ffffff;stroke-width:4.84200001;stroke-miterlimit:10"
       id="circle179"
       r="12.4"
       cy="446.89999"
       cx="287.5"
       class="st2" /><circle
       style="fill:none;stroke:#ffffff;stroke-width:1.9368;stroke-miterlimit:10"
       id="circle181"
       r="7.1999998"
       cy="446.79999"
       cx="287.39999"
       class="st11" /></g><g
     id="g183"
     transform="translate(-137.9,-26.8)"><circle
       style="fill:none;stroke:#ffffff;stroke-width:4.84200001;stroke-miterlimit:10"
       id="circle185"
       r="12.4"
       cy="236.60001"
       cx="542.20001"
       class="st2" /><circle
       style="fill:none;stroke:#ffffff;stroke-width:1.9368;stroke-miterlimit:10"
       id="circle187"
       r="7.1999998"
       cy="236.5"
       cx="542.09998"
       class="st11" /></g></svg>